<svg width="118" height="175" viewBox="0 0 118 175" fill="none" xmlns="http://www.w3.org/2000/svg">
<g filter="url(#filter0_d_514_125376)">
<path d="M114 57.2165C114 87.2655 59.1039 168.827 59.1039 168.827C59.1039 168.827 4.20752 87.2655 4.20752 57.2165C4.20752 27.1675 28.7748 2.82715 59.0812 2.82715C89.3876 2.82715 113.978 27.19 113.978 57.2165H114Z" fill="#BF2028"/>
<path d="M107.989 56.6322C107.989 83.31 86.1667 104.953 59.2176 104.953C32.2685 104.953 10.4688 83.31 10.4688 56.6322C10.4688 29.9544 32.2912 8.31104 59.2176 8.31104C86.144 8.31104 107.989 29.9319 107.989 56.6322Z" fill="#BF2028"/>
<g filter="url(#filter1_i_514_125376)">
<g filter="url(#filter2_i_514_125376)">
<path d="M41.3936 52.5925C41.5213 52.0319 42.0597 51.1286 42.2056 52.904C42.3516 54.7105 42.087 56.1121 41.6308 55.458C41.1746 54.8039 41.202 53.4335 41.3936 52.5925Z" fill="white"/>
</g>
<path d="M26.7858 60.3329C27.1216 61.1668 27.7225 61.6434 28.288 62.067C28.9596 62.6229 32.8302 65.0718 39.175 67.3354C41.8526 68.0634 43.3018 68.3547 44.053 68.5665C47.7291 69.0695 46.5008 68.9239 48.7453 71.5978C49.9206 72.6171 51.2285 73.3848 52.4214 73.0539C53.9591 73.0539 55.4967 72.167 55.3464 71.2536C55.2404 70.1549 53.9149 69.5593 52.987 68.4473C53.5349 68.2752 61.8769 67.4413 65.7739 66.475C66.6311 65.9852 69.0435 68.0502 70.0863 67.4281C70.8197 66.9912 72.0481 65.7734 71.2881 65.3366C70.2365 64.7277 69.671 64.0526 70.8993 63.6687C71.7653 63.2848 73.6034 62.2788 74.3456 61.9875C75.0879 61.6963 76.493 61.3654 77.6064 61.0874C78.932 60.7565 80.0542 60.9418 80.5049 60.9153C82.6081 61.0874 83.4388 61.9875 83.9336 62.9406C84.3401 63.7481 85.648 65.6278 86.6819 66.2367C88.4051 67.2427 90.8705 67.1765 91.3301 67.1368C91.2594 66.475 90.9236 64.7674 90.0487 63.0333C89.1739 61.2992 88.7232 60.4653 87.9279 58.665C86.7261 57.0103 88.193 55.1306 88.5288 54.6144C90.2785 51.6228 90.5789 50.9477 91.604 47.2545C86.7614 47.1486 83.6862 51.08 81.963 53.3833C80.6463 55.1306 78.0129 54.0055 76.3604 53.701C74.708 53.3966 73.7094 52.6023 70.9081 51.4904C67.3292 50.1799 65.7562 49.7298 63.3526 48.9488C60.949 48.4723 59.1993 47.8237 57.2729 47.4265C58.1742 44.7261 58.8016 44.2496 58.6956 43.2171C58.6956 43.2171 55.6646 42.9391 53.8265 42.317C51.9884 41.6948 50.9015 39.7886 50.0708 40.1858C48.8955 40.702 49.0281 41.1124 46.3594 46.3411C43.7525 47.0029 41.4991 47.6648 39.1927 48.3399C34.4738 49.8622 31.213 52.0993 30.3912 52.6156C29.6489 53.198 28.8624 53.6745 28.1643 54.4158C27.5811 55.0115 26.9095 55.6998 26.7416 56.8118C26.5913 57.3545 26.9095 57.7384 27.1392 58.0693C27.5634 58.5194 28.0671 58.7179 28.5266 59.0224C28.5266 59.0753 28.5089 59.1812 28.5001 59.2342C27.9699 59.3533 27.4574 59.0489 26.9183 59.0224C26.5825 59.221 26.4941 59.9622 26.7592 60.3329H26.7858ZM32.2469 56.3485C32.2469 55.4219 32.7506 54.6673 33.3692 54.6673C33.9878 54.6673 34.4915 55.4219 34.4915 56.3485C34.4915 57.2751 33.9878 58.0296 33.3692 58.0296C32.7506 58.0296 32.2469 57.2751 32.2469 56.3485Z" fill="white"/>
</g>
</g>
<defs>
<filter id="filter0_d_514_125376" x="0.20752" y="0.827148" width="117.792" height="174" filterUnits="userSpaceOnUse" color-interpolation-filters="sRGB">
<feFlood flood-opacity="0" result="BackgroundImageFix"/>
<feColorMatrix in="SourceAlpha" type="matrix" values="0 0 0 0 0 0 0 0 0 0 0 0 0 0 0 0 0 0 127 0" result="hardAlpha"/>
<feOffset dy="2"/>
<feGaussianBlur stdDeviation="2"/>
<feComposite in2="hardAlpha" operator="out"/>
<feColorMatrix type="matrix" values="0 0 0 0 0.22 0 0 0 0 0.22 0 0 0 0 0.22 0 0 0 0.44 0"/>
<feBlend mode="normal" in2="BackgroundImageFix" result="effect1_dropShadow_514_125376"/>
<feBlend mode="normal" in="SourceGraphic" in2="effect1_dropShadow_514_125376" result="shape"/>
</filter>
<filter id="filter1_i_514_125376" x="26.604" y="24.1318" width="66" height="66" filterUnits="userSpaceOnUse" color-interpolation-filters="sRGB">
<feFlood flood-opacity="0" result="BackgroundImageFix"/>
<feBlend mode="normal" in="SourceGraphic" in2="BackgroundImageFix" result="shape"/>
<feColorMatrix in="SourceAlpha" type="matrix" values="0 0 0 0 0 0 0 0 0 0 0 0 0 0 0 0 0 0 127 0" result="hardAlpha"/>
<feOffset dx="2" dy="2"/>
<feGaussianBlur stdDeviation="0.5"/>
<feComposite in2="hardAlpha" operator="arithmetic" k2="-1" k3="1"/>
<feColorMatrix type="matrix" values="0 0 0 0 0 0 0 0 0 0 0 0 0 0 0 0 0 0 0.22 0"/>
<feBlend mode="normal" in2="shape" result="effect1_innerShadow_514_125376"/>
</filter>
<filter id="filter2_i_514_125376" x="41.2627" y="51.8589" width="0.983398" height="3.7627" filterUnits="userSpaceOnUse" color-interpolation-filters="sRGB">
<feFlood flood-opacity="0" result="BackgroundImageFix"/>
<feBlend mode="normal" in="SourceGraphic" in2="BackgroundImageFix" result="shape"/>
<feColorMatrix in="SourceAlpha" type="matrix" values="0 0 0 0 0 0 0 0 0 0 0 0 0 0 0 0 0 0 127 0" result="hardAlpha"/>
<feOffset dx="2" dy="2"/>
<feGaussianBlur stdDeviation="0.5"/>
<feComposite in2="hardAlpha" operator="arithmetic" k2="-1" k3="1"/>
<feColorMatrix type="matrix" values="0 0 0 0 0 0 0 0 0 0 0 0 0 0 0 0 0 0 0.22 0"/>
<feBlend mode="normal" in2="shape" result="effect1_innerShadow_514_125376"/>
</filter>
</defs>
</svg>
