<svg width="65" height="53" viewBox="0 0 65 53" fill="none" xmlns="http://www.w3.org/2000/svg">
<path fill-rule="evenodd" clip-rule="evenodd" d="M7.45598 24.1007C6.60915 28.4801 5.71393 33.1891 0.608751 35.3788C0.245824 35.52 0.100631 35.9438 0.245801 36.2735C0.390972 36.6266 0.826497 36.7679 1.16523 36.6266C6.53655 34.3192 7.91568 29.775 8.8109 25.3486C8.66573 28.174 8.3512 31.3055 6.65754 34.8137C5.20583 37.8274 4.21382 38.3454 2.37499 40.5586C1.47977 41.6417 1.50396 42.6777 1.23781 43.9962C0.899079 45.5973 -0.0687133 48.4227 0.00387215 49.8354C0.0280673 50.4475 0.197426 50.942 0.487768 51.2952C1.06845 51.978 2.32661 52.0721 3.14925 52.025C4.84291 51.9544 5.25423 50.8713 3.75413 49.6941C3.3912 49.3645 3.24601 48.9642 3.24601 48.3049C3.24601 46.7274 4.11704 44.7496 4.91548 43.4311C7.09305 39.8758 9.87547 38.3925 12.9483 35.779C12.6579 37.2859 12.0531 37.9452 11.424 39.5698C11.0127 40.6057 11.303 41.5946 11.6175 42.8661C11.8353 43.7137 12.1498 44.7967 12.3676 45.5502C12.8273 47.1277 12.7063 49.7647 15.513 50.424C18.8035 50.9891 18.997 49.1761 16.6259 48.0459C16.1178 47.7399 15.9001 47.2454 15.6097 46.6097C14.9081 45.1028 14.8839 43.5959 15.1016 42.3245C15.5371 37.1211 20.7149 34.5311 22.9409 30.2459C28.5299 31.1171 30.272 32.7182 39.5387 33.2362C40.2162 38.2277 40.3856 40.8176 39.95 45.7856C39.9016 46.3272 40.0952 46.6097 40.4339 46.7274C40.5791 50.5182 41.6437 51.6719 44.0148 51.9073C46.6279 52.0486 46.9182 50.2356 43.8455 48.6817C43.0712 44.0904 43.1922 39.3343 44.3294 34.7901C44.7891 37.8274 44.6923 40.1348 44.5955 43.1721C44.5955 43.7137 44.7891 43.9962 45.1278 44.1139C45.3214 47.528 46.6037 49.0584 48.9748 49.2938C51.6847 49.5764 51.7331 47.4338 48.7329 46.0211C47.4506 40.2526 47.3779 35.4729 49.0958 29.7986C53.4751 25.3251 52.6041 17.1079 56.6689 12.5872C58.6287 12.7756 60.903 15.1065 62.3547 13.1052C62.9354 12.8698 63.4919 12.446 63.8549 11.7396C64.4839 11.2687 64.8468 10.8213 64.9678 10.4446C65.113 9.92664 64.7743 9.47928 63.8065 8.89066C62.6935 8.20786 61.6531 7.40733 60.6853 6.48907C60.1772 3.42823 57.5157 1.56817 54.6607 1.63881C54.6607 1.33273 54.7091 0.744101 54.5881 0.508651C54.4671 0.273202 54.2494 0.202567 53.9832 0.273202C53.6929 0.343836 53.2574 0.673466 52.967 0.861826C52.3138 1.26209 51.5879 1.56817 50.7411 1.78008C49.7975 1.94489 49.4103 2.48643 49.6523 3.02796C49.7733 3.28696 50.0394 3.49886 50.233 3.68722C47.136 7.10124 46.9666 10.0444 42.4421 11.9751C36.1514 14.5179 29.0622 14.1176 23.0376 13.8586C19.5051 13.7174 13.7225 13.1758 10.9401 15.6716C8.88346 17.5081 8.08504 20.5925 7.40758 24.1478L7.45598 24.1007Z" fill="#272727"/>
</svg>
