<svg width="61" height="29" viewBox="0 0 61 29" fill="none" xmlns="http://www.w3.org/2000/svg">
<path d="M13.8797 11.1632C13.9995 10.6911 14.5048 9.93049 14.6418 11.4255C14.7788 12.9466 14.5304 14.1269 14.1023 13.5761C13.6742 13.0253 13.6998 11.8713 13.8797 11.1632Z" fill="#231F20"/>
<path d="M0.170569 17.6811C0.485704 18.3833 1.04963 18.7846 1.58038 19.1413C2.21065 19.6094 5.84301 21.6716 11.7974 23.5776C14.3102 24.1907 15.6703 24.4359 16.3752 24.6143C19.8251 25.0379 18.6723 24.9152 20.7788 27.1669C21.8817 28.0252 23.1091 28.6717 24.2287 28.393C25.6717 28.393 27.1147 27.6462 26.9737 26.8771C26.8742 25.9519 25.6302 25.4503 24.7594 24.514C25.2736 24.3691 33.1022 23.6668 36.7595 22.8531C37.5639 22.4407 39.8279 24.1796 40.8064 23.6557C41.4948 23.2878 42.6475 22.2623 41.9343 21.8945C40.9474 21.3817 40.4167 20.8133 41.5694 20.49C42.3821 20.1668 44.1071 19.3196 44.8037 19.0744C45.5003 18.8292 46.8189 18.5505 47.8638 18.3164C49.1078 18.0377 50.161 18.1938 50.5839 18.1715C52.5577 18.3164 53.3372 19.0744 53.8017 19.8769C54.1831 20.5569 55.4105 22.1397 56.3808 22.6525C57.9979 23.4996 60.3117 23.4439 60.7429 23.4104C60.6766 22.8531 60.3614 21.4152 59.5404 19.955C58.7194 18.4948 58.2965 17.7925 57.5501 16.2766C56.4222 14.8832 57.7989 13.3004 58.114 12.8657C59.756 10.3465 60.038 9.77806 61 6.66814C56.4554 6.57896 53.5694 9.88953 51.9523 11.829C50.7166 13.3004 48.2453 12.3529 46.6945 12.0966C45.1437 11.8402 44.2066 11.1714 41.5777 10.2351C38.219 9.13155 36.7429 8.75256 34.4872 8.09491C32.2315 7.69363 30.5894 7.14744 28.7815 6.81304C29.6274 4.53912 30.2162 4.13784 30.1167 3.2684C30.1167 3.2684 27.2722 3.03432 25.5473 2.51043C23.8223 1.98653 22.8023 0.381413 22.0227 0.715813C20.9198 1.15053 21.0441 1.49608 18.5397 5.89902C16.0932 6.45635 13.9785 7.01368 11.814 7.58216C7.38552 8.86403 4.32538 10.7478 3.55413 11.1825C2.85751 11.673 2.11943 12.0743 1.46428 12.6985C0.91694 13.2001 0.286669 13.7797 0.129101 14.716C-0.0118804 15.173 0.286679 15.4963 0.502298 15.775C0.900364 16.154 1.37306 16.3212 1.8043 16.5775C1.8043 16.6221 1.78771 16.7113 1.77942 16.7559C1.28184 16.8562 0.800847 16.5998 0.294972 16.5775C-0.0201633 16.7447 -0.1031 17.3689 0.145691 17.6811H0.170569ZM5.29567 14.3259C5.29567 13.5456 5.76837 12.9103 6.34888 12.9103C6.92939 12.9103 7.4021 13.5456 7.4021 14.3259C7.4021 15.1062 6.92939 15.7415 6.34888 15.7415C5.76837 15.7415 5.29567 15.1062 5.29567 14.3259Z" fill="#333333"/>
<path d="M0.170569 17.6811C0.485704 18.3833 1.04963 18.7846 1.58038 19.1413C2.21065 19.6094 5.84301 21.6716 11.7974 23.5776C14.3102 24.1907 15.6703 24.4359 16.3752 24.6143C19.8251 25.0379 18.6723 24.9152 20.7788 27.1669C21.8817 28.0252 23.1091 28.6717 24.2287 28.393C25.6717 28.393 27.1147 27.6462 26.9737 26.8771C26.8742 25.9519 25.6302 25.4503 24.7594 24.514C25.2736 24.3691 33.1022 23.6668 36.7595 22.8531C37.5639 22.4407 39.8279 24.1796 40.8064 23.6557C41.4948 23.2878 42.6475 22.2623 41.9343 21.8945C40.9474 21.3817 40.4167 20.8133 41.5694 20.49C42.3821 20.1668 44.1071 19.3196 44.8037 19.0744C45.5003 18.8292 46.8189 18.5505 47.8638 18.3164C49.1078 18.0377 50.161 18.1938 50.5839 18.1715C52.5577 18.3164 53.3372 19.0744 53.8017 19.8769C54.1831 20.5569 55.4105 22.1397 56.3808 22.6525C57.9979 23.4996 60.3117 23.4439 60.7429 23.4104C60.6766 22.8531 60.3614 21.4152 59.5404 19.955C58.7194 18.4948 58.2965 17.7925 57.5501 16.2766C56.4222 14.8832 57.7989 13.3004 58.114 12.8657C59.756 10.3465 60.038 9.77806 61 6.66814C56.4554 6.57896 53.5694 9.88953 51.9523 11.829C50.7166 13.3004 48.2453 12.3529 46.6945 12.0966C45.1437 11.8402 44.2066 11.1714 41.5777 10.2351C38.219 9.13155 36.7429 8.75256 34.4872 8.09491C32.2315 7.69363 30.5894 7.14744 28.7815 6.81304C29.6274 4.53912 30.2162 4.13784 30.1167 3.2684C30.1167 3.2684 27.2722 3.03432 25.5473 2.51043C23.8223 1.98653 22.8023 0.381413 22.0227 0.715813C20.9198 1.15053 21.0441 1.49608 18.5397 5.89902C16.0932 6.45635 13.9785 7.01368 11.814 7.58216C7.38552 8.86403 4.32538 10.7478 3.55413 11.1825C2.85751 11.673 2.11943 12.0743 1.46428 12.6985C0.91694 13.2001 0.286669 13.7797 0.129101 14.716C-0.0118804 15.173 0.286679 15.4963 0.502298 15.775C0.900364 16.154 1.37306 16.3212 1.8043 16.5775C1.8043 16.6221 1.78771 16.7113 1.77942 16.7559C1.28184 16.8562 0.800847 16.5998 0.294972 16.5775C-0.0201633 16.7447 -0.1031 17.3689 0.145691 17.6811H0.170569ZM5.29567 14.3259C5.29567 13.5456 5.76837 12.9103 6.34888 12.9103C6.92939 12.9103 7.4021 13.5456 7.4021 14.3259C7.4021 15.1062 6.92939 15.7415 6.34888 15.7415C5.76837 15.7415 5.29567 15.1062 5.29567 14.3259Z" fill="black" fill-opacity="0.2"/>
</svg>
