<svg width="37" height="49" viewBox="0 0 37 49" fill="none" xmlns="http://www.w3.org/2000/svg">
<path d="M25.3653 35.0108C22.2136 37.6372 22.5287 41.0095 22.5287 41.0095L32.9713 34.0548L31.1538 36.0614C29.4624 37.7738 26.8465 40.3057 24.9766 41.5348C23.1171 42.743 21.5937 43.4468 20.1439 43.6044C19.3035 43.6989 18.6311 43.7305 18.0323 43.72L17.4756 29.569C25.7224 28.8441 32.2359 21.3851 32.2359 12.1927C32.2359 7.67531 30.6286 3.60965 28.0652 0.5L22.0349 10.2492L16.1938 0.804663L10.3527 10.2492L4.32254 0.5C1.75918 3.60965 0.151855 7.67531 0.151855 12.1927C0.151855 21.3851 6.65479 28.8441 14.9017 29.569L14.1663 48.5H18.2214L18.0849 45.1067C18.7257 45.1067 19.4296 45.0857 20.3016 44.9806C21.205 44.8651 22.0349 44.5814 22.7703 44.2242C23.1275 44.4554 27.1301 46.8716 32.4039 42.3858C36.5431 38.8664 36.8478 30.3253 36.8478 30.3253C36.8478 30.3253 28.4854 32.3844 25.3547 35.0003L25.3653 35.0108Z" fill="#272727"/>
</svg>
