<svg width="69" height="63" viewBox="0 0 69 63" fill="none" xmlns="http://www.w3.org/2000/svg">
<path d="M38.023 62.0071C38.023 60.5965 38.023 59.1478 38.023 57.7372C37.9808 55.6785 37.854 53.5816 37.7695 51.5229C37.6851 50.0361 37.5586 48.5111 37.3476 47.0242C37.0522 44.8512 36.7991 42.6781 36.3771 40.505C35.7862 37.3025 35.1108 34.1001 34.3512 30.9358C33.465 27.3139 32.2411 23.8065 30.6797 20.3753C29.0338 16.6772 26.9661 13.1317 24.5183 9.81487C22.5349 7.18428 20.256 4.78245 17.6817 2.64748C17.4284 2.41874 17.1753 2.15187 16.9221 1.84687L17.0063 1.65625C17.4283 1.65625 17.8503 1.77062 18.2723 1.885C19.8338 2.53311 21.311 3.2956 22.7037 4.17246C24.645 5.43056 26.4596 6.84116 28.1476 8.32801C30.0045 10.0817 31.777 11.9117 33.3806 13.856C35.6173 16.4485 37.5588 19.2697 39.0781 22.2815C40.4707 24.9502 41.7366 27.6571 42.8761 30.4401C44.3953 34.2145 45.5348 38.1031 46.2944 42.1062C46.632 43.9362 46.9698 45.7661 47.223 47.6342C47.434 49.1592 47.6028 50.7223 47.7716 52.2854C47.8982 53.5816 47.9826 54.8779 48.0248 56.136C48.1092 57.6991 48.1091 59.2622 48.1513 60.8634C48.1513 61.2828 48.2358 61.664 48.278 62.0834H37.9808L38.023 62.0071ZM24.4761 61.8546C24.4339 60.0628 24.4762 58.2328 24.3074 56.441C24.223 55.0685 24.0117 53.7341 23.8007 52.3617C23.5053 50.6079 23.2522 48.8542 22.8302 47.1005C22.4081 45.3468 21.9018 43.5931 21.3532 41.8393C20.3404 38.7131 18.9898 35.7013 17.3017 32.842C15.7403 30.097 13.8411 27.4664 11.731 25.0646C10.7182 23.9209 9.66324 22.7771 8.65039 21.5953V21.0997C9.83204 21.0997 10.9716 21.4809 11.9 22.1672C13.8835 23.2728 15.7404 24.569 17.4285 26.0177C18.0615 26.5896 18.7788 27.1614 19.4541 27.7333C21.5642 29.6395 23.4632 31.7364 25.1935 33.9476C27.1348 36.3875 28.8228 39.0181 30.2155 41.7631C31.8614 44.8893 33.0431 48.168 33.7606 51.561C34.1404 53.391 34.4779 55.221 34.6889 57.0891C34.8999 58.6903 34.8999 60.2915 34.9843 61.8546H24.5606H24.4761ZM46.6321 31.1264C46.4211 30.3639 46.1255 29.6395 45.9567 28.877C45.9567 28.5721 46.0413 28.2671 46.1679 28.0002C47.5606 24.7215 49.3329 21.6334 51.5274 18.736C53.8907 15.4954 57.0138 12.7886 60.6854 10.768C61.9093 10.0055 63.344 9.54799 64.8211 9.35737C65.0321 9.35737 65.2009 9.35737 65.3698 9.43362C65.2854 9.62424 65.1587 9.81486 65.0321 9.96736C64.2302 10.6536 63.3019 11.2636 62.5423 11.988C60.3056 14.0848 58.4063 16.3723 56.8026 18.8885C54.6081 22.3197 52.878 25.9796 51.6964 29.7539C50.8101 32.6132 50.1347 35.5107 49.4173 38.4081C49.2485 39.0563 49.2485 39.7044 49.1219 40.3525C49.1219 40.4287 49.0798 40.505 48.9954 40.5812C48.1936 37.455 47.4339 34.2907 46.5899 31.1264H46.6321Z" fill="#231F20"/>
</svg>
