<svg width="51" height="42" viewBox="0 0 51 42" fill="none" xmlns="http://www.w3.org/2000/svg">
<path d="M50.9071 0.446777C50.9071 0.446777 30.1571 7.36678 22.7371 14.6468C15.3271 21.9268 16.8171 30.4068 16.8171 30.4068L41.8171 10.6568L37.5971 16.1868C33.6671 20.8768 27.5971 27.7668 23.1271 31.2368C18.6671 34.6868 14.9571 36.7568 11.3171 37.4768C7.89712 38.1668 5.27713 38.3568 3.44713 38.3568C0.977128 38.3568 0.0671289 38.0168 0.0571289 38.0668C0.0571289 38.0668 0.667128 41.8868 3.44713 41.8868C5.51713 41.8868 8.36713 41.6668 12.0171 40.9468C14.2771 40.4668 16.3071 39.5868 18.0971 38.5368C19.5171 39.2668 29.9971 44.0068 42.1171 31.8868C51.8671 22.1468 50.9171 0.456779 50.9171 0.456779L50.9071 0.446777Z" fill="#272727"/>
</svg>
