<svg width="57" height="48" viewBox="0 0 57 48" fill="none" xmlns="http://www.w3.org/2000/svg">
<path d="M41.1021 24.4489C44.1821 23.4989 45.2621 24.6289 46.7321 25.7089C49.6321 28.2389 53.7221 28.8189 56.2221 27.6689C57.4821 26.4989 56.1121 23.9789 55.6321 20.6989C55.1921 18.6389 54.6121 17.5589 53.6421 14.6489C52.3321 11.0989 51.5121 9.99887 49.7521 8.21887C50.4421 6.10887 51.2621 4.33888 48.7821 2.58888C46.9121 1.64888 44.5621 3.01887 44.9921 4.62887C44.8321 5.63887 46.2521 7.15888 43.9821 6.20888C43.0321 3.06888 41.3321 1.84887 38.8921 2.55887C37.5621 3.18887 36.8221 4.04887 37.7021 5.98887C33.8321 6.36887 29.8621 3.86888 28.0621 2.45888C20.9721 -0.741124 14.3021 1.11888 8.07207 8.04888C0.692065 16.9189 -0.697908 25.8889 3.91209 34.9489C-1.77791 40.4289 -1.25793 44.1289 5.45207 46.0689C18.7421 48.0789 29.5621 48.4789 37.8921 47.2689C39.0221 46.6489 38.9621 46.1489 37.7021 45.7689C18.3921 45.4989 2.83209 44.3589 3.66209 41.1389C4.49209 38.3489 6.8221 37.2789 8.8621 36.1189C11.6821 34.9189 14.8888 33.8822 18.4821 33.0089C17.7021 35.2389 20.3321 34.8989 22.1721 34.7289C24.2021 34.5389 25.1821 34.7289 26.6421 34.7289C28.9921 34.5289 31.4921 35.0389 30.1421 33.2989C28.9721 32.1189 29.0721 31.3789 23.4721 31.8189C25.9421 28.4689 35.3421 29.2589 37.1021 32.2989C37.7521 33.0889 40.4421 33.4889 43.9421 33.0989C45.5921 32.9989 44.6521 31.1889 42.7621 30.2689C40.8421 29.7889 39.8721 30.3889 39.0821 29.2589C38.2921 28.1189 39.2721 25.9089 41.1221 24.4389L41.1021 24.4489Z" fill="#333333"/>
<path d="M41.1021 24.4489C44.1821 23.4989 45.2621 24.6289 46.7321 25.7089C49.6321 28.2389 53.7221 28.8189 56.2221 27.6689C57.4821 26.4989 56.1121 23.9789 55.6321 20.6989C55.1921 18.6389 54.6121 17.5589 53.6421 14.6489C52.3321 11.0989 51.5121 9.99887 49.7521 8.21887C50.4421 6.10887 51.2621 4.33888 48.7821 2.58888C46.9121 1.64888 44.5621 3.01887 44.9921 4.62887C44.8321 5.63887 46.2521 7.15888 43.9821 6.20888C43.0321 3.06888 41.3321 1.84887 38.8921 2.55887C37.5621 3.18887 36.8221 4.04887 37.7021 5.98887C33.8321 6.36887 29.8621 3.86888 28.0621 2.45888C20.9721 -0.741124 14.3021 1.11888 8.07207 8.04888C0.692065 16.9189 -0.697908 25.8889 3.91209 34.9489C-1.77791 40.4289 -1.25793 44.1289 5.45207 46.0689C18.7421 48.0789 29.5621 48.4789 37.8921 47.2689C39.0221 46.6489 38.9621 46.1489 37.7021 45.7689C18.3921 45.4989 2.83209 44.3589 3.66209 41.1389C4.49209 38.3489 6.8221 37.2789 8.8621 36.1189C11.6821 34.9189 14.8888 33.8822 18.4821 33.0089C17.7021 35.2389 20.3321 34.8989 22.1721 34.7289C24.2021 34.5389 25.1821 34.7289 26.6421 34.7289C28.9921 34.5289 31.4921 35.0389 30.1421 33.2989C28.9721 32.1189 29.0721 31.3789 23.4721 31.8189C25.9421 28.4689 35.3421 29.2589 37.1021 32.2989C37.7521 33.0889 40.4421 33.4889 43.9421 33.0989C45.5921 32.9989 44.6521 31.1889 42.7621 30.2689C40.8421 29.7889 39.8721 30.3889 39.0821 29.2589C38.2921 28.1189 39.2721 25.9089 41.1221 24.4389L41.1021 24.4489Z" fill="black" fill-opacity="0.2"/>
</svg>
