<svg width="69" height="55" viewBox="0 0 69 55" fill="none" xmlns="http://www.w3.org/2000/svg">
<path d="M63.5022 42.9376C63.5022 42.9376 58.8322 41.3176 57.0722 38.4176C51.5122 29.3176 48.0721 27.4976 33.6021 21.4676C27.5421 18.9476 20.7721 14.2676 15.7821 1.87762C15.2821 0.62762 14.2422 0.0776193 14.4522 2.07762L14.7321 4.82762C14.3121 4.31762 13.8721 3.78762 13.4121 3.23762C12.5321 2.20762 11.8722 1.43762 12.0822 3.43762L12.4221 6.78762C10.4921 7.95762 8.67212 9.76762 6.97212 11.9376C4.98212 12.7976 3.09215 13.5476 1.13215 14.4976C0.162155 14.9676 0.0521364 15.2776 0.832136 16.2976C4.46214 21.2376 9.28215 17.7676 13.6322 21.9076C15.0722 25.5176 15.1822 27.5876 16.5122 29.7376C17.1422 32.2576 17.6022 34.8676 18.0122 37.3576C18.8322 42.2976 19.5121 47.2176 19.1121 52.2376C17.9321 52.4276 16.9722 53.4476 16.6522 54.7976H22.3721C22.7321 49.8276 23.6622 43.2876 24.2022 37.8176C25.7922 41.0976 27.2022 47.3776 26.8222 52.2376C25.6422 52.4276 24.6821 53.4476 24.3621 54.7976H30.0822L31.0521 41.3476C32.2621 40.9676 33.4421 40.7076 34.5921 40.5476C36.6821 43.9876 37.5722 47.2476 35.7122 52.2276C35.6122 52.2176 35.5121 52.2076 35.4121 52.2076C34.0521 52.2076 32.9021 53.2976 32.5521 54.7976H38.2722L39.9221 50.3976C41.1221 47.1876 40.7621 43.8976 40.0921 40.7276C44.1321 41.7676 46.3321 45.0576 44.1821 50.8076L43.6522 52.2276C43.5522 52.2176 43.4521 52.2076 43.3521 52.2076C41.9921 52.2076 40.8421 53.2976 40.4921 54.7976H46.2122L47.8621 50.3976C49.8821 45.0076 46.7022 41.9176 47.7722 36.4676C49.3322 42.8376 52.7722 50.7576 60.1322 50.9276C64.7222 51.0376 68.3721 47.6476 68.6821 43.2676C68.7321 42.5476 66.1621 43.8076 63.5421 42.9276L63.5022 42.9376ZM9.81215 13.1276C9.39215 13.0176 9.14215 12.5776 9.25215 12.1576C9.36215 11.7376 9.80212 11.4876 10.2221 11.5976C10.6421 11.7076 10.8921 12.1376 10.7821 12.5676C10.6721 12.9876 10.2321 13.2376 9.81215 13.1276Z" fill="#272727"/>
</svg>
