<svg width="119" height="174" viewBox="0 0 119 174" fill="none" xmlns="http://www.w3.org/2000/svg">
<g filter="url(#filter0_d_514_125406)">
<path d="M112.75 54.3894C112.75 84.4384 57.8534 166 57.8534 166C57.8534 166 2.95703 84.4384 2.95703 54.3894C2.95703 24.3404 27.5243 0 57.8307 0C88.1371 0 112.727 24.3629 112.727 54.3894H112.75Z" fill="#8C4E01"/>
<g filter="url(#filter1_i_514_125406)">
<path d="M85.4279 67.5515C85.4279 67.5515 80.9878 66.0826 79.3145 63.4532C74.0282 55.2023 70.7575 53.5521 57 48.0847C51.2383 45.7998 44.8016 41.5565 40.0573 30.3225C39.5819 29.1891 38.5932 28.6904 38.7928 30.5038L39.059 32.9972C38.6597 32.5348 38.2414 32.0543 37.804 31.5556C36.9673 30.6217 36.3399 29.9235 36.5395 31.7369L36.8628 34.7744C35.0278 35.8352 33.2974 37.4763 31.6811 39.4439C29.7891 40.2236 27.9921 40.9036 26.1286 41.765C25.2064 42.1911 25.1018 42.4722 25.8434 43.3971C29.2947 47.8761 33.8774 44.7299 38.0132 48.4836C39.3823 51.7568 39.4869 53.6337 40.7514 55.5831C41.3504 57.868 41.7877 60.2344 42.1776 62.4921C42.9572 66.9712 43.6037 71.4322 43.2234 75.9838C42.1015 76.1561 41.1888 77.0809 40.8845 78.3049H46.3229C46.6652 73.7986 47.5494 67.8688 48.0628 62.9092C49.5745 65.8832 50.9151 71.5772 50.5538 75.9838C49.4319 76.1561 48.5191 77.0809 48.2149 78.3049H53.6533L54.5755 66.1098C55.726 65.7653 56.8478 65.5296 57.9412 65.3845C59.9283 68.5035 60.7745 71.4594 59.0061 75.9747C58.911 75.9657 58.8159 75.9566 58.7208 75.9566C57.4278 75.9566 56.3344 76.9449 56.0017 78.3049H61.4401L63.0088 74.3155C64.1497 71.405 63.8074 68.4219 63.1704 65.5477C67.0115 66.4907 69.1032 69.4737 67.0591 74.6872L66.5552 75.9747C66.4601 75.9657 66.365 75.9566 66.2699 75.9566C64.9769 75.9566 63.8835 76.9449 63.5508 78.3049H68.9892L70.5579 74.3155C72.4784 69.4284 69.455 66.6267 70.4724 61.6852C71.9555 67.4608 75.2262 74.6419 82.2238 74.796C86.5878 74.8957 90.0581 71.822 90.3528 67.8507C90.4004 67.1979 87.9569 68.3403 85.4659 67.5424L85.4279 67.5515ZM34.3813 40.5228C33.982 40.4231 33.7443 40.0241 33.8488 39.6433C33.9534 39.2625 34.3717 39.0358 34.7711 39.1356C35.1704 39.2353 35.4081 39.6252 35.3035 40.0151C35.1989 40.3959 34.7806 40.6226 34.3813 40.5228Z" fill="white"/>
</g>
</g>
<defs>
<filter id="filter0_d_514_125406" x="0.957031" y="0" width="117.793" height="174" filterUnits="userSpaceOnUse" color-interpolation-filters="sRGB">
<feFlood flood-opacity="0" result="BackgroundImageFix"/>
<feColorMatrix in="SourceAlpha" type="matrix" values="0 0 0 0 0 0 0 0 0 0 0 0 0 0 0 0 0 0 127 0" result="hardAlpha"/>
<feOffset dx="2" dy="4"/>
<feGaussianBlur stdDeviation="2"/>
<feComposite in2="hardAlpha" operator="out"/>
<feColorMatrix type="matrix" values="0 0 0 0 0.11 0 0 0 0 0.11 0 0 0 0 0.11 0 0 0 0.66 0"/>
<feBlend mode="normal" in2="BackgroundImageFix" result="effect1_dropShadow_514_125406"/>
<feBlend mode="normal" in="SourceGraphic" in2="effect1_dropShadow_514_125406" result="shape"/>
</filter>
<filter id="filter1_i_514_125406" x="25.3535" y="29.3049" width="66" height="50" filterUnits="userSpaceOnUse" color-interpolation-filters="sRGB">
<feFlood flood-opacity="0" result="BackgroundImageFix"/>
<feBlend mode="normal" in="SourceGraphic" in2="BackgroundImageFix" result="shape"/>
<feColorMatrix in="SourceAlpha" type="matrix" values="0 0 0 0 0 0 0 0 0 0 0 0 0 0 0 0 0 0 127 0" result="hardAlpha"/>
<feOffset dx="2" dy="2"/>
<feGaussianBlur stdDeviation="0.5"/>
<feComposite in2="hardAlpha" operator="arithmetic" k2="-1" k3="1"/>
<feColorMatrix type="matrix" values="0 0 0 0 0 0 0 0 0 0 0 0 0 0 0 0 0 0 0.22 0"/>
<feBlend mode="normal" in2="shape" result="effect1_innerShadow_514_125406"/>
</filter>
</defs>
</svg>
