<svg width="119" height="174" viewBox="0 0 119 174" fill="none" xmlns="http://www.w3.org/2000/svg">
<g filter="url(#filter0_d_620_122331)">
<path d="M112.542 54.3894C112.542 84.4384 57.6454 166 57.6454 166C57.6454 166 2.74902 84.4384 2.74902 54.3894C2.74902 24.3404 27.3163 0 57.6227 0C87.9291 0 112.519 24.3629 112.519 54.3894H112.542Z" fill="#530A54"/>
<path d="M106.53 53.805C106.53 80.4828 84.7077 102.126 57.7586 102.126C30.8095 102.126 9.00977 80.4828 9.00977 53.805C9.00977 27.1272 30.8322 5.48386 57.7586 5.48386C84.6851 5.48386 106.53 27.1048 106.53 53.805Z" fill="#530A54"/>
<g filter="url(#filter1_i_620_122331)">
<path fill-rule="evenodd" clip-rule="evenodd" d="M40.4177 67.0475C39.4668 69.0741 38.8175 71.8802 39.2581 74.0628C39.7915 74.5973 40.3713 75.1986 40.696 75.7108C41.9947 77.6707 37.426 77.5816 36.6839 75.1763C36.3824 75.3322 36.0113 75.1986 35.8954 74.7086C35.8258 74.33 35.9185 74.1296 36.0113 73.7955C36.4056 72.3257 36.1273 69.1409 35.8954 67.5151C35.2228 68.3614 34.6198 69.2523 34.156 70.2099C33.5066 71.4794 32.7181 73.7733 32.6485 75.2209C32.8804 75.5549 33.1819 76.0003 33.3906 76.3344C34.0864 77.537 34.2488 78.606 31.4658 78.2274C30.3758 78.0493 29.8423 77.2475 29.8191 76.379C29.4712 76.5571 29.1234 76.4012 29.1466 75.889C29.1466 75.4436 29.7496 74.3523 29.9119 73.7733C30.2366 72.682 30.5149 71.2789 30.6773 70.4326C30.77 69.8981 30.8395 69.3636 30.9091 68.8291C30.9555 68.4505 30.9323 68.0274 31.0947 67.671C31.2338 67.3815 31.5353 67.0475 31.7208 66.7579C32.3702 65.778 32.8804 63.9964 33.0891 62.5042C33.3906 58.5623 32.0223 56.2238 32.3934 52.5491C32.5558 50.9456 32.9268 49.5648 33.4602 48.3845C32.9268 47.3823 31.5121 46.1797 31.4426 44.2198C31.3962 43.0617 31.6513 41.5919 33.0196 39.8102C33.2747 39.4539 34.04 38.808 34.527 39.0085C34.9676 39.1866 34.8053 39.9216 34.6894 40.2779C34.2255 41.77 33.2283 44.6207 36.1968 44.9993C42.2266 40.5229 49.8335 43.4849 56.3271 43.2845C67.5055 42.9504 69.4767 36.4696 73.0946 32.4831C72.4684 32.7726 71.8423 33.0621 71.2393 33.218C72.0742 32.3272 72.8859 31.6368 73.6512 31.1468C72.2598 31.6368 70.845 32.5276 69.4767 32.884C72.7235 29.432 75.5065 28.7193 77.9416 29.7215C79.8897 29.4988 82.1393 30.4119 82.9047 32.7058C83.9715 33.2626 86.2906 37.0486 85.9428 38.7412C86.3138 39.4539 86.1978 40.1888 85.4093 40.367C85.4093 40.8569 85.0151 41.1687 84.3889 41.3023C83.3917 41.5028 81.7914 41.1019 80.1216 41.2133C80.1216 41.2133 80.1216 41.2133 80.1216 41.2355C80.1216 41.7923 80.1217 42.3268 79.9361 42.4604C79.7274 42.6163 79.3331 42.5272 78.8925 42.3713C79.0316 45.3556 78.8229 50.0993 76.8516 52.6605C76.5965 55.3998 75.437 57.7605 73.6744 59.4754C73.1874 61.9029 72.5612 64.1745 72.4221 66.7134C72.3061 69.0296 72.538 71.7912 72.8859 74.0182C73.9991 75.2209 75.9008 77.2252 72.5612 76.8689C71.4249 76.713 70.7986 76.1562 70.5435 75.1986C70.1493 75.4658 69.5695 75.0427 69.9869 73.5728C69.9406 71.4571 69.8014 68.8291 69.5463 66.7134C69.3376 65.8671 69.0825 64.9095 68.8969 64.0854C68.6418 65.0431 68.4331 65.9562 68.2708 66.8916C68.2708 69.2968 68.3404 72.2811 68.6419 74.575C69.0129 74.9536 69.384 75.3545 69.7319 75.8222C70.4972 76.8466 70.7523 77.8266 68.2012 77.5593C66.9489 77.3811 66.3227 76.8244 66.0908 75.8444C65.7893 76.2008 65.1167 75.5995 65.6269 74.0628C65.7661 71.7689 65.4878 69.2968 65.3023 67.092C64.8848 65.4662 64.6297 63.9073 64.5138 62.2147C64.0267 62.1479 63.5397 62.0365 63.0295 61.9029C58.0433 62.6156 52.2454 62.2592 46.7954 61.5243C45.2879 62.0588 44.5922 64.5531 43.4326 66.0007C42.9456 66.602 42.3426 67.0029 41.7164 67.1588C41.7164 67.3147 41.7164 67.5152 41.7164 67.6265C41.7164 68.0051 41.2294 68.0274 41.183 67.6265C41.183 67.5597 41.183 67.337 41.1366 67.2034C40.8815 67.2034 40.6264 67.1365 40.3945 67.0475H40.4177Z" fill="white"/>
</g>
</g>
<defs>
<filter id="filter0_d_620_122331" x="0.749023" y="0" width="117.793" height="174" filterUnits="userSpaceOnUse" color-interpolation-filters="sRGB">
<feFlood flood-opacity="0" result="BackgroundImageFix"/>
<feColorMatrix in="SourceAlpha" type="matrix" values="0 0 0 0 0 0 0 0 0 0 0 0 0 0 0 0 0 0 127 0" result="hardAlpha"/>
<feOffset dx="2" dy="4"/>
<feGaussianBlur stdDeviation="2"/>
<feComposite in2="hardAlpha" operator="out"/>
<feColorMatrix type="matrix" values="0 0 0 0 0.11 0 0 0 0 0.11 0 0 0 0 0.11 0 0 0 0.66 0"/>
<feBlend mode="normal" in2="BackgroundImageFix" result="effect1_dropShadow_620_122331"/>
<feBlend mode="normal" in="SourceGraphic" in2="effect1_dropShadow_620_122331" result="shape"/>
</filter>
<filter id="filter1_i_620_122331" x="29.1455" y="29.3049" width="58" height="50" filterUnits="userSpaceOnUse" color-interpolation-filters="sRGB">
<feFlood flood-opacity="0" result="BackgroundImageFix"/>
<feBlend mode="normal" in="SourceGraphic" in2="BackgroundImageFix" result="shape"/>
<feColorMatrix in="SourceAlpha" type="matrix" values="0 0 0 0 0 0 0 0 0 0 0 0 0 0 0 0 0 0 127 0" result="hardAlpha"/>
<feOffset dx="2" dy="2"/>
<feGaussianBlur stdDeviation="0.5"/>
<feComposite in2="hardAlpha" operator="arithmetic" k2="-1" k3="1"/>
<feColorMatrix type="matrix" values="0 0 0 0 0 0 0 0 0 0 0 0 0 0 0 0 0 0 0.22 0"/>
<feBlend mode="normal" in2="shape" result="effect1_innerShadow_620_122331"/>
</filter>
</defs>
</svg>
