<svg width="47" height="43" viewBox="0 0 47 43" fill="none" xmlns="http://www.w3.org/2000/svg">
<path d="M45.7995 15.654C43.3595 11.914 37.7995 12.634 34.6295 14.534C37.7995 12.634 41.2395 7.84402 38.9195 4.14402C37.5095 1.75402 34.8195 0.524015 32.2595 0.944015C30.2895 1.24401 28.8595 2.20402 27.6495 3.92402C26.4095 5.69402 25.5895 8.62402 24.8695 11.534C24.1095 14.744 23.5995 18.014 23.5095 20.194C23.4095 18.014 22.9195 14.734 22.1295 11.534C21.4295 8.62402 20.6195 5.69402 19.3795 3.92402C18.1695 2.20402 16.6995 1.24401 14.7695 0.944015C12.1995 0.524015 9.51953 1.75402 8.10953 4.14402C5.78953 7.84402 9.23951 12.634 12.3995 14.534C9.22951 12.634 3.63953 11.914 1.22953 15.654C-0.210472 18.044 0.0195035 20.964 1.5795 23.064C2.7495 24.664 4.38951 25.584 6.33951 25.734C8.46951 25.874 11.2295 25.424 13.9595 24.714C16.5895 24.044 19.1695 23.134 21.0795 22.324C19.4595 23.524 17.5695 25.124 15.7895 26.844C13.6195 28.924 11.4795 31.124 10.5995 33.084C9.71952 35.014 9.62951 36.744 10.3395 38.564C11.3095 40.994 13.7395 42.694 16.4895 42.694C20.8895 42.814 23.2295 37.444 23.2895 33.754C23.2595 37.444 25.4595 42.604 29.9095 42.804C32.6895 42.804 35.0995 41.134 36.1195 38.734C36.9095 36.914 36.8795 35.044 35.9995 33.284C35.0595 31.374 33.2695 29.214 31.2795 27.214C29.2295 25.164 26.9795 23.284 25.2695 22.024C27.2295 22.904 30.1095 23.954 33.0595 24.704C35.7895 25.414 38.5495 25.864 40.6495 25.724C42.6295 25.574 44.2695 24.654 45.4395 23.054C46.9795 20.954 47.1995 18.034 45.7895 15.644L45.7995 15.654Z" fill="#333333"/>
<path d="M45.7995 15.654C43.3595 11.914 37.7995 12.634 34.6295 14.534C37.7995 12.634 41.2395 7.84402 38.9195 4.14402C37.5095 1.75402 34.8195 0.524015 32.2595 0.944015C30.2895 1.24401 28.8595 2.20402 27.6495 3.92402C26.4095 5.69402 25.5895 8.62402 24.8695 11.534C24.1095 14.744 23.5995 18.014 23.5095 20.194C23.4095 18.014 22.9195 14.734 22.1295 11.534C21.4295 8.62402 20.6195 5.69402 19.3795 3.92402C18.1695 2.20402 16.6995 1.24401 14.7695 0.944015C12.1995 0.524015 9.51953 1.75402 8.10953 4.14402C5.78953 7.84402 9.23951 12.634 12.3995 14.534C9.22951 12.634 3.63953 11.914 1.22953 15.654C-0.210472 18.044 0.0195035 20.964 1.5795 23.064C2.7495 24.664 4.38951 25.584 6.33951 25.734C8.46951 25.874 11.2295 25.424 13.9595 24.714C16.5895 24.044 19.1695 23.134 21.0795 22.324C19.4595 23.524 17.5695 25.124 15.7895 26.844C13.6195 28.924 11.4795 31.124 10.5995 33.084C9.71952 35.014 9.62951 36.744 10.3395 38.564C11.3095 40.994 13.7395 42.694 16.4895 42.694C20.8895 42.814 23.2295 37.444 23.2895 33.754C23.2595 37.444 25.4595 42.604 29.9095 42.804C32.6895 42.804 35.0995 41.134 36.1195 38.734C36.9095 36.914 36.8795 35.044 35.9995 33.284C35.0595 31.374 33.2695 29.214 31.2795 27.214C29.2295 25.164 26.9795 23.284 25.2695 22.024C27.2295 22.904 30.1095 23.954 33.0595 24.704C35.7895 25.414 38.5495 25.864 40.6495 25.724C42.6295 25.574 44.2695 24.654 45.4395 23.054C46.9795 20.954 47.1995 18.034 45.7895 15.644L45.7995 15.654Z" fill="black" fill-opacity="0.2"/>
</svg>
