<svg width="53" height="60" viewBox="0 0 53 60" fill="none" xmlns="http://www.w3.org/2000/svg">
<path d="M25.5461 49.0271C23.3361 48.7472 21.0761 47.5772 20.0461 45.5372C14.7961 44.2972 10.4261 41.0172 8.23614 35.9272C8.20614 35.9272 8.18612 35.9071 8.15612 35.8971C7.40612 35.6671 6.59615 35.3972 5.80615 35.0372C4.76615 34.5972 3.84615 33.9171 3.33615 32.8871C2.95615 31.9972 3.08616 30.8372 4.00616 30.3372C2.74616 29.5972 1.66616 28.5072 1.37616 27.0272C1.27616 26.1572 1.44614 25.1372 2.42614 24.8972C1.55614 24.0272 0.906142 23.0372 0.706142 21.8172C0.546142 20.9172 0.806147 19.4972 1.83615 19.1572C1.94615 19.1172 2.06616 19.0972 2.16616 19.0972C1.41616 17.7271 1.06615 16.2772 1.49615 14.7272C1.75615 13.8872 2.42614 12.7972 3.45614 13.1872C3.11614 11.6172 3.72613 8.31715 5.78613 8.17715C5.99613 8.17715 6.20615 8.21715 6.36615 8.29715C6.40615 8.31715 6.45615 8.33715 6.49615 8.36715C6.52615 6.98715 7.14617 5.51715 8.32617 4.73715C9.46617 4.00715 10.5661 4.20715 10.9261 5.59715V5.61715C11.4561 4.20715 12.6661 2.95715 14.1561 2.60715C14.3961 2.55715 14.6562 2.52715 14.9362 2.56715C16.1562 2.72715 16.0962 3.75715 15.9362 4.63715C15.8462 5.08715 15.7762 5.50715 15.7062 5.92715C15.0862 8.86715 16.1761 14.0471 17.2261 16.5272C18.3761 17.3472 19.4861 18.2072 20.7861 18.7872C20.8461 18.6872 20.9462 18.6172 21.0662 18.5872C21.1962 18.5572 21.3262 18.5872 21.4362 18.6472C21.5862 18.7472 21.7362 18.8472 21.8962 18.9372C23.5262 19.9972 26.0361 20.0872 27.9261 20.0272C29.9361 18.8372 32.1662 17.8672 34.3962 17.1672C37.2462 12.6272 39.5961 5.33715 44.8461 3.96715C43.5161 2.42715 44.9461 -0.73285 45.8461 1.41715C45.8561 1.44715 45.8861 1.45715 45.9161 1.45715C45.9461 1.45715 45.9761 1.43715 45.9761 1.41715C46.0261 1.28715 46.0862 1.15715 46.1862 1.04715C46.1962 1.02715 46.2262 1.01715 46.2462 1.02715C46.2662 1.02715 46.2861 1.03715 46.3061 1.05715C46.3961 1.20715 46.4662 1.35716 46.5162 1.51716C46.5162 1.53716 46.5462 1.55715 46.5762 1.55715C46.6062 1.55715 46.6362 1.53716 46.6462 1.51716C46.6762 1.42716 46.7261 1.27715 46.7861 1.20715C46.7961 1.19715 46.8261 1.33715 46.8461 1.34715C46.8661 1.34715 46.9061 1.19715 46.9261 1.21715C47.0561 1.38715 47.1262 1.69715 47.2062 1.88715C47.2062 1.90715 47.2362 1.92715 47.2662 1.92715C47.3762 1.92715 47.7561 1.21715 47.7861 1.09715C47.7861 1.06715 47.8161 1.05715 47.8461 1.04715C48.1061 1.04715 48.2362 2.34716 48.1962 2.58716C48.1962 2.61716 48.2061 2.63715 48.2361 2.64715C48.2661 2.65715 48.2962 2.64716 48.3162 2.62716C48.5162 2.38716 48.6262 2.29715 48.7562 2.03715C48.7662 2.00715 48.7962 1.99715 48.8262 1.99715C48.8562 1.99715 48.8762 2.01715 48.8862 2.04715C48.9662 2.36715 49.0161 2.68715 49.0361 3.00715C49.0361 3.03715 49.0561 3.05715 49.0961 3.06715C49.1261 3.06715 49.1561 3.05715 49.1761 3.02715C49.2361 2.88715 49.2862 2.75715 49.3362 2.61715C49.3362 2.58715 49.3761 2.56715 49.4061 2.56715C49.4361 2.56715 49.4661 2.58715 49.4661 2.61715C49.5161 2.98715 49.4862 3.28715 49.7062 3.52715C50.2662 4.13715 51.1662 4.72716 51.0262 5.90716C51.0162 6.00716 50.9961 6.09715 50.9661 6.17715C51.3861 6.32715 51.9161 6.85716 52.1161 7.22716C52.2161 7.40716 52.4261 7.75715 52.2961 7.95715C52.2161 8.07715 51.9961 8.13715 51.8561 8.17715C51.1161 8.41715 50.3561 8.50715 49.5361 8.48715C50.4461 10.3871 49.2062 11.8871 47.5262 11.5971C47.5862 11.8271 47.6562 12.0371 47.7662 12.3071C47.8462 12.4971 47.7862 12.6972 47.6362 12.7872C47.7362 12.9972 47.8462 13.2072 47.9562 13.3872C48.0462 13.5372 48.1462 13.6872 48.2762 13.8471C48.3362 13.9171 48.3962 13.9871 48.4562 14.0571C48.5262 14.1271 48.6061 14.1972 48.6761 14.2672C48.8061 14.3972 48.8162 14.6071 48.6962 14.7371C48.6462 14.7971 48.5762 14.8371 48.4962 14.8471C47.9462 14.8371 47.6761 14.7772 47.2861 14.6972C50.2661 23.4972 49.9562 36.1572 40.9362 41.3472C39.4962 43.6972 35.8762 45.5372 33.1362 45.5372C33.0262 45.6272 32.9161 45.7171 32.7961 45.8071C32.7061 45.9671 32.7762 45.8871 32.5662 46.2271C31.7862 47.3271 30.5361 48.1571 29.3561 48.6171C29.3461 48.6171 29.3362 48.6171 29.3262 48.6171C29.6762 49.6371 30.1361 51.0471 30.8661 51.6171C31.7761 52.3371 32.5061 51.9172 33.4761 52.1872C34.1261 52.3672 34.2061 52.7372 34.2161 53.0172C35.9061 52.9772 37.1062 53.0172 37.9962 53.1371C38.8262 53.2771 39.3562 53.6472 39.6262 54.2372C39.1562 53.9572 38.6662 53.7872 38.1462 53.8871C37.7662 54.1671 37.1761 54.1471 36.5361 54.0571C34.8161 54.4971 33.0361 54.1671 31.2961 54.0071C32.5161 55.0871 32.1161 56.1972 31.4061 55.5372C31.0061 55.1772 30.4662 54.9072 29.8862 54.6671C30.0262 55.1271 30.2962 55.5872 30.7462 56.0271C32.6162 55.9171 34.2561 55.7171 35.7961 55.4771C36.3861 55.0771 36.8861 55.2171 37.3561 55.4771C37.8661 55.6571 38.1762 55.9472 38.3262 56.3172C38.0962 56.1972 37.8362 56.1172 37.4962 56.1772C37.2962 56.3172 37.0361 56.3972 36.6561 56.3572C34.7461 56.6171 33.4962 56.8572 31.9362 57.4572C32.4662 57.7272 33.0762 57.9872 34.1462 58.2072C34.7162 58.1672 35.0262 58.3372 35.2762 58.7072C35.6062 59.0572 35.7462 59.4372 35.7562 59.8272C35.6262 59.6272 35.4762 59.4472 35.1962 59.3472C34.6762 59.3772 34.2062 59.2872 33.7762 59.0972C32.3862 58.8072 31.3562 58.4072 30.3962 57.9972C28.9362 58.1272 28.0561 57.8672 27.8561 57.1772C27.7061 57.1272 27.5462 57.0771 27.3962 57.0271C27.0362 57.5571 26.5162 57.8772 25.5162 57.5672C25.1562 57.5472 24.8362 57.6072 24.5162 57.6872C24.8862 57.4272 25.3162 57.2072 25.8362 57.0372C26.4362 56.3572 26.8462 55.5971 27.1962 54.8071C27.0862 54.4171 26.9761 54.0271 26.8661 53.6371C26.4361 53.9371 25.9762 54.0472 25.4462 53.8172C25.0862 53.8172 24.7661 53.9571 24.4661 54.1471C24.6761 53.7871 24.9662 53.5172 25.3762 53.3572C25.9362 53.1272 26.3262 52.7971 26.5262 52.3572C26.3662 51.2372 26.0262 50.1271 25.5062 49.0071L25.5461 49.0271Z" fill="#333333"/>
<path d="M25.5461 49.0271C23.3361 48.7472 21.0761 47.5772 20.0461 45.5372C14.7961 44.2972 10.4261 41.0172 8.23614 35.9272C8.20614 35.9272 8.18612 35.9071 8.15612 35.8971C7.40612 35.6671 6.59615 35.3972 5.80615 35.0372C4.76615 34.5972 3.84615 33.9171 3.33615 32.8871C2.95615 31.9972 3.08616 30.8372 4.00616 30.3372C2.74616 29.5972 1.66616 28.5072 1.37616 27.0272C1.27616 26.1572 1.44614 25.1372 2.42614 24.8972C1.55614 24.0272 0.906142 23.0372 0.706142 21.8172C0.546142 20.9172 0.806147 19.4972 1.83615 19.1572C1.94615 19.1172 2.06616 19.0972 2.16616 19.0972C1.41616 17.7271 1.06615 16.2772 1.49615 14.7272C1.75615 13.8872 2.42614 12.7972 3.45614 13.1872C3.11614 11.6172 3.72613 8.31715 5.78613 8.17715C5.99613 8.17715 6.20615 8.21715 6.36615 8.29715C6.40615 8.31715 6.45615 8.33715 6.49615 8.36715C6.52615 6.98715 7.14617 5.51715 8.32617 4.73715C9.46617 4.00715 10.5661 4.20715 10.9261 5.59715V5.61715C11.4561 4.20715 12.6661 2.95715 14.1561 2.60715C14.3961 2.55715 14.6562 2.52715 14.9362 2.56715C16.1562 2.72715 16.0962 3.75715 15.9362 4.63715C15.8462 5.08715 15.7762 5.50715 15.7062 5.92715C15.0862 8.86715 16.1761 14.0471 17.2261 16.5272C18.3761 17.3472 19.4861 18.2072 20.7861 18.7872C20.8461 18.6872 20.9462 18.6172 21.0662 18.5872C21.1962 18.5572 21.3262 18.5872 21.4362 18.6472C21.5862 18.7472 21.7362 18.8472 21.8962 18.9372C23.5262 19.9972 26.0361 20.0872 27.9261 20.0272C29.9361 18.8372 32.1662 17.8672 34.3962 17.1672C37.2462 12.6272 39.5961 5.33715 44.8461 3.96715C43.5161 2.42715 44.9461 -0.73285 45.8461 1.41715C45.8561 1.44715 45.8861 1.45715 45.9161 1.45715C45.9461 1.45715 45.9761 1.43715 45.9761 1.41715C46.0261 1.28715 46.0862 1.15715 46.1862 1.04715C46.1962 1.02715 46.2262 1.01715 46.2462 1.02715C46.2662 1.02715 46.2861 1.03715 46.3061 1.05715C46.3961 1.20715 46.4662 1.35716 46.5162 1.51716C46.5162 1.53716 46.5462 1.55715 46.5762 1.55715C46.6062 1.55715 46.6362 1.53716 46.6462 1.51716C46.6762 1.42716 46.7261 1.27715 46.7861 1.20715C46.7961 1.19715 46.8261 1.33715 46.8461 1.34715C46.8661 1.34715 46.9061 1.19715 46.9261 1.21715C47.0561 1.38715 47.1262 1.69715 47.2062 1.88715C47.2062 1.90715 47.2362 1.92715 47.2662 1.92715C47.3762 1.92715 47.7561 1.21715 47.7861 1.09715C47.7861 1.06715 47.8161 1.05715 47.8461 1.04715C48.1061 1.04715 48.2362 2.34716 48.1962 2.58716C48.1962 2.61716 48.2061 2.63715 48.2361 2.64715C48.2661 2.65715 48.2962 2.64716 48.3162 2.62716C48.5162 2.38716 48.6262 2.29715 48.7562 2.03715C48.7662 2.00715 48.7962 1.99715 48.8262 1.99715C48.8562 1.99715 48.8762 2.01715 48.8862 2.04715C48.9662 2.36715 49.0161 2.68715 49.0361 3.00715C49.0361 3.03715 49.0561 3.05715 49.0961 3.06715C49.1261 3.06715 49.1561 3.05715 49.1761 3.02715C49.2361 2.88715 49.2862 2.75715 49.3362 2.61715C49.3362 2.58715 49.3761 2.56715 49.4061 2.56715C49.4361 2.56715 49.4661 2.58715 49.4661 2.61715C49.5161 2.98715 49.4862 3.28715 49.7062 3.52715C50.2662 4.13715 51.1662 4.72716 51.0262 5.90716C51.0162 6.00716 50.9961 6.09715 50.9661 6.17715C51.3861 6.32715 51.9161 6.85716 52.1161 7.22716C52.2161 7.40716 52.4261 7.75715 52.2961 7.95715C52.2161 8.07715 51.9961 8.13715 51.8561 8.17715C51.1161 8.41715 50.3561 8.50715 49.5361 8.48715C50.4461 10.3871 49.2062 11.8871 47.5262 11.5971C47.5862 11.8271 47.6562 12.0371 47.7662 12.3071C47.8462 12.4971 47.7862 12.6972 47.6362 12.7872C47.7362 12.9972 47.8462 13.2072 47.9562 13.3872C48.0462 13.5372 48.1462 13.6872 48.2762 13.8471C48.3362 13.9171 48.3962 13.9871 48.4562 14.0571C48.5262 14.1271 48.6061 14.1972 48.6761 14.2672C48.8061 14.3972 48.8162 14.6071 48.6962 14.7371C48.6462 14.7971 48.5762 14.8371 48.4962 14.8471C47.9462 14.8371 47.6761 14.7772 47.2861 14.6972C50.2661 23.4972 49.9562 36.1572 40.9362 41.3472C39.4962 43.6972 35.8762 45.5372 33.1362 45.5372C33.0262 45.6272 32.9161 45.7171 32.7961 45.8071C32.7061 45.9671 32.7762 45.8871 32.5662 46.2271C31.7862 47.3271 30.5361 48.1571 29.3561 48.6171C29.3461 48.6171 29.3362 48.6171 29.3262 48.6171C29.6762 49.6371 30.1361 51.0471 30.8661 51.6171C31.7761 52.3371 32.5061 51.9172 33.4761 52.1872C34.1261 52.3672 34.2061 52.7372 34.2161 53.0172C35.9061 52.9772 37.1062 53.0172 37.9962 53.1371C38.8262 53.2771 39.3562 53.6472 39.6262 54.2372C39.1562 53.9572 38.6662 53.7872 38.1462 53.8871C37.7662 54.1671 37.1761 54.1471 36.5361 54.0571C34.8161 54.4971 33.0361 54.1671 31.2961 54.0071C32.5161 55.0871 32.1161 56.1972 31.4061 55.5372C31.0061 55.1772 30.4662 54.9072 29.8862 54.6671C30.0262 55.1271 30.2962 55.5872 30.7462 56.0271C32.6162 55.9171 34.2561 55.7171 35.7961 55.4771C36.3861 55.0771 36.8861 55.2171 37.3561 55.4771C37.8661 55.6571 38.1762 55.9472 38.3262 56.3172C38.0962 56.1972 37.8362 56.1172 37.4962 56.1772C37.2962 56.3172 37.0361 56.3972 36.6561 56.3572C34.7461 56.6171 33.4962 56.8572 31.9362 57.4572C32.4662 57.7272 33.0762 57.9872 34.1462 58.2072C34.7162 58.1672 35.0262 58.3372 35.2762 58.7072C35.6062 59.0572 35.7462 59.4372 35.7562 59.8272C35.6262 59.6272 35.4762 59.4472 35.1962 59.3472C34.6762 59.3772 34.2062 59.2872 33.7762 59.0972C32.3862 58.8072 31.3562 58.4072 30.3962 57.9972C28.9362 58.1272 28.0561 57.8672 27.8561 57.1772C27.7061 57.1272 27.5462 57.0771 27.3962 57.0271C27.0362 57.5571 26.5162 57.8772 25.5162 57.5672C25.1562 57.5472 24.8362 57.6072 24.5162 57.6872C24.8862 57.4272 25.3162 57.2072 25.8362 57.0372C26.4362 56.3572 26.8462 55.5971 27.1962 54.8071C27.0862 54.4171 26.9761 54.0271 26.8661 53.6371C26.4361 53.9371 25.9762 54.0472 25.4462 53.8172C25.0862 53.8172 24.7661 53.9571 24.4661 54.1471C24.6761 53.7871 24.9662 53.5172 25.3762 53.3572C25.9362 53.1272 26.3262 52.7971 26.5262 52.3572C26.3662 51.2372 26.0262 50.1271 25.5062 49.0071L25.5461 49.0271Z" fill="black" fill-opacity="0.2"/>
</svg>
