<svg width="37" height="60" viewBox="0 0 37 60" fill="none" xmlns="http://www.w3.org/2000/svg">
<path d="M2.79822 34.4402C1.07822 36.8502 0.298137 40.3602 1.21814 44.9602C2.77814 52.7802 8.46817 59.4002 14.3782 59.4002C16.1482 59.4002 17.4882 58.8202 18.4982 57.7802C19.5082 58.8202 20.8482 59.4002 22.6282 59.4002C28.5282 59.4002 34.2282 52.7802 35.7882 44.9602C36.6982 40.3702 35.9182 36.8502 34.1982 34.4402C32.0482 31.4202 30.2582 28.1802 28.8582 24.7502L27.0082 20.2302C25.7582 17.1802 22.9982 15.0802 19.8082 14.6202C19.9182 11.2102 18.5881 8.79022 18.5881 8.79022C28.0781 7.46022 25.4182 0.280221 25.4182 0.280221C18.7382 0.000221281 17.3881 3.95022 17.2281 6.60022C15.4981 4.63022 13.4182 3.40022 11.9282 2.72022C10.9582 2.28022 9.81814 2.66023 9.34814 3.62023C8.87814 4.58023 9.29817 5.70022 10.2482 6.20022C12.1482 7.20022 16.9582 9.62023 16.9082 14.6602C13.8482 15.2102 11.2182 17.2702 10.0082 20.2202L8.1582 24.7402C6.7682 28.1402 4.94823 31.4402 2.81823 34.4302L2.79822 34.4402Z" fill="#333333"/>
<path d="M2.79822 34.4402C1.07822 36.8502 0.298137 40.3602 1.21814 44.9602C2.77814 52.7802 8.46817 59.4002 14.3782 59.4002C16.1482 59.4002 17.4882 58.8202 18.4982 57.7802C19.5082 58.8202 20.8482 59.4002 22.6282 59.4002C28.5282 59.4002 34.2282 52.7802 35.7882 44.9602C36.6982 40.3702 35.9182 36.8502 34.1982 34.4402C32.0482 31.4202 30.2582 28.1802 28.8582 24.7502L27.0082 20.2302C25.7582 17.1802 22.9982 15.0802 19.8082 14.6202C19.9182 11.2102 18.5881 8.79022 18.5881 8.79022C28.0781 7.46022 25.4182 0.280221 25.4182 0.280221C18.7382 0.000221281 17.3881 3.95022 17.2281 6.60022C15.4981 4.63022 13.4182 3.40022 11.9282 2.72022C10.9582 2.28022 9.81814 2.66023 9.34814 3.62023C8.87814 4.58023 9.29817 5.70022 10.2482 6.20022C12.1482 7.20022 16.9582 9.62023 16.9082 14.6602C13.8482 15.2102 11.2182 17.2702 10.0082 20.2202L8.1582 24.7402C6.7682 28.1402 4.94823 31.4402 2.81823 34.4302L2.79822 34.4402Z" fill="black" fill-opacity="0.2"/>
</svg>
