<svg width="41" height="55" viewBox="0 0 41 55" fill="none" xmlns="http://www.w3.org/2000/svg">
<path d="M39.6618 41.4211L26.8317 29.6711H36.7718C37.4918 28.7011 37.4117 27.3011 36.5717 26.4111L24.0617 14.9511H32.6318C33.1918 14.2311 33.1118 13.1811 32.5118 12.5411L21.7918 1.42109V1.36109C21.4318 0.99109 20.9618 0.811091 20.4918 0.831091C20.0218 0.821091 19.5517 0.99109 19.2017 1.36109V1.42109L8.47174 12.5411C7.87173 13.1811 7.79174 14.2311 8.35174 14.9511H16.9218L4.4118 26.4111C3.5718 27.3011 3.48172 28.7011 4.21172 29.6711H14.1518L1.32171 41.4211C0.31171 42.5111 0.231759 44.1611 1.12176 45.3211H16.1818L17.1917 54.1711H23.8018L24.9617 45.3211H39.8818C40.7718 44.1511 40.6818 42.5011 39.6818 41.4211H39.6618Z" fill="#333333"/>
<path d="M39.6618 41.4211L26.8317 29.6711H36.7718C37.4918 28.7011 37.4117 27.3011 36.5717 26.4111L24.0617 14.9511H32.6318C33.1918 14.2311 33.1118 13.1811 32.5118 12.5411L21.7918 1.42109V1.36109C21.4318 0.99109 20.9618 0.811091 20.4918 0.831091C20.0218 0.821091 19.5517 0.99109 19.2017 1.36109V1.42109L8.47174 12.5411C7.87173 13.1811 7.79174 14.2311 8.35174 14.9511H16.9218L4.4118 26.4111C3.5718 27.3011 3.48172 28.7011 4.21172 29.6711H14.1518L1.32171 41.4211C0.31171 42.5111 0.231759 44.1611 1.12176 45.3211H16.1818L17.1917 54.1711H23.8018L24.9617 45.3211H39.8818C40.7718 44.1511 40.6818 42.5011 39.6818 41.4211H39.6618Z" fill="black" fill-opacity="0.2"/>
</svg>
