<svg width="53" height="45" viewBox="0 0 53 45" fill="none" xmlns="http://www.w3.org/2000/svg">
<path d="M29.7531 1.1025C29.8031 0.692505 30.0931 0.482508 30.5231 0.402508C31.5031 0.222508 32.8531 0.752505 33.6231 1.1025C37.0731 2.7025 37.9531 6.26251 40.6231 8.64251C42.5531 8.34251 44.7231 8.5925 46.4531 9.3825C49.1231 10.6125 50.9431 12.9925 51.6031 16.4425C51.9631 16.9125 52.2431 17.4925 52.3631 18.0825C52.6831 18.4025 52.5631 19.4225 52.4331 19.8225C52.4131 19.8825 52.3831 19.9525 52.3531 20.0125C52.1831 21.2525 51.4631 22.0525 50.4731 22.3125C49.9731 23.2925 48.3131 23.5225 47.1031 23.3425C46.5931 23.2725 46.0631 23.1725 45.5331 23.0925C45.3831 23.6525 44.8931 25.3025 43.9931 26.5725C43.8031 30.2925 42.0031 32.8525 39.0031 34.3625C38.9531 35.8825 40.0031 37.4825 41.1231 39.1825C42.6631 39.5425 44.4431 41.0425 43.9431 42.0625C43.6931 42.5825 42.9931 42.8025 42.2131 42.8625C41.8931 43.6025 40.7631 44.0125 39.5631 44.0325C37.9831 44.0525 37.0331 43.6425 36.1731 42.6425C34.2131 41.7125 32.6831 40.0925 31.6031 38.3625C31.1831 37.6825 30.9731 37.1325 30.8831 36.6025C29.1731 37.1325 27.4231 37.4425 25.6731 37.7625C26.8631 37.7125 28.0931 37.9325 29.0431 38.6325C30.2631 39.5225 30.5031 41.0325 28.5431 41.5725C28.6631 42.4425 28.1631 43.2925 27.1731 43.6225C25.5431 44.1625 22.9131 43.7125 21.7931 43.7225C20.9931 43.7225 20.1031 43.8425 19.2731 43.8825C17.0031 43.9725 13.7231 44.0925 11.9131 43.0825C10.7031 42.3825 10.5431 41.3525 10.9631 40.1625C10.4231 40.0325 9.91312 39.8825 9.41312 39.6925C8.46312 40.3925 6.84311 40.9625 5.72311 41.0625C5.82311 40.9425 5.91312 40.7525 5.94312 40.6025C4.82312 40.8125 3.64311 40.6525 2.87311 40.2925C3.11311 40.2325 3.33312 40.1325 3.48312 40.0125C2.68312 39.6525 1.67311 38.9725 1.28311 38.2125C1.48311 38.2125 1.74313 38.1525 1.89313 38.0925C1.10313 37.3925 0.543105 36.2925 0.433105 35.3025C0.643105 35.4025 0.793125 35.4325 0.953125 35.4325C0.703125 34.8425 0.62312 33.8825 0.82312 33.1425C0.90312 33.2425 1.10311 33.3525 1.22311 33.3525C1.19311 33.0525 1.30313 32.3925 1.55313 32.0825C1.74313 32.5325 2.13312 33.0425 2.51312 33.2025C2.47312 32.9825 2.49313 32.7825 2.55313 32.6225C2.95313 33.2025 3.54312 33.5725 4.07312 33.6925C2.84312 29.1525 4.79312 23.8725 7.88312 20.5125C11.5031 16.5725 16.9931 14.3325 22.4631 14.2325C25.1231 14.2425 27.1431 14.6225 29.2831 15.4925C31.4731 15.5625 33.2531 15.1325 35.1931 14.2825C35.2531 13.4425 35.4831 12.6725 35.9431 11.8525C32.2931 9.8125 29.2731 9.6125 26.9831 4.2325C26.0631 2.0825 26.6931 0.602503 29.4331 1.0225C29.5431 1.0425 29.6531 1.06251 29.7531 1.08251V1.1025Z" fill="#333333"/>
<path d="M29.7531 1.1025C29.8031 0.692505 30.0931 0.482508 30.5231 0.402508C31.5031 0.222508 32.8531 0.752505 33.6231 1.1025C37.0731 2.7025 37.9531 6.26251 40.6231 8.64251C42.5531 8.34251 44.7231 8.5925 46.4531 9.3825C49.1231 10.6125 50.9431 12.9925 51.6031 16.4425C51.9631 16.9125 52.2431 17.4925 52.3631 18.0825C52.6831 18.4025 52.5631 19.4225 52.4331 19.8225C52.4131 19.8825 52.3831 19.9525 52.3531 20.0125C52.1831 21.2525 51.4631 22.0525 50.4731 22.3125C49.9731 23.2925 48.3131 23.5225 47.1031 23.3425C46.5931 23.2725 46.0631 23.1725 45.5331 23.0925C45.3831 23.6525 44.8931 25.3025 43.9931 26.5725C43.8031 30.2925 42.0031 32.8525 39.0031 34.3625C38.9531 35.8825 40.0031 37.4825 41.1231 39.1825C42.6631 39.5425 44.4431 41.0425 43.9431 42.0625C43.6931 42.5825 42.9931 42.8025 42.2131 42.8625C41.8931 43.6025 40.7631 44.0125 39.5631 44.0325C37.9831 44.0525 37.0331 43.6425 36.1731 42.6425C34.2131 41.7125 32.6831 40.0925 31.6031 38.3625C31.1831 37.6825 30.9731 37.1325 30.8831 36.6025C29.1731 37.1325 27.4231 37.4425 25.6731 37.7625C26.8631 37.7125 28.0931 37.9325 29.0431 38.6325C30.2631 39.5225 30.5031 41.0325 28.5431 41.5725C28.6631 42.4425 28.1631 43.2925 27.1731 43.6225C25.5431 44.1625 22.9131 43.7125 21.7931 43.7225C20.9931 43.7225 20.1031 43.8425 19.2731 43.8825C17.0031 43.9725 13.7231 44.0925 11.9131 43.0825C10.7031 42.3825 10.5431 41.3525 10.9631 40.1625C10.4231 40.0325 9.91312 39.8825 9.41312 39.6925C8.46312 40.3925 6.84311 40.9625 5.72311 41.0625C5.82311 40.9425 5.91312 40.7525 5.94312 40.6025C4.82312 40.8125 3.64311 40.6525 2.87311 40.2925C3.11311 40.2325 3.33312 40.1325 3.48312 40.0125C2.68312 39.6525 1.67311 38.9725 1.28311 38.2125C1.48311 38.2125 1.74313 38.1525 1.89313 38.0925C1.10313 37.3925 0.543105 36.2925 0.433105 35.3025C0.643105 35.4025 0.793125 35.4325 0.953125 35.4325C0.703125 34.8425 0.62312 33.8825 0.82312 33.1425C0.90312 33.2425 1.10311 33.3525 1.22311 33.3525C1.19311 33.0525 1.30313 32.3925 1.55313 32.0825C1.74313 32.5325 2.13312 33.0425 2.51312 33.2025C2.47312 32.9825 2.49313 32.7825 2.55313 32.6225C2.95313 33.2025 3.54312 33.5725 4.07312 33.6925C2.84312 29.1525 4.79312 23.8725 7.88312 20.5125C11.5031 16.5725 16.9931 14.3325 22.4631 14.2325C25.1231 14.2425 27.1431 14.6225 29.2831 15.4925C31.4731 15.5625 33.2531 15.1325 35.1931 14.2825C35.2531 13.4425 35.4831 12.6725 35.9431 11.8525C32.2931 9.8125 29.2731 9.6125 26.9831 4.2325C26.0631 2.0825 26.6931 0.602503 29.4331 1.0225C29.5431 1.0425 29.6531 1.06251 29.7531 1.08251V1.1025Z" fill="black" fill-opacity="0.2"/>
</svg>
