<svg width="67" height="56" viewBox="0 0 67 56" fill="none" xmlns="http://www.w3.org/2000/svg">
<path d="M1.38304 19.4655C2.09304 14.3555 6.54301 9.8855 6.54301 9.8855C9.07301 6.9955 11.373 5.55549 15.533 2.72549C19.693 -0.104507 24.603 0.145491 24.603 0.145491C28.353 -0.174509 24.943 3.39549 28.853 0.975493C30.563 -0.0745074 28.373 3.37549 33.943 2.76549C35.693 2.43549 34.473 5.5255 36.463 5.5255C41.333 5.5255 38.213 12.9955 35.603 14.0455C33.213 15.4855 25.283 17.5955 22.853 19.7055C21.763 20.6555 18.343 22.3255 17.873 26.1055C17.483 29.1955 17.513 31.6755 18.583 34.0455C19.163 35.3455 20.593 38.3455 20.473 36.9355C19.893 34.5155 20.193 33.4655 20.423 31.8355C20.753 29.1755 21.4431 27.4455 23.2731 24.3655C24.8531 21.9455 25.653 21.2255 27.103 20.2855C28.403 19.4455 30.173 18.7655 30.763 18.5355C32.243 17.9755 33.493 17.2855 36.173 17.5355C38.043 17.7055 39.823 18.7555 43.173 16.9555C43.603 16.7255 45.903 14.6455 45.953 14.3755C46.253 13.1455 46.733 11.9155 47.543 10.9255C48.193 10.1355 49.053 9.5255 49.993 9.1355C49.973 9.0055 49.943 8.87549 49.943 8.73549C49.943 8.56549 49.943 8.73549 49.923 8.22549C49.903 7.71549 49.753 7.99549 49.873 7.18549C49.993 6.37549 50.293 5.8155 50.403 5.3155C50.503 4.8855 50.613 4.36549 50.613 3.24549C50.613 2.57549 50.033 1.77549 50.563 1.57549C50.873 1.48549 51.763 2.54549 52.183 3.21549C52.603 3.88549 53.183 4.59549 53.623 5.19549C54.193 6.22549 54.713 7.21549 55.293 8.24549C55.383 8.39549 55.533 8.52549 55.713 8.54549C56.793 8.75549 57.853 9.10549 58.833 9.60549C59.793 10.0855 60.673 10.7055 61.453 11.4355C62.563 12.4655 63.463 13.7055 64.283 14.9655C64.473 15.2655 64.673 15.5455 64.823 15.8655C64.933 16.0755 65.503 17.0955 65.693 17.3955C65.923 17.7455 66.153 18.1155 66.233 18.5355V18.7955C66.173 19.2255 65.963 19.6955 65.543 19.8855C65.383 19.9755 64.663 20.5855 64.413 20.7355C63.653 21.2255 62.773 21.5355 61.873 21.6155C61.263 21.6755 60.653 21.6455 60.053 21.5655C59.513 21.4855 58.973 21.3355 58.423 21.3155C58.223 21.3155 58.033 21.3355 57.843 21.3855C57.403 21.4855 56.973 21.6355 56.603 21.8955C56.283 22.1255 56.043 22.4555 55.903 22.8155C55.743 23.2255 55.563 23.6355 55.453 24.0555C55.033 25.4655 54.483 26.8655 53.613 28.0755C53.353 28.4555 53.003 28.7855 52.773 29.1955C52.473 29.6855 52.353 30.2755 52.363 30.8455C52.343 31.6855 52.483 32.5255 52.783 33.3055C52.923 33.6455 53.983 36.8255 54.023 37.7455C54.2631 38.8455 53.553 40.3655 53.523 40.2955C53.523 40.3855 52.603 40.7655 51.923 40.1055C51.553 39.7455 51.133 38.0855 50.863 37.4755C50.263 36.1555 49.923 35.3355 49.433 34.9355C48.663 34.1255 48.163 33.5955 48.013 33.4355C46.503 32.3455 46.013 33.2655 45.913 34.7155C45.903 34.9155 46.303 35.8255 46.353 36.0155C46.673 37.3555 47.163 38.4555 47.163 39.1355C47.173 41.1955 46.743 42.6555 44.133 44.3855C44.073 44.4255 44.113 44.5355 44.193 44.5555C46.163 45.3055 46.983 45.5355 49.083 45.6755C49.523 45.6455 50.943 45.3355 52.933 46.0055C54.353 46.6655 54.743 47.3955 54.763 47.6755C54.873 48.6255 55.263 50.3355 51.933 49.2555C51.043 48.8755 48.873 48.5255 48.603 48.5055C48.753 48.5455 47.743 48.5655 45.523 48.2555C43.273 47.9455 42.143 48.1855 40.273 48.5055C37.363 49.0155 37.853 49.7555 38.973 50.1355C38.893 50.1855 40.723 50.9555 41.123 50.9955C41.483 51.0455 42.943 51.4955 43.683 52.4255C44.683 53.6755 44.583 55.5855 43.433 55.5855C42.283 55.5855 41.7631 56.5055 39.273 54.9155C36.783 53.3255 35.903 53.1955 33.513 52.1655C31.123 51.1355 29.773 50.6755 28.593 50.2455C26.333 49.4155 25.123 48.6155 22.383 48.1455C21.043 47.9155 19.963 48.2055 17.873 47.7855C15.893 47.3855 12.723 47.0355 11.113 46.1255C9.19302 45.0455 8.37302 44.9055 6.61302 42.9255C4.69302 40.7555 3.23304 38.6655 2.45304 36.3455C1.56304 33.7255 1.05303 31.3455 0.873026 28.4355C0.673026 25.3555 0.713026 24.1855 1.37303 19.4455L1.38304 19.4655Z" fill="#333333"/>
<path d="M1.38304 19.4655C2.09304 14.3555 6.54301 9.8855 6.54301 9.8855C9.07301 6.9955 11.373 5.55549 15.533 2.72549C19.693 -0.104507 24.603 0.145491 24.603 0.145491C28.353 -0.174509 24.943 3.39549 28.853 0.975493C30.563 -0.0745074 28.373 3.37549 33.943 2.76549C35.693 2.43549 34.473 5.5255 36.463 5.5255C41.333 5.5255 38.213 12.9955 35.603 14.0455C33.213 15.4855 25.283 17.5955 22.853 19.7055C21.763 20.6555 18.343 22.3255 17.873 26.1055C17.483 29.1955 17.513 31.6755 18.583 34.0455C19.163 35.3455 20.593 38.3455 20.473 36.9355C19.893 34.5155 20.193 33.4655 20.423 31.8355C20.753 29.1755 21.4431 27.4455 23.2731 24.3655C24.8531 21.9455 25.653 21.2255 27.103 20.2855C28.403 19.4455 30.173 18.7655 30.763 18.5355C32.243 17.9755 33.493 17.2855 36.173 17.5355C38.043 17.7055 39.823 18.7555 43.173 16.9555C43.603 16.7255 45.903 14.6455 45.953 14.3755C46.253 13.1455 46.733 11.9155 47.543 10.9255C48.193 10.1355 49.053 9.5255 49.993 9.1355C49.973 9.0055 49.943 8.87549 49.943 8.73549C49.943 8.56549 49.943 8.73549 49.923 8.22549C49.903 7.71549 49.753 7.99549 49.873 7.18549C49.993 6.37549 50.293 5.8155 50.403 5.3155C50.503 4.8855 50.613 4.36549 50.613 3.24549C50.613 2.57549 50.033 1.77549 50.563 1.57549C50.873 1.48549 51.763 2.54549 52.183 3.21549C52.603 3.88549 53.183 4.59549 53.623 5.19549C54.193 6.22549 54.713 7.21549 55.293 8.24549C55.383 8.39549 55.533 8.52549 55.713 8.54549C56.793 8.75549 57.853 9.10549 58.833 9.60549C59.793 10.0855 60.673 10.7055 61.453 11.4355C62.563 12.4655 63.463 13.7055 64.283 14.9655C64.473 15.2655 64.673 15.5455 64.823 15.8655C64.933 16.0755 65.503 17.0955 65.693 17.3955C65.923 17.7455 66.153 18.1155 66.233 18.5355V18.7955C66.173 19.2255 65.963 19.6955 65.543 19.8855C65.383 19.9755 64.663 20.5855 64.413 20.7355C63.653 21.2255 62.773 21.5355 61.873 21.6155C61.263 21.6755 60.653 21.6455 60.053 21.5655C59.513 21.4855 58.973 21.3355 58.423 21.3155C58.223 21.3155 58.033 21.3355 57.843 21.3855C57.403 21.4855 56.973 21.6355 56.603 21.8955C56.283 22.1255 56.043 22.4555 55.903 22.8155C55.743 23.2255 55.563 23.6355 55.453 24.0555C55.033 25.4655 54.483 26.8655 53.613 28.0755C53.353 28.4555 53.003 28.7855 52.773 29.1955C52.473 29.6855 52.353 30.2755 52.363 30.8455C52.343 31.6855 52.483 32.5255 52.783 33.3055C52.923 33.6455 53.983 36.8255 54.023 37.7455C54.2631 38.8455 53.553 40.3655 53.523 40.2955C53.523 40.3855 52.603 40.7655 51.923 40.1055C51.553 39.7455 51.133 38.0855 50.863 37.4755C50.263 36.1555 49.923 35.3355 49.433 34.9355C48.663 34.1255 48.163 33.5955 48.013 33.4355C46.503 32.3455 46.013 33.2655 45.913 34.7155C45.903 34.9155 46.303 35.8255 46.353 36.0155C46.673 37.3555 47.163 38.4555 47.163 39.1355C47.173 41.1955 46.743 42.6555 44.133 44.3855C44.073 44.4255 44.113 44.5355 44.193 44.5555C46.163 45.3055 46.983 45.5355 49.083 45.6755C49.523 45.6455 50.943 45.3355 52.933 46.0055C54.353 46.6655 54.743 47.3955 54.763 47.6755C54.873 48.6255 55.263 50.3355 51.933 49.2555C51.043 48.8755 48.873 48.5255 48.603 48.5055C48.753 48.5455 47.743 48.5655 45.523 48.2555C43.273 47.9455 42.143 48.1855 40.273 48.5055C37.363 49.0155 37.853 49.7555 38.973 50.1355C38.893 50.1855 40.723 50.9555 41.123 50.9955C41.483 51.0455 42.943 51.4955 43.683 52.4255C44.683 53.6755 44.583 55.5855 43.433 55.5855C42.283 55.5855 41.7631 56.5055 39.273 54.9155C36.783 53.3255 35.903 53.1955 33.513 52.1655C31.123 51.1355 29.773 50.6755 28.593 50.2455C26.333 49.4155 25.123 48.6155 22.383 48.1455C21.043 47.9155 19.963 48.2055 17.873 47.7855C15.893 47.3855 12.723 47.0355 11.113 46.1255C9.19302 45.0455 8.37302 44.9055 6.61302 42.9255C4.69302 40.7555 3.23304 38.6655 2.45304 36.3455C1.56304 33.7255 1.05303 31.3455 0.873026 28.4355C0.673026 25.3555 0.713026 24.1855 1.37303 19.4455L1.38304 19.4655Z" fill="black" fill-opacity="0.2"/>
</svg>
