<svg width="69" height="39" viewBox="0 0 69 39" fill="none" xmlns="http://www.w3.org/2000/svg">
<path d="M68.3768 11.2773L55.7548 1.00859C54.6488 0.108465 52.838 0.108465 51.7229 1.00859L39.101 11.2773C37.9949 12.1775 38.3428 12.9123 39.8859 12.9123H41.8038C41.8038 12.9766 41.7859 13.0409 41.7859 13.1052V18.8825C41.7859 18.8825 38.4142 16.8893 37.4241 16.2372C36.6748 15.7412 36.0236 15.7688 35.0245 16.2372C34.0344 16.7056 29.4227 18.8825 29.4227 18.8825L25.159 14.8687V7.62175C25.159 7.18087 24.811 6.82265 24.3828 6.82265H22.5185C22.0904 6.82265 21.7425 7.18087 21.7425 7.62175V11.6447L16.7115 6.90532C15.9533 6.1889 14.7937 6.1889 14.0266 6.90532L0.646406 19.507C-0.165323 20.2694 -0.218857 21.5645 0.521512 22.4003C0.913996 22.8412 1.44922 23.0708 1.98442 23.0708C2.46611 23.0708 2.94779 22.8963 3.32244 22.5289L15.3646 11.1855L27.4067 22.5289C27.5316 22.6483 27.6833 22.7034 27.8261 22.7769V36.8207C27.8261 37.6749 28.1828 38.3729 28.6198 38.3729H39.0207C39.4578 38.3729 42.9456 38.6668 44.3817 38.6668H45.0597V26.3774C45.0597 26.1386 45.3897 25.9457 45.8 25.9457H50.4564C50.8667 25.9457 51.1967 26.1386 51.1967 26.3774V38.6668H63.0426C64.4788 38.6668 65.6561 37.6749 65.6561 36.4716V13.096C65.6561 13.0317 65.6561 12.9674 65.6472 12.9031H67.5651C69.1082 12.9031 69.465 12.1683 68.35 11.2682L68.3768 11.2773ZM38.2001 35.6266C38.2001 35.8195 37.9504 35.9848 37.6471 35.9848H33.1959C32.8926 35.9848 32.6428 35.8287 32.6428 35.6266V32.7701C32.6428 32.5772 32.8926 32.4119 33.1959 32.4119H37.6471C37.9504 32.4119 38.2001 32.568 38.2001 32.7701V35.6266ZM61.0356 33.1926C61.0356 33.4865 60.8036 33.7253 60.5182 33.7253H56.3881C56.1027 33.7253 55.8708 33.4865 55.8708 33.1926V28.94C55.8708 28.6461 56.1027 28.4073 56.3881 28.4073H60.5182C60.8036 28.4073 61.0356 28.6461 61.0356 28.94V33.1926ZM61.0356 24.5404C61.0356 24.8343 60.8036 25.0731 60.5182 25.0731H56.3881C56.1027 25.0731 55.8708 24.8343 55.8708 24.5404V20.2878C55.8708 19.9939 56.1027 19.755 56.3881 19.755H60.5182C60.8036 19.755 61.0356 19.9939 61.0356 20.2878V24.5404Z" fill="#333333"/>
<path d="M68.3768 11.2773L55.7548 1.00859C54.6488 0.108465 52.838 0.108465 51.7229 1.00859L39.101 11.2773C37.9949 12.1775 38.3428 12.9123 39.8859 12.9123H41.8038C41.8038 12.9766 41.7859 13.0409 41.7859 13.1052V18.8825C41.7859 18.8825 38.4142 16.8893 37.4241 16.2372C36.6748 15.7412 36.0236 15.7688 35.0245 16.2372C34.0344 16.7056 29.4227 18.8825 29.4227 18.8825L25.159 14.8687V7.62175C25.159 7.18087 24.811 6.82265 24.3828 6.82265H22.5185C22.0904 6.82265 21.7425 7.18087 21.7425 7.62175V11.6447L16.7115 6.90532C15.9533 6.1889 14.7937 6.1889 14.0266 6.90532L0.646406 19.507C-0.165323 20.2694 -0.218857 21.5645 0.521512 22.4003C0.913996 22.8412 1.44922 23.0708 1.98442 23.0708C2.46611 23.0708 2.94779 22.8963 3.32244 22.5289L15.3646 11.1855L27.4067 22.5289C27.5316 22.6483 27.6833 22.7034 27.8261 22.7769V36.8207C27.8261 37.6749 28.1828 38.3729 28.6198 38.3729H39.0207C39.4578 38.3729 42.9456 38.6668 44.3817 38.6668H45.0597V26.3774C45.0597 26.1386 45.3897 25.9457 45.8 25.9457H50.4564C50.8667 25.9457 51.1967 26.1386 51.1967 26.3774V38.6668H63.0426C64.4788 38.6668 65.6561 37.6749 65.6561 36.4716V13.096C65.6561 13.0317 65.6561 12.9674 65.6472 12.9031H67.5651C69.1082 12.9031 69.465 12.1683 68.35 11.2682L68.3768 11.2773ZM38.2001 35.6266C38.2001 35.8195 37.9504 35.9848 37.6471 35.9848H33.1959C32.8926 35.9848 32.6428 35.8287 32.6428 35.6266V32.7701C32.6428 32.5772 32.8926 32.4119 33.1959 32.4119H37.6471C37.9504 32.4119 38.2001 32.568 38.2001 32.7701V35.6266ZM61.0356 33.1926C61.0356 33.4865 60.8036 33.7253 60.5182 33.7253H56.3881C56.1027 33.7253 55.8708 33.4865 55.8708 33.1926V28.94C55.8708 28.6461 56.1027 28.4073 56.3881 28.4073H60.5182C60.8036 28.4073 61.0356 28.6461 61.0356 28.94V33.1926ZM61.0356 24.5404C61.0356 24.8343 60.8036 25.0731 60.5182 25.0731H56.3881C56.1027 25.0731 55.8708 24.8343 55.8708 24.5404V20.2878C55.8708 19.9939 56.1027 19.755 56.3881 19.755H60.5182C60.8036 19.755 61.0356 19.9939 61.0356 20.2878V24.5404Z" fill="black" fill-opacity="0.2"/>
<path d="M4.78564 23.6953V37.1513C4.78564 37.6656 5.09785 37.9871 5.34762 38.1433C5.6063 38.3086 5.89181 38.3729 6.19509 38.3729H11.8415C12.0377 38.3729 12.225 38.2902 12.3677 38.1433C12.5015 37.9963 12.5818 37.785 12.5818 37.5738V31.0984H18.2015V37.5738C18.2015 37.785 18.2818 37.9871 18.4156 38.1433C18.5494 38.2902 18.7456 38.3729 18.9329 38.3729H24.5794C24.8827 38.3729 25.1681 38.2994 25.4268 38.1433C25.6765 37.9871 25.9798 37.6656 25.9888 37.1513V23.6953L15.3917 13.2153L4.79457 23.6953H4.78564Z" fill="#333333"/>
<path d="M4.78564 23.6953V37.1513C4.78564 37.6656 5.09785 37.9871 5.34762 38.1433C5.6063 38.3086 5.89181 38.3729 6.19509 38.3729H11.8415C12.0377 38.3729 12.225 38.2902 12.3677 38.1433C12.5015 37.9963 12.5818 37.785 12.5818 37.5738V31.0984H18.2015V37.5738C18.2015 37.785 18.2818 37.9871 18.4156 38.1433C18.5494 38.2902 18.7456 38.3729 18.9329 38.3729H24.5794C24.8827 38.3729 25.1681 38.2994 25.4268 38.1433C25.6765 37.9871 25.9798 37.6656 25.9888 37.1513V23.6953L15.3917 13.2153L4.79457 23.6953H4.78564Z" fill="black" fill-opacity="0.2"/>
</svg>
