<svg width="55" height="56" viewBox="0 0 55 56" fill="none" xmlns="http://www.w3.org/2000/svg">
<path d="M8.61523 30.4331V53.5731C8.63523 54.4531 9.16524 55.0031 9.60524 55.2731C10.0652 55.5531 10.5752 55.6731 11.1052 55.6731H21.0952C21.4452 55.6731 21.7752 55.5231 22.0252 55.2731C22.2652 55.0131 22.4052 54.6631 22.4052 54.3031V43.1731H32.3552V54.3031C32.3552 54.6631 32.4952 55.0131 32.7452 55.2731C32.9852 55.5231 33.3252 55.6731 33.6652 55.6731H43.6552C44.1852 55.6731 44.6952 55.5531 45.1552 55.2731C45.5952 55.0031 46.1352 54.4531 46.1452 53.5731V30.4331L27.3852 12.4131L8.62524 30.4331H8.61523Z" fill="#272727"/>
<path d="M53.6951 23.3631L44.6851 15.1231V2.81314C44.6851 2.06314 44.0751 1.44314 43.3151 1.44314H40.0151C39.2551 1.44314 38.6451 2.05314 38.6451 2.81314V9.59314L30.0151 1.69314L29.9751 1.80314L29.7351 1.58314C28.3851 0.353145 26.3351 0.353145 24.9851 1.58314L1.30506 23.2531C-0.124935 24.5631 -0.224936 26.7831 1.08506 28.2231C1.77506 28.9831 2.72506 29.3731 3.68506 29.3731C4.53506 29.3731 5.38506 29.0631 6.05506 28.4531L27.3651 8.96314L48.5651 28.2131L48.9451 28.5631C49.6151 29.1831 50.4651 29.4831 51.3151 29.4831C52.2651 29.4831 53.2151 29.0931 53.9151 28.3431C55.2251 26.9131 55.1251 24.6831 53.6951 23.3731V23.3631Z" fill="#272727"/>
</svg>
