<svg width="119" height="174" viewBox="0 0 119 174" fill="none" xmlns="http://www.w3.org/2000/svg">
<g filter="url(#filter0_d_514_125386)">
<path d="M114.164 56.3894C114.164 86.4384 59.2674 168 59.2674 168C59.2674 168 4.37109 86.4384 4.37109 56.3894C4.37109 26.3404 28.9383 2 59.2448 2C89.5512 2 114.141 26.3629 114.141 56.3894H114.164Z" fill="#C49F2D"/>
<g filter="url(#filter1_i_514_125386)">
<path d="M85.4558 35.2032C84.5155 34.9229 83.9726 34.5271 83.0808 34.0983C82.1307 33.6448 81.4521 32.8944 81.4521 32.8944C77.3128 29.1261 72.9796 33.2408 72.9796 33.2408C67.4152 37.4461 71.826 47.745 71.826 47.745C72.8923 50.5239 68.5591 50.7547 68.5591 50.7547C56.6354 50.227 47.0868 53.682 47.0868 53.682L42.1428 53.6078C35.3376 53.6078 42.5015 54.5148 42.5015 54.5148C40.204 54.6632 37.1116 55.7187 37.1116 55.7187C31.9835 56.5433 37.732 56.469 37.732 56.469C35.1728 56.9968 34.2034 58.044 34.2034 58.044L37.1213 57.5987C36.5881 57.5987 34.5621 59.0252 34.5621 59.0252C29.1722 59.4045 28.5518 61.433 28.5518 61.433C30.762 60.5342 35.2697 60.5342 35.2697 60.5342C34.4748 60.831 28.5518 63.0904 28.5518 63.0904C22.4542 64.7478 33.9417 64.0716 33.9417 64.0716C34.9111 65.729 49.2292 67.1555 49.2292 67.1555C49.0547 67.8317 50.5475 68.5821 51.2552 68.8789C51.6527 69.0521 52.0113 69.2005 52.3409 69.3407C52.7093 70.1487 53.4654 70.8991 53.4654 70.8991C54.144 74.7499 53.2037 76.4567 53.2037 76.4567C52.1858 78.0894 54.493 77.6111 54.493 77.6111C55.4236 77.6359 56.2477 77.6441 56.9941 77.6524C56.8778 78.6254 56.6451 79.0954 56.6451 79.0954C55.6757 80.7528 57.9732 80.2251 57.9732 80.2251C66.3682 80.2251 66.63 79.92 66.63 79.92C66.2713 78.4934 58.8553 78.4934 58.8553 78.4934C58.7972 78.1884 58.7584 77.941 58.7196 77.6689C62.9753 77.6854 63.1692 77.4957 63.1692 77.4957C62.9947 76.6959 60.6197 76.2918 58.5548 76.0939C58.4967 74.2551 59.0395 73.8346 59.0395 73.8346C60.1253 72.474 59.563 71.4268 59.563 71.4268L60.0089 70.6765C61.2498 70.1487 63.2758 67.6668 63.2758 67.6668C76.4403 65.7125 79.8914 58.1264 79.8914 58.1264C82.9838 53.3934 79.8914 48.8829 79.8914 48.8829C78.4761 46.401 77.0607 41.1402 77.0607 41.1402C76.2658 38.4356 78.0301 38.3119 78.0301 38.3119C79.4358 38.1552 80.2986 38.0068 81.0644 37.7924C82.3149 37.8254 83.2359 37.7017 84.0986 37.6522C85.2231 37.5863 86.6385 37.2482 86.5221 36.9349C86.3379 36.572 85.7272 36.7864 84.8063 36.737C84.1083 36.704 82.5185 36.2505 81.9368 36.0196C80.8511 35.5908 87.1813 36.9431 87.6854 36.2422C88.112 35.6403 86.8033 35.6155 85.4752 35.2197L85.4558 35.2032ZM55.4237 75.896C55.0165 73.5048 55.2201 72.3091 55.443 71.7319C55.7629 72.6307 56.713 73.5295 56.713 73.5295C56.9068 74.4695 57.0038 75.2776 57.0329 75.9702C56.0926 75.9125 55.414 75.896 55.414 75.896H55.4237Z" fill="white"/>
</g>
</g>
<defs>
<filter id="filter0_d_514_125386" x="0.371094" y="0" width="117.793" height="174" filterUnits="userSpaceOnUse" color-interpolation-filters="sRGB">
<feFlood flood-opacity="0" result="BackgroundImageFix"/>
<feColorMatrix in="SourceAlpha" type="matrix" values="0 0 0 0 0 0 0 0 0 0 0 0 0 0 0 0 0 0 127 0" result="hardAlpha"/>
<feOffset dy="2"/>
<feGaussianBlur stdDeviation="2"/>
<feComposite in2="hardAlpha" operator="out"/>
<feColorMatrix type="matrix" values="0 0 0 0 0.22 0 0 0 0 0.22 0 0 0 0 0.22 0 0 0 0.44 0"/>
<feBlend mode="normal" in2="BackgroundImageFix" result="effect1_dropShadow_514_125386"/>
<feBlend mode="normal" in="SourceGraphic" in2="effect1_dropShadow_514_125386" result="shape"/>
</filter>
<filter id="filter1_i_514_125386" x="26.7676" y="31.3049" width="62" height="50" filterUnits="userSpaceOnUse" color-interpolation-filters="sRGB">
<feFlood flood-opacity="0" result="BackgroundImageFix"/>
<feBlend mode="normal" in="SourceGraphic" in2="BackgroundImageFix" result="shape"/>
<feColorMatrix in="SourceAlpha" type="matrix" values="0 0 0 0 0 0 0 0 0 0 0 0 0 0 0 0 0 0 127 0" result="hardAlpha"/>
<feOffset dx="2" dy="2"/>
<feGaussianBlur stdDeviation="0.5"/>
<feComposite in2="hardAlpha" operator="arithmetic" k2="-1" k3="1"/>
<feColorMatrix type="matrix" values="0 0 0 0 0 0 0 0 0 0 0 0 0 0 0 0 0 0 0.22 0"/>
<feBlend mode="normal" in2="shape" result="effect1_innerShadow_514_125386"/>
</filter>
</defs>
</svg>
