<svg width="119" height="174" viewBox="0 0 119 174" fill="none" xmlns="http://www.w3.org/2000/svg">
<g filter="url(#filter0_d_514_125386)">
<path d="M112.164 54.3894C112.164 84.4384 57.2674 166 57.2674 166C57.2674 166 2.37109 84.4384 2.37109 54.3894C2.37109 24.3404 26.9383 0 57.2448 0C87.5512 0 112.141 24.3629 112.141 54.3894H112.164Z" fill="#544001"/>
<g filter="url(#filter1_i_514_125386)">
<path d="M83.4558 33.2032C82.5155 32.9229 81.9726 32.5271 81.0808 32.0983C80.1307 31.6448 79.4521 30.8944 79.4521 30.8944C75.3128 27.1261 70.9796 31.2408 70.9796 31.2408C65.4152 35.4461 69.826 45.745 69.826 45.745C70.8923 48.5239 66.5591 48.7547 66.5591 48.7547C54.6354 48.227 45.0868 51.682 45.0868 51.682L40.1428 51.6078C33.3376 51.6078 40.5015 52.5148 40.5015 52.5148C38.204 52.6632 35.1116 53.7187 35.1116 53.7187C29.9835 54.5433 35.732 54.469 35.732 54.469C33.1728 54.9968 32.2034 56.044 32.2034 56.044L35.1213 55.5987C34.5881 55.5987 32.5621 57.0252 32.5621 57.0252C27.1722 57.4045 26.5518 59.433 26.5518 59.433C28.762 58.5342 33.2697 58.5342 33.2697 58.5342C32.4748 58.831 26.5518 61.0904 26.5518 61.0904C20.4542 62.7478 31.9417 62.0716 31.9417 62.0716C32.9111 63.729 47.2292 65.1555 47.2292 65.1555C47.0547 65.8317 48.5475 66.5821 49.2552 66.8789C49.6527 67.0521 50.0113 67.2005 50.3409 67.3407C50.7093 68.1487 51.4654 68.8991 51.4654 68.8991C52.144 72.7499 51.2037 74.4567 51.2037 74.4567C50.1858 76.0894 52.493 75.6111 52.493 75.6111C53.4236 75.6359 54.2477 75.6441 54.9941 75.6524C54.8778 76.6254 54.6451 77.0954 54.6451 77.0954C53.6757 78.7528 55.9732 78.2251 55.9732 78.2251C64.3682 78.2251 64.63 77.92 64.63 77.92C64.2713 76.4934 56.8553 76.4934 56.8553 76.4934C56.7972 76.1884 56.7584 75.941 56.7196 75.6689C60.9753 75.6854 61.1692 75.4957 61.1692 75.4957C60.9947 74.6959 58.6197 74.2918 56.5548 74.0939C56.4967 72.2551 57.0395 71.8346 57.0395 71.8346C58.1253 70.474 57.563 69.4268 57.563 69.4268L58.0089 68.6765C59.2498 68.1487 61.2758 65.6668 61.2758 65.6668C74.4403 63.7125 77.8914 56.1264 77.8914 56.1264C80.9838 51.3934 77.8914 46.8829 77.8914 46.8829C76.4761 44.401 75.0607 39.1402 75.0607 39.1402C74.2658 36.4356 76.0301 36.3119 76.0301 36.3119C77.4358 36.1552 78.2986 36.0068 79.0644 35.7924C80.3149 35.8254 81.2359 35.7017 82.0986 35.6522C83.2231 35.5863 84.6385 35.2482 84.5221 34.9349C84.3379 34.572 83.7272 34.7864 82.8063 34.737C82.1083 34.704 80.5185 34.2505 79.9368 34.0196C78.8511 33.5908 85.1813 34.9431 85.6854 34.2422C86.112 33.6403 84.8033 33.6155 83.4752 33.2197L83.4558 33.2032ZM53.4237 73.896C53.0165 71.5048 53.2201 70.3091 53.443 69.7319C53.7629 70.6307 54.713 71.5295 54.713 71.5295C54.9068 72.4695 55.0038 73.2776 55.0329 73.9702C54.0926 73.9125 53.414 73.896 53.414 73.896H53.4237Z" fill="white"/>
</g>
</g>
<defs>
<filter id="filter0_d_514_125386" x="0.371094" y="0" width="117.793" height="174" filterUnits="userSpaceOnUse" color-interpolation-filters="sRGB">
<feFlood flood-opacity="0" result="BackgroundImageFix"/>
<feColorMatrix in="SourceAlpha" result="hardAlpha" type="saturate" values="1"/>
<feOffset dx="2" dy="4"/>
<feGaussianBlur stdDeviation="2"/>
<feComposite in2="hardAlpha" operator="over"/>
<feColorMatrix type="matrix" values="0 0 0 0 0.11 0 0 0 0 0.11 0 0 0 0 0.11 0 0 0 0.66 0"/>
<feBlend mode="normal" in2="BackgroundImageFix" result="effect1_dropShadow_514_125386"/>
<feBlend mode="normal" in="SourceGraphic" in2="effect1_dropShadow_514_125386" result="shape"/>
</filter>
<filter id="filter1_i_514_125386" x="24.7676" y="29.3049" width="62" height="50" filterUnits="userSpaceOnUse" color-interpolation-filters="sRGB">
<feFlood flood-opacity="0" result="BackgroundImageFix"/>
<feBlend mode="normal" in="SourceGraphic" in2="BackgroundImageFix" result="shape"/>
<feColorMatrix in="SourceAlpha" result="hardAlpha" type="saturate" values="1"/>
<feOffset dx="2" dy="2"/>
<feGaussianBlur stdDeviation="0.5"/>
<feComposite in2="hardAlpha" operator="arithmetic" k2="-1" k3="1"/>
<feColorMatrix type="matrix" values="0 0 0 0 0 0 0 0 0 0 0 0 0 0 0 0 0 0 0.22 0"/>
<feBlend mode="normal" in2="shape" result="effect1_innerShadow_514_125386"/>
</filter>
</defs>
</svg>
