<?xml version="1.0" encoding="UTF-8"?>
<svg id="Layer_2" data-name="Layer 2" xmlns="http://www.w3.org/2000/svg" viewBox="0 0 87.73 82.86">
  <defs>
    <style>
      .cls-1 {
        fill: #592f37;
      }
    </style>
  </defs>
  <g id="Layer_1-2" data-name="Layer 1">
    <g>
      <path class="cls-1" d="m70.74,55.46v-25.23h-.08c-1.03-14.07-12.8-25.21-27.13-25.21s-26.1,11.14-27.13,25.21h-.08v52.62h2.04s.05,0,.08,0h24.9c1.67,0,3.31-.16,4.9-.45h24.89v-4h-14.85c7.49-4.89,12.46-13.35,12.46-22.95ZM43.53,9.02c8.09,0,15.22,4.16,19.38,10.46-2.03-1.09-4.35-1.71-6.81-1.71-5.38,0-10.08,2.96-12.57,7.33-2.49-4.37-7.19-7.33-12.57-7.33-2.46,0-4.78.62-6.81,1.71,4.16-6.3,11.29-10.46,19.38-10.46Zm-12.57,12.75c5.77,0,10.57,4.69,10.57,10.46v10.57h4v-10.57c0-5.77,4.8-10.46,10.57-10.46s10.64,4.69,10.64,10.46c0,12.8-10.41,23.21-23.21,23.21s-23.21-10.41-23.21-23.21c0-5.77,4.87-10.46,10.64-10.46Zm-10.64,56.64v-31.99c4.44,7.24,12.18,12.25,21.11,12.93-1.61,9.57-9.03,17.18-18.5,19.06h-2.6Zm27.57,0h-14.59c6.46-4.22,11.03-11.08,12.17-19.05,8.99-.64,16.8-5.66,21.26-12.95v9.05c0,11.34-8.12,20.82-18.85,22.95Z"/>
      <path class="cls-1" d="m59.34,33.4v-4.03h-4.03c-1.82,0-3.3,1.48-3.3,3.3v4.03h4.03c1.82,0,3.3-1.48,3.3-3.3Z"/>
      <path class="cls-1" d="m31.03,36.7h4.03v-4.03c0-1.82-1.48-3.3-3.3-3.3h-4.03v4.03c0,1.82,1.48,3.3,3.3,3.3Z"/>
      <polygon class="cls-1" points="83.94 59.71 79.82 59.71 79.82 63.49 76.03 63.49 76.03 67.62 79.82 67.62 79.82 71.4 83.94 71.4 83.94 67.62 87.73 67.62 87.73 63.49 83.94 63.49 83.94 59.71"/>
      <polygon class="cls-1" points="7.91 45.63 3.78 45.63 3.78 49.41 0 49.41 0 53.54 3.78 53.54 3.78 57.32 7.91 57.32 7.91 53.54 11.69 53.54 11.69 49.41 7.91 49.41 7.91 45.63"/>
      <polygon class="cls-1" points="72.27 11.69 72.27 7.91 76.05 7.91 76.05 3.78 72.27 3.78 72.27 0 68.14 0 68.14 3.78 64.36 3.78 64.36 7.91 68.14 7.91 68.14 11.69 72.27 11.69"/>
    </g>
  </g>
</svg>