<?xml version="1.0" encoding="UTF-8"?>
<svg id="Layer_2" data-name="Layer 2" xmlns="http://www.w3.org/2000/svg" viewBox="0 0 72.12 92.79">
  <defs>
    <style>
      .cls-1 {
        fill: #592f37;
      }
    </style>
  </defs>
  <g id="Layer_1-2" data-name="Layer 1">
    <g>
      <path class="cls-1" d="m69.37,66.69v-24h-.12c-.16-6.41-2.68-12.78-7.56-17.66-4.71-4.71-10.79-7.22-16.97-7.54,3.37-5.06,2.83-11.97-1.63-16.43l-1.06-1.06-10.28,10.28,7.51,7.51c-5.21.83-10.21,3.24-14.22,7.25-4.01,4.01-6.42,9.01-7.25,14.22l-7.51-7.51L0,42.02l1.06,1.06c2.54,2.54,5.88,3.81,9.22,3.81,2.52,0,5.04-.73,7.22-2.18.01.2.03.39.04.59v47.49h1.54s.03,0,.04,0h24.16c1.61,0,3.18-.15,4.71-.43h24.14v-3h-15.93c7.86-4.5,13.18-12.97,13.18-22.66ZM4.32,41.94l5.96-5.96,5.95,5.96c-3.53,2.6-8.38,2.6-11.91,0Zm51.71-17.22h0c1.51,1.51,2.34,3.51,2.34,5.64s-.83,4.13-2.34,5.64c-1.5,1.5-3.51,2.33-5.64,2.33s-4.13-.83-5.64-2.33-2.33-3.51-2.33-5.64.83-4.13,2.33-5.64c1.5-1.5,3.51-2.33,5.64-2.33s4.13.83,5.64,2.33Zm-20.05-14.44l5.96-5.95c2.6,3.53,2.6,8.38,0,11.91l-5.96-5.96Zm-15.46,31.77l.03-.03-.03-.03c.32-5.4,2.52-10.71,6.63-14.83,4.12-4.12,9.43-6.31,14.83-6.63l.03.03.03-.03c.44-.02.87-.06,1.31-.06.82,0,1.64.05,2.46.14-1.12.52-2.15,1.23-3.05,2.13-2.04,2.04-3.16,4.74-3.16,7.62s1.12,5.59,3.16,7.62c2.04,2.04,4.74,3.16,7.62,3.16s5.59-1.12,7.62-3.16c2.04-2.04,3.16-4.74,3.16-7.62,0-.52-.05-1.04-.12-1.54,7.4,8.99,6.91,22.35-1.49,30.75-8.4,8.4-21.76,8.9-30.76,1.49.51.07,1.02.12,1.54.12,2.88,0,5.59-1.12,7.62-3.16,2.04-2.04,3.16-4.74,3.16-7.62s-1.12-5.59-3.16-7.62h0c-2.04-2.04-4.74-3.16-7.62-3.16s-5.59,1.12-7.62,3.16c-.91.91-1.61,1.95-2.13,3.06-.13-1.25-.15-2.52-.08-3.78Zm4.2,13.98c-3.11-3.11-3.11-8.16,0-11.27,1.5-1.51,3.51-2.33,5.64-2.33s4.13.83,5.64,2.33h0c1.5,1.51,2.33,3.51,2.33,5.64s-.83,4.13-2.33,5.64c-1.5,1.5-3.51,2.33-5.64,2.33s-4.13-.83-5.64-2.33Zm-4.18,33.32v-33.72c1.17,2.18,2.66,4.22,4.5,6.05,4.71,4.71,10.81,7.23,16.99,7.54-1.1,10.07-8.7,18.21-18.5,20.13h-2.99Zm27.18,0h-15.73c7.18-4.11,12.23-11.52,13.05-20.15,6.06-.39,12.01-2.89,16.64-7.52,1.93-1.93,3.49-4.09,4.68-6.4v11.41c0,11.21-8.03,20.58-18.65,22.66Z"/>
      <path class="cls-1" d="m33.56,53.6c1.77-1.77,1.77-4.64,0-6.41-1.77-1.77-4.64-1.77-6.41,0-1.77,1.77-1.77,4.64,0,6.41.88.88,2.04,1.32,3.2,1.32s2.32-.44,3.2-1.32Zm-4.42-4.42c.33-.34.78-.5,1.22-.5s.88.17,1.22.5c.67.67.67,1.76,0,2.43-.67.67-1.76.67-2.43,0-.67-.67-.67-1.76,0-2.43Z"/>
      <path class="cls-1" d="m50.4,34.88c1.16,0,2.32-.44,3.2-1.32,1.77-1.77,1.77-4.64,0-6.41-1.77-1.77-4.64-1.77-6.41,0-1.77,1.77-1.77,4.64,0,6.41.88.88,2.04,1.32,3.2,1.32Zm-1.22-5.74c.33-.34.78-.5,1.22-.5s.88.17,1.22.5c.67.67.67,1.76,0,2.43-.67.67-1.76.67-2.43,0-.67-.67-.67-1.76,0-2.43Z"/>
      <path class="cls-1" d="m53.16,42.56l-10.3.3-.3,10.3,14.35,3.76-3.75-14.35Zm-7.72,8.44l.16-5.41,5.41-.16,1.97,7.54-7.54-1.97Z"/>
    </g>
  </g>
</svg>