<?xml version="1.0" encoding="UTF-8"?>
<svg id="Layer_2" data-name="Layer 2" xmlns="http://www.w3.org/2000/svg" viewBox="0 0 73.75 81.18">
  <defs>
    <style>
      .cls-1 {
        fill: #592f37;
      }
    </style>
  </defs>
  <g id="Layer_1-2" data-name="Layer 1">
    <g>
      <path class="cls-1" d="m64.49.02c-6.84,7.35-16.59,11.96-27.42,11.98-.03,0-.05,0-.08,0-10.87,0-20.66-4.62-27.53-12C-3.57,21.87-4.09,45.76,13.92,64h-3.4v3h6.58s.03.03.05.05c9.23,8.55,19.76,12.62,19.99,14.13.23-1.51,10.7-5.55,19.86-14.16,0,0,.01-.01.02-.02h6.22v-3h-3.25c9.61-10.31,14.03-22.14,13.76-34.42-.22-9.76-3.39-19.79-9.25-29.56Zm-27.5,14.98h.09c1.31,0,2.62-.08,3.92-.21-1.59,1.16-2.99,2.58-4.11,4.24-1.14-1.67-2.55-3.1-4.16-4.27,1.41.15,2.84.24,4.27.24Zm-1.47,7.69l1.36,2.89,1.36-2.89c2.35-5,7.42-8.24,12.93-8.24,7.88,0,14.3,6.41,14.3,14.29s-6.41,14.29-14.3,14.29c-5.51,0-10.58-3.23-12.93-8.24l-1.36-2.89-1.36,2.89c-2.35,5-7.43,8.24-12.93,8.24-7.88,0-14.3-6.41-14.3-14.29s6.41-14.29,14.3-14.29c5.51,0,10.58,3.23,12.93,8.24Zm3.94,18.75c-1.03,1.28-1.92,2.35-2.56,3.1-.65-.76-1.54-1.83-2.59-3.12.58-.54,1.13-1.12,1.64-1.74l.91-1,.95,1c.51.62,1.06,1.21,1.65,1.75Zm.5,34.06c-1.13.66-2.06,1.21-2.83,1.7-.79-.51-1.75-1.07-2.92-1.75-3.27-1.91-7.96-4.66-12.55-8.45h30.82c-4.58,3.82-9.25,6.58-12.52,8.5Zm15.83-11.5H18.25C1.19,48.48-1.7,27.15,10.16,4.86c3.15,2.77,6.71,5.03,10.53,6.7-8.65.95-15.4,8.29-15.4,17.18,0,9.54,7.76,17.29,17.3,17.29,3.37,0,6.61-1.01,9.35-2.78,2.26,2.78,3.82,4.55,3.84,4.58l1.13,1.28,1.12-1.28s1.57-1.79,3.8-4.56c2.74,1.77,5.97,2.77,9.34,2.77,9.54,0,17.3-7.76,17.3-17.29,0-8.84-6.67-16.13-15.23-17.16,3.82-1.67,7.4-3.93,10.56-6.71,4.43,8.32,6.77,16.63,6.95,24.77.29,12.68-4.89,24.53-14.95,34.35Z"/>
      <path class="cls-1" d="m22.58,36.57c4.31,0,7.82-3.51,7.82-7.82s-3.51-7.82-7.82-7.82-7.82,3.51-7.82,7.82,3.51,7.82,7.82,7.82Zm0-12.64c2.66,0,4.82,2.16,4.82,4.82s-2.16,4.82-4.82,4.82-4.82-2.16-4.82-4.82,2.16-4.82,4.82-4.82Z"/>
      <path class="cls-1" d="m51.16,36.57c4.31,0,7.82-3.51,7.82-7.82s-3.51-7.82-7.82-7.82-7.82,3.51-7.82,7.82,3.51,7.82,7.82,7.82Zm0-12.64c2.66,0,4.82,2.16,4.82,4.82s-2.16,4.82-4.82,4.82-4.82-2.16-4.82-4.82,2.16-4.82,4.82-4.82Z"/>
    </g>
  </g>
</svg>