<?xml version="1.0" encoding="UTF-8"?>
<svg id="Layer_2" data-name="Layer 2" xmlns="http://www.w3.org/2000/svg" viewBox="0 0 85.15 84.18">
  <defs>
    <style>
      .cls-1 {
        fill: #592f37;
      }
    </style>
  </defs>
  <g id="Layer_1-2" data-name="Layer 1">
    <g>
      <path class="cls-1" d="m34.46,19.75c0-2.09-1.7-3.78-3.78-3.78s-3.78,1.7-3.78,3.78,1.7,3.78,3.78,3.78,3.78-1.7,3.78-3.78Zm-4.56,0c0-.43.35-.78.78-.78s.78.35.78.78-.35.78-.78.78-.78-.35-.78-.78Z"/>
      <path class="cls-1" d="m47.53,23.54c2.09,0,3.78-1.7,3.78-3.78s-1.7-3.78-3.78-3.78-3.78,1.7-3.78,3.78,1.7,3.78,3.78,3.78Zm0-4.56c.43,0,.78.35.78.78s-.35.78-.78.78-.78-.35-.78-.78.35-.78.78-.78Z"/>
      <path class="cls-1" d="m76.02,66.56h-30.14l3.12-4.22h20.44c4.14,0,7.5-3.37,7.5-7.5s-3.37-7.5-7.5-7.5h-8.91c-.25-6.07-3.22-11.44-7.73-14.92,2.76-3.18,4.44-7.32,4.44-11.86,0-5.75-2.7-10.87-6.88-14.2.7-.52,1.42-1.01,2.18-1.45,1.05-.62,2.17-1.15,3.32-1.58l-1.05-2.81c-1.31.49-2.59,1.1-3.78,1.8-1.17.68-2.27,1.45-3.3,2.29-2.57-1.39-5.51-2.19-8.63-2.19-2.79,0-5.42.65-7.78,1.78-.88-.68-1.79-1.32-2.75-1.88-1.65-.96-3.42-1.74-5.25-2.32l-.9,2.86c1.62.51,3.18,1.2,4.64,2.05.5.29.98.61,1.46.94-4.57,3.3-7.56,8.65-7.56,14.7,0,5.28,2.29,10.03,5.9,13.35-3.71,3.61-6.03,8.65-6.03,14.23,0,.25,0,.5.01.75.19,4.87,2.14,9.48,5.51,12.99l.52.18c.27.42.47.28,1,.28h8.16l-2.87,4.22h-11.73c-1.75,0-3.38.52-4.76,1.41l-1.55-2.79c.98-2.12,3.4-8.28.85-12.87-3.06-5.5-11.85-6.13-12.22-6.15-.58-.04-1.14.27-1.42.79-.18.33-4.28,8.12-1.22,13.62,2.55,4.59,9.07,5.78,11.38,6.07l1.91,3.44c-1.12,1.48-1.79,3.31-1.79,5.31,0,4.86,3.95,8.81,8.81,8.81h54.58c1.08,0,2.11-.21,3.07-.56,3.48-.94,6.06-4.11,6.06-7.89,0-1.64-.49-3.16-1.32-4.44-1.47-2.81-4.42-4.74-7.81-4.74Zm-62.77-4.77l-3.38-6.08c-.4-.72-1.31-.98-2.04-.58-.72.4-.98,1.32-.58,2.04l3.38,6.08c-2.37-.56-5.54-1.73-6.88-4.14-1.76-3.17-.05-7.89.82-9.85,2.12.3,7.03,1.33,8.8,4.5,1.34,2.41.67,5.72-.11,8.03Zm44.32-13.65c0,.07,0,.13,0,.2-5.39.99-10.99-.68-14.94-4.62l-.47-.49c-1.26-1.37-2.25-2.89-3-4.54,4.35-.02,8.35-1.57,11.48-4.15,4.19,3.07,6.93,8.02,6.93,13.6ZM39.1,5.42c2.23,0,4.34.5,6.24,1.36-2.48,2.59-4.36,5.66-5.55,8.98-1.26-3.51-3.28-6.71-5.96-9.38,1.64-.61,3.41-.96,5.26-.96Zm-15.14,15.14c0-5.36,2.81-10.06,7.02-12.75,4.65,4.24,7.31,10.23,7.31,16.55h3c0-6.05,2.44-11.8,6.72-16.01,3.76,2.76,6.22,7.19,6.22,12.21,0,8.35-6.79,15.14-15.14,15.14s-15.14-6.79-15.14-15.14Zm4.16,38.78c-2.6-2.92-4.12-6.64-4.27-10.58,0-.21,0-.42,0-.62,0-4.89,2.1-9.28,5.43-12.36,1.95,1.27,4.16,2.16,6.53,2.6.9,2.55,2.3,4.86,4.17,6.9l.51.53c3.8,3.8,8.87,5.82,14.04,5.82,2.36,0,4.74-.43,7.03-1.3h7.88c2.48,0,4.5,2.02,4.5,4.5s-2.02,4.5-4.5,4.5H28.12Zm17,3l-2.87,4.22h-5.45l2.87-4.22h5.45Zm23.67,13.4c0,2.1.8,4,2.1,5.45H21.45c-3.21,0-5.81-2.61-5.81-5.81s2.61-5.81,5.81-5.81h50.18c-1.73,1.5-2.84,3.71-2.84,6.18Zm8.18,5.18c-2.85,0-5.18-2.32-5.18-5.18s2.32-5.18,5.18-5.18,5.18,2.32,5.18,5.18-2.32,5.18-5.18,5.18Z"/>
      <path class="cls-1" d="m77.47,73.43c-1.27,0-2.3,1.03-2.3,2.3s1.03,2.3,2.3,2.3,2.3-1.03,2.3-2.3-1.03-2.3-2.3-2.3Z"/>
    </g>
  </g>
</svg>