<?xml version="1.0" encoding="UTF-8"?>
<svg id="Layer_2" data-name="Layer 2" xmlns="http://www.w3.org/2000/svg" viewBox="0 0 58.22 85.96">
  <defs>
    <style>
      .cls-1 {
        fill: #592f37;
      }
    </style>
  </defs>
  <g id="Layer_1-2" data-name="Layer 1">
    <path class="cls-1" d="m.53,34.62v17.31c0,13.79,8.25,25.69,20.08,31.02H3.72v3h53.75v-50.37c.48-2.09.74-4.26.74-6.49,0-8-3.25-15.26-8.49-20.52,1.87-.52,3.83-.96,5.85-1.29l-.49-2.96c-2.69.45-5.29,1.06-7.71,1.81-.1.03-.19.06-.29.1C42.13,2.34,35.89,0,29.11,0s-13.02,2.34-17.98,6.24c-.1-.03-.19-.06-.29-.09-2.43-.75-5.02-1.36-7.71-1.81l-.49,2.96c2.02.34,3.98.77,5.85,1.29C3.25,13.85,0,21.11,0,29.11c0,1.89.19,3.73.53,5.52Zm53.95,48.34h-19.93c-17.1,0-31.02-13.92-31.02-31.02v-8.95c4.94,9.06,14.55,15.22,25.58,15.22,4.09,0,7.98-.85,11.51-2.38,1.03,9.47,6.04,18.14,13.86,23.82v3.3Zm0-7.1c-6.41-5.4-10.38-13.13-10.98-21.46,4.58-2.62,8.39-6.44,10.98-11.05v32.51ZM29.11,3c5.39,0,10.4,1.64,14.57,4.45-.67.27-1.34.55-1.97.84-.44.2-.86.41-1.27.61v-.85s0,.86,0,.86c-5.68,2.84-9.59,6.55-11.32,10.65-1.85-4.4-6.22-8.36-12.59-11.26-.64-.29-1.3-.57-1.98-.84,4.16-2.81,9.18-4.45,14.57-4.45Zm8.4,13.79c.47-.16.94-.29,1.42-.37v17.44c-.8-.14-1.59-.38-2.34-.75-2.13-1.03-3.73-2.82-4.51-5.05-.78-2.23-.65-4.63.38-6.76,1.03-2.13,2.82-3.73,5.05-4.51Zm-6.76,17.05l-1.64,2.8-1.64-2.8,1.64-1.55,1.64,1.55Zm-4.99-4.86c-1.03,2.13-2.82,3.73-5.05,4.51-.47.16-.94.28-1.42.36v-17.42c3.06.53,5.75,2.65,6.85,5.78.78,2.23.65,4.63-.38,6.76ZM11.75,9.63c1.22.43,2.41.89,3.51,1.39,1.64.75,3.11,1.56,4.43,2.43-1.89-.31-3.89-.17-5.83.51-2.99,1.05-5.39,3.19-6.76,6.04-1.37,2.85-1.55,6.07-.51,9.05,1.71,4.88,6.3,7.94,11.19,7.94,1.29,0,2.61-.21,3.9-.66,1.04-.36,2-.87,2.88-1.48l4.53,7.74,4.53-7.74c1.98,1.38,4.35,2.15,6.81,2.15,1.29,0,2.61-.21,3.9-.66,2.99-1.05,5.39-3.19,6.76-6.04,1.37-2.85,1.55-6.07.51-9.05s-3.19-5.39-6.04-6.76c-2.23-1.07-4.68-1.41-7.07-1.01,1.33-.87,2.8-1.69,4.45-2.44,1.1-.51,2.27-.97,3.49-1.4,5.37,4.79,8.77,11.75,8.77,19.49,0,14.4-11.71,26.11-26.11,26.11S3,43.5,3,29.11c0-7.74,3.39-14.7,8.75-19.48Zm4.53,6.8v17.44c-.8-.14-1.59-.38-2.34-.75-2.13-1.03-3.73-2.82-4.51-5.05-.78-2.23-.65-4.63.38-6.76,1.03-2.13,2.82-3.73,5.05-4.51.47-.16.95-.29,1.42-.37Zm25.65,17.43v-17.42c.8.14,1.59.38,2.34.74,2.13,1.03,3.73,2.82,4.51,5.05.78,2.23.65,4.63-.38,6.76-1.03,2.13-2.82,3.73-5.05,4.51-.47.16-.94.28-1.42.36Z"/>
  </g>
</svg>