<?xml version="1.0" encoding="UTF-8"?>
<svg id="Layer_2" data-name="Layer 2" xmlns="http://www.w3.org/2000/svg" viewBox="0 0 55.66 91.54">
  <defs>
    <style>
      .cls-1 {
        fill: #592f37;
      }
    </style>
  </defs>
  <g id="Layer_1-2" data-name="Layer 1">
    <g>
      <path class="cls-1" d="m42.13,40.68h-3.01c-6.12,0-11.3,4.09-12.96,9.68-.36,1.22-.56,2.51-.56,3.85v16.74c0,6.98,3.5,13.15,8.82,16.87h-3.25c-14.34,0-26-11.67-26-26v-11.45h0s-3,0-3,0v11.46c0,15.99,13.01,29,29,29h9.72c1.69.45,3.46.72,5.3.72h9.48v-37.33c0-7.46-6.07-13.53-13.53-13.53Zm10.53,47.86h-6.48c-9.7,0-17.59-7.89-17.59-17.59v-16.74c0-5.81,4.72-10.53,10.53-10.53h3.01c5.81,0,10.53,4.72,10.53,10.53v34.33Z"/>
      <path class="cls-1" d="m2.37,29.87c0,4.79,3.9,8.69,8.69,8.69s8.69-3.9,8.69-8.69-3.9-8.69-8.69-8.69-8.69,3.9-8.69,8.69Zm14.39,0c0,3.14-2.55,5.69-5.69,5.69s-5.69-2.55-5.69-5.69,2.55-5.69,5.69-5.69,5.69,2.55,5.69,5.69Z"/>
      <path class="cls-1" d="m9.15,29.87c0,1.06.86,1.92,1.92,1.92s1.92-.86,1.92-1.92-.86-1.92-1.92-1.92-1.92.86-1.92,1.92Z"/>
      <path class="cls-1" d="m34.93,29.87c0,4.79,3.9,8.69,8.69,8.69s8.69-3.9,8.69-8.69-3.9-8.69-8.69-8.69-8.69,3.9-8.69,8.69Zm14.39,0c0,3.14-2.55,5.69-5.69,5.69s-5.69-2.55-5.69-5.69,2.55-5.69,5.69-5.69,5.69,2.55,5.69,5.69Z"/>
      <path class="cls-1" d="m41.7,29.87c0,1.06.86,1.92,1.92,1.92s1.92-.86,1.92-1.92-.86-1.92-1.92-1.92-1.92.86-1.92,1.92Z"/>
      <path class="cls-1" d="m26.16,37.65c.15.64.7,1.11,1.36,1.15.04,0,.07,0,.11,0,.62,0,1.17-.38,1.4-.96.06-.15,3.6-9.16,9.89-18.63h14.28c.83,0,1.5-.67,1.5-1.5V1.5c0-.56-.31-1.07-.81-1.33-.5-.26-1.1-.22-1.55.1-5.97,4.2-11.01,10.11-15.04,15.95h-21.07C9.71,8.07,3.11,1.02,2.59.47,2.17.03,1.52-.12.95.11c-.57.23-.95.78-.95,1.39v16.22c0,.83.67,1.5,1.5,1.5h13.27c5.33,6.75,10.34,13.98,11.39,18.43ZM51.69,4.52v11.7h-10.7c3.06-4.23,6.65-8.38,10.7-11.7Zm-16.39,14.7c-3.53,5.55-6.09,10.76-7.58,14.04-1.93-4.11-5.4-9.15-9.15-14.04h16.73ZM3,16.22V5.36c2.27,2.52,5.76,6.47,9.36,10.86H3Z"/>
      <path class="cls-1" d="m33.36,50.71c-.61,0-1.11.5-1.11,1.11v7.62c0,.61.5,1.11,1.11,1.11s1.11-.5,1.11-1.11v-7.62c0-.61-.5-1.11-1.11-1.11Z"/>
      <path class="cls-1" d="m41.25,50.71c-.61,0-1.11.5-1.11,1.11v7.62c0,.61.5,1.11,1.11,1.11s1.11-.5,1.11-1.11v-7.62c0-.61-.5-1.11-1.11-1.11Z"/>
      <path class="cls-1" d="m48.03,51.82v7.62c0,.61.5,1.11,1.11,1.11s1.11-.5,1.11-1.11v-7.62c0-.61-.5-1.11-1.11-1.11s-1.11.5-1.11,1.11Z"/>
      <path class="cls-1" d="m41.25,73.8c-.61,0-1.11.5-1.11,1.11v7.62c0,.61.5,1.11,1.11,1.11s1.11-.5,1.11-1.11v-7.62c0-.61-.5-1.11-1.11-1.11Z"/>
      <path class="cls-1" d="m49.14,73.8c-.61,0-1.11.5-1.11,1.11v7.62c0,.61.5,1.11,1.11,1.11s1.11-.5,1.11-1.11v-7.62c0-.61-.5-1.11-1.11-1.11Z"/>
      <path class="cls-1" d="m37.64,62.25c-.61,0-1.11.5-1.11,1.11v7.62c0,.61.5,1.11,1.11,1.11s1.11-.5,1.11-1.11v-7.62c0-.61-.5-1.11-1.11-1.11Z"/>
      <path class="cls-1" d="m45.07,62.25c-.61,0-1.11.5-1.11,1.11v7.62c0,.61.5,1.11,1.11,1.11s1.11-.5,1.11-1.11v-7.62c0-.61-.5-1.11-1.11-1.11Z"/>
    </g>
  </g>
</svg>