<?xml version="1.0" encoding="UTF-8"?>
<svg id="Layer_2" data-name="Layer 2" xmlns="http://www.w3.org/2000/svg" viewBox="0 0 69.48 83.61">
  <defs>
    <style>
      .cls-1 {
        fill: #592f37;
      }
    </style>
  </defs>
  <g id="Layer_1-2" data-name="Layer 1">
    <g>
      <path class="cls-1" d="m21.5,30.39c2.4,0,4.36-1.96,4.36-4.36s-1.96-4.36-4.36-4.36-4.36,1.95-4.36,4.36,1.96,4.36,4.36,4.36Zm0-5.71c.75,0,1.36.61,1.36,1.36s-.61,1.36-1.36,1.36-1.36-.61-1.36-1.36.61-1.36,1.36-1.36Z"/>
      <path class="cls-1" d="m48,30.39c2.4,0,4.36-1.96,4.36-4.36s-1.96-4.36-4.36-4.36-4.36,1.95-4.36,4.36,1.96,4.36,4.36,4.36Zm0-5.71c.75,0,1.36.61,1.36,1.36s-.61,1.36-1.36,1.36-1.36-.61-1.36-1.36.61-1.36,1.36-1.36Z"/>
      <path class="cls-1" d="m65.44,21.48c.07.2.14.41.19.61l3.85-1.08c-.07-.26-.16-.53-.25-.79-.9-2.69-2.44-5.19-4.47-7.21-2.87-2.88-6.52-4.67-10.46-5.21-1.15-1.06-2.4-2.02-3.73-2.88-4.51-3.09-9.96-4.91-15.82-4.91-6.35,0-12.21,2.13-16.92,5.7-.9.65-1.75,1.34-2.56,2.08-6.87.95-12.7,5.71-14.95,12.44l-.05.15c-.07.21-.14.42-.2.63l-.07.26v.28h2.02s1.91.52,1.91.52c.04-.14.09-.28.13-.42l.06-.17c1.14-3.42,3.47-6.19,6.42-7.92-1.4,2.34-2.42,4.9-2.98,7.61-.55,2.2-.85,4.49-.85,6.86v16.57c0,16.04,10.18,29.75,24.42,35.01h-14.68v4h52.72v-4h-6.39V28.04c0-1.93-.2-3.81-.57-5.62-.48-3.16-1.58-6.13-3.19-8.82,1.04.62,2.02,1.35,2.9,2.24,1.59,1.59,2.8,3.54,3.5,5.65ZM34.78,4.31c4.88,0,9.42,1.36,13.2,3.68-5.86,1.22-10.82,5.22-13.2,10.83-.92-2.16-2.26-4.15-3.93-5.82-2.58-2.58-5.78-4.29-9.25-5.02,3.77-2.32,8.31-3.68,13.19-3.68Zm-17.73,7.31c.26-.01.51-.03.77-.03,3.84,0,7.46,1.51,10.2,4.24,1.59,1.59,2.8,3.54,3.5,5.65.49,1.47.74,3,.74,4.55v7.44h5.04v-7.44c0-1.55.25-3.07.74-4.54,1.97-5.92,7.48-9.89,13.7-9.89.26,0,.52.02.77.04,3.72,3.84,5.98,8.88,5.98,14.41,0,11.98-10.64,21.73-23.72,21.73s-23.72-9.75-23.72-21.73c0-5.53,2.27-10.58,5.99-14.42Zm41.73,66.29h-14.77c-18.37,0-33.31-14.94-33.31-33.3v-5.83c4.67,7.57,13.34,12.73,23.33,12.97,3.03,10.35,12.86,18.13,24.75,18.92v7.24Zm0-11.25c-9.71-.75-17.77-6.87-20.61-15.1,8.81-1,16.36-5.86,20.61-12.69v27.79Z"/>
    </g>
  </g>
</svg>