<?xml version="1.0" encoding="UTF-8"?>
<svg id="Layer_2" data-name="Layer 2" xmlns="http://www.w3.org/2000/svg" viewBox="0 0 77.34 84.35">
  <defs>
    <style>
      .cls-1 {
        fill: #592f37;
      }
    </style>
  </defs>
  <g id="Layer_1-2" data-name="Layer 1">
    <g>
      <path class="cls-1" d="m22.27,29.53c2.91,0,5.27-2.37,5.27-5.27,0-.51-.1-.99-.23-1.46-.66-1.02-1.37-2-2.14-2.94-.83-.55-1.83-.88-2.91-.88-2.91,0-5.27,2.37-5.27,5.27s2.37,5.27,5.27,5.27Zm0-7.55c1.25,0,2.27,1.02,2.27,2.27s-1.02,2.27-2.27,2.27-2.27-1.02-2.27-2.27,1.02-2.27,2.27-2.27Z"/>
      <path class="cls-1" d="m60.33,24.26c0-2.91-2.37-5.27-5.27-5.27-1.07,0-2.06.32-2.89.87-.78.95-1.5,1.95-2.16,2.98-.13.46-.22.93-.22,1.43,0,2.91,2.37,5.27,5.27,5.27s5.27-2.37,5.27-5.27Zm-7.55,0c0-1.25,1.02-2.27,2.27-2.27s2.27,1.02,2.27,2.27-1.02,2.27-2.27,2.27-2.27-1.02-2.27-2.27Z"/>
      <path class="cls-1" d="m7.69,8.91v41.04c0,14.59,10.01,26.89,23.52,30.4H12.25v4h52.84v-4h-18.12c13.51-3.5,23.52-15.8,23.52-30.4V8.72s-.09.02-.13.03c-1.55.33-3.05.78-4.51,1.33h.64v8.4c-1.29-2.54-3.41-4.6-6-5.81-1.06.64-2.07,1.33-3.04,2.08,4.26,1.07,7.43,4.93,7.43,9.51,0,5.42-4.41,9.82-9.82,9.82-3.5,0-6.57-1.84-8.31-4.61-.41,1.16-.75,2.35-1.02,3.55,2.34,2.49,5.65,4.05,9.33,4.05,4.99,0,9.31-2.87,11.43-7.04v19.91c0,15.11-12.29,27.4-27.4,27.4s-27.4-12.29-27.4-27.4v-18.47c2.31,3.37,6.19,5.59,10.58,5.59,3.68,0,7-1.57,9.34-4.06-.27-1.21-.61-2.4-1.02-3.56-1.74,2.77-4.81,4.62-8.32,4.62-5.41,0-9.82-4.41-9.82-9.82,0-4.59,3.17-8.45,7.44-9.52-.97-.75-1.99-1.44-3.04-2.08-2.08.98-3.86,2.49-5.15,4.37v-6.88c-1.29-.49-2.63-.91-4-1.23Z"/>
      <path class="cls-1" d="m32.51,10.07h12.32c1.33-1.42,2.75-2.76,4.26-4h-20.84c1.51,1.24,2.93,2.58,4.26,4Z"/>
      <polygon class="cls-1" points="25.43 55.15 30.46 46.44 20.4 46.44 25.43 55.15"/>
      <polygon class="cls-1" points="39.09 55.15 44.12 46.44 34.06 46.44 39.09 55.15"/>
      <polygon class="cls-1" points="57.78 46.44 47.72 46.44 52.75 55.15 57.78 46.44"/>
      <polygon class="cls-1" points="32.28 65.5 37.31 56.79 27.25 56.79 32.28 65.5"/>
      <polygon class="cls-1" points="45.9 65.5 50.93 56.79 40.87 56.79 45.9 65.5"/>
      <polygon class="cls-1" points="39.09 75.85 44.12 67.14 34.06 67.14 39.09 75.85"/>
      <path class="cls-1" d="m38.67,28.47c-.59-1.94-1.32-3.82-2.19-5.63C31.25,11.97,21.13,3.61,8.7.93,5.89.31,2.96,0,0,0v4c2.67,0,5.31.28,7.85.84,12.68,2.73,22.68,12,26.65,23.68,1.2,3.53,1.85,7.28,1.85,11.14h4.66c0-16.62,11.98-31.26,28.49-34.82,2.53-.56,5.17-.84,7.84-.84V0c-2.96,0-5.89.31-8.69.93-14.51,3.13-25.86,13.99-29.97,27.54Z"/>
    </g>
  </g>
</svg>