<?xml version="1.0" encoding="UTF-8"?>
<svg id="Layer_2" data-name="Layer 2" xmlns="http://www.w3.org/2000/svg" viewBox="0 0 74.26 83.67">
  <defs>
    <style>
      .cls-1 {
        fill: #592f37;
      }
    </style>
  </defs>
  <g id="Layer_1-2" data-name="Layer 1">
    <g>
      <path class="cls-1" d="m68.32,13.31l.69-12.27-17.93,2.33c-4.21-.94-8.92-1.35-14.02-1.2-5-.14-9.64.25-13.8,1.18L7.07,0l-1.04,13.2C1.99,18.16-.04,24.62,0,32.36c-.15,8.81,4.99,19.12,15.33,30.79h-7.94v4h11.63c4.36,4.54,9.47,9.28,15.31,14.2.44.37.89.75,1.17.99l1.69,1.32,1.8-1.31c.26-.22.66-.57,1.06-.9,5.86-4.96,10.97-9.73,15.33-14.31h11.5v-4h-7.84c10.29-11.72,15.4-22.07,15.22-30.9.02-7.66-1.98-14.03-5.94-18.94Zm-30.86,65.1c-.07.06-.14.12-.21.18-.11-.09-.22-.19-.35-.29-4.71-3.96-8.76-7.67-12.26-11.14h25.12c-3.51,3.51-7.58,7.25-12.31,11.26Zm16.17-15.26H20.76C7.12,48.57,3.89,38.63,4,32.38c-.04-7.06,1.81-12.8,5.49-17.08l.43-.5.78-9.96,12.6,2.61.43-.1c3.94-.92,8.41-1.31,13.26-1.17h.06s.06,0,.06,0c4.92-.15,9.43.25,13.41,1.17l.35.08,13.87-1.8-.51,9.05.53.61c3.66,4.24,5.51,9.95,5.49,17,.13,6.25-3.06,16.23-16.63,30.86Z"/>
      <path class="cls-1" d="m57.41,14.85c-4.27-2.85-10.3-2.32-16.14,1.43-2.51,1.61-5.75,1.61-8.26,0-5.84-3.75-11.88-4.29-16.14-1.43-3.45,2.31-5.31,6.46-5.23,11.7.07,5,1.91,10.45,5.18,15.34,5.4,8.07,13.54,12.88,20.33,12.01.53.07,1.06.1,1.6.1,6.43,0,13.74-4.66,18.72-12.11,3.27-4.89,5.11-10.34,5.18-15.34.08-5.24-1.78-9.4-5.23-11.7Zm-2.44,25.37c-4.75,7.11-12,11.5-17.61,10.68l-.22-.03-.22.03c-5.62.82-12.86-3.57-17.61-10.68-2.95-4.41-4.61-9.28-4.68-13.71-.06-4.19,1.32-7.44,3.9-9.17,1.31-.88,2.88-1.31,4.6-1.31,2.53,0,5.39.94,8.26,2.78,3.49,2.24,8.01,2.24,11.5,0,4.81-3.09,9.61-3.63,12.86-1.47,2.58,1.72,3.96,4.98,3.9,9.17-.06,4.43-1.73,9.3-4.68,13.71Z"/>
      <path class="cls-1" d="m43.6,29.33v4.48h4.48c1.98,0,3.58-1.61,3.58-3.58v-4.48h-4.48c-1.98,0-3.58,1.61-3.58,3.58Z"/>
      <path class="cls-1" d="m27.08,25.75h-4.48v4.48c0,1.98,1.61,3.58,3.58,3.58h4.48v-4.48c0-1.98-1.61-3.58-3.58-3.58Z"/>
      <path class="cls-1" d="m39.34,32.98l-2.21-.93-2.21.93c-.85.36-1.2,1.39-.73,2.19l2.94,5.03,2.94-5.03c.47-.8.13-1.83-.73-2.19Z"/>
    </g>
  </g>
</svg>