<?xml version="1.0" encoding="UTF-8"?>
<svg id="Layer_2" data-name="Layer 2" xmlns="http://www.w3.org/2000/svg" viewBox="0 0 70.39 92.02">
  <defs>
    <style>
      .cls-1 {
        fill: #592f37;
      }
    </style>
  </defs>
  <g id="Layer_1-2" data-name="Layer 1">
    <g>
      <path class="cls-1" d="m70.39,92.02v-59.38C70.39,14.64,55.75,0,37.76,0h-5.12C14.64,0,0,14.64,0,32.64v8.77c0,17.04,8.47,32.12,21.41,41.3-2.86.84-5.46,2.67-7.49,5.32H3.41v4h66.98Zm-50.81-4c1.64-1.19,3.5-1.84,5.42-1.84,1.17,0,2.31.24,3.4.7.2.1.41.2.62.3.48.24.95.52,1.41.85h-10.84Zm46.81-2.06c-8.45-4.03-16.72-17.13-15.81-37.62l-4-.18c-.9,20.22,6.77,34,15.41,39.86h-11.38c-6.97,0-13.58-1.55-19.52-4.3-.38-.2-.76-.39-1.15-.55-15.36-7.63-25.95-23.48-25.95-41.77v-8.77c0-15.79,12.85-28.64,28.64-28.64h5.12c15.79,0,28.64,12.85,28.64,28.64v53.32Z"/>
      <path class="cls-1" d="m20.55,37.72c5.78,0,10.46-4.68,10.46-10.46s-4.68-10.46-10.46-10.46-10.46,4.68-10.46,10.46,4.68,10.46,10.46,10.46Zm-6.42-11.92c.81,0,1.47.66,1.47,1.47,0,2.73,2.22,4.95,4.95,4.95s4.95-2.22,4.95-4.95c0-.81.66-1.47,1.47-1.47s1.47.66,1.47,1.47c0,4.35-3.54,7.88-7.89,7.88s-7.89-3.54-7.89-7.88c0-.81.66-1.47,1.47-1.47Z"/>
      <path class="cls-1" d="m40.45,27.26c0,5.78,4.68,10.46,10.46,10.46s10.46-4.68,10.46-10.46-4.68-10.46-10.46-10.46-10.46,4.68-10.46,10.46Zm15.41,0c0-.81.66-1.47,1.47-1.47s1.47.66,1.47,1.47c0,4.35-3.54,7.88-7.89,7.88s-7.89-3.54-7.89-7.88c0-.81.66-1.47,1.47-1.47s1.47.66,1.47,1.47c0,2.73,2.22,4.95,4.95,4.95s4.95-2.22,4.95-4.95Z"/>
      <polygon class="cls-1" points="39.75 35.12 35.92 31.51 32.09 35.12 35.92 41.66 39.75 35.12"/>
      <path class="cls-1" d="m18.22,48.2h-8.46c0,2.33,1.9,4.23,4.23,4.23s4.23-1.9,4.23-4.23Z"/>
      <path class="cls-1" d="m30.34,48.2h-8.46c0,2.33,1.9,4.23,4.23,4.23s4.23-1.9,4.23-4.23Z"/>
      <path class="cls-1" d="m38.24,52.43c2.33,0,4.23-1.9,4.23-4.23h-8.46c0,2.33,1.9,4.23,4.23,4.23Z"/>
      <path class="cls-1" d="m20.84,65.31c2.33,0,4.23-1.9,4.23-4.23h-8.46c0,2.33,1.9,4.23,4.23,4.23Z"/>
      <path class="cls-1" d="m37.19,61.08h-8.46c0,2.33,1.9,4.23,4.23,4.23s4.23-1.9,4.23-4.23Z"/>
      <path class="cls-1" d="m35.72,78.18c2.33,0,4.23-1.9,4.23-4.23h-8.46c0,2.33,1.9,4.23,4.23,4.23Z"/>
    </g>
  </g>
</svg>