<?xml version="1.0" encoding="UTF-8"?>
<svg id="Layer_2" data-name="Layer 2" xmlns="http://www.w3.org/2000/svg" viewBox="0 0 65.46 85.7">
  <defs>
    <style>
      .cls-1 {
        fill: #592f37;
      }
    </style>
  </defs>
  <g id="Layer_1-2" data-name="Layer 1">
    <g>
      <path class="cls-1" d="m0,85.7l59.79-.09v-53.14c.28-1.56.43-3.17.43-4.81,0-2.93-.46-5.75-1.31-8.41,3.72-.68,6.56-3.94,6.56-7.86v-1.27h-3v1.27c0,2.64-2.07,4.79-4.67,4.96C53.46,6.73,43.78,0,32.55,0S11.67,6.71,7.33,16.32c-2.39-.37-4.23-2.43-4.23-4.92v-1.27H.11v1.27c0,3.76,2.62,6.92,6.12,7.76-.87,2.68-1.34,5.54-1.34,8.5,0,1.64.15,3.24.43,4.8v19.77c0,14.41,8.92,26.05,22.07,30.46H0v3Zm56.79-5.1c-12.89-3.23-21.76-13.04-23.03-25.3,9.92-.43,18.5-6.1,23.03-14.31v39.62ZM32.55,3c9.49,0,17.74,5.39,21.86,13.26-2.44-1.89-5.5-3.03-8.82-3.03-5.76,0-10.73,3.4-13.04,8.29-2.31-4.89-7.28-8.29-13.04-8.29-3.32,0-6.38,1.14-8.82,3.03,4.12-7.87,12.37-13.26,21.86-13.26Zm-13.04,13.23c6.3,0,11.54,5.13,11.54,11.43v10.97h3v-10.97c0-6.3,5.24-11.43,11.54-11.43s11.62,5.13,11.62,11.43c0,13.6-11.06,24.66-24.66,24.66S7.89,41.27,7.89,27.67c0-6.3,5.32-11.43,11.62-11.43Zm-11.2,36.01v-11.26c4.44,8.05,12.76,13.65,22.43,14.28,1.08,11.8,8.5,21.58,19.65,26.35h-11.02c-17.7,0-31.05-12.63-31.05-29.37Z"/>
      <path class="cls-1" d="m45.6,35.67c4.41,0,8-3.59,8-8s-3.59-8-8-8-8,3.59-8,8,3.59,8,8,8Zm0-13c2.76,0,5,2.24,5,5s-2.24,5-5,5-5-2.24-5-5,2.24-5,5-5Z"/>
      <path class="cls-1" d="m27.51,27.66c0-4.41-3.59-8-8-8s-8,3.59-8,8,3.59,8,8,8,8-3.59,8-8Zm-13,0c0-2.76,2.24-5,5-5s5,2.24,5,5-2.24,5-5,5-5-2.24-5-5Z"/>
    </g>
  </g>
</svg>