<?xml version="1.0" encoding="UTF-8"?>
<svg id="Layer_2" data-name="Layer 2" xmlns="http://www.w3.org/2000/svg" viewBox="0 0 65.22 82.84">
  <defs>
    <style>
      .cls-1 {
        fill: #592f37;
      }
    </style>
  </defs>
  <g id="Layer_1-2" data-name="Layer 1">
    <g>
      <path class="cls-1" d="m20.34,24.26c1.75,0,3.18,1.42,3.18,3.18h3c0-3.41-2.77-6.18-6.18-6.18s-6.18,2.77-6.18,6.18h3c0-1.75,1.42-3.18,3.18-3.18Z"/>
      <path class="cls-1" d="m44.88,24.26c1.75,0,3.18,1.42,3.18,3.18h3c0-3.41-2.77-6.18-6.18-6.18s-6.18,2.77-6.18,6.18h3c0-1.75,1.42-3.18,3.18-3.18Z"/>
      <path class="cls-1" d="m0,4.57v1.26c0,3.58,2.37,6.61,5.61,7.62C2.62,18.06.88,23.55.88,29.44v7.85c0,25.12,20.43,45.55,45.55,45.55h17.92V29.44c0-5.89-1.75-11.38-4.74-15.99,3.25-1.01,5.61-4.04,5.61-7.62v-1.26h-3v1.26c0,2.61-2.02,4.73-4.57,4.94C52.25,4.2,44.06,0,34.9,0h-4.59C21.17,0,12.98,4.2,7.57,10.77c-2.55-.21-4.57-2.33-4.57-4.94v-1.26H0Zm60.35,74.27h-2.53c-7.53-4.71-12.16-12.99-12.16-21.93,0-10.06,5.71-19.04,14.68-23.33v45.27ZM30.32,4h4.59c6.68,0,12.76,2.59,17.3,6.81h-9.87c-4.2,0-7.85,2.35-9.72,5.81-1.87-3.46-5.53-5.81-9.72-5.81h-9.87c4.54-4.22,10.63-6.81,17.3-6.81ZM10.26,13.81h12.62c4.44,0,8.05,3.61,8.05,8.05h3.35c0-4.44,3.61-8.05,8.05-8.05h12.62c3.37,4.32,5.39,9.74,5.39,15.63v.85c-10.75,4.52-17.68,14.91-17.68,26.61,0,8.52,3.76,16.51,10.09,21.93h-6.33c-22.91,0-41.55-18.64-41.55-41.55v-7.85c0-5.89,2.02-11.31,5.39-15.63Z"/>
      <polygon class="cls-1" points="32.61 41.04 38.94 30.23 35.46 30.23 32.61 35.1 29.76 30.23 26.28 30.23 32.61 41.04"/>
    </g>
  </g>
</svg>