<?xml version="1.0" encoding="UTF-8"?>
<svg id="Layer_2" data-name="Layer 2" xmlns="http://www.w3.org/2000/svg" viewBox="0 0 77.89 78.49">
  <defs>
    <style>
      .cls-1 {
        fill: #592f37;
      }
    </style>
  </defs>
  <g id="Layer_1-2" data-name="Layer 1">
    <g>
      <path class="cls-1" d="m71.72,7.32l6.17-4.75-1.98-2.57-4.2,3.23v-.32H6.1v.27L1.98,0,0,2.57l6.1,4.7v30.31c0,22.56,18.36,40.92,40.92,40.92h24.69V7.32Zm-16.06,18.9c4,0,7.25-3.24,7.25-7.25,0-1.47-.43-2.82-1.19-3.96l3.33-2.56c1.33,1.92,2.04,4.16,2.04,6.52,0,6.3-5.12,11.43-11.42,11.43-3.37,0-6.53-1.5-8.68-4.03l3.31-2.55c1.32,1.47,3.23,2.41,5.37,2.41Zm-3.2-4.08l7.14-5.49c.36.65.58,1.39.58,2.18,0,2.53-2.04,4.58-4.57,4.58-1.22,0-2.32-.48-3.14-1.27Zm-30.22,4.08c2.14,0,4.04-.94,5.37-2.41l3.31,2.55c-2.15,2.54-5.31,4.03-8.68,4.03-6.3,0-11.42-5.12-11.42-11.43,0-2.35.71-4.6,2.04-6.52l3.33,2.56c-.76,1.14-1.19,2.49-1.19,3.96,0,4,3.24,7.25,7.25,7.25Zm-4.52-7.4c0-.79.22-1.53.58-2.18l7.14,5.49c-.82.78-1.93,1.27-3.14,1.27-2.53,0-4.57-2.05-4.57-4.58Zm49.68,55.34h-16.47v-16.76c0-8.65,7.04-15.69,15.69-15.69l.79-.09v32.54Zm0-35.69h-.79c-10.44,0-18.93,8.49-18.93,18.93v16.76h-.66c-20.18,0-36.6-16.42-36.6-36.6v-9.94c2.67,3.63,6.96,6.01,11.81,6.01,4.38,0,8.48-1.97,11.25-5.3l1.03.79.14.11,1.98-2.57-.4-.31L11.37,7.23h55.15l-24.91,19.17-.35.27,1.98,2.57.09-.07,1.08-.83c2.76,3.33,6.87,5.3,11.25,5.3,4.8,0,9.06-2.33,11.74-5.91v10.75Z"/>
      <polygon class="cls-1" points="35.19 31.83 38.91 37.82 42.62 31.83 38.91 25.84 35.19 31.83"/>
    </g>
  </g>
</svg>