<?xml version="1.0" encoding="UTF-8"?>
<svg id="Layer_2" data-name="Layer 2" xmlns="http://www.w3.org/2000/svg" viewBox="0 0 63.19 90.79">
  <defs>
    <style>
      .cls-1 {
        fill: #592f37;
      }
    </style>
  </defs>
  <g id="Layer_1-2" data-name="Layer 1">
    <g>
      <path class="cls-1" d="m16.74,39.12c2.95,0,5.34-2.4,5.34-5.34s-2.4-5.34-5.34-5.34-5.34,2.4-5.34,5.34,2.4,5.34,5.34,5.34Zm0-7.56c1.22,0,2.21.99,2.21,2.21s-.99,2.21-2.21,2.21-2.21-.99-2.21-2.21.99-2.21,2.21-2.21Z"/>
      <path class="cls-1" d="m46.44,39.12c2.95,0,5.34-2.4,5.34-5.34s-2.4-5.34-5.34-5.34-5.34,2.4-5.34,5.34,2.4,5.34,5.34,5.34Zm0-7.56c1.22,0,2.21.99,2.21,2.21s-.99,2.21-2.21,2.21-2.21-.99-2.21-2.21.99-2.21,2.21-2.21Z"/>
      <path class="cls-1" d="m0,13.07v38.3c0,21.74,17.69,39.43,39.43,39.43h23.76V13.14l-6.52,1.9c-6.69,1.95-13.62,2.94-20.59,2.94h-9.23c-7.61,0-15.14-1.17-22.39-3.49l-4.46-1.42Zm59.19,73.72h-15.21v-13.08c0-8.31,6.76-15.08,15.08-15.08h.13v28.16Zm-1.41-67.91l1.41-.41v13.38c-.84-5.62-5.32-10.06-10.96-10.85,3.22-.51,6.41-1.21,9.56-2.13Zm-1.57,14.89c0,5.39-4.38,9.77-9.77,9.77s-9.77-4.38-9.77-9.77,4.38-9.77,9.77-9.77,9.77,4.38,9.77,9.77Zm-29.37-11.8h9.23c1.9,0,3.79-.07,5.68-.21-4.8,1.88-8.21,6.55-8.21,12.01,0,.72.07,1.43.19,2.12l.2.99c1.4,5.62,6.47,9.8,12.51,9.8,6.46,0,11.81-4.78,12.74-10.98v19.67h-.13c-10.12,0-18.35,8.23-18.35,18.35v13.08h-1.27c-19.53,0-35.43-15.89-35.43-35.43v-15.67c.93,6.2,6.28,10.98,12.74,10.98s11.4-4.41,12.63-10.25l.09-.53c.12-.69.19-1.4.19-2.12,0-5.44-3.39-10.09-8.16-11.99,1.78.12,3.57.19,5.36.19Zm-.33,11.8c0,5.39-4.38,9.77-9.77,9.77s-9.77-4.38-9.77-9.77,4.38-9.77,9.77-9.77,9.77,4.38,9.77,9.77Zm-22.51-1.92v-13.32c3.55,1.09,7.16,1.92,10.81,2.49-5.57.84-9.97,5.25-10.81,10.82Z"/>
      <path class="cls-1" d="m32.58,10.15c.77,0,1.4-.62,1.41-1.39l.07-7.33c0-.78-.62-1.41-1.39-1.42-.74,0-1.41.62-1.42,1.39l-.07,7.33c0,.78.62,1.41,1.39,1.42,0,0,0,0,.01,0Z"/>
      <path class="cls-1" d="m25.1,11.94c.29,0,.58-.09.84-.28.62-.46.76-1.34.29-1.97l-4.36-5.89c-.46-.63-1.34-.76-1.97-.29-.62.46-.76,1.34-.3,1.97l4.36,5.89c.28.37.7.57,1.13.57Z"/>
      <path class="cls-1" d="m41.18,11.39l4.47-5.81c.47-.62.36-1.5-.26-1.97-.62-.47-1.5-.36-1.97.26l-4.47,5.81c-.47.62-.36,1.5.26,1.97.26.2.56.29.86.29.42,0,.84-.19,1.12-.55Z"/>
      <path class="cls-1" d="m23.28,47.68v1.01c3.78.39,6.91,3.25,8.04,7.15h.83c1.15-3.91,4.26-6.76,8.04-7.15v-1.01c-2.44-.25-4.6-1.53-6.14-3.45-.93-1.16-1.63-2.55-2.02-4.09h-.61c-.42,1.63-1.18,3.09-2.18,4.29-1.53,1.81-3.62,3.01-5.97,3.25Z"/>
    </g>
  </g>
</svg>