<?xml version="1.0" encoding="UTF-8"?>
<svg id="Layer_2" data-name="Layer 2" xmlns="http://www.w3.org/2000/svg" viewBox="0 0 68.21 84.43">
  <defs>
    <style>
      .cls-1 {
        fill: #592f37;
      }
    </style>
  </defs>
  <g id="Layer_1-2" data-name="Layer 1">
    <g>
      <path class="cls-1" d="m18.77,23.44c-2.91,0-5.28,2.37-5.28,5.28s2.37,5.28,5.28,5.28,5.28-2.37,5.28-5.28-2.37-5.28-5.28-5.28Zm0,7.29c-1.11,0-2.01-.9-2.01-2.01s.9-2.01,2.01-2.01,2.01.9,2.01,2.01-.9,2.01-2.01,2.01Z"/>
      <path class="cls-1" d="m49.45,34c2.91,0,5.28-2.37,5.28-5.28s-2.37-5.28-5.28-5.28-5.28,2.37-5.28,5.28,2.37,5.28,5.28,5.28Zm0-7.29c1.11,0,2.01.9,2.01,2.01s-.9,2.01-2.01,2.01-2.01-.9-2.01-2.01.9-2.01,2.01-2.01Z"/>
      <path class="cls-1" d="m0,62.05h14.13c8.6,11.27,18.23,20.59,18.95,21.29l1.14,1.1,1.13-1.1c.72-.7,10.25-10.01,18.79-21.28h14.07v-3.04h-11.82c6.2-8.65,11.35-18.07,11.33-25.46-.02-9.07-3.65-17.3-9.52-23.34.16-.04.32-.09.48-.13,2.03-.46,4.15-.69,6.3-.69v-3.27c-2.39,0-4.75.26-7.01.76-.89.2-1.77.43-2.63.7C49.55,2.85,42.16,0,34.11,0h-.07c-7.73.02-14.84,2.66-20.52,7.07-1.07-.36-2.16-.67-3.28-.91-2.27-.51-4.63-.76-7.02-.76v3.27c2.15,0,4.27.23,6.31.69.36.08.7.19,1.05.28C4.35,15.75.47,24.27.49,33.68c.02,7.37,5.17,16.72,11.38,25.33H0v3.04Zm34.21,17.8c-2.64-2.63-9.43-9.6-15.92-17.8h6.87v3.71h3.04v-3.71h11.82v3.71h3.04v-3.71h6.95c-6.44,8.2-13.17,15.16-15.79,17.8Zm-.17-76.57h.06c6.57,0,12.66,2.11,17.64,5.68-8.25,3.71-14.6,10.75-17.51,19.23-2.73-8.59-8.96-15.79-17.14-19.67,4.84-3.29,10.67-5.22,16.95-5.23Zm15.4,16.14c5.13,0,9.31,4.17,9.31,9.31s-4.18,9.31-9.31,9.31-9.31-4.17-9.31-9.31,4.18-9.31,9.31-9.31Zm-21.38,9.31c0,5.13-4.17,9.31-9.31,9.31s-9.31-4.17-9.31-9.31,4.18-9.31,9.31-9.31,9.31,4.17,9.31,9.31Zm-24.31,4.96c-.02-9.12,4.01-17.31,10.39-22.89,3.65,1.48,6.9,3.68,9.63,6.4-1.54-.67-3.23-1.05-5.01-1.05-6.94,0-12.58,5.64-12.58,12.58s5.64,12.58,12.58,12.58c6.57,0,11.97-5.06,12.52-11.49.76,2.59,1.18,5.3,1.18,8.09h.02c0,.24-.02.49-.02.73h3.27c0-2.86.45-5.64,1.24-8.29.8,6.17,6.08,10.96,12.46,10.96,6.94,0,12.58-5.64,12.58-12.58s-5.64-12.58-12.58-12.58c-1.31,0-2.57.2-3.75.57,2.6-2.3,5.63-4.14,8.95-5.41,6.01,5.53,9.78,13.45,9.8,22.25.01,7.14-5.63,16.75-12.13,25.46h-9.27v-3.71h-3.04v3.71h-11.82v-3.71h-3.04v3.71h-9.22c-6.52-8.65-12.17-18.21-12.18-25.33Z"/>
    </g>
  </g>
</svg>