<?xml version="1.0" encoding="UTF-8"?>
<svg id="Layer_2" data-name="Layer 2" xmlns="http://www.w3.org/2000/svg" viewBox="0 0 77.73 93.12">
  <defs>
    <style>
      .cls-1 {
        fill: #592f37;
      }
    </style>
  </defs>
  <g id="Layer_1-2" data-name="Layer 1">
    <g>
      <path class="cls-1" d="m71.64,20.97l6.09-4.69-1.98-2.57-4.97,3.83H6.95l-4.97-3.83-1.98,2.57,6.02,4.63v31.29c0,22.56,18.36,40.92,40.92,40.92h24.69V20.97Zm-16.14,18.96c4,0,7.25-3.24,7.25-7.25,0-1.47-.43-2.82-1.19-3.96l3.33-2.56c1.33,1.92,2.04,4.16,2.04,6.52,0,6.3-5.12,11.43-11.42,11.43-3.37,0-6.53-1.5-8.68-4.03l3.31-2.55c1.32,1.47,3.23,2.41,5.37,2.41Zm-3.19-4.08l7.14-5.49c.36.65.58,1.39.58,2.18,0,2.53-2.04,4.58-4.57,4.58-1.22,0-2.32-.48-3.14-1.26Zm-30.06,4.08c2.14,0,4.04-.94,5.37-2.41l3.31,2.55c-2.15,2.54-5.31,4.03-8.68,4.03-6.3,0-11.43-5.12-11.43-11.43,0-2.35.71-4.59,2.04-6.52l3.33,2.56c-.76,1.14-1.19,2.49-1.19,3.96,0,4,3.24,7.25,7.25,7.25Zm-4.52-7.4c0-.79.22-1.53.58-2.18l7.14,5.49c-.82.78-1.93,1.27-3.14,1.27-2.53,0-4.57-2.05-4.57-4.58Zm49.6,56.26h-15.4v-13.46c0-8.56,6.89-15.52,15.4-15.67v29.13Zm0-32.37c-10.31.15-18.65,8.57-18.65,18.92v13.46h-1.73c-20.18,0-36.6-16.42-36.6-36.6v-10.97c2.67,3.7,7,6.12,11.89,6.12,4.38,0,8.48-1.97,11.25-5.3l1.17.9,1.98-2.57L12.57,21.86h52.6l-24.06,18.52,1.98,2.57,1.17-.9c2.76,3.33,6.87,5.3,11.25,5.3,4.85,0,9.15-2.38,11.82-6.02v15.09Z"/>
      <path class="cls-1" d="m37.38,1.44l-.07,7.59c0,.81.64,1.46,1.44,1.47,0,0,0,0,.01,0,.8,0,1.45-.64,1.46-1.44l.07-7.59c0-.81-.64-1.46-1.44-1.47-.77.01-1.46.64-1.47,1.44Z"/>
      <path class="cls-1" d="m25.64,3.63c-.65.48-.78,1.39-.31,2.04l4.51,6.1c.29.39.73.59,1.17.59.3,0,.61-.09.87-.29.65-.48.78-1.39.31-2.04l-4.51-6.1c-.48-.65-1.39-.78-2.04-.31Z"/>
      <path class="cls-1" d="m49.99,3.99l-4.62,6.02c-.49.64-.37,1.55.27,2.04.26.2.58.3.89.3.44,0,.87-.2,1.16-.57l4.62-6.02c.49-.64.37-1.55-.27-2.04-.64-.49-1.55-.37-2.04.27Z"/>
      <path class="cls-1" d="m41.23,46.35c-.97-1.17-1.7-2.58-2.11-4.17h-.6c-.43,1.68-1.22,3.17-2.27,4.37-1.49,1.7-3.5,2.82-5.74,3.05v.99c3.72.38,6.79,3.2,7.91,7.03h.82c1.13-3.85,4.19-6.65,7.91-7.03v-.99c-2.34-.24-4.42-1.44-5.92-3.25Z"/>
    </g>
  </g>
</svg>