<?xml version="1.0" encoding="UTF-8"?>
<svg id="Layer_2" data-name="Layer 2" xmlns="http://www.w3.org/2000/svg" viewBox="0 0 59.76 85.73">
  <defs>
    <style>
      .cls-1 {
        fill: #592f37;
      }
    </style>
  </defs>
  <g id="Layer_1-2" data-name="Layer 1">
    <g>
      <path class="cls-1" d="m29.84,0C13.39,0,0,13.39,0,29.84c0,.7.03,1.4.08,2.09v53.79h1.8s.05,0,.07,0h27.77c16.57,0,30.04-13.48,30.04-30.04v-27.64C58.82,12.42,45.69,0,29.84,0Zm26.32,55.68c0,14.58-11.86,26.44-26.44,26.44h-13.58c8.3-4.49,14.25-12.77,15.53-22.51,10.61-.64,19.74-6.85,24.5-15.74v11.8ZM3.68,82.06v-37.88c4.81,8.73,13.85,14.81,24.35,15.44-1.82,12.14-11.92,21.6-24.35,22.44Zm26.16-25.98c-14.47,0-26.24-11.77-26.24-26.24,0-6.65,5.61-12.06,12.26-12.06s12.26,5.41,12.26,12.06v11.75h3.6v-11.75h.04c0-6.65,5.41-12.06,12.06-12.06s12.26,5.41,12.26,12.06c0,14.47-11.77,26.24-26.24,26.24Zm13.98-41.9c-6.11,0-11.4,3.52-13.98,8.64-2.58-5.11-7.87-8.64-13.98-8.64-3.29,0-6.34,1.02-8.86,2.76C11.52,8.98,20.06,3.6,29.84,3.6s18.32,5.38,22.83,13.34c-2.52-1.74-5.57-2.76-8.86-2.76Z"/>
      <path class="cls-1" d="m39.26,30.33v4.48h4.48c2.03,0,3.67-1.64,3.67-3.67v-4.48h-4.48c-2.03,0-3.67,1.64-3.67,3.67Z"/>
      <path class="cls-1" d="m16.74,26.65h-4.48v4.48c0,2.03,1.64,3.67,3.67,3.67h4.48v-4.48c0-2.03-1.64-3.67-3.67-3.67Z"/>
    </g>
  </g>
</svg>