<?xml version="1.0" encoding="UTF-8"?>
<svg id="Layer_2" data-name="Layer 2" xmlns="http://www.w3.org/2000/svg" viewBox="0 0 89.72 90.86">
  <defs>
    <style>
      .cls-1 {
        fill: #592f37;
      }
    </style>
  </defs>
  <g id="Layer_1-2" data-name="Layer 1">
    <g>
      <polygon class="cls-1" points="85.94 63.92 81.82 63.92 81.82 67.71 78.03 67.71 78.03 71.83 81.82 71.83 81.82 75.62 85.94 75.62 85.94 71.83 89.72 71.83 89.72 67.71 85.94 67.71 85.94 63.92"/>
      <polygon class="cls-1" points="7.91 65.32 7.91 61.54 11.69 61.54 11.69 57.41 7.91 57.41 7.91 53.63 3.78 53.63 3.78 57.41 0 57.41 0 61.54 3.78 61.54 3.78 65.32 7.91 65.32"/>
      <polygon class="cls-1" points="61.18 0 61.18 3.78 57.39 3.78 57.39 7.91 61.18 7.91 61.18 11.69 65.3 11.69 65.3 7.91 69.09 7.91 69.09 3.78 65.3 3.78 65.3 0 61.18 0"/>
      <path class="cls-1" d="m18.41,90.86h24.94c1.67,0,3.31-.16,4.9-.45h24.89v-4h-14.85c7.49-4.89,12.46-13.35,12.46-22.95v-25.23c-.25-3.48-1.24-6.78-2.68-9.77,1.7-1.22,2.88-3.2,3.04-5.46l.29-4.13-3.99-.28-.29,4.13c-.06.9-.47,1.68-1.07,2.24-4.9-7.2-13.16-11.94-22.51-11.94s-17.54,4.7-22.45,11.85c-.54-.55-.9-1.31-.96-2.15l-.29-4.13-3.99.28.29,4.14c.15,2.21,1.28,4.15,2.91,5.38-1.47,3.02-2.38,6.34-2.64,9.85h-.08v52.62h2.04s.03,0,.04,0Zm48.34-27.39c0,11.34-8.12,20.82-18.85,22.95h-14.59c6.46-4.22,11.03-11.08,12.17-19.05,8.99-.64,16.8-5.66,21.26-12.95v9.05Zm-23.21-46.44c7.33,0,13.88,3.42,18.13,8.75h-5.73c-5.21,0-9.77,2.78-12.32,6.92-2.55-4.14-7.11-6.92-12.32-6.92h-5.9c4.26-5.33,10.8-8.75,18.13-8.75Zm-20.7,12.73c.06,0,.12.01.19.01h8.28c5.15,0,9.44,3.75,10.29,8.67-.07.59.02,1.19.02,1.8v10.57h4v-10.57c0-.61.1-1.21.02-1.8.86-4.91,5.14-8.66,10.3-8.66h8.21s.07,0,.1,0c1.6,3.15,2.5,6.7,2.5,10.47,0,12.8-10.41,23.21-23.21,23.21s-23.21-10.41-23.21-23.21c0-3.77.91-7.33,2.51-10.47Zm-2.51,24.66c4.44,7.24,12.18,12.25,21.11,12.93-1.61,9.57-9.04,17.18-18.51,19.06h-2.59v-31.99Z"/>
      <path class="cls-1" d="m59.42,41.4v-4.03h-4.03c-1.82,0-3.3,1.48-3.3,3.3v4.03h4.03c1.82,0,3.3-1.48,3.3-3.3Z"/>
      <path class="cls-1" d="m31.12,44.7h4.03v-4.03c0-1.82-1.48-3.3-3.3-3.3h-4.03v4.03c0,1.82,1.48,3.3,3.3,3.3Z"/>
    </g>
  </g>
</svg>