<?xml version="1.0" encoding="UTF-8"?>
<svg id="Layer_2" data-name="Layer 2" xmlns="http://www.w3.org/2000/svg" viewBox="0 0 65.29 81.45">
  <defs>
    <style>
      .cls-1 {
        fill: #592f37;
      }
    </style>
  </defs>
  <g id="Layer_1-2" data-name="Layer 1">
    <g>
      <path class="cls-1" d="m40.76,81.45h24.53V0h-5.2l-.53.39c-6.57,4.81-16.38,7.57-26.92,7.57S12.3,5.2,5.73.39l-.53-.39H0v40.69c0,22.47,18.29,40.76,40.76,40.76ZM4,4.07c7.22,5.02,17.61,7.89,28.65,7.89s21.42-2.87,28.65-7.89v72.21c-8.23-3.18-14.98-9.16-19.12-16.9h-4.47c3.61,7.68,9.48,13.95,16.77,18.07h-13.7c-20.27,0-36.76-16.49-36.76-36.76V4.07Z"/>
      <path class="cls-1" d="m32.65,41.4l5.35-9.13-5.35-5.04-5.35,5.04,5.35,9.13Zm2.3-8.7l-2.3,3.94-2.3-3.94,2.3-2.17,2.3,2.17Z"/>
      <path class="cls-1" d="m20.35,37.27c2.97-1.04,5.36-3.18,6.73-6.01,1.37-2.84,1.55-6.04.51-9.01-1.04-2.97-3.18-5.36-6.01-6.73-2.84-1.37-6.04-1.55-9.01-.51-6.13,2.15-9.38,8.89-7.23,15.02,1.7,4.85,6.27,7.9,11.14,7.9,1.29,0,2.6-.21,3.88-.66Zm-12.19-8.22c-1.6-4.57.82-9.6,5.39-11.2.95-.33,1.93-.5,2.91-.5,1.3,0,2.6.29,3.81.88,2.12,1.02,3.71,2.8,4.48,5.02.78,2.22.64,4.6-.38,6.72-1.02,2.12-2.8,3.71-5.02,4.48-4.57,1.6-9.6-.82-11.2-5.39Z"/>
      <path class="cls-1" d="m20.66,28.17c.54-1.12.61-2.39.2-3.57-.41-1.18-1.26-2.12-2.38-2.67-.64-.31-1.33-.46-2.02-.46-.52,0-1.04.09-1.55.26-2.43.85-3.72,3.52-2.87,5.95.41,1.18,1.26,2.12,2.38,2.67,1.12.54,2.39.61,3.57.2,1.18-.41,2.12-1.26,2.67-2.38Z"/>
      <path class="cls-1" d="m48.85,37.93c1.29,0,2.6-.21,3.88-.66,2.97-1.04,5.36-3.18,6.73-6.01,1.37-2.84,1.55-6.04.51-9.01-1.04-2.97-3.18-5.36-6.01-6.73-2.84-1.37-6.04-1.55-9.01-.51-6.13,2.15-9.38,8.89-7.23,15.02,1.7,4.85,6.27,7.9,11.14,7.9Zm-2.91-20.08c.95-.33,1.93-.5,2.91-.5,1.3,0,2.6.29,3.81.88,2.12,1.02,3.71,2.8,4.48,5.02.78,2.22.64,4.6-.38,6.72-1.02,2.12-2.8,3.71-5.02,4.48-4.57,1.6-9.6-.82-11.2-5.39-1.6-4.57.82-9.6,5.39-11.2Z"/>
      <path class="cls-1" d="m46.81,30.35c1.12.54,2.39.61,3.57.2,1.18-.41,2.12-1.26,2.67-2.38.54-1.12.61-2.39.2-3.57-.41-1.18-1.26-2.12-2.38-2.67-.64-.31-1.33-.46-2.02-.46-.52,0-1.04.09-1.55.26-1.18.41-2.12,1.26-2.67,2.38-.54,1.12-.61,2.39-.2,3.57.41,1.18,1.26,2.12,2.38,2.67Z"/>
    </g>
  </g>
</svg>