<?xml version="1.0" standalone="no"?>
<!DOCTYPE svg PUBLIC "-//W3C//DTD SVG 20010904//EN"
 "http://www.w3.org/TR/2001/REC-SVG-20010904/DTD/svg10.dtd">
<svg version="1.0" xmlns="http://www.w3.org/2000/svg"
 width="192.000000pt" height="192.000000pt" viewBox="0 0 192.000000 192.000000"
 preserveAspectRatio="xMidYMid meet">
<metadata>
Created by potrace 1.14, written by Peter Selinger 2001-2017
</metadata>
<g transform="translate(0.000000,192.000000) scale(0.100000,-0.100000)"
fill="#000000" stroke="none">
<path d="M858 1123 c5 -96 -6 -205 -20 -201 -7 3 -107 187 -144 266 -1 2 -18
0 -39 -4 -25 -4 -35 -11 -31 -21 5 -12 0 -50 -20 -142 -4 -19 -10 -22 -34 -19
-35 5 -38 -4 -11 -31 16 -16 33 -20 90 -19 73 0 129 -21 115 -44 -5 -8 4 -9
32 -5 21 4 58 7 81 7 l41 0 -4 38 c-3 20 -1 57 3 82 l8 44 49 -78 c30 -48 58
-81 74 -87 13 -5 26 -8 28 -7 1 2 4 69 6 151 l3 147 -32 0 -32 0 -3 -77 -3
-78 -49 78 c-44 69 -53 77 -80 77 l-31 0 3 -77z m-155 -78 c22 -45 22 -45 -7
-45 -31 0 -37 10 -30 49 8 40 16 39 37 -4z"/>
<path d="M1188 1171 c-68 -34 -63 -101 13 -155 56 -41 62 -69 17 -74 -19 -2
-36 5 -54 23 l-26 26 -20 -21 c-16 -17 -17 -24 -7 -36 21 -26 70 -46 112 -47
31 -1 44 5 63 27 45 52 28 99 -61 162 -20 14 -27 25 -22 37 9 24 53 21 71 -5
l16 -22 20 20 c23 22 19 48 -8 59 -49 20 -82 22 -114 6z"/>
<path d="M445 1134 c-33 -12 -40 -19 -41 -42 -1 -15 -10 -45 -19 -67 l-18 -40
-13 30 c-7 17 -13 42 -14 57 0 26 -1 27 -32 16 -36 -12 -59 -28 -41 -28 12 0
83 -213 83 -248 0 -13 5 -20 13 -17 58 21 70 27 61 33 -26 17 -38 102 -14 102
4 0 28 -19 54 -41 l47 -41 67 17 c63 17 67 19 67 46 0 25 -4 29 -28 29 -23 0
-29 -5 -34 -30 -3 -17 -9 -29 -14 -28 -4 2 -37 29 -73 61 l-65 58 19 52 c11
29 25 60 31 70 14 25 10 26 -36 11z"/>
<path d="M1359 1023 c-20 -71 -38 -134 -40 -142 -3 -9 22 -21 84 -39 48 -13
89 -23 91 -21 11 10 18 62 9 56 -12 -8 -113 20 -113 31 0 4 3 17 6 30 7 26 27
28 67 7 26 -14 28 -13 37 11 15 38 13 41 -29 48 -47 7 -52 13 -40 45 8 21 13
22 47 16 20 -3 47 -13 58 -20 20 -13 22 -12 28 8 11 40 7 44 -68 66 -41 11
-81 23 -88 26 -9 4 -23 -31 -49 -122z"/>
<path d="M1620 1065 c0 -12 -57 -160 -96 -251 -3 -7 9 -17 27 -23 41 -14 39
-14 39 8 0 23 40 121 50 121 4 0 15 -39 23 -87 11 -57 23 -92 34 -100 22 -17
43 -16 43 1 0 14 72 197 91 229 6 11 9 20 7 22 -6 5 -47 25 -51 25 -2 0 -16
-32 -32 -71 -32 -81 -37 -79 -55 28 -15 83 -16 84 -52 100 -24 11 -28 10 -28
-2z"/>
<path d="M118 1013 c-50 -31 -59 -92 -20 -135 11 -14 31 -18 76 -18 73 0 96
-11 80 -37 -17 -27 -61 -40 -84 -25 -18 11 -20 9 -20 -23 l0 -35 51 0 c45 0
55 4 86 35 31 31 35 40 29 68 -11 53 -38 71 -114 77 -53 4 -67 9 -70 22 -5 26
43 46 69 30 17 -11 19 -9 19 23 0 34 -1 35 -37 35 -21 0 -50 -8 -65 -17z"/>
</g>
</svg>
