<svg width="119" height="175" viewBox="0 0 119 175" fill="none" xmlns="http://www.w3.org/2000/svg">
<g filter="url(#filter0_d_514_125365)">
<path d="M114.207 57.2165C114.207 87.2655 59.3109 168.827 59.3109 168.827C59.3109 168.827 4.41455 87.2655 4.41455 57.2165C4.41455 27.1675 28.9818 2.82715 59.2882 2.82715C89.5946 2.82715 114.185 27.19 114.185 57.2165H114.207Z" fill="#BF2028"/>
<path d="M108.196 56.6322C108.196 83.31 86.3738 104.953 59.4246 104.953C32.4755 104.953 10.6758 83.31 10.6758 56.6322C10.6758 29.9544 32.4982 8.31104 59.4246 8.31104C86.3511 8.31104 108.196 29.9319 108.196 56.6322Z" fill="#BF2028"/>
<g filter="url(#filter1_i_514_125365)">
<path d="M87.7281 38.1592C87.7073 38.0552 87.6866 37.9513 87.6555 37.8577C87.6555 37.8577 87.6555 37.8577 87.6555 37.8473C87.5414 37.4418 87.2822 37.1091 86.8674 36.8492C86.7741 36.7868 86.6704 36.7348 86.5563 36.6829C86.546 36.6829 86.5252 36.6725 86.5149 36.6621C86.4112 36.6205 86.2971 36.5789 86.1727 36.5373C86.1519 36.5373 86.1312 36.5269 86.1105 36.5165C85.9653 36.4749 85.8201 36.4333 85.6542 36.4022C85.2809 36.3294 84.9076 36.2774 84.5447 36.2358C84.4929 36.2358 84.4514 36.2254 84.3995 36.215C84.047 36.1838 83.6841 36.163 83.3315 36.1526C83.2797 36.1526 83.2174 36.1526 83.1656 36.1526C82.8027 36.1526 82.4397 36.163 82.0768 36.1942C82.0561 36.1942 82.0353 36.1942 82.0146 36.1942C81.6517 36.2254 81.2991 36.267 80.9362 36.3294C80.9051 36.3294 80.874 36.3294 80.8429 36.3398C80.4903 36.4022 80.1378 36.4749 79.7748 36.5581C79.723 36.5685 79.6711 36.5893 79.6089 36.5997C79.2564 36.6933 78.9142 36.7868 78.5616 36.9012C78.5201 36.9116 78.4787 36.9324 78.4476 36.9428C78.095 37.0571 77.7425 37.1923 77.3899 37.3275C77.3899 37.3275 77.3795 37.3275 77.3692 37.3275C77.0166 37.473 76.6744 37.6186 76.3322 37.7849C76.2804 37.8057 76.2285 37.8369 76.1767 37.8577C75.8449 38.0136 75.5131 38.1904 75.1916 38.3671C75.1398 38.3983 75.0879 38.4191 75.0361 38.4503C74.7043 38.6374 74.3724 38.8246 74.0406 39.0325C74.0406 39.0325 74.0199 39.0429 74.0095 39.0533C73.6881 39.2509 73.3666 39.4692 73.0555 39.6771C73.0141 39.7083 72.9622 39.7395 72.9104 39.7707C72.6097 39.9786 72.2986 40.2074 72.0082 40.4257C71.946 40.4673 71.8838 40.5193 71.8216 40.5608C71.5209 40.7896 71.2305 41.0183 70.9402 41.2574C70.8987 41.299 70.8469 41.3302 70.8054 41.3718C70.5358 41.6005 70.2662 41.8292 70.007 42.058C69.9655 42.0996 69.924 42.1308 69.8825 42.1723C69.6129 42.4219 69.3433 42.6714 69.0737 42.9209C69.0115 42.9833 68.9389 43.0457 68.8767 43.1184C68.6175 43.368 68.3686 43.6175 68.1301 43.867C68.0679 43.9294 68.0057 44.0022 67.9331 44.0645C67.705 44.3037 67.4769 44.5428 67.2591 44.7819C67.2073 44.8443 67.1554 44.8963 67.1036 44.9587C66.8858 45.1978 66.6784 45.4473 66.4607 45.6864C66.3881 45.7696 66.3259 45.8424 66.2533 45.9256C66.077 46.1439 65.8904 46.3622 65.7141 46.5806C63.661 49.1381 62.0641 51.7685 61.0997 54.0038C60.9857 53.5048 60.8301 53.0577 60.6331 52.6834C61.0686 52.5483 61.3797 52.1428 61.3797 51.6646C61.3797 51.3007 61.2034 50.9784 60.9235 50.7808C60.8716 50.4273 60.7161 50.1154 60.4879 49.8763C60.4879 49.8763 60.0732 49.2005 59.2644 49.2213C58.4556 49.2421 58.1445 49.7723 58.1445 49.7723C57.8542 50.0323 57.6571 50.3858 57.6053 50.7808C57.3357 50.9784 57.149 51.3007 57.149 51.6646C57.149 52.1428 57.4497 52.5379 57.8749 52.673C57.6882 53.0369 57.5223 53.4632 57.4186 53.9518C56.4543 51.7269 54.8678 49.107 52.825 46.5702C52.6488 46.3518 52.4829 46.1439 52.2962 45.936C52.2236 45.8424 52.1407 45.7488 52.0681 45.6656C51.8814 45.4369 51.6844 45.2186 51.4874 45.0002C51.4148 44.9171 51.3319 44.8339 51.2593 44.7403C51.0623 44.522 50.8549 44.3037 50.6475 44.0853C50.5749 44.0022 50.492 43.9294 50.4194 43.8462C50.1809 43.6071 49.9424 43.3576 49.6935 43.1288C49.6106 43.0561 49.538 42.9729 49.455 42.9001C49.2062 42.661 48.9469 42.4219 48.6877 42.1827C48.6255 42.1308 48.5736 42.0788 48.5114 42.0268C48.2729 41.8188 48.0344 41.6109 47.7856 41.403C47.7234 41.351 47.6611 41.299 47.5989 41.247C47.3189 41.0183 47.0493 40.8 46.759 40.5816C46.6864 40.5193 46.6035 40.4673 46.5309 40.4049C46.2509 40.1866 45.9606 39.9786 45.6702 39.7811C45.608 39.7395 45.5458 39.6979 45.4732 39.6459C45.1829 39.4484 44.9029 39.2613 44.6126 39.0741C44.5815 39.0533 44.54 39.0325 44.5089 39.0117C44.1978 38.8142 43.8763 38.6374 43.5653 38.4607C43.4927 38.4191 43.4305 38.3879 43.3579 38.3463C43.0468 38.18 42.7357 38.0136 42.4143 37.8577C42.3417 37.8265 42.2795 37.7953 42.2069 37.7641C41.8751 37.6082 41.5433 37.4626 41.2114 37.3275C41.1803 37.3171 41.1596 37.3067 41.1285 37.2963C40.807 37.1715 40.4752 37.0467 40.1538 36.9428C40.1019 36.922 40.0397 36.9012 39.9879 36.8804C39.656 36.7764 39.3139 36.6725 38.982 36.5893C38.9095 36.5685 38.8472 36.5581 38.7747 36.5373C38.4325 36.4541 38.0903 36.3814 37.7481 36.3294C37.7066 36.3294 37.6548 36.319 37.6133 36.3086C37.2711 36.2566 36.9393 36.215 36.5971 36.1838C36.566 36.1838 36.5245 36.1838 36.4934 36.1734C36.1409 36.1422 35.7883 36.1318 35.4357 36.1318C35.3735 36.1318 35.3009 36.1318 35.2387 36.1318C34.8862 36.1318 34.544 36.1526 34.1914 36.1942C34.1396 36.1942 34.0774 36.2046 34.0151 36.215C33.6522 36.2566 33.2789 36.3086 32.916 36.3814C32.7501 36.4125 32.6049 36.4541 32.4598 36.4957C32.439 36.4957 32.4183 36.5165 32.3872 36.5165C32.2731 36.5581 32.159 36.5997 32.0554 36.6413C32.0346 36.6413 32.0242 36.6517 32.0139 36.6621C31.8998 36.7141 31.7961 36.766 31.7028 36.8284C31.288 37.0883 31.0288 37.421 30.9147 37.8265C30.9147 37.8265 30.9147 37.8369 30.9147 37.8473C30.8836 37.9409 30.8629 38.0448 30.8421 38.1488C30.8007 38.4399 30.8007 38.8558 30.8421 39.3548C30.8421 39.4068 30.8421 39.4588 30.8525 39.5108C30.8525 39.5316 30.8525 39.5628 30.8525 39.5836C30.9458 40.7064 31.1843 42.1204 31.4954 43.5863C31.9205 45.6241 32.4805 47.9113 33.0612 49.9595C33.7663 52.4339 34.4818 54.5548 34.9795 55.4594C36.0683 57.4243 38.0177 58.2665 41.1077 57.9546C42.0306 57.861 42.9846 57.7778 43.9697 57.7051C43.7519 57.757 43.5445 57.8194 43.3475 57.8818C43.2542 57.913 43.1712 57.9442 43.0883 57.965C42.8602 58.0378 42.632 58.1313 42.4143 58.2145C42.3417 58.2457 42.2691 58.2769 42.1965 58.3081C41.9269 58.4224 41.6677 58.5472 41.4292 58.6823C41.367 58.7135 41.3151 58.7551 41.2529 58.7863C41.0559 58.9007 40.8692 59.015 40.693 59.1398C40.6308 59.1814 40.5685 59.223 40.5063 59.275C40.2886 59.4309 40.0812 59.5973 39.8842 59.7636C39.8531 59.7948 39.8323 59.8156 39.8012 59.8468C39.6353 60.0027 39.4694 60.1587 39.3242 60.325C39.2724 60.377 39.2309 60.429 39.1791 60.481C39.0131 60.6681 38.868 60.8553 38.7228 61.0424C38.7228 61.0528 38.7021 61.0632 38.7021 61.0736C38.5569 61.2815 38.4221 61.4895 38.2873 61.7078C38.2562 61.7598 38.2251 61.8222 38.194 61.8741C38.0903 62.0613 37.9866 62.2588 37.9036 62.4564C37.8829 62.4876 37.8725 62.5291 37.8518 62.5603C37.7481 62.7891 37.6651 63.0282 37.5822 63.2673C37.5614 63.3193 37.5511 63.3713 37.5407 63.4129C37.4785 63.6208 37.4163 63.8287 37.3748 64.0367C37.3644 64.0887 37.3541 64.1302 37.3437 64.1822C37.2918 64.4317 37.24 64.6917 37.2089 64.9516C37.2089 64.9828 37.2089 65.0244 37.1985 65.0555C37.1674 65.2843 37.1467 65.5234 37.1363 65.7521C37.1363 65.8041 37.1363 65.8561 37.1363 65.9081C37.0533 67.9874 37.5718 70.1915 38.588 72.2189C39.8738 74.8077 41.6469 76.7103 44.7474 77.0534C50.7201 77.7084 53.5405 74.2047 55.884 68.6944C56.4543 67.3532 57.0765 65.5962 57.5742 63.7767C57.5742 63.7767 57.5949 63.704 57.6053 63.6728C57.6364 63.548 57.6675 63.4337 57.6986 63.3089C57.6779 63.756 57.6675 64.2134 57.6675 64.6813C57.6675 69.0063 58.3934 72.5204 59.2851 72.5204C60.1769 72.5204 60.9027 69.0063 60.9027 64.6813C60.9027 64.1614 60.8924 63.652 60.8716 63.1633C60.9131 63.3297 60.9546 63.496 61.0064 63.6728C61.0064 63.704 61.0272 63.7456 61.0375 63.7767C61.5353 65.5962 62.1574 67.3532 62.7277 68.6944C65.0712 74.2047 67.8916 77.698 73.8643 77.0534C76.9648 76.7103 78.7379 74.8077 80.0237 72.2189C81.0295 70.1915 81.548 67.9874 81.4754 65.8977C81.4754 65.8561 81.4754 65.8041 81.4754 65.7625C81.465 65.513 81.4443 65.2739 81.4132 65.0244C81.4132 65.0036 81.4132 64.9724 81.4132 64.9516C81.3821 64.6917 81.3302 64.4213 81.2784 64.1718C81.2784 64.1302 81.2576 64.0887 81.2473 64.0575C81.1954 63.8391 81.1332 63.6208 81.071 63.4025C81.0606 63.3609 81.0503 63.3193 81.0295 63.2777C80.9466 63.0282 80.8532 62.7891 80.7599 62.5499C80.7495 62.5187 80.7288 62.4979 80.7184 62.4668C80.6251 62.2588 80.5214 62.0613 80.4177 61.8638C80.3866 61.8118 80.3659 61.7598 80.3348 61.7078C80.2103 61.4895 80.0652 61.2711 79.92 61.0632C79.92 61.0632 79.92 61.0632 79.92 61.0528C79.7748 60.8553 79.6089 60.6577 79.443 60.4706C79.4015 60.4186 79.3601 60.377 79.3082 60.325C79.1527 60.1587 78.9868 59.9923 78.8105 59.826C78.7898 59.8052 78.769 59.7844 78.7483 59.7636C78.5513 59.5869 78.3335 59.4205 78.1157 59.2646C78.0639 59.223 78.0017 59.1814 77.9395 59.1398C77.7528 59.015 77.5558 58.8903 77.3588 58.7759C77.3069 58.7447 77.2551 58.7135 77.2032 58.6823C76.9544 58.5472 76.6952 58.412 76.4152 58.2977C76.353 58.2665 76.2908 58.2457 76.2182 58.2145C75.99 58.1209 75.7515 58.0274 75.5131 57.9546C75.4405 57.9338 75.3575 57.9026 75.2849 57.8818C75.0775 57.8194 74.8702 57.757 74.6524 57.7051C75.6375 57.7778 76.5915 57.861 77.5143 57.9546C80.6044 58.2665 82.5538 57.4139 83.6426 55.4594C84.1403 54.5548 84.8558 52.4339 85.5609 49.9595C85.5609 49.9595 85.5609 49.9283 85.5713 49.9179C86.1416 47.8801 86.7015 45.6137 87.1267 43.5863C87.4377 42.1308 87.6866 40.7168 87.7696 39.6043C87.7696 39.5628 87.7696 39.5212 87.7799 39.4796C87.7799 39.438 87.7799 39.386 87.7799 39.3444C87.8214 38.835 87.8214 38.4191 87.7799 38.128L87.7281 38.1592Z" fill="white"/>
</g>
</g>
<defs>
<filter id="filter0_d_514_125365" x="0.414551" y="0.827148" width="117.792" height="174" filterUnits="userSpaceOnUse" color-interpolation-filters="sRGB">
<feFlood flood-opacity="0" result="BackgroundImageFix"/>
<feColorMatrix in="SourceAlpha" type="matrix" values="0 0 0 0 0 0 0 0 0 0 0 0 0 0 0 0 0 0 127 0" result="hardAlpha"/>
<feOffset dy="2"/>
<feGaussianBlur stdDeviation="2"/>
<feComposite in2="hardAlpha" operator="out"/>
<feColorMatrix type="matrix" values="0 0 0 0 0.22 0 0 0 0 0.22 0 0 0 0 0.22 0 0 0 0.44 0"/>
<feBlend mode="normal" in2="BackgroundImageFix" result="effect1_dropShadow_514_125365"/>
<feBlend mode="normal" in="SourceGraphic" in2="effect1_dropShadow_514_125365" result="shape"/>
</filter>
<filter id="filter1_i_514_125365" x="30.811" y="36.1318" width="58" height="42" filterUnits="userSpaceOnUse" color-interpolation-filters="sRGB">
<feFlood flood-opacity="0" result="BackgroundImageFix"/>
<feBlend mode="normal" in="SourceGraphic" in2="BackgroundImageFix" result="shape"/>
<feColorMatrix in="SourceAlpha" type="matrix" values="0 0 0 0 0 0 0 0 0 0 0 0 0 0 0 0 0 0 127 0" result="hardAlpha"/>
<feOffset dx="2" dy="2"/>
<feGaussianBlur stdDeviation="0.5"/>
<feComposite in2="hardAlpha" operator="arithmetic" k2="-1" k3="1"/>
<feColorMatrix type="matrix" values="0 0 0 0 0 0 0 0 0 0 0 0 0 0 0 0 0 0 0.22 0"/>
<feBlend mode="normal" in2="shape" result="effect1_innerShadow_514_125365"/>
</filter>
</defs>
</svg>
