<svg width="118" height="175" viewBox="0 0 118 175" fill="none" xmlns="http://www.w3.org/2000/svg">
<g filter="url(#filter0_d_514_125386)">
<path d="M113.793 57.2165C113.793 87.2655 58.8963 168.827 58.8963 168.827C58.8963 168.827 4 87.2655 4 57.2165C4 27.1675 28.5673 2.82715 58.8737 2.82715C89.1801 2.82715 113.77 27.19 113.77 57.2165H113.793Z" fill="#BF2028"/>
<path d="M107.782 56.6322C107.782 83.31 85.9592 104.953 59.0101 104.953C32.061 104.953 10.2612 83.31 10.2612 56.6322C10.2612 29.9544 32.0837 8.31104 59.0101 8.31104C85.9365 8.31104 107.782 29.9319 107.782 56.6322Z" fill="#BF2028"/>
<g filter="url(#filter1_i_514_125386)">
<path d="M85.0847 36.0301C84.1444 35.7498 83.6015 35.354 82.7097 34.9252C81.7596 34.4717 81.081 33.7213 81.081 33.7213C76.9417 29.953 72.6085 34.0677 72.6085 34.0677C67.0441 38.273 71.4549 48.5719 71.4549 48.5719C72.5212 51.3508 68.188 51.5816 68.188 51.5816C56.2643 51.0539 46.7157 54.5089 46.7157 54.5089L41.7717 54.4347C34.9665 54.4347 42.1304 55.3417 42.1304 55.3417C39.8329 55.4901 36.7405 56.5456 36.7405 56.5456C31.6124 57.3702 37.3609 57.2959 37.3609 57.2959C34.8017 57.8237 33.8323 58.8709 33.8323 58.8709L36.7502 58.4256C36.217 58.4256 34.191 59.8521 34.191 59.8521C28.8011 60.2314 28.1807 62.2599 28.1807 62.2599C30.3909 61.3611 34.8987 61.3611 34.8987 61.3611C34.1037 61.6579 28.1807 63.9173 28.1807 63.9173C22.0831 65.5747 33.5706 64.8985 33.5706 64.8985C34.54 66.5559 48.8581 67.9824 48.8581 67.9824C48.6836 68.6586 50.1765 69.409 50.8841 69.7058C51.2816 69.879 51.6402 70.0274 51.9698 70.1676C52.3382 70.9756 53.0944 71.726 53.0944 71.726C53.7729 75.5768 52.8326 77.2836 52.8326 77.2836C51.8148 78.9163 54.1219 78.4381 54.1219 78.4381C55.0525 78.4628 55.8766 78.471 56.623 78.4793C56.5067 79.4523 56.274 79.9223 56.274 79.9223C55.3046 81.5797 57.6021 81.052 57.6021 81.052C65.9971 81.052 66.2589 80.7469 66.2589 80.7469C65.9002 79.3203 58.4842 79.3203 58.4842 79.3203C58.4261 79.0153 58.3873 78.7679 58.3485 78.4958C62.6042 78.5123 62.7981 78.3226 62.7981 78.3226C62.6236 77.5228 60.2486 77.1187 58.1837 76.9208C58.1256 75.082 58.6684 74.6615 58.6684 74.6615C59.7542 73.3009 59.1919 72.2537 59.1919 72.2537L59.6378 71.5034C60.8787 70.9756 62.9047 68.4937 62.9047 68.4937C76.0692 66.5394 79.5203 58.9533 79.5203 58.9533C82.6127 54.2203 79.5203 49.7099 79.5203 49.7099C78.105 47.2279 76.6896 41.9671 76.6896 41.9671C75.8947 39.2625 77.659 39.1388 77.659 39.1388C79.0647 38.9821 79.9275 38.8337 80.6933 38.6193C81.9438 38.6523 82.8648 38.5286 83.7275 38.4791C84.852 38.4132 86.2674 38.0751 86.151 37.7618C85.9669 37.3989 85.3561 37.6133 84.4352 37.5639C83.7372 37.5309 82.1474 37.0774 81.5657 36.8465C80.48 36.4177 86.8102 37.77 87.3143 37.0691C87.7409 36.4672 86.4322 36.4424 85.1041 36.0466L85.0847 36.0301ZM55.0526 76.7229C54.6454 74.3317 54.849 73.136 55.0719 72.5588C55.3919 73.4576 56.3419 74.3564 56.3419 74.3564C56.5357 75.2964 56.6327 76.1045 56.6618 76.7971C55.7215 76.7394 55.0429 76.7229 55.0429 76.7229H55.0526Z" fill="white"/>
</g>
</g>
<defs>
<filter id="filter0_d_514_125386" x="0" y="0.827148" width="117.792" height="174" filterUnits="userSpaceOnUse" color-interpolation-filters="sRGB">
<feFlood flood-opacity="0" result="BackgroundImageFix"/>
<feColorMatrix in="SourceAlpha" type="matrix" values="0 0 0 0 0 0 0 0 0 0 0 0 0 0 0 0 0 0 127 0" result="hardAlpha"/>
<feOffset dy="2"/>
<feGaussianBlur stdDeviation="2"/>
<feComposite in2="hardAlpha" operator="out"/>
<feColorMatrix type="matrix" values="0 0 0 0 0.22 0 0 0 0 0.22 0 0 0 0 0.22 0 0 0 0.44 0"/>
<feBlend mode="normal" in2="BackgroundImageFix" result="effect1_dropShadow_514_125386"/>
<feBlend mode="normal" in="SourceGraphic" in2="effect1_dropShadow_514_125386" result="shape"/>
</filter>
<filter id="filter1_i_514_125386" x="26.3965" y="32.1318" width="62" height="50" filterUnits="userSpaceOnUse" color-interpolation-filters="sRGB">
<feFlood flood-opacity="0" result="BackgroundImageFix"/>
<feBlend mode="normal" in="SourceGraphic" in2="BackgroundImageFix" result="shape"/>
<feColorMatrix in="SourceAlpha" type="matrix" values="0 0 0 0 0 0 0 0 0 0 0 0 0 0 0 0 0 0 127 0" result="hardAlpha"/>
<feOffset dx="2" dy="2"/>
<feGaussianBlur stdDeviation="0.5"/>
<feComposite in2="hardAlpha" operator="arithmetic" k2="-1" k3="1"/>
<feColorMatrix type="matrix" values="0 0 0 0 0 0 0 0 0 0 0 0 0 0 0 0 0 0 0.22 0"/>
<feBlend mode="normal" in2="shape" result="effect1_innerShadow_514_125386"/>
</filter>
</defs>
</svg>
