<svg width="65" height="53" viewBox="0 0 65 53" fill="none" xmlns="http://www.w3.org/2000/svg">
<path fill-rule="evenodd" clip-rule="evenodd" d="M64.6209 14.44C64.3838 14.1258 64.0675 14 63.6458 13.7486C63.4087 13.5915 63.1715 13.3401 62.9079 12.963C62.7234 12.7115 62.5653 12.4601 62.4072 12.2087C62.17 11.8316 61.9328 11.4545 61.7219 11.0773C61.5111 10.7316 61.3266 10.4802 61.1685 10.2288C61.0104 9.97739 60.826 9.7574 60.6415 9.53741C60.1144 7.90321 59.5346 6.86611 58.4013 5.70332C58.2432 5.16906 57.9533 4.66622 57.6107 4.2891C58.4276 3.56628 58.9547 2.84346 59.1656 2.05778C59.2183 1.90065 59.271 1.64923 59.2446 1.46067C59.2446 1.33496 59.192 1.30353 59.1393 1.36639C59.1129 1.39781 59.0602 1.4921 59.0338 1.52352C58.454 2.34063 57.6898 3.03202 56.6883 3.53485C56.0031 3.1263 55.2915 3.1263 54.6063 3.472C55.1861 2.68632 55.8186 2.05778 55.924 0.894982C55.924 0.894982 55.924 0.894983 55.924 0.863556C55.924 0.486432 55.6341 0.329296 55.476 0.580712C55.3969 0.70642 55.3179 0.800702 55.2652 0.92641C55.107 1.27211 54.7644 1.74351 54.5009 1.99493C54.211 2.3092 53.8948 2.59204 53.5521 2.87488C53.315 3.06345 53.0777 3.25201 52.8669 3.53485C52.5507 3.97483 52.577 4.50909 52.7615 4.98049C52.656 5.1062 52.4453 5.29476 52.3135 5.35762C52.3135 5.35762 52.2608 5.35762 52.2344 5.38905C51.5756 5.16906 50.9694 5.16906 50.3105 5.4519C50.3105 5.4519 50.2842 5.4519 50.2578 5.4519C49.9152 5.64046 49.6253 5.95473 49.8098 6.42614C49.9152 6.67755 50.047 6.83469 50.2051 7.02325C49.5199 7.65179 48.8083 8.06034 48.1758 8.34318C46.0411 8.02891 44.1172 8.02891 41.9825 8.09177C38.7409 8.28033 35.5521 8.62603 32.3105 8.97172C28.0938 9.34885 24.5096 9.60027 20.2665 9.34885C16.3134 7.27467 10.6472 5.57761 6.43048 7.68322C6.40412 7.68322 6.35139 7.71464 6.32504 7.74607C4.84919 7.58894 3.68963 8.02892 2.899 8.9403C2.13472 9.82026 1.713 11.1402 1.60758 12.8058C1.55487 13.4972 1.58122 14.2515 1.60758 15.0686C1.713 16.5456 1.87119 17.8656 2.00296 19.0912C2.31921 21.8882 2.60905 24.3395 2.26644 28.0479C1.52852 28.2679 1.37038 29.2107 1.26496 30.3735C1.15954 31.8506 1.6076 33.8933 0.31624 34.9304C0.395303 34.9304 0.579822 34.9304 0.68524 34.8676C0.527114 35.119 0.210835 35.4018 0 35.4961C0.553442 35.4961 0.948736 35.1819 1.21228 34.7733C1.21228 34.899 1.15955 35.0561 1.10684 35.1819C1.15955 35.119 1.23863 35.0561 1.29134 34.9619C1.26499 35.3076 1.26499 35.6533 1.29134 35.999C1.31769 36.4075 1.37045 36.7846 1.42316 37.1618C1.95025 40.6187 1.73938 43.1957 1.5549 46.5899C1.5549 46.9984 1.42316 48.4126 2.00296 48.4126C2.08202 48.4126 2.13467 48.4126 2.18738 48.3498C2.18738 48.8526 2.26649 49.4183 2.39826 49.8897C2.50368 50.2668 2.63543 50.6439 2.87262 50.9582C2.97804 51.1153 3.10979 51.2411 3.26792 51.3353C3.42605 51.4296 3.61053 51.4925 3.76866 51.5553C4.34846 51.7439 5.21817 51.9324 5.85068 51.7125C5.92974 51.681 6.03512 51.6496 6.14054 51.5553C6.24596 51.461 6.35136 51.3353 6.37772 51.1782C6.45678 50.8639 6.37777 50.6125 6.35142 50.424C6.29871 50.2354 6.21963 50.0468 6.16692 49.8897C6.08785 49.7011 6.00883 49.544 5.95612 49.4183C5.79799 49.1354 5.6398 48.8526 5.48168 48.6326C5.32355 48.4126 5.16547 48.2241 5.0337 48.0984C4.7438 46.307 4.50658 44.5157 4.50658 42.6929C4.50658 40.2416 4.98096 38.2931 6.4041 36.3761C6.43045 36.3447 6.48318 36.2818 6.50954 36.2504C7.08933 39.1731 8.82872 42.6929 9.38216 47.8469C9.46122 48.6955 9.90924 48.9469 10.1201 48.7269C10.2255 51.5867 13.9151 50.8954 14.1259 50.424C14.4949 49.6383 12.2284 46.4327 11.8067 45.9927C10.7262 43.9186 10.41 40.7444 10.3836 37.256C10.5418 37.696 10.858 37.6646 11.0425 37.256C11.3587 37.7903 11.8331 37.6017 11.9122 36.0304C12.1493 35.999 12.3866 35.8732 12.5974 35.7475C12.571 37.0989 13.0982 37.3503 13.3617 36.5646C13.757 37.476 14.3895 36.8789 14.3104 34.6476C15.2592 33.8933 16.1289 32.982 16.9722 31.9449C17.4466 32.2277 17.8946 32.4477 18.3163 32.6363C18.9488 32.9191 19.6077 33.1077 20.1875 33.2648C20.9781 33.4534 21.6369 33.5476 22.2167 33.6105C22.981 33.6734 23.719 33.7048 24.4833 33.7048C27.6985 33.6734 32.126 32.6363 35.2094 33.8305C35.025 36.3761 35.2622 37.916 35.4994 39.6759C35.6311 42.0958 35.5784 44.39 35.2622 46.8098C35.1831 47.3127 34.9986 47.8784 35.1304 48.3812C35.1567 48.5069 35.2095 48.664 35.3412 48.7897C35.394 48.8526 35.4994 48.884 35.5784 48.884C35.6311 48.884 35.6838 48.884 35.7365 48.8526C35.7365 48.8526 35.7365 48.884 35.7365 48.9155C35.7365 49.1669 35.7102 49.4183 35.7365 49.7326C35.7365 49.984 35.7893 50.3611 35.921 50.7382C35.9738 50.8954 36.0528 51.0525 36.1582 51.2411C36.1582 51.2411 36.1846 51.2725 36.2109 51.3039C36.2373 51.3668 36.29 51.3982 36.3427 51.461C36.3427 51.461 36.3427 51.461 36.369 51.461C36.4217 51.5239 36.4744 51.5868 36.5271 51.6182C36.5535 51.6182 36.5799 51.681 36.6326 51.7125C36.6853 51.7439 36.7116 51.7753 36.7643 51.8067C36.8434 51.8382 36.9225 51.901 37.0016 51.9324C37.1334 51.9953 37.2915 52.0582 37.4759 52.0896C37.7922 52.1839 38.1348 52.2467 38.451 52.2467H38.5037C38.5564 52.2467 38.6355 52.2467 38.6882 52.2467C38.7936 52.2467 38.8991 52.2467 38.9518 52.2153C39.2153 52.1524 39.3998 52.0267 39.5316 51.8382C39.6107 51.7125 39.6634 51.5868 39.6897 51.4296C39.6897 51.3039 39.6897 51.1782 39.6897 51.0525C39.6897 50.8011 39.6107 50.5811 39.558 50.424C39.4262 50.0468 39.2944 49.7326 39.1626 49.4497C39.0045 49.1354 38.8727 48.8526 38.7409 48.6326C38.6882 48.5383 38.6355 48.4755 38.6092 48.4126C38.2666 46.087 38.2402 43.6671 38.2402 41.3101C38.8464 39.9273 39.3471 38.4503 39.8742 37.036C41.5872 40.1159 40.1377 49.7011 41.719 49.1983C41.8771 49.764 42.0616 50.2354 42.3515 50.5811C42.984 51.3982 44.0909 51.5239 44.9606 51.4296C46.0411 51.3039 45.8303 50.5182 44.7761 48.884C44.4862 48.444 44.17 48.0041 43.8274 47.5955C42.9577 44.17 43.1685 39.1731 44.4072 34.3019C46.5155 33.8305 48.1231 32.2277 48.782 29.8707C50.0997 29.0222 51.1012 25.4709 51.0484 23.3967C51.4965 22.4853 52.0763 21.4482 52.6824 20.694C53.3149 19.8769 53.7629 19.5941 54.5799 19.1226C55.476 19.4683 55.8186 19.5312 56.741 19.5312C57.5843 19.5312 58.6912 19.2169 59.5082 19.0598C60.8523 18.8084 63.1188 19.9398 63.5668 18.117C63.6986 18.117 63.8303 18.0541 63.9621 17.9913C64.2783 17.8341 64.5683 17.5199 64.7264 17.1742C64.7791 17.0799 64.8055 16.9856 64.8318 16.8913C65.069 16.1999 65.0953 15.1 64.6473 14.5029L64.6209 14.44ZM3.42604 29.085C3.37333 29.2107 3.32063 29.3364 3.26792 29.4621C3.26792 28.9593 3.13619 28.5508 2.899 28.2679C2.84629 28.2051 2.79359 28.1422 2.74088 28.1108C3.08349 24.4024 2.79357 21.8882 2.47732 19.0598C2.3719 18.2113 2.26644 17.2999 2.18738 16.3256C2.2928 16.797 2.3982 17.2685 2.50362 17.7399C2.63539 18.337 2.76718 18.9027 2.84624 19.3741L2.899 19.7198C3.26796 21.6997 3.47874 23.491 3.58416 25.0624C3.68958 26.6966 3.61052 28.0479 3.42604 29.0536V29.085Z" fill="#272727"/>
</svg>
