<svg width="65" height="69" viewBox="0 0 65 69" fill="none" xmlns="http://www.w3.org/2000/svg">
<path fill-rule="evenodd" clip-rule="evenodd" d="M64.0955 13.5223C63.5971 12.9369 61.1606 9.67106 60.1916 7.66843C60.1916 7.66843 60.247 7.66843 60.2746 7.66843C60.1916 7.54519 60.1639 7.42195 60.1639 7.29871C60.2746 7.36033 60.33 7.39114 60.4408 7.36033C60.0255 6.25118 59.4994 5.23446 58.6965 4.46421C59.0841 3.32425 59.2502 2.39996 59.3886 1.19838C59.3886 1.13676 59.3886 1.04433 59.3056 1.01352C59.1395 0.89028 59.0564 1.07514 58.9734 1.19838C58.7242 1.62971 58.5027 1.93781 58.1981 2.30753C57.8659 2.70806 57.5613 3.07777 57.2568 3.50911C57.146 3.4783 57.063 3.41668 56.9523 3.38587C57.2014 2.58482 57.3398 1.78376 57.4229 0.951899C57.4229 0.89028 57.4229 0.797851 57.3398 0.767041C57.2014 0.674612 57.1184 0.767041 57.0353 0.89028C56.9522 1.04433 56.8969 1.16757 56.7861 1.29081C56.2878 1.99943 55.6509 2.61563 55.1802 3.35506C54.8203 3.4783 54.3497 3.69397 53.9067 4.03288C53.8236 4.03288 53.7405 4.0945 53.6575 4.12531C53.4914 4.18692 53.3252 4.24854 53.1314 4.34097C52.8269 4.46421 52.5223 4.61826 52.1901 4.80312C51.8578 4.92636 51.5255 5.01879 51.1933 5.11122C51.2487 5.14203 51.304 5.20365 51.3594 5.20365C50.9718 5.3577 50.5565 5.48094 50.1412 5.57336C50.1966 5.63498 50.2797 5.63498 50.3627 5.66579C49.9197 5.85065 49.4767 6.0047 49.0337 6.12794C49.0891 6.18956 49.1445 6.22037 49.2275 6.25118C48.7845 6.46685 48.3416 6.65171 47.8709 6.77495C47.9263 6.83656 47.9816 6.86737 48.0647 6.92899C47.677 7.17547 47.2618 7.32952 46.8188 7.45276C46.8742 7.51438 46.9572 7.54519 47.0402 7.54519C46.6526 7.82248 46.2374 8.00734 45.7944 8.13057C45.8498 8.19219 45.9328 8.19219 46.0158 8.223C45.7113 8.43867 45.3513 8.59272 44.9637 8.71596C45.0468 8.77758 45.1298 8.80839 45.2129 8.80839C44.9083 9.02406 44.5761 9.17811 44.2162 9.30135C44.2993 9.36297 44.3546 9.39377 44.4377 9.39377C44.1331 9.64025 43.8009 9.82511 43.441 9.94835C43.4963 9.97916 43.5517 10.01 43.6071 10.0408C43.3302 10.2873 43.0533 10.4413 42.7211 10.5645C42.7764 10.5954 42.8318 10.6262 42.8872 10.657C42.6657 10.8726 42.3888 11.0575 42.112 11.1807C42.1396 11.1807 42.2228 11.2116 42.2504 11.2116C42.0289 11.3964 41.7797 11.5813 41.5028 11.7045C41.5582 11.7045 41.5859 11.7353 41.6413 11.7661C41.3921 11.9818 41.1152 12.1667 40.8107 12.3207C40.866 12.3515 40.9491 12.3823 41.0045 12.3823C40.783 12.598 40.5338 12.7828 40.257 12.9369C40.3123 12.9369 40.3677 12.9677 40.3954 12.9985C40.1739 13.245 39.897 13.4299 39.6201 13.6147C39.6755 13.6147 39.7586 13.6147 39.814 13.6147C39.5925 13.8612 39.3709 14.1077 39.1494 14.3541C38.5403 14.9087 37.8482 15.5557 37.2944 16.1719C33.972 17.0346 30.7603 18.3594 27.3824 18.8832C25.0567 19.3145 22.0666 19.1605 19.7132 19.0372C16.1692 18.0513 9.38591 17.3735 6.06347 20.1156C5.81428 20.1156 5.53742 20.208 5.28823 20.3004C5.20517 20.3004 5.12212 20.3621 5.03906 20.3929C0.581448 22.3647 0.664489 32.8092 0 37.4923C0.0830611 37.4307 0.249143 37.2458 0.304517 37.1226C-0.0554146 39.8954 0.747496 41.744 0.636748 44.1164C0.719809 44.024 0.802917 43.9315 0.858291 43.8083C0.858291 45.8725 1.49506 47.4746 1.68887 49.3848C1.79962 49.3232 1.88267 49.2 1.93804 49.0768C2.18723 50.001 2.18724 50.9253 2.21493 51.8496C2.32568 51.788 2.3811 51.6956 2.43647 51.6032C2.63028 52.5891 2.63025 53.5134 2.49182 54.4377C2.49182 54.4068 2.51947 54.376 2.54716 54.3144C2.4641 54.9922 2.40876 55.67 2.3257 56.3787C2.24264 57.0873 2.1873 57.7651 2.10424 58.4121C2.02118 59.0591 1.96576 59.6753 1.96576 60.2607C1.96576 60.8461 1.99349 61.3699 2.10424 61.832C2.21499 62.2941 2.35341 62.6947 2.51953 62.972C2.5749 63.0952 2.63027 63.1876 2.68565 63.2801C2.68565 64.2968 2.63022 65.0054 2.54716 66.0221C2.54716 66.361 2.54718 66.7308 2.65793 67.1005C2.76868 67.4702 3.07326 67.7783 3.37782 67.9939C3.51626 68.0864 3.71005 68.1788 3.87617 68.2404C4.04229 68.302 4.20839 68.3329 4.37451 68.3637C4.56832 68.3945 4.76219 68.4253 4.956 68.4561C5.12213 68.4561 5.26051 68.4869 5.42664 68.5177C5.75888 68.5177 6.1188 68.5177 6.45104 68.4561C7.36471 68.1788 7.06018 67.2545 6.64487 66.6383C6.56181 66.5151 6.47876 66.4227 6.3957 66.3302C6.31264 66.2378 6.22956 66.1454 6.11881 66.0837C6.00806 66.0221 5.92504 65.9605 5.81429 65.8989C5.39899 65.1286 5.14981 64.4816 4.956 63.773C4.84525 63.3109 4.76218 62.8179 4.67912 62.2325C4.76218 61.4931 4.73443 60.7845 4.70675 60.0142C4.70675 58.9667 4.62371 57.9192 4.6514 56.8716C4.6514 55.8549 4.76219 54.8998 4.956 54.0063C5.14981 52.9588 5.45431 51.9113 5.84192 50.8021C6.03573 50.4632 7.2817 48.2449 8.05694 47.1049C7.78007 48.1217 7.69697 48.9227 8.19534 50.5248C8.74908 52.4658 8.83219 54.7149 9.026 56.8716C9.2475 59.0283 9.16437 61.0926 10.6041 62.7563C10.7702 63.2492 10.8533 63.7422 10.9363 64.2043C11.1025 65.2827 10.9363 66.4535 12.3207 67.0697C12.9852 67.3778 15.6985 67.8399 15.5601 66.9772C15.4217 66.1762 14.7849 65.2827 14.0373 65.067C13.5113 64.42 13.0959 63.6806 12.7637 62.972C12.6252 62.6022 12.4868 62.2017 12.3207 61.832C12.1822 59.9834 11.2963 57.1797 11.2132 54.6841C11.1578 53.4209 11.2686 52.2193 11.4624 51.0794C12.9575 45.4104 14.8679 41.9597 16.5292 38.1393C22.8972 38.9712 30.1235 41.1895 36.5192 40.6965C36.8514 42.0829 36.8238 43.1921 36.7684 44.7942C36.6023 49.9086 36.1039 51.6956 36.5192 53.6366C36.5192 53.6366 36.3253 56.9332 36.2977 57.2413C36.1869 58.3197 35.5501 60.9693 35.8824 61.7088C35.9931 61.986 36.1593 62.2325 36.4361 62.4482C36.9345 63.4341 36.713 63.773 36.7407 64.6973C36.7407 65.2827 37.1006 65.8681 38.0142 66.1145C38.5126 66.2686 39.7309 66.4227 40.2015 65.9605C40.7276 65.4367 40.1185 64.3892 39.2048 64.0503C38.7342 63.3417 38.3189 62.0477 38.2635 61.7088C38.4296 61.3699 38.2081 59.8294 38.1804 59.6753C38.0143 57.8267 38.0696 56.0089 38.4572 54.1296C38.6234 53.729 38.7895 53.2669 38.928 52.7739C38.9833 53.2669 39.1217 53.8523 39.3155 54.3144C39.4817 54.7149 39.4263 58.104 39.371 59.0283C39.3433 59.6137 39.3155 60.1991 39.3155 60.7845C39.3155 61.0618 39.3156 61.339 39.371 61.6163C39.4817 62.2941 39.7309 62.7563 40.257 63.0952C40.6169 64.0811 40.6445 64.3584 40.7829 65.4367C40.8106 65.7448 40.8937 66.0837 41.0876 66.3918C41.4475 67.0388 42.2504 67.1005 42.8595 67.1005C43.1087 67.1005 43.967 67.0697 44.2715 66.9156C44.4377 66.854 44.6038 66.7616 44.7145 66.5767C44.8253 66.3918 44.853 66.1762 44.8253 65.9913C44.7976 65.8065 44.7146 65.6524 44.6592 65.4984C44.4931 65.2211 44.2992 65.0362 44.1054 64.8513C43.8562 64.6357 43.607 64.5124 43.3855 64.4508C42.721 63.5573 42.4165 62.8487 42.112 61.7704C42.112 61.5239 42.112 61.2466 42.0566 61.0001C42.0012 60.6304 41.9458 60.2299 41.8628 59.7677C41.5305 57.95 41.5029 56.4711 41.5306 54.6225C41.9182 53.4209 42.0289 52.1885 42.0842 50.9253C42.0842 50.4016 42.112 49.8162 42.1397 49.2308C42.195 46.6736 42.555 44.4861 43.1087 42.0521C43.4687 40.5116 43.7455 39.0944 43.8563 37.5847C46.0158 35.1815 46.6526 32.0081 46.8464 28.7423C47.8431 27.3251 48.6184 26.031 49.3659 24.3981C50.5011 21.9642 51.3317 18.8524 52.5777 16.6649C52.8822 16.0795 53.4083 15.3401 53.962 15.0012C53.962 15.0012 54.0174 15.0012 54.0174 14.9703C54.7927 15.4017 55.734 15.5557 56.6199 15.4633C57.9766 16.1103 59.4441 16.6341 60.6623 17.5892C61.1607 18.3902 61.9636 19.1297 62.8772 18.5443C63.8463 18.8216 64.7046 17.8665 64.6492 16.5108C65.3691 15.4633 64.8984 14.2001 63.9847 13.5223H64.0955ZM5.12212 42.2986C5.01137 42.6683 4.84524 43.0689 4.67912 43.5002C4.67912 43.038 4.67912 42.5759 4.67912 42.1137C4.67912 40.3268 4.67905 38.9712 4.7898 37.4923C4.87286 37.5847 4.92826 37.6771 5.06669 37.7696C4.87288 37.0301 4.84523 35.1815 4.84523 33.6411C4.95598 34.1648 5.06669 34.6886 5.14975 35.1815V35.3048C5.34356 36.2907 5.48203 37.1842 5.53741 37.9852C5.70353 39.8954 5.59274 40.9122 5.14975 42.2986H5.12212Z" fill="#272727"/>
</svg>
