<svg width="61" height="52" viewBox="0 0 61 52" fill="none" xmlns="http://www.w3.org/2000/svg">
<path fill-rule="evenodd" clip-rule="evenodd" d="M12.0632 39.9253C11.0456 42.0673 10.3507 45.0331 10.8222 47.3398C11.3931 47.9048 12.0136 48.5403 12.361 49.0817C13.7509 51.153 8.86158 51.0589 8.06737 48.5168C7.74472 48.6815 7.34763 48.5403 7.22353 48.0224C7.14907 47.6223 7.24832 47.4105 7.3476 47.0574C7.76952 45.5039 7.47172 42.1379 7.22353 40.4196C6.50378 41.3141 5.85848 42.2556 5.3621 43.2677C4.66717 44.6094 3.82326 47.0338 3.7488 48.5638C3.99699 48.9169 4.31966 49.3877 4.54303 49.7407C5.2876 51.0118 5.46137 52.1416 2.48308 51.7415C1.31659 51.5532 0.745693 50.7058 0.720874 49.7878C0.348588 49.9761 -0.0236431 49.8113 0.00117597 49.27C0.00117597 48.7992 0.646438 47.6458 0.820172 47.0338C1.16764 45.8805 1.46551 44.3976 1.63924 43.5031C1.73852 42.9382 1.81292 42.3733 1.88737 41.8084C1.93701 41.4082 1.91223 40.961 2.08597 40.5844C2.23488 40.2784 2.5575 39.9253 2.75606 39.6193C3.45099 38.5837 3.997 36.7006 4.22037 35.1236C4.54302 30.9573 3.07872 28.4858 3.47583 24.602C3.64956 22.9073 4.04665 21.4479 4.61748 20.2004C4.04665 19.1412 2.5327 17.8701 2.45824 15.7988C2.4086 14.5748 2.68159 13.0213 4.14592 11.1382C4.41893 10.7616 5.23794 10.079 5.75914 10.2908C6.2307 10.4791 6.05699 11.2559 5.93289 11.6325C5.43651 13.2096 4.36928 16.2224 7.54611 16.6226C13.9991 11.8914 22.1398 15.022 29.0891 14.8102C41.0519 14.4571 43.1615 7.60748 47.0332 3.39416C46.3631 3.70015 45.693 4.00615 45.0477 4.17092C45.9412 3.22939 46.8099 2.49971 47.629 1.98187C46.1398 2.49971 44.6258 3.44123 43.1615 3.81784C46.6361 0.169435 49.6144 -0.583785 52.2204 0.47543C54.3052 0.240049 56.7127 1.20511 57.5317 3.62954C58.6734 4.21799 61.1553 8.21947 60.783 10.0084C61.1801 10.7616 61.056 11.5384 60.2122 11.7267C60.2122 12.2445 59.7902 12.574 59.1201 12.7153C58.0529 12.9271 56.3404 12.5034 54.5534 12.6211C54.5534 12.6211 54.5534 12.6211 54.5534 12.6446C54.5534 13.2331 54.5534 13.798 54.3549 13.9392C54.1315 14.104 53.7096 14.0099 53.238 13.8451C53.3869 16.9992 53.1635 22.0128 51.0539 24.7197C50.7809 27.6149 49.54 30.1099 47.6537 31.9224C47.1325 34.488 46.4625 36.8889 46.3135 39.5723C46.1894 42.0202 46.4376 44.939 46.8099 47.2928C48.0012 48.5638 50.0364 50.6823 46.4625 50.3056C45.2463 50.1409 44.5761 49.5524 44.3031 48.5403C43.8812 48.8227 43.2608 48.3755 43.7075 46.822C43.6579 44.5859 43.5089 41.8084 43.2359 39.5723C43.0126 38.6778 42.7396 37.6657 42.541 36.7948C42.268 37.8069 42.0446 38.772 41.8709 39.7606C41.8709 42.3027 41.9454 45.4568 42.268 47.8812C42.6651 48.2814 43.0622 48.7051 43.4345 49.1994C44.2536 50.2821 44.5266 51.3178 41.7965 51.0353C40.4562 50.847 39.7861 50.2586 39.5379 49.2229C39.2153 49.5995 38.4955 48.964 39.0415 47.3398C39.1904 44.9154 38.8926 42.3027 38.6941 39.9724C38.2473 38.2541 37.9743 36.6065 37.8502 34.8176C37.329 34.7469 36.8078 34.6293 36.2618 34.488C30.9257 35.2412 24.7209 34.8646 18.8884 34.0879C17.2752 34.6528 16.5307 37.2891 15.2897 38.819C14.7685 39.4546 14.1232 39.8783 13.4531 40.043C13.4531 40.2078 13.4531 40.4196 13.4531 40.5373C13.4531 40.9375 12.9319 40.961 12.8823 40.5373C12.8823 40.4667 12.8822 40.2313 12.8326 40.0901C12.5596 40.0901 12.2865 40.0195 12.0384 39.9253H12.0632Z" fill="#272727"/>
</svg>
