<?xml version="1.0" encoding="utf-8"?>
<svg viewBox="0 0 61 52" width="61" height="52" fill="none" xmlns="http://www.w3.org/2000/svg">
  <path fill-rule="evenodd" clip-rule="evenodd" d="M 12.063 39.925 C 11.046 42.067 10.351 45.033 10.822 47.34 C 11.393 47.905 12.014 48.54 12.361 49.082 C 13.751 51.153 8.862 51.059 8.067 48.517 C 7.745 48.682 7.348 48.54 7.224 48.022 C 7.149 47.622 7.248 47.411 7.348 47.057 C 7.77 45.504 7.472 42.138 7.224 40.42 C 6.504 41.314 5.858 42.256 5.362 43.268 C 4.667 44.609 3.823 47.034 3.749 48.564 C 3.997 48.917 4.32 49.388 4.543 49.741 C 5.288 51.012 5.461 52.142 2.483 51.742 C 1.317 51.553 0.746 50.706 0.721 49.788 C 0.349 49.976 -0.024 49.811 0.001 49.27 C 0.001 48.799 0.646 47.646 0.82 47.034 C 1.168 45.881 1.466 44.398 1.639 43.503 C 1.739 42.938 1.813 42.373 1.887 41.808 C 1.937 41.408 1.912 40.961 2.086 40.584 C 2.235 40.278 2.557 39.925 2.756 39.619 C 3.451 38.584 3.997 36.701 4.22 35.124 C 4.543 30.957 3.079 28.486 3.476 24.602 C 3.65 22.907 4.047 21.448 4.617 20.2 C 4.047 19.141 2.533 17.87 2.458 15.799 C 2.409 14.575 2.682 13.021 4.146 11.138 C 4.419 10.762 5.238 10.079 5.759 10.291 C 6.231 10.479 6.057 11.256 5.933 11.633 C 5.437 13.21 4.369 16.222 7.546 16.623 C 13.999 11.891 22.14 15.022 29.089 14.81 C 41.052 14.457 43.161 7.607 47.033 3.394 C 46.363 3.7 45.693 4.006 45.048 4.171 C 45.941 3.229 46.81 2.5 47.629 1.982 C 46.14 2.5 44.626 3.441 43.161 3.818 C 46.636 0.169 49.614 -0.584 52.22 0.475 C 54.305 0.24 56.713 1.205 57.532 3.63 C 58.673 4.218 61.155 8.219 60.783 10.008 C 61.18 10.762 61.056 11.538 60.212 11.727 C 60.212 12.245 59.79 12.574 59.12 12.715 C 58.053 12.927 56.34 12.503 54.553 12.621 C 54.553 12.621 54.553 12.621 54.553 12.645 C 54.553 13.233 54.553 13.798 54.355 13.939 C 54.131 14.104 53.71 14.01 53.238 13.845 C 53.387 16.999 53.163 22.013 51.054 24.72 C 50.781 27.615 49.54 30.11 47.654 31.922 C 47.132 34.488 46.462 36.889 46.313 39.572 C 46.189 42.02 46.438 44.939 46.81 47.293 C 48.001 48.564 50.036 50.682 46.462 50.306 C 45.246 50.141 44.576 49.552 44.303 48.54 C 43.881 48.823 43.261 48.376 43.707 46.822 C 43.658 44.586 43.509 41.808 43.236 39.572 C 43.013 38.678 42.74 37.666 42.541 36.795 C 42.268 37.807 42.045 38.772 41.871 39.761 C 41.871 42.303 41.945 45.457 42.268 47.881 C 42.665 48.281 43.062 48.705 43.434 49.199 C 44.254 50.282 44.527 51.318 41.796 51.035 C 40.456 50.847 39.786 50.259 39.538 49.223 C 39.215 49.6 38.495 48.964 39.041 47.34 C 39.19 44.915 38.893 42.303 38.694 39.972 C 38.247 38.254 37.974 36.607 37.85 34.818 C 37.329 34.747 36.808 34.629 36.262 34.488 C 30.926 35.241 24.721 34.865 18.888 34.088 C 17.275 34.653 16.531 37.289 15.29 38.819 C 14.768 39.455 14.123 39.878 13.453 40.043 C 13.453 40.208 13.453 40.42 13.453 40.537 C 13.453 40.938 12.932 40.961 12.882 40.537 C 12.882 40.467 12.882 40.231 12.833 40.09 C 12.56 40.09 12.286 40.02 12.038 39.925 L 12.063 39.925 Z" style="fill: rgb(83, 10, 84);"/>
</svg>