<svg width="119" height="174" viewBox="0 0 119 174" fill="none" xmlns="http://www.w3.org/2000/svg">
<g filter="url(#filter0_d_620_122331)">
<path d="M114.542 56.3894C114.542 86.4384 59.6454 168 59.6454 168C59.6454 168 4.74902 86.4384 4.74902 56.3894C4.74902 26.3404 29.3163 2 59.6227 2C89.9291 2 114.519 26.3629 114.519 56.3894H114.542Z" fill="#E096B1"/>
<path d="M108.53 55.805C108.53 82.4828 86.7077 104.126 59.7586 104.126C32.8095 104.126 11.0098 82.4828 11.0098 55.805C11.0098 29.1272 32.8322 7.48386 59.7586 7.48386C86.6851 7.48386 108.53 29.1048 108.53 55.805Z" fill="#E096B1"/>
<g filter="url(#filter1_i_620_122331)">
<path fill-rule="evenodd" clip-rule="evenodd" d="M42.4177 69.0475C41.4668 71.0741 40.8175 73.8802 41.2581 76.0628C41.7915 76.5973 42.3713 77.1986 42.696 77.7108C43.9947 79.6707 39.426 79.5816 38.6839 77.1763C38.3824 77.3322 38.0113 77.1986 37.8954 76.7086C37.8258 76.33 37.9185 76.1296 38.0113 75.7955C38.4056 74.3257 38.1273 71.1409 37.8954 69.5151C37.2228 70.3614 36.6198 71.2523 36.156 72.2099C35.5066 73.4794 34.7181 75.7733 34.6485 77.2209C34.8804 77.5549 35.1819 78.0003 35.3906 78.3344C36.0864 79.537 36.2488 80.606 33.4658 80.2274C32.3758 80.0493 31.8423 79.2475 31.8191 78.379C31.4712 78.5571 31.1234 78.4012 31.1466 77.889C31.1466 77.4436 31.7496 76.3523 31.9119 75.7733C32.2366 74.682 32.5149 73.2789 32.6773 72.4326C32.77 71.8981 32.8395 71.3636 32.9091 70.8291C32.9555 70.4505 32.9323 70.0274 33.0947 69.671C33.2338 69.3815 33.5353 69.0475 33.7208 68.7579C34.3702 67.778 34.8804 65.9964 35.0891 64.5042C35.3906 60.5623 34.0223 58.2238 34.3934 54.5491C34.5558 52.9456 34.9268 51.5648 35.4602 50.3845C34.9268 49.3823 33.5121 48.1797 33.4426 46.2198C33.3962 45.0617 33.6513 43.5919 35.0196 41.8102C35.2747 41.4539 36.04 40.808 36.527 41.0085C36.9676 41.1866 36.8053 41.9216 36.6894 42.2779C36.2255 43.77 35.2283 46.6207 38.1968 46.9993C44.2266 42.5229 51.8335 45.4849 58.3271 45.2845C69.5055 44.9504 71.4767 38.4696 75.0946 34.4831C74.4684 34.7726 73.8423 35.0621 73.2393 35.218C74.0742 34.3272 74.8859 33.6368 75.6512 33.1468C74.2598 33.6368 72.845 34.5276 71.4767 34.884C74.7235 31.432 77.5065 30.7193 79.9416 31.7215C81.8897 31.4988 84.1393 32.4119 84.9047 34.7058C85.9715 35.2626 88.2906 39.0486 87.9428 40.7412C88.3138 41.4539 88.1978 42.1888 87.4093 42.367C87.4093 42.8569 87.0151 43.1687 86.3889 43.3023C85.3917 43.5028 83.7914 43.1019 82.1216 43.2133C82.1216 43.2133 82.1216 43.2133 82.1216 43.2355C82.1216 43.7923 82.1217 44.3268 81.9361 44.4604C81.7274 44.6163 81.3331 44.5272 80.8925 44.3713C81.0316 47.3556 80.8229 52.0993 78.8516 54.6605C78.5965 57.3998 77.437 59.7605 75.6744 61.4754C75.1874 63.9029 74.5612 66.1745 74.4221 68.7134C74.3061 71.0296 74.538 73.7912 74.8859 76.0182C75.9991 77.2209 77.9008 79.2252 74.5612 78.8689C73.4249 78.713 72.7986 78.1562 72.5435 77.1986C72.1493 77.4658 71.5695 77.0427 71.9869 75.5728C71.9406 73.4571 71.8014 70.8291 71.5463 68.7134C71.3376 67.8671 71.0825 66.9095 70.8969 66.0854C70.6418 67.0431 70.4331 67.9562 70.2708 68.8916C70.2708 71.2968 70.3404 74.2811 70.6419 76.575C71.0129 76.9536 71.384 77.3545 71.7319 77.8222C72.4972 78.8466 72.7523 79.8266 70.2012 79.5593C68.9489 79.3811 68.3227 78.8244 68.0908 77.8444C67.7893 78.2008 67.1167 77.5995 67.6269 76.0628C67.7661 73.7689 67.4878 71.2968 67.3023 69.092C66.8848 67.4662 66.6297 65.9073 66.5138 64.2147C66.0267 64.1479 65.5397 64.0365 65.0295 63.9029C60.0433 64.6156 54.2454 64.2592 48.7954 63.5243C47.2879 64.0588 46.5922 66.5531 45.4326 68.0007C44.9456 68.602 44.3426 69.0029 43.7164 69.1588C43.7164 69.3147 43.7164 69.5152 43.7164 69.6265C43.7164 70.0051 43.2294 70.0274 43.183 69.6265C43.183 69.5597 43.183 69.337 43.1366 69.2034C42.8815 69.2034 42.6264 69.1365 42.3945 69.0475H42.4177Z" fill="white"/>
</g>
</g>
<defs>
<filter id="filter0_d_620_122331" x="0.749023" y="0" width="117.793" height="174" filterUnits="userSpaceOnUse" color-interpolation-filters="sRGB">
<feFlood flood-opacity="0" result="BackgroundImageFix"/>
<feColorMatrix in="SourceAlpha" type="matrix" values="0 0 0 0 0 0 0 0 0 0 0 0 0 0 0 0 0 0 127 0" result="hardAlpha"/>
<feOffset dy="2"/>
<feGaussianBlur stdDeviation="2"/>
<feComposite in2="hardAlpha" operator="out"/>
<feColorMatrix type="matrix" values="0 0 0 0 0.22 0 0 0 0 0.22 0 0 0 0 0.22 0 0 0 0.44 0"/>
<feBlend mode="normal" in2="BackgroundImageFix" result="effect1_dropShadow_620_122331"/>
<feBlend mode="normal" in="SourceGraphic" in2="effect1_dropShadow_620_122331" result="shape"/>
</filter>
<filter id="filter1_i_620_122331" x="31.1455" y="31.3049" width="58" height="50" filterUnits="userSpaceOnUse" color-interpolation-filters="sRGB">
<feFlood flood-opacity="0" result="BackgroundImageFix"/>
<feBlend mode="normal" in="SourceGraphic" in2="BackgroundImageFix" result="shape"/>
<feColorMatrix in="SourceAlpha" type="matrix" values="0 0 0 0 0 0 0 0 0 0 0 0 0 0 0 0 0 0 127 0" result="hardAlpha"/>
<feOffset dx="2" dy="2"/>
<feGaussianBlur stdDeviation="0.5"/>
<feComposite in2="hardAlpha" operator="arithmetic" k2="-1" k3="1"/>
<feColorMatrix type="matrix" values="0 0 0 0 0 0 0 0 0 0 0 0 0 0 0 0 0 0 0.22 0"/>
<feBlend mode="normal" in2="shape" result="effect1_innerShadow_620_122331"/>
</filter>
</defs>
</svg>
