<svg width="63" height="61" viewBox="0 0 63 61" fill="none" xmlns="http://www.w3.org/2000/svg">
<path d="M60.5405 5.48596C59.5705 5.14596 59.0105 4.66596 58.0905 4.14596C57.1105 3.59596 56.4105 2.68596 56.4105 2.68596C52.1405 -1.88404 47.6705 3.10596 47.6705 3.10596C41.9305 8.20596 46.4805 20.696 46.4805 20.696C47.5805 24.066 43.1105 24.346 43.1105 24.346C30.8105 23.706 20.9605 27.896 20.9605 27.896L15.8605 27.806C8.84051 27.806 16.2305 28.906 16.2305 28.906C13.8605 29.086 10.6705 30.366 10.6705 30.366C5.3805 31.366 11.3105 31.276 11.3105 31.276C8.67052 31.916 7.6705 33.186 7.6705 33.186L10.6805 32.646C10.1305 32.646 8.0405 34.376 8.0405 34.376C2.4805 34.836 1.84052 37.296 1.84052 37.296C4.12052 36.206 8.77051 36.206 8.77051 36.206C7.95051 36.566 1.84052 39.306 1.84052 39.306C-4.44948 41.316 7.40052 40.496 7.40052 40.496C8.40052 42.506 23.1705 44.236 23.1705 44.236C22.9905 45.056 24.5305 45.966 25.2605 46.326C25.6705 46.536 26.0405 46.716 26.3805 46.886C26.7605 47.866 27.5405 48.776 27.5405 48.776C28.2405 53.446 27.2705 55.516 27.2705 55.516C26.2205 57.496 28.6005 56.916 28.6005 56.916C29.5605 56.946 30.4105 56.956 31.1805 56.966C31.0605 58.146 30.8205 58.716 30.8205 58.716C29.8205 60.726 32.1905 60.086 32.1905 60.086C40.8505 60.086 41.1205 59.716 41.1205 59.716C40.7505 57.986 33.1005 57.986 33.1005 57.986C33.0405 57.616 33.0005 57.316 32.9605 56.986C37.3505 57.006 37.5505 56.776 37.5505 56.776C37.3705 55.806 34.9205 55.316 32.7905 55.076C32.7305 52.846 33.2905 52.336 33.2905 52.336C34.4105 50.686 33.8305 49.416 33.8305 49.416L34.2905 48.506C35.5705 47.866 37.6605 44.856 37.6605 44.856C51.2405 42.486 54.8005 33.286 54.8005 33.286C57.9905 27.546 54.8005 22.076 54.8005 22.076C53.3405 19.066 51.8805 12.686 51.8805 12.686C51.0605 9.40596 52.8805 9.25596 52.8805 9.25596C54.3305 9.06596 55.2205 8.88596 56.0105 8.62596C57.3005 8.66596 58.2505 8.51596 59.1405 8.45596C60.3005 8.37596 61.7605 7.96596 61.6405 7.58596C61.4505 7.14596 60.8205 7.40596 59.8705 7.34596C59.1505 7.30596 57.5105 6.75596 56.9105 6.47596C55.7905 5.95596 62.3205 7.59596 62.8405 6.74596C63.2805 6.01596 61.9305 5.98596 60.5605 5.50596L60.5405 5.48596ZM29.5605 54.836C29.1405 51.936 29.3505 50.486 29.5805 49.786C29.9105 50.876 30.8905 51.966 30.8905 51.966C31.0905 53.106 31.1905 54.086 31.2205 54.926C30.2505 54.856 29.5505 54.836 29.5505 54.836H29.5605Z" fill="#544001"/>
</svg>
