<svg width="119" height="175" viewBox="0 0 119 175" fill="none" xmlns="http://www.w3.org/2000/svg">
<g filter="url(#filter0_d_514_125406)">
<path d="M114.378 57.2165C114.378 87.2655 59.4818 168.827 59.4818 168.827C59.4818 168.827 4.58545 87.2655 4.58545 57.2165C4.58545 27.1675 29.1527 2.82715 59.4591 2.82715C89.7655 2.82715 114.355 27.19 114.355 57.2165H114.378Z" fill="#BF2028"/>
<path d="M108.367 56.6322C108.367 83.31 86.5447 104.953 59.5955 104.953C32.6464 104.953 10.8467 83.31 10.8467 56.6322C10.8467 29.9544 32.6691 8.31104 59.5955 8.31104C86.522 8.31104 108.367 29.9319 108.367 56.6322Z" fill="#BF2028"/>
<g filter="url(#filter1_i_514_125406)">
<path d="M87.0563 70.3784C87.0563 70.3784 82.6162 68.9095 80.9429 66.2801C75.6566 58.0292 72.386 56.379 58.6284 50.9116C52.8667 48.6267 46.4301 44.3834 41.6857 33.1494C41.2104 32.016 40.2216 31.5173 40.4213 33.3307L40.6874 35.8241C40.2881 35.3617 39.8698 34.8812 39.4324 34.3825C38.5958 33.4486 37.9683 32.7504 38.1679 34.5638L38.4912 37.6013C36.6562 38.6621 34.9258 40.3032 33.3095 42.2708C31.4175 43.0505 29.6206 43.7305 27.7571 44.5919C26.8348 45.0181 26.7302 45.2991 27.4718 46.224C30.9231 50.7031 35.5058 47.5568 39.6416 51.3105C41.0107 54.5837 41.1153 56.4606 42.3798 58.41C42.9788 60.6949 43.4162 63.0613 43.806 65.319C44.5856 69.7981 45.2321 74.2591 44.8518 78.8107C43.7299 78.983 42.8172 79.9078 42.513 81.1318H47.9513C48.2936 76.6255 49.1778 70.6957 49.6912 65.7361C51.2029 68.7101 52.5435 74.4041 52.1822 78.8107C51.0603 78.983 50.1476 79.9078 49.8433 81.1318H55.2817L56.2039 68.9367C57.3544 68.5922 58.4763 68.3565 59.5696 68.2114C61.5567 71.3304 62.403 74.2863 60.6345 78.8016C60.5395 78.7926 60.4443 78.7835 60.3493 78.7835C59.0562 78.7835 57.9629 79.7718 57.6301 81.1318H63.0685L64.6372 77.1424C65.7781 74.2319 65.4359 71.2488 64.7988 68.3746C68.6399 69.3176 70.7316 72.3006 68.6875 77.5141L68.1836 78.8016C68.0885 78.7926 67.9934 78.7835 67.8983 78.7835C66.6053 78.7835 65.5119 79.7718 65.1792 81.1318H70.6176L72.1863 77.1424C74.1069 72.2553 71.0835 69.4536 72.1008 64.5121C73.584 70.2877 76.8546 77.4688 83.8522 77.6229C88.2162 77.7227 91.6865 74.6489 91.9813 70.6776C92.0288 70.0248 89.5853 71.1672 87.0943 70.3693L87.0563 70.3784ZM36.0097 43.3497C35.6104 43.25 35.3727 42.851 35.4773 42.4702C35.5818 42.0894 36.0002 41.8627 36.3995 41.9625C36.7988 42.0622 37.0365 42.4521 36.9319 42.842C36.8273 43.2228 36.409 43.4495 36.0097 43.3497Z" fill="white"/>
</g>
</g>
<defs>
<filter id="filter0_d_514_125406" x="0.585449" y="0.827148" width="117.792" height="174" filterUnits="userSpaceOnUse" color-interpolation-filters="sRGB">
<feFlood flood-opacity="0" result="BackgroundImageFix"/>
<feColorMatrix in="SourceAlpha" type="matrix" values="0 0 0 0 0 0 0 0 0 0 0 0 0 0 0 0 0 0 127 0" result="hardAlpha"/>
<feOffset dy="2"/>
<feGaussianBlur stdDeviation="2"/>
<feComposite in2="hardAlpha" operator="out"/>
<feColorMatrix type="matrix" values="0 0 0 0 0.22 0 0 0 0 0.22 0 0 0 0 0.22 0 0 0 0.44 0"/>
<feBlend mode="normal" in2="BackgroundImageFix" result="effect1_dropShadow_514_125406"/>
<feBlend mode="normal" in="SourceGraphic" in2="effect1_dropShadow_514_125406" result="shape"/>
</filter>
<filter id="filter1_i_514_125406" x="26.9819" y="32.1318" width="66" height="50" filterUnits="userSpaceOnUse" color-interpolation-filters="sRGB">
<feFlood flood-opacity="0" result="BackgroundImageFix"/>
<feBlend mode="normal" in="SourceGraphic" in2="BackgroundImageFix" result="shape"/>
<feColorMatrix in="SourceAlpha" type="matrix" values="0 0 0 0 0 0 0 0 0 0 0 0 0 0 0 0 0 0 127 0" result="hardAlpha"/>
<feOffset dx="2" dy="2"/>
<feGaussianBlur stdDeviation="0.5"/>
<feComposite in2="hardAlpha" operator="arithmetic" k2="-1" k3="1"/>
<feColorMatrix type="matrix" values="0 0 0 0 0 0 0 0 0 0 0 0 0 0 0 0 0 0 0.22 0"/>
<feBlend mode="normal" in2="shape" result="effect1_innerShadow_514_125406"/>
</filter>
</defs>
</svg>
