<svg width="119" height="174" viewBox="0 0 119 174" fill="none" xmlns="http://www.w3.org/2000/svg">
<g filter="url(#filter0_d_514_125406)">
<path d="M114.75 56.3894C114.75 86.4384 59.8534 168 59.8534 168C59.8534 168 4.95703 86.4384 4.95703 56.3894C4.95703 26.3404 29.5243 2 59.8307 2C90.1371 2 114.727 26.3629 114.727 56.3894H114.75Z" fill="#E0881B"/>
<g filter="url(#filter1_i_514_125406)">
<path d="M87.4279 69.5515C87.4279 69.5515 82.9878 68.0826 81.3145 65.4532C76.0282 57.2023 72.7575 55.5521 59 50.0847C53.2383 47.7998 46.8016 43.5565 42.0573 32.3225C41.5819 31.1891 40.5932 30.6904 40.7928 32.5038L41.059 34.9972C40.6597 34.5348 40.2414 34.0543 39.804 33.5556C38.9673 32.6217 38.3399 31.9235 38.5395 33.7369L38.8628 36.7744C37.0278 37.8352 35.2974 39.4763 33.6811 41.4439C31.7891 42.2236 29.9921 42.9036 28.1286 43.765C27.2064 44.1911 27.1018 44.4722 27.8434 45.3971C31.2947 49.8761 35.8774 46.7299 40.0132 50.4836C41.3823 53.7568 41.4869 55.6337 42.7514 57.5831C43.3504 59.868 43.7877 62.2344 44.1776 64.4921C44.9572 68.9712 45.6037 73.4322 45.2234 77.9838C44.1015 78.1561 43.1888 79.0809 42.8845 80.3049H48.3229C48.6652 75.7986 49.5494 69.8688 50.0628 64.9092C51.5745 67.8832 52.9151 73.5772 52.5538 77.9838C51.4319 78.1561 50.5191 79.0809 50.2149 80.3049H55.6533L56.5755 68.1098C57.726 67.7653 58.8478 67.5296 59.9412 67.3845C61.9283 70.5035 62.7745 73.4594 61.0061 77.9747C60.911 77.9657 60.8159 77.9566 60.7208 77.9566C59.4278 77.9566 58.3344 78.9449 58.0017 80.3049H63.4401L65.0088 76.3155C66.1497 73.405 65.8074 70.4219 65.1704 67.5477C69.0115 68.4907 71.1032 71.4737 69.0591 76.6872L68.5552 77.9747C68.4601 77.9657 68.365 77.9566 68.2699 77.9566C66.9769 77.9566 65.8835 78.9449 65.5508 80.3049H70.9892L72.5579 76.3155C74.4784 71.4284 71.455 68.6267 72.4724 63.6852C73.9555 69.4608 77.2262 76.6419 84.2238 76.796C88.5878 76.8957 92.0581 73.822 92.3528 69.8507C92.4004 69.1979 89.9569 70.3403 87.4659 69.5424L87.4279 69.5515ZM36.3813 42.5228C35.982 42.4231 35.7443 42.0241 35.8488 41.6433C35.9534 41.2625 36.3717 41.0358 36.7711 41.1356C37.1704 41.2353 37.4081 41.6252 37.3035 42.0151C37.1989 42.3959 36.7806 42.6226 36.3813 42.5228Z" fill="white"/>
</g>
</g>
<defs>
<filter id="filter0_d_514_125406" x="0.957031" y="0" width="117.793" height="174" filterUnits="userSpaceOnUse" color-interpolation-filters="sRGB">
<feFlood flood-opacity="0" result="BackgroundImageFix"/>
<feColorMatrix in="SourceAlpha" type="matrix" values="0 0 0 0 0 0 0 0 0 0 0 0 0 0 0 0 0 0 127 0" result="hardAlpha"/>
<feOffset dy="2"/>
<feGaussianBlur stdDeviation="2"/>
<feComposite in2="hardAlpha" operator="out"/>
<feColorMatrix type="matrix" values="0 0 0 0 0.22 0 0 0 0 0.22 0 0 0 0 0.22 0 0 0 0.44 0"/>
<feBlend mode="normal" in2="BackgroundImageFix" result="effect1_dropShadow_514_125406"/>
<feBlend mode="normal" in="SourceGraphic" in2="effect1_dropShadow_514_125406" result="shape"/>
</filter>
<filter id="filter1_i_514_125406" x="27.3535" y="31.3049" width="66" height="50" filterUnits="userSpaceOnUse" color-interpolation-filters="sRGB">
<feFlood flood-opacity="0" result="BackgroundImageFix"/>
<feBlend mode="normal" in="SourceGraphic" in2="BackgroundImageFix" result="shape"/>
<feColorMatrix in="SourceAlpha" type="matrix" values="0 0 0 0 0 0 0 0 0 0 0 0 0 0 0 0 0 0 127 0" result="hardAlpha"/>
<feOffset dx="2" dy="2"/>
<feGaussianBlur stdDeviation="0.5"/>
<feComposite in2="hardAlpha" operator="arithmetic" k2="-1" k3="1"/>
<feColorMatrix type="matrix" values="0 0 0 0 0 0 0 0 0 0 0 0 0 0 0 0 0 0 0.22 0"/>
<feBlend mode="normal" in2="shape" result="effect1_innerShadow_514_125406"/>
</filter>
</defs>
</svg>
