<svg width="118" height="174" viewBox="0 0 118 174" fill="none" xmlns="http://www.w3.org/2000/svg">
<g filter="url(#filter0_d_514_125396)">
<path d="M111.957 54.3894C111.957 84.4384 57.0604 166 57.0604 166C57.0604 166 2.16406 84.4384 2.16406 54.3894C2.16406 24.3404 26.7313 0 57.0377 0C87.3441 0 111.934 24.3629 111.934 54.3894H111.957Z" fill="#015424"/>
<g filter="url(#filter1_i_514_125396)">
<g filter="url(#filter2_i_514_125396)">
<path d="M85.0354 68.7733L77.0515 59.977H83.2323C83.6831 59.2509 83.6296 58.2031 83.1101 57.5413L75.3248 48.9564H80.6576C81.0091 48.4141 80.9556 47.6328 80.5812 47.1457L73.8732 38.7722C73.4224 38.2299 72.7195 38.2299 72.2993 38.7722L65.5912 47.1457C65.4919 47.2927 65.3926 47.4766 65.3391 47.6604L60.7092 42.5683H67.3943C67.7916 41.8789 67.7687 40.9138 67.2721 40.2796L58.8908 29.8013C58.3636 29.1395 57.4927 29.1395 56.9426 29.8013L48.5613 40.2796C48.0571 40.9138 48.0341 41.8789 48.462 42.5683H55.1166L45.4059 53.258C44.726 54.1037 44.6801 55.3997 45.2302 56.3004H52.9926L43.0069 67.3211C42.2047 68.3137 42.1589 69.8763 42.8083 70.9609H54.3602L55.5215 78.3049H60.0903L61.1676 71.6778H70.2135L71.4665 78.3049H74.5149L75.6762 71.6778H85.1806C85.7307 70.8047 85.6772 69.573 85.0584 68.7549L85.0354 68.7733Z" fill="white"/>
</g>
<path d="M46.0938 60.8227L39.0419 53.0558H44.5046C44.9019 52.4216 44.8561 51.4841 44.3977 50.905L37.5215 43.322H42.2279C42.5411 42.844 42.4953 42.1547 42.1591 41.7227L36.2685 34.3695V34.3235C36.0699 34.0753 35.8101 33.965 35.5504 33.9742C35.2906 33.9742 35.0308 34.0845 34.8398 34.3235V34.3695L28.9416 41.7227C28.6131 42.1455 28.5673 42.8348 28.8729 43.322H33.5792L26.7031 50.905C26.237 51.4933 26.1912 52.4216 26.5961 53.0558H32.0588L25.007 60.8227C24.4569 61.5396 24.411 62.6334 24.8924 63.4055H33.1743L33.732 69.2605H37.3687L38.0029 63.4055H46.2008C46.6897 62.6334 46.6439 61.5396 46.0862 60.8227H46.0938Z" fill="white"/>
</g>
</g>
<defs>
<filter id="filter0_d_514_125396" x="0.164062" y="0" width="117.793" height="174" filterUnits="userSpaceOnUse" color-interpolation-filters="sRGB">
<feFlood flood-opacity="0" result="BackgroundImageFix"/>
<feColorMatrix in="SourceAlpha" type="matrix" values="0 0 0 0 0 0 0 0 0 0 0 0 0 0 0 0 0 0 127 0" result="hardAlpha"/>
<feOffset dx="2" dy="4"/>
<feGaussianBlur stdDeviation="2"/>
<feComposite in2="hardAlpha" operator="out"/>
<feColorMatrix type="matrix" values="0 0 0 0 0.11 0 0 0 0 0.11 0 0 0 0 0.11 0 0 0 0.66 0"/>
<feBlend mode="normal" in2="BackgroundImageFix" result="effect1_dropShadow_514_125396"/>
<feBlend mode="normal" in="SourceGraphic" in2="effect1_dropShadow_514_125396" result="shape"/>
</filter>
<filter id="filter1_i_514_125396" x="24.5605" y="29.3049" width="62" height="50" filterUnits="userSpaceOnUse" color-interpolation-filters="sRGB">
<feFlood flood-opacity="0" result="BackgroundImageFix"/>
<feBlend mode="normal" in="SourceGraphic" in2="BackgroundImageFix" result="shape"/>
<feColorMatrix in="SourceAlpha" type="matrix" values="0 0 0 0 0 0 0 0 0 0 0 0 0 0 0 0 0 0 127 0" result="hardAlpha"/>
<feOffset dx="2" dy="2"/>
<feGaussianBlur stdDeviation="0.5"/>
<feComposite in2="hardAlpha" operator="arithmetic" k2="-1" k3="1"/>
<feColorMatrix type="matrix" values="0 0 0 0 0 0 0 0 0 0 0 0 0 0 0 0 0 0 0.22 0"/>
<feBlend mode="normal" in2="shape" result="effect1_innerShadow_514_125396"/>
</filter>
<filter id="filter2_i_514_125396" x="42.3594" y="29.3049" width="44.2012" height="50" filterUnits="userSpaceOnUse" color-interpolation-filters="sRGB">
<feFlood flood-opacity="0" result="BackgroundImageFix"/>
<feBlend mode="normal" in="SourceGraphic" in2="BackgroundImageFix" result="shape"/>
<feColorMatrix in="SourceAlpha" type="matrix" values="0 0 0 0 0 0 0 0 0 0 0 0 0 0 0 0 0 0 127 0" result="hardAlpha"/>
<feOffset dx="2" dy="2"/>
<feGaussianBlur stdDeviation="0.5"/>
<feComposite in2="hardAlpha" operator="arithmetic" k2="-1" k3="1"/>
<feColorMatrix type="matrix" values="0 0 0 0 0 0 0 0 0 0 0 0 0 0 0 0 0 0 0.22 0"/>
<feBlend mode="normal" in2="shape" result="effect1_innerShadow_514_125396"/>
</filter>
</defs>
</svg>
