<svg width="77" height="54" viewBox="0 0 77 54" fill="none" xmlns="http://www.w3.org/2000/svg">
<path d="M77.734 43.4517L67.284 33.8817H75.374C75.964 33.0917 75.894 31.9517 75.214 31.2317L65.024 21.8917H72.004C72.464 21.3017 72.394 20.4517 71.904 19.9217L63.124 10.8117C62.534 10.2217 61.614 10.2217 61.064 10.8117L52.284 19.9217C52.154 20.0817 52.024 20.2817 51.954 20.4817L45.894 14.9417H54.644C55.164 14.1917 55.134 13.1417 54.484 12.4517L43.514 1.05172C42.824 0.331719 41.684 0.331719 40.964 1.05172L29.994 12.4517C29.334 13.1417 29.304 14.1917 29.864 14.9417H38.574L25.864 26.5717C24.974 27.4917 24.914 28.9017 25.634 29.8817H35.794L22.724 41.8717C21.674 42.9517 21.614 44.6517 22.464 45.8317H37.584L39.104 53.8217H45.084L46.494 46.6117H58.334L59.974 53.8217H63.964L65.484 46.6117H77.924C78.644 45.6617 78.574 44.3217 77.764 43.4317L77.734 43.4517Z" fill="#272727"/>
<path d="M26.7639 34.8019L17.5339 26.3519H24.6839C25.2039 25.6619 25.1439 24.6419 24.5439 24.0119L15.5439 15.7619H21.7039C22.1139 15.2419 22.0539 14.4919 21.6139 14.0219L13.9039 6.02188V5.97188C13.6439 5.70188 13.3039 5.58188 12.9639 5.59188C12.6239 5.59188 12.2839 5.71188 12.0339 5.97188V6.02188L4.31389 14.0219C3.88389 14.4819 3.82389 15.2319 4.22389 15.7619H10.3839L1.3839 24.0119C0.773898 24.6519 0.713884 25.6619 1.24388 26.3519H8.39388L-0.836103 34.8019C-1.5561 35.5819 -1.6161 36.7719 -0.986097 37.6119H9.8539L10.5839 43.9819H15.3439L16.1739 37.6119H26.9039C27.5439 36.7719 27.4839 35.5819 26.7539 34.8019H26.7639Z" fill="#272727"/>
</svg>
