<svg width="55" height="40" viewBox="0 0 55 40" fill="none" xmlns="http://www.w3.org/2000/svg">
<path d="M54.9051 2.12627C54.8851 2.02627 54.8651 1.92627 54.8351 1.83627C54.8351 1.83627 54.8351 1.83627 54.8351 1.82627C54.7251 1.43627 54.4751 1.11627 54.0751 0.866269C53.9851 0.806269 53.8851 0.756269 53.7751 0.706269C53.7651 0.706269 53.7451 0.696269 53.7351 0.686269C53.6351 0.646269 53.5251 0.606269 53.4051 0.566269C53.3851 0.566269 53.3651 0.556269 53.3451 0.546269C53.2051 0.506269 53.0651 0.466269 52.9051 0.436269C52.5451 0.366269 52.1851 0.316269 51.8351 0.276269C51.7851 0.276269 51.7451 0.266269 51.6951 0.256269C51.3551 0.226269 51.0051 0.206269 50.6651 0.196269C50.6151 0.196269 50.5551 0.196269 50.5051 0.196269C50.1551 0.196269 49.8051 0.206269 49.4551 0.236269C49.4351 0.236269 49.4151 0.236269 49.3951 0.236269C49.0451 0.266269 48.7051 0.306269 48.3551 0.366269C48.3251 0.366269 48.2951 0.366269 48.2651 0.376269C47.9251 0.436269 47.5851 0.506269 47.2351 0.586269C47.1851 0.596269 47.1351 0.616269 47.0751 0.626269C46.7351 0.716269 46.4051 0.806269 46.0651 0.916269C46.0251 0.926269 45.9851 0.946269 45.9551 0.956269C45.6151 1.06627 45.2751 1.19627 44.9351 1.32627C44.9351 1.32627 44.9251 1.32627 44.9151 1.32627C44.5751 1.46627 44.2451 1.60627 43.9151 1.76627C43.8651 1.78627 43.8151 1.81627 43.7651 1.83627C43.4451 1.98627 43.1251 2.15627 42.8151 2.32627C42.7651 2.35627 42.7151 2.37627 42.6651 2.40627C42.3451 2.58627 42.0251 2.76627 41.7051 2.96627C41.7051 2.96627 41.6851 2.97627 41.6751 2.98627C41.3651 3.17627 41.0551 3.38627 40.7551 3.58627C40.7151 3.61627 40.6651 3.64627 40.6151 3.67627C40.3251 3.87627 40.0251 4.09627 39.7451 4.30627C39.6851 4.34627 39.6251 4.39627 39.5651 4.43627C39.2751 4.65627 38.9951 4.87627 38.7151 5.10627C38.6751 5.14627 38.6251 5.17627 38.5851 5.21627C38.3251 5.43627 38.0651 5.65627 37.8151 5.87627C37.7751 5.91627 37.7351 5.94627 37.6951 5.98627C37.4351 6.22627 37.1751 6.46627 36.9151 6.70627C36.8551 6.76627 36.7851 6.82627 36.7251 6.89627C36.4751 7.13627 36.2351 7.37627 36.0051 7.61627C35.9451 7.67627 35.8851 7.74627 35.8151 7.80627C35.5951 8.03627 35.3751 8.26627 35.1651 8.49627C35.1151 8.55627 35.0651 8.60627 35.0151 8.66627C34.8051 8.89627 34.6051 9.13627 34.3951 9.36627C34.3251 9.44627 34.2651 9.51627 34.1951 9.59627C34.0251 9.80627 33.8451 10.0163 33.6751 10.2263C31.6951 12.6863 30.1551 15.2163 29.2251 17.3663C29.1151 16.8863 28.9651 16.4563 28.7751 16.0963C29.1951 15.9663 29.4951 15.5763 29.4951 15.1163C29.4951 14.7663 29.3251 14.4563 29.0551 14.2663C29.0051 13.9263 28.8551 13.6263 28.6351 13.3963C28.6351 13.3963 28.2351 12.7463 27.4551 12.7663C26.6751 12.7863 26.3751 13.2963 26.3751 13.2963C26.0951 13.5463 25.9051 13.8863 25.8551 14.2663C25.5951 14.4563 25.4151 14.7663 25.4151 15.1163C25.4151 15.5763 25.7051 15.9563 26.1151 16.0863C25.9351 16.4363 25.7751 16.8463 25.6751 17.3163C24.7451 15.1763 23.2151 12.6563 21.2451 10.2163C21.0751 10.0063 20.9151 9.80627 20.7351 9.60627C20.6651 9.51627 20.5851 9.42627 20.5151 9.34627C20.3351 9.12627 20.1451 8.91627 19.9551 8.70627C19.8851 8.62627 19.8051 8.54627 19.7351 8.45627C19.5451 8.24627 19.3451 8.03627 19.1451 7.82627C19.0751 7.74627 18.9951 7.67627 18.9251 7.59627C18.6951 7.36627 18.4651 7.12627 18.2251 6.90627C18.1451 6.83627 18.0751 6.75627 17.9951 6.68627C17.7551 6.45627 17.5051 6.22627 17.2551 5.99627C17.1951 5.94627 17.1451 5.89627 17.0851 5.84627C16.8551 5.64627 16.6251 5.44627 16.3851 5.24627C16.3251 5.19627 16.2651 5.14627 16.2051 5.09627C15.9351 4.87627 15.6751 4.66627 15.3951 4.45627C15.3251 4.39627 15.2451 4.34627 15.1751 4.28627C14.9051 4.07627 14.6251 3.87627 14.3451 3.68627C14.2851 3.64627 14.2251 3.60627 14.1551 3.55627C13.8751 3.36627 13.6051 3.18627 13.3251 3.00627C13.2951 2.98627 13.2551 2.96627 13.2251 2.94627C12.9251 2.75627 12.6151 2.58627 12.3151 2.41627C12.2451 2.37627 12.1851 2.34627 12.1151 2.30627C11.8151 2.14627 11.5151 1.98627 11.2051 1.83627C11.1351 1.80627 11.0751 1.77627 11.0051 1.74627C10.6851 1.59627 10.3651 1.45627 10.0451 1.32627C10.0151 1.31627 9.99514 1.30627 9.96514 1.29627C9.65514 1.17627 9.33514 1.05627 9.02514 0.956269C8.97514 0.936269 8.91514 0.916269 8.86514 0.896269C8.54514 0.796269 8.21514 0.696269 7.89514 0.616269C7.82514 0.596269 7.76514 0.586269 7.69514 0.566269C7.36514 0.486269 7.03514 0.416269 6.70514 0.366269C6.66514 0.366269 6.61514 0.35627 6.57514 0.34627C6.24514 0.29627 5.92514 0.256269 5.59514 0.226269C5.56514 0.226269 5.52514 0.226269 5.49514 0.216269C5.15514 0.186269 4.81514 0.17627 4.47514 0.17627C4.41514 0.17627 4.34514 0.17627 4.28514 0.17627C3.94514 0.17627 3.61514 0.196269 3.27514 0.236269C3.22514 0.236269 3.16514 0.246269 3.10514 0.256269C2.75514 0.296269 2.39514 0.346269 2.04514 0.416269C1.88514 0.446269 1.74514 0.486269 1.60514 0.526269C1.58514 0.526269 1.56514 0.546269 1.53514 0.546269C1.42514 0.586269 1.31514 0.626269 1.21514 0.666269C1.19514 0.666269 1.18514 0.676269 1.17514 0.686269C1.06514 0.736269 0.965137 0.78627 0.875137 0.84627C0.475137 1.09627 0.225136 1.41627 0.115136 1.80627C0.115136 1.80627 0.115136 1.81627 0.115136 1.82627C0.0851364 1.91627 0.0651367 2.01627 0.0451367 2.11627C0.00513672 2.39627 0.00513672 2.79627 0.0451367 3.27627C0.0451367 3.32627 0.0451369 3.37627 0.0551369 3.42627C0.0551369 3.44627 0.0551369 3.47627 0.0551369 3.49627C0.145137 4.57627 0.375137 5.93627 0.675137 7.34627C1.08514 9.30627 1.62514 11.5063 2.18514 13.4763C2.86514 15.8563 3.55514 17.8963 4.03514 18.7663C5.08514 20.6563 6.96514 21.4663 9.94514 21.1663C10.8351 21.0763 11.7551 20.9963 12.7051 20.9263C12.4951 20.9763 12.2951 21.0363 12.1051 21.0963C12.0151 21.1263 11.9351 21.1563 11.8551 21.1763C11.6351 21.2463 11.4151 21.3363 11.2051 21.4163C11.1351 21.4463 11.0651 21.4763 10.9951 21.5063C10.7351 21.6163 10.4851 21.7363 10.2551 21.8663C10.1951 21.8963 10.1451 21.9363 10.0851 21.9663C9.89514 22.0763 9.71514 22.1863 9.54514 22.3063C9.48514 22.3463 9.42514 22.3863 9.36514 22.4363C9.15514 22.5863 8.95514 22.7463 8.76514 22.9063C8.73514 22.9363 8.71514 22.9563 8.68514 22.9863C8.52514 23.1363 8.36514 23.2863 8.22514 23.4463C8.17514 23.4963 8.13514 23.5463 8.08514 23.5963C7.92514 23.7763 7.78514 23.9563 7.64514 24.1363C7.64514 24.1463 7.62514 24.1563 7.62514 24.1663C7.48514 24.3663 7.35514 24.5663 7.22514 24.7763C7.19514 24.8263 7.16514 24.8863 7.13514 24.9363C7.03514 25.1163 6.93514 25.3063 6.85514 25.4963C6.83514 25.5263 6.82514 25.5663 6.80514 25.5963C6.70514 25.8163 6.62514 26.0463 6.54514 26.2763C6.52514 26.3263 6.51514 26.3763 6.50514 26.4163C6.44514 26.6163 6.38514 26.8163 6.34514 27.0163C6.33514 27.0663 6.32514 27.1063 6.31514 27.1563C6.26514 27.3963 6.21514 27.6463 6.18514 27.8963C6.18514 27.9263 6.18514 27.9663 6.17514 27.9963C6.14514 28.2163 6.12514 28.4463 6.11514 28.6663C6.11514 28.7163 6.11514 28.7663 6.11514 28.8163C6.03514 30.8163 6.53514 32.9363 7.51514 34.8863C8.75514 37.3763 10.4651 39.2063 13.4551 39.5363C19.2151 40.1663 21.9351 36.7963 24.1951 31.4963C24.7451 30.2063 25.3451 28.5163 25.8251 26.7663C25.8251 26.7663 25.8451 26.6963 25.8551 26.6663C25.8851 26.5463 25.9151 26.4363 25.9451 26.3163C25.9251 26.7463 25.9151 27.1863 25.9151 27.6363C25.9151 31.7963 26.6151 35.1763 27.4751 35.1763C28.3351 35.1763 29.0351 31.7963 29.0351 27.6363C29.0351 27.1363 29.0251 26.6463 29.0051 26.1763C29.0451 26.3363 29.0851 26.4963 29.1351 26.6663C29.1351 26.6963 29.1551 26.7363 29.1651 26.7663C29.6451 28.5163 30.2451 30.2063 30.7951 31.4963C33.0551 36.7963 35.7751 40.1563 41.5351 39.5363C44.5251 39.2063 46.2351 37.3763 47.4751 34.8863C48.4451 32.9363 48.9451 30.8163 48.8751 28.8063C48.8751 28.7663 48.8751 28.7163 48.8751 28.6763C48.8651 28.4363 48.8451 28.2063 48.8151 27.9663C48.8151 27.9463 48.8151 27.9163 48.8151 27.8963C48.7851 27.6463 48.7351 27.3863 48.6851 27.1463C48.6851 27.1063 48.6651 27.0663 48.6551 27.0363C48.6051 26.8263 48.5451 26.6163 48.4851 26.4063C48.4751 26.3663 48.4651 26.3263 48.4451 26.2863C48.3651 26.0463 48.2751 25.8163 48.1851 25.5863C48.1751 25.5563 48.1551 25.5363 48.1451 25.5063C48.0551 25.3063 47.9551 25.1163 47.8551 24.9263C47.8251 24.8763 47.8051 24.8263 47.7751 24.7763C47.6551 24.5663 47.5151 24.3563 47.3751 24.1563C47.3751 24.1563 47.3751 24.1563 47.3751 24.1463C47.2351 23.9563 47.0751 23.7663 46.9151 23.5863C46.8751 23.5363 46.8351 23.4963 46.7851 23.4463C46.6351 23.2863 46.4751 23.1263 46.3051 22.9663C46.2851 22.9463 46.2651 22.9263 46.2451 22.9063C46.0551 22.7363 45.8451 22.5763 45.6351 22.4263C45.5851 22.3863 45.5251 22.3463 45.4651 22.3063C45.2851 22.1863 45.0951 22.0663 44.9051 21.9563C44.8551 21.9263 44.8051 21.8963 44.7551 21.8663C44.5151 21.7363 44.2651 21.6063 43.9951 21.4963C43.9351 21.4663 43.8751 21.4463 43.8051 21.4163C43.5851 21.3263 43.3551 21.2363 43.1251 21.1663C43.0551 21.1463 42.9751 21.1163 42.9051 21.0963C42.7051 21.0363 42.5051 20.9763 42.2951 20.9263C43.2451 20.9963 44.1651 21.0763 45.0551 21.1663C48.0351 21.4663 49.9151 20.6463 50.9651 18.7663C51.4451 17.8963 52.1351 15.8563 52.8151 13.4763C52.8151 13.4763 52.8151 13.4463 52.8251 13.4363C53.3751 11.4763 53.9151 9.29627 54.3251 7.34627C54.6251 5.94627 54.8651 4.58627 54.9451 3.51627C54.9451 3.47627 54.9451 3.43627 54.9551 3.39627C54.9551 3.35627 54.9551 3.30627 54.9551 3.26627C54.9951 2.77627 54.9951 2.37627 54.9551 2.09627L54.9051 2.12627Z" fill="#333333"/>
<path d="M54.9051 2.12627C54.8851 2.02627 54.8651 1.92627 54.8351 1.83627C54.8351 1.83627 54.8351 1.83627 54.8351 1.82627C54.7251 1.43627 54.4751 1.11627 54.0751 0.866269C53.9851 0.806269 53.8851 0.756269 53.7751 0.706269C53.7651 0.706269 53.7451 0.696269 53.7351 0.686269C53.6351 0.646269 53.5251 0.606269 53.4051 0.566269C53.3851 0.566269 53.3651 0.556269 53.3451 0.546269C53.2051 0.506269 53.0651 0.466269 52.9051 0.436269C52.5451 0.366269 52.1851 0.316269 51.8351 0.276269C51.7851 0.276269 51.7451 0.266269 51.6951 0.256269C51.3551 0.226269 51.0051 0.206269 50.6651 0.196269C50.6151 0.196269 50.5551 0.196269 50.5051 0.196269C50.1551 0.196269 49.8051 0.206269 49.4551 0.236269C49.4351 0.236269 49.4151 0.236269 49.3951 0.236269C49.0451 0.266269 48.7051 0.306269 48.3551 0.366269C48.3251 0.366269 48.2951 0.366269 48.2651 0.376269C47.9251 0.436269 47.5851 0.506269 47.2351 0.586269C47.1851 0.596269 47.1351 0.616269 47.0751 0.626269C46.7351 0.716269 46.4051 0.806269 46.0651 0.916269C46.0251 0.926269 45.9851 0.946269 45.9551 0.956269C45.6151 1.06627 45.2751 1.19627 44.9351 1.32627C44.9351 1.32627 44.9251 1.32627 44.9151 1.32627C44.5751 1.46627 44.2451 1.60627 43.9151 1.76627C43.8651 1.78627 43.8151 1.81627 43.7651 1.83627C43.4451 1.98627 43.1251 2.15627 42.8151 2.32627C42.7651 2.35627 42.7151 2.37627 42.6651 2.40627C42.3451 2.58627 42.0251 2.76627 41.7051 2.96627C41.7051 2.96627 41.6851 2.97627 41.6751 2.98627C41.3651 3.17627 41.0551 3.38627 40.7551 3.58627C40.7151 3.61627 40.6651 3.64627 40.6151 3.67627C40.3251 3.87627 40.0251 4.09627 39.7451 4.30627C39.6851 4.34627 39.6251 4.39627 39.5651 4.43627C39.2751 4.65627 38.9951 4.87627 38.7151 5.10627C38.6751 5.14627 38.6251 5.17627 38.5851 5.21627C38.3251 5.43627 38.0651 5.65627 37.8151 5.87627C37.7751 5.91627 37.7351 5.94627 37.6951 5.98627C37.4351 6.22627 37.1751 6.46627 36.9151 6.70627C36.8551 6.76627 36.7851 6.82627 36.7251 6.89627C36.4751 7.13627 36.2351 7.37627 36.0051 7.61627C35.9451 7.67627 35.8851 7.74627 35.8151 7.80627C35.5951 8.03627 35.3751 8.26627 35.1651 8.49627C35.1151 8.55627 35.0651 8.60627 35.0151 8.66627C34.8051 8.89627 34.6051 9.13627 34.3951 9.36627C34.3251 9.44627 34.2651 9.51627 34.1951 9.59627C34.0251 9.80627 33.8451 10.0163 33.6751 10.2263C31.6951 12.6863 30.1551 15.2163 29.2251 17.3663C29.1151 16.8863 28.9651 16.4563 28.7751 16.0963C29.1951 15.9663 29.4951 15.5763 29.4951 15.1163C29.4951 14.7663 29.3251 14.4563 29.0551 14.2663C29.0051 13.9263 28.8551 13.6263 28.6351 13.3963C28.6351 13.3963 28.2351 12.7463 27.4551 12.7663C26.6751 12.7863 26.3751 13.2963 26.3751 13.2963C26.0951 13.5463 25.9051 13.8863 25.8551 14.2663C25.5951 14.4563 25.4151 14.7663 25.4151 15.1163C25.4151 15.5763 25.7051 15.9563 26.1151 16.0863C25.9351 16.4363 25.7751 16.8463 25.6751 17.3163C24.7451 15.1763 23.2151 12.6563 21.2451 10.2163C21.0751 10.0063 20.9151 9.80627 20.7351 9.60627C20.6651 9.51627 20.5851 9.42627 20.5151 9.34627C20.3351 9.12627 20.1451 8.91627 19.9551 8.70627C19.8851 8.62627 19.8051 8.54627 19.7351 8.45627C19.5451 8.24627 19.3451 8.03627 19.1451 7.82627C19.0751 7.74627 18.9951 7.67627 18.9251 7.59627C18.6951 7.36627 18.4651 7.12627 18.2251 6.90627C18.1451 6.83627 18.0751 6.75627 17.9951 6.68627C17.7551 6.45627 17.5051 6.22627 17.2551 5.99627C17.1951 5.94627 17.1451 5.89627 17.0851 5.84627C16.8551 5.64627 16.6251 5.44627 16.3851 5.24627C16.3251 5.19627 16.2651 5.14627 16.2051 5.09627C15.9351 4.87627 15.6751 4.66627 15.3951 4.45627C15.3251 4.39627 15.2451 4.34627 15.1751 4.28627C14.9051 4.07627 14.6251 3.87627 14.3451 3.68627C14.2851 3.64627 14.2251 3.60627 14.1551 3.55627C13.8751 3.36627 13.6051 3.18627 13.3251 3.00627C13.2951 2.98627 13.2551 2.96627 13.2251 2.94627C12.9251 2.75627 12.6151 2.58627 12.3151 2.41627C12.2451 2.37627 12.1851 2.34627 12.1151 2.30627C11.8151 2.14627 11.5151 1.98627 11.2051 1.83627C11.1351 1.80627 11.0751 1.77627 11.0051 1.74627C10.6851 1.59627 10.3651 1.45627 10.0451 1.32627C10.0151 1.31627 9.99514 1.30627 9.96514 1.29627C9.65514 1.17627 9.33514 1.05627 9.02514 0.956269C8.97514 0.936269 8.91514 0.916269 8.86514 0.896269C8.54514 0.796269 8.21514 0.696269 7.89514 0.616269C7.82514 0.596269 7.76514 0.586269 7.69514 0.566269C7.36514 0.486269 7.03514 0.416269 6.70514 0.366269C6.66514 0.366269 6.61514 0.35627 6.57514 0.34627C6.24514 0.29627 5.92514 0.256269 5.59514 0.226269C5.56514 0.226269 5.52514 0.226269 5.49514 0.216269C5.15514 0.186269 4.81514 0.17627 4.47514 0.17627C4.41514 0.17627 4.34514 0.17627 4.28514 0.17627C3.94514 0.17627 3.61514 0.196269 3.27514 0.236269C3.22514 0.236269 3.16514 0.246269 3.10514 0.256269C2.75514 0.296269 2.39514 0.346269 2.04514 0.416269C1.88514 0.446269 1.74514 0.486269 1.60514 0.526269C1.58514 0.526269 1.56514 0.546269 1.53514 0.546269C1.42514 0.586269 1.31514 0.626269 1.21514 0.666269C1.19514 0.666269 1.18514 0.676269 1.17514 0.686269C1.06514 0.736269 0.965137 0.78627 0.875137 0.84627C0.475137 1.09627 0.225136 1.41627 0.115136 1.80627C0.115136 1.80627 0.115136 1.81627 0.115136 1.82627C0.0851364 1.91627 0.0651367 2.01627 0.0451367 2.11627C0.00513672 2.39627 0.00513672 2.79627 0.0451367 3.27627C0.0451367 3.32627 0.0451369 3.37627 0.0551369 3.42627C0.0551369 3.44627 0.0551369 3.47627 0.0551369 3.49627C0.145137 4.57627 0.375137 5.93627 0.675137 7.34627C1.08514 9.30627 1.62514 11.5063 2.18514 13.4763C2.86514 15.8563 3.55514 17.8963 4.03514 18.7663C5.08514 20.6563 6.96514 21.4663 9.94514 21.1663C10.8351 21.0763 11.7551 20.9963 12.7051 20.9263C12.4951 20.9763 12.2951 21.0363 12.1051 21.0963C12.0151 21.1263 11.9351 21.1563 11.8551 21.1763C11.6351 21.2463 11.4151 21.3363 11.2051 21.4163C11.1351 21.4463 11.0651 21.4763 10.9951 21.5063C10.7351 21.6163 10.4851 21.7363 10.2551 21.8663C10.1951 21.8963 10.1451 21.9363 10.0851 21.9663C9.89514 22.0763 9.71514 22.1863 9.54514 22.3063C9.48514 22.3463 9.42514 22.3863 9.36514 22.4363C9.15514 22.5863 8.95514 22.7463 8.76514 22.9063C8.73514 22.9363 8.71514 22.9563 8.68514 22.9863C8.52514 23.1363 8.36514 23.2863 8.22514 23.4463C8.17514 23.4963 8.13514 23.5463 8.08514 23.5963C7.92514 23.7763 7.78514 23.9563 7.64514 24.1363C7.64514 24.1463 7.62514 24.1563 7.62514 24.1663C7.48514 24.3663 7.35514 24.5663 7.22514 24.7763C7.19514 24.8263 7.16514 24.8863 7.13514 24.9363C7.03514 25.1163 6.93514 25.3063 6.85514 25.4963C6.83514 25.5263 6.82514 25.5663 6.80514 25.5963C6.70514 25.8163 6.62514 26.0463 6.54514 26.2763C6.52514 26.3263 6.51514 26.3763 6.50514 26.4163C6.44514 26.6163 6.38514 26.8163 6.34514 27.0163C6.33514 27.0663 6.32514 27.1063 6.31514 27.1563C6.26514 27.3963 6.21514 27.6463 6.18514 27.8963C6.18514 27.9263 6.18514 27.9663 6.17514 27.9963C6.14514 28.2163 6.12514 28.4463 6.11514 28.6663C6.11514 28.7163 6.11514 28.7663 6.11514 28.8163C6.03514 30.8163 6.53514 32.9363 7.51514 34.8863C8.75514 37.3763 10.4651 39.2063 13.4551 39.5363C19.2151 40.1663 21.9351 36.7963 24.1951 31.4963C24.7451 30.2063 25.3451 28.5163 25.8251 26.7663C25.8251 26.7663 25.8451 26.6963 25.8551 26.6663C25.8851 26.5463 25.9151 26.4363 25.9451 26.3163C25.9251 26.7463 25.9151 27.1863 25.9151 27.6363C25.9151 31.7963 26.6151 35.1763 27.4751 35.1763C28.3351 35.1763 29.0351 31.7963 29.0351 27.6363C29.0351 27.1363 29.0251 26.6463 29.0051 26.1763C29.0451 26.3363 29.0851 26.4963 29.1351 26.6663C29.1351 26.6963 29.1551 26.7363 29.1651 26.7663C29.6451 28.5163 30.2451 30.2063 30.7951 31.4963C33.0551 36.7963 35.7751 40.1563 41.5351 39.5363C44.5251 39.2063 46.2351 37.3763 47.4751 34.8863C48.4451 32.9363 48.9451 30.8163 48.8751 28.8063C48.8751 28.7663 48.8751 28.7163 48.8751 28.6763C48.8651 28.4363 48.8451 28.2063 48.8151 27.9663C48.8151 27.9463 48.8151 27.9163 48.8151 27.8963C48.7851 27.6463 48.7351 27.3863 48.6851 27.1463C48.6851 27.1063 48.6651 27.0663 48.6551 27.0363C48.6051 26.8263 48.5451 26.6163 48.4851 26.4063C48.4751 26.3663 48.4651 26.3263 48.4451 26.2863C48.3651 26.0463 48.2751 25.8163 48.1851 25.5863C48.1751 25.5563 48.1551 25.5363 48.1451 25.5063C48.0551 25.3063 47.9551 25.1163 47.8551 24.9263C47.8251 24.8763 47.8051 24.8263 47.7751 24.7763C47.6551 24.5663 47.5151 24.3563 47.3751 24.1563C47.3751 24.1563 47.3751 24.1563 47.3751 24.1463C47.2351 23.9563 47.0751 23.7663 46.9151 23.5863C46.8751 23.5363 46.8351 23.4963 46.7851 23.4463C46.6351 23.2863 46.4751 23.1263 46.3051 22.9663C46.2851 22.9463 46.2651 22.9263 46.2451 22.9063C46.0551 22.7363 45.8451 22.5763 45.6351 22.4263C45.5851 22.3863 45.5251 22.3463 45.4651 22.3063C45.2851 22.1863 45.0951 22.0663 44.9051 21.9563C44.8551 21.9263 44.8051 21.8963 44.7551 21.8663C44.5151 21.7363 44.2651 21.6063 43.9951 21.4963C43.9351 21.4663 43.8751 21.4463 43.8051 21.4163C43.5851 21.3263 43.3551 21.2363 43.1251 21.1663C43.0551 21.1463 42.9751 21.1163 42.9051 21.0963C42.7051 21.0363 42.5051 20.9763 42.2951 20.9263C43.2451 20.9963 44.1651 21.0763 45.0551 21.1663C48.0351 21.4663 49.9151 20.6463 50.9651 18.7663C51.4451 17.8963 52.1351 15.8563 52.8151 13.4763C52.8151 13.4763 52.8151 13.4463 52.8251 13.4363C53.3751 11.4763 53.9151 9.29627 54.3251 7.34627C54.6251 5.94627 54.8651 4.58627 54.9451 3.51627C54.9451 3.47627 54.9451 3.43627 54.9551 3.39627C54.9551 3.35627 54.9551 3.30627 54.9551 3.26627C54.9951 2.77627 54.9951 2.37627 54.9551 2.09627L54.9051 2.12627Z" fill="black" fill-opacity="0.2"/>
</svg>
