<svg width="119" height="174" viewBox="0 0 119 174" fill="none" xmlns="http://www.w3.org/2000/svg">
<g filter="url(#filter0_d_514_125365)">
<path d="M114.579 56.3894C114.579 86.4384 59.6825 168 59.6825 168C59.6825 168 4.78613 86.4384 4.78613 56.3894C4.78613 26.3404 29.3534 2 59.6598 2C89.9662 2 114.556 26.3629 114.556 56.3894H114.579Z" fill="#B73337"/>
<g filter="url(#filter1_i_514_125365)">
<path d="M88.0997 37.3323C88.0789 37.2283 88.0582 37.1244 88.0271 37.0308C88.0271 37.0308 88.0271 37.0308 88.0271 37.0204C87.913 36.6149 87.6538 36.2822 87.239 36.0223C87.1457 35.9599 87.042 35.9079 86.9279 35.856C86.9176 35.856 86.8968 35.8456 86.8865 35.8352C86.7828 35.7936 86.6687 35.752 86.5443 35.7104C86.5235 35.7104 86.5028 35.7 86.4821 35.6896C86.3369 35.648 86.1917 35.6064 86.0258 35.5752C85.6525 35.5025 85.2792 35.4505 84.9163 35.4089C84.8644 35.4089 84.823 35.3985 84.7711 35.3881C84.4186 35.3569 84.0556 35.3361 83.7031 35.3257C83.6512 35.3257 83.589 35.3257 83.5372 35.3257C83.1742 35.3257 82.8113 35.3361 82.4484 35.3673C82.4277 35.3673 82.4069 35.3673 82.3862 35.3673C82.0233 35.3985 81.6707 35.4401 81.3078 35.5025C81.2767 35.5025 81.2456 35.5025 81.2145 35.5129C80.8619 35.5752 80.5093 35.648 80.1464 35.7312C80.0946 35.7416 80.0427 35.7624 79.9805 35.7728C79.628 35.8664 79.2858 35.9599 78.9332 36.0743C78.8917 36.0847 78.8503 36.1055 78.8191 36.1159C78.4666 36.2302 78.114 36.3654 77.7615 36.5006C77.7615 36.5006 77.7511 36.5006 77.7407 36.5006C77.3882 36.6461 77.046 36.7917 76.7038 36.958C76.652 36.9788 76.6001 37.01 76.5483 37.0308C76.2165 37.1867 75.8846 37.3635 75.5632 37.5402C75.5113 37.5714 75.4595 37.5922 75.4077 37.6234C75.0758 37.8105 74.744 37.9977 74.4122 38.2056C74.4122 38.2056 74.3915 38.216 74.3811 38.2264C74.0596 38.424 73.7382 38.6423 73.4271 38.8502C73.3856 38.8814 73.3338 38.9126 73.2819 38.9438C72.9812 39.1517 72.6702 39.3805 72.3798 39.5988C72.3176 39.6404 72.2554 39.6924 72.1932 39.7339C71.8925 39.9627 71.6021 40.1914 71.3118 40.4305C71.2703 40.4721 71.2185 40.5033 71.177 40.5449C70.9074 40.7736 70.6378 41.0023 70.3785 41.2311C70.3371 41.2727 70.2956 41.3038 70.2541 41.3454C69.9845 41.595 69.7149 41.8445 69.4453 42.094C69.3831 42.1564 69.3105 42.2188 69.2483 42.2915C68.9891 42.5411 68.7402 42.7906 68.5017 43.0401C68.4395 43.1025 68.3773 43.1753 68.3047 43.2376C68.0766 43.4768 67.8484 43.7159 67.6307 43.955C67.5788 44.0174 67.527 44.0694 67.4751 44.1318C67.2574 44.3709 67.05 44.6204 66.8322 44.8595C66.7597 44.9427 66.6974 45.0155 66.6249 45.0987C66.4486 45.317 66.2619 45.5353 66.0857 45.7536C64.0325 48.3112 62.4357 50.9416 61.4713 53.1769C61.3573 52.6779 61.2017 52.2308 61.0047 51.8565C61.4402 51.7214 61.7513 51.3159 61.7513 50.8377C61.7513 50.4738 61.575 50.1515 61.295 49.9539C61.2432 49.6004 61.0877 49.2885 60.8595 49.0494C60.8595 49.0494 60.4448 48.3736 59.636 48.3944C58.8271 48.4152 58.5161 48.9454 58.5161 48.9454C58.2257 49.2054 58.0287 49.5589 57.9769 49.9539C57.7073 50.1515 57.5206 50.4738 57.5206 50.8377C57.5206 51.3159 57.8213 51.711 58.2465 51.8461C58.0598 52.21 57.8939 52.6363 57.7902 53.1249C56.8259 50.9 55.2394 48.2801 53.1966 45.7433C53.0203 45.5249 52.8544 45.317 52.6678 45.1091C52.5952 45.0155 52.5123 44.9219 52.4397 44.8387C52.253 44.61 52.056 44.3917 51.859 44.1733C51.7864 44.0902 51.7034 44.007 51.6309 43.9134C51.4338 43.6951 51.2265 43.4768 51.0191 43.2584C50.9465 43.1753 50.8635 43.1025 50.7909 43.0193C50.5525 42.7802 50.314 42.5307 50.0651 42.3019C49.9821 42.2292 49.9096 42.146 49.8266 42.0732C49.5777 41.8341 49.3185 41.595 49.0593 41.3558C48.9971 41.3038 48.9452 41.2519 48.883 41.1999C48.6445 40.9919 48.406 40.784 48.1571 40.5761C48.0949 40.5241 48.0327 40.4721 47.9705 40.4201C47.6905 40.1914 47.4209 39.9731 47.1306 39.7547C47.058 39.6924 46.975 39.6404 46.9025 39.578C46.6225 39.3597 46.3322 39.1517 46.0418 38.9542C45.9796 38.9126 45.9174 38.871 45.8448 38.819C45.5545 38.6215 45.2745 38.4343 44.9841 38.2472C44.953 38.2264 44.9116 38.2056 44.8805 38.1848C44.5694 37.9873 44.2479 37.8105 43.9368 37.6338C43.8643 37.5922 43.802 37.561 43.7295 37.5194C43.4184 37.3531 43.1073 37.1867 42.7859 37.0308C42.7133 36.9996 42.6511 36.9684 42.5785 36.9372C42.2467 36.7813 41.9148 36.6357 41.583 36.5006C41.5519 36.4902 41.5312 36.4798 41.5001 36.4694C41.1786 36.3446 40.8468 36.2198 40.5253 36.1159C40.4735 36.0951 40.4113 36.0743 40.3594 36.0535C40.0276 35.9495 39.6854 35.8456 39.3536 35.7624C39.281 35.7416 39.2188 35.7312 39.1462 35.7104C38.804 35.6272 38.4619 35.5545 38.1197 35.5025C38.0782 35.5025 38.0264 35.4921 37.9849 35.4817C37.6427 35.4297 37.3109 35.3881 36.9687 35.3569C36.9376 35.3569 36.8961 35.3569 36.865 35.3465C36.5124 35.3153 36.1599 35.3049 35.8073 35.3049C35.7451 35.3049 35.6725 35.3049 35.6103 35.3049C35.2577 35.3049 34.9156 35.3257 34.563 35.3673C34.5112 35.3673 34.4489 35.3777 34.3867 35.3881C34.0238 35.4297 33.6505 35.4817 33.2876 35.5545C33.1217 35.5856 32.9765 35.6272 32.8313 35.6688C32.8106 35.6688 32.7899 35.6896 32.7587 35.6896C32.6447 35.7312 32.5306 35.7728 32.4269 35.8144C32.4062 35.8144 32.3958 35.8248 32.3855 35.8352C32.2714 35.8871 32.1677 35.9391 32.0744 36.0015C31.6596 36.2614 31.4004 36.5941 31.2863 36.9996C31.2863 36.9996 31.2863 37.01 31.2863 37.0204C31.2552 37.114 31.2345 37.2179 31.2137 37.3219C31.1722 37.613 31.1722 38.0289 31.2137 38.5279C31.2137 38.5799 31.2137 38.6319 31.2241 38.6839C31.2241 38.7047 31.2241 38.7359 31.2241 38.7566C31.3174 39.8795 31.5559 41.2935 31.867 42.7594C32.2921 44.7971 32.8521 47.0844 33.4328 49.1326C34.1379 51.607 34.8533 53.7279 35.3511 54.6325C36.4398 56.5974 38.3893 57.4396 41.4793 57.1277C42.4022 57.0341 43.3562 56.9509 44.3412 56.8782C44.1235 56.9301 43.9161 56.9925 43.7191 57.0549C43.6258 57.0861 43.5428 57.1173 43.4599 57.1381C43.2317 57.2108 43.0036 57.3044 42.7859 57.3876C42.7133 57.4188 42.6407 57.45 42.5681 57.4812C42.2985 57.5955 42.0393 57.7203 41.8008 57.8554C41.7386 57.8866 41.6867 57.9282 41.6245 57.9594C41.4275 58.0738 41.2408 58.1881 41.0646 58.3129C41.0023 58.3545 40.9401 58.3961 40.8779 58.4481C40.6602 58.604 40.4528 58.7704 40.2557 58.9367C40.2246 58.9679 40.2039 58.9887 40.1728 59.0199C40.0069 59.1758 39.841 59.3318 39.6958 59.4981C39.644 59.5501 39.6025 59.6021 39.5506 59.6541C39.3847 59.8412 39.2396 60.0284 39.0944 60.2155C39.0944 60.2259 39.0736 60.2363 39.0736 60.2467C38.9285 60.4546 38.7937 60.6626 38.6589 60.8809C38.6278 60.9329 38.5967 60.9953 38.5656 61.0472C38.4619 61.2344 38.3582 61.4319 38.2752 61.6295C38.2545 61.6607 38.2441 61.7022 38.2234 61.7334C38.1197 61.9622 38.0367 62.2013 37.9538 62.4404C37.933 62.4924 37.9227 62.5444 37.9123 62.586C37.8501 62.7939 37.7879 63.0018 37.7464 63.2098C37.736 63.2617 37.7256 63.3033 37.7153 63.3553C37.6634 63.6048 37.6116 63.8648 37.5805 64.1247C37.5805 64.1559 37.5805 64.1975 37.5701 64.2286C37.539 64.4574 37.5183 64.6965 37.5079 64.9252C37.5079 64.9772 37.5079 65.0292 37.5079 65.0812C37.4249 67.1605 37.9434 69.3646 38.9596 71.392C40.2454 73.9808 42.0185 75.8834 45.1189 76.2265C51.0917 76.8815 53.9121 73.3778 56.2556 67.8675C56.8259 66.5263 57.448 64.7693 57.9458 62.9498C57.9458 62.9498 57.9665 62.8771 57.9769 62.8459C58.008 62.7211 58.0391 62.6068 58.0702 62.482C58.0495 62.9291 58.0391 63.3865 58.0391 63.8544C58.0391 68.1794 58.7649 71.6935 59.6567 71.6935C60.5485 71.6935 61.2743 68.1794 61.2743 63.8544C61.2743 63.3345 61.2639 62.8251 61.2432 62.3364C61.2847 62.5028 61.3261 62.6691 61.378 62.8459C61.378 62.8771 61.3987 62.9187 61.4091 62.9498C61.9068 64.7693 62.529 66.5263 63.0993 67.8675C65.4428 73.3778 68.2632 76.8711 74.2359 76.2265C77.3363 75.8834 79.1095 73.9808 80.3953 71.392C81.4011 69.3646 81.9196 67.1605 81.847 65.0708C81.847 65.0292 81.847 64.9772 81.847 64.9356C81.8366 64.6861 81.8159 64.447 81.7848 64.1975C81.7848 64.1767 81.7848 64.1455 81.7848 64.1247C81.7537 63.8648 81.7018 63.5944 81.65 63.3449C81.65 63.3033 81.6292 63.2617 81.6189 63.2306C81.567 63.0122 81.5048 62.7939 81.4426 62.5756C81.4322 62.534 81.4218 62.4924 81.4011 62.4508C81.3181 62.2013 81.2248 61.9622 81.1315 61.723C81.1211 61.6918 81.1004 61.671 81.09 61.6399C80.9967 61.4319 80.893 61.2344 80.7893 61.0368C80.7582 60.9849 80.7375 60.9329 80.7064 60.8809C80.5819 60.6626 80.4368 60.4442 80.2916 60.2363C80.2916 60.2363 80.2916 60.2363 80.2916 60.2259C80.1464 60.0284 79.9805 59.8308 79.8146 59.6437C79.7731 59.5917 79.7316 59.5501 79.6798 59.4981C79.5243 59.3318 79.3584 59.1654 79.1821 58.9991C79.1613 58.9783 79.1406 58.9575 79.1199 58.9367C78.9228 58.76 78.7051 58.5936 78.4873 58.4377C78.4355 58.3961 78.3733 58.3545 78.3111 58.3129C78.1244 58.1881 77.9274 58.0634 77.7304 57.949C77.6785 57.9178 77.6267 57.8866 77.5748 57.8554C77.326 57.7203 77.0667 57.5851 76.7868 57.4708C76.7245 57.4396 76.6623 57.4188 76.5897 57.3876C76.3616 57.294 76.1231 57.2004 75.8846 57.1277C75.8121 57.1069 75.7291 57.0757 75.6565 57.0549C75.4491 56.9925 75.2417 56.9301 75.024 56.8782C76.0091 56.9509 76.963 57.0341 77.8859 57.1277C80.976 57.4396 82.9254 56.587 84.0142 54.6325C84.5119 53.7279 85.2274 51.607 85.9325 49.1326C85.9325 49.1326 85.9325 49.1014 85.9429 49.091C86.5132 47.0532 87.0731 44.7868 87.4982 42.7594C87.8093 41.3038 88.0582 39.8899 88.1411 38.7774C88.1411 38.7359 88.1411 38.6943 88.1515 38.6527C88.1515 38.6111 88.1515 38.5591 88.1515 38.5175C88.193 38.0081 88.193 37.5922 88.1515 37.3011L88.0997 37.3323Z" fill="white"/>
</g>
<path d="M47.9926 96.17C47.9126 96.31 47.826 96.4133 47.7326 96.48C47.646 96.54 47.536 96.57 47.4026 96.57C47.2626 96.57 47.1093 96.52 46.9426 96.42C46.7826 96.3133 46.5893 96.1967 46.3626 96.07C46.136 95.9433 45.8693 95.83 45.5626 95.73C45.2626 95.6233 44.906 95.57 44.4926 95.57C44.1193 95.57 43.7926 95.6167 43.5126 95.71C43.2326 95.7967 42.996 95.92 42.8026 96.08C42.616 96.24 42.476 96.4333 42.3826 96.66C42.2893 96.88 42.2426 97.1233 42.2426 97.39C42.2426 97.73 42.336 98.0133 42.5226 98.24C42.716 98.4667 42.9693 98.66 43.2826 98.82C43.596 98.98 43.9526 99.1233 44.3526 99.25C44.7526 99.3767 45.1626 99.5133 45.5826 99.66C46.0026 99.8 46.4126 99.9667 46.8126 100.16C47.2126 100.347 47.5693 100.587 47.8826 100.88C48.196 101.167 48.446 101.52 48.6326 101.94C48.826 102.36 48.9226 102.87 48.9226 103.47C48.9226 104.123 48.8093 104.737 48.5826 105.31C48.3626 105.877 48.036 106.373 47.6026 106.8C47.176 107.22 46.6526 107.553 46.0326 107.8C45.4126 108.04 44.7026 108.16 43.9026 108.16C43.4426 108.16 42.9893 108.113 42.5426 108.02C42.096 107.933 41.666 107.807 41.2526 107.64C40.846 107.473 40.4626 107.273 40.1026 107.04C39.7426 106.807 39.4226 106.547 39.1426 106.26L39.9326 104.97C39.9993 104.877 40.086 104.8 40.1926 104.74C40.2993 104.673 40.4126 104.64 40.5326 104.64C40.6993 104.64 40.8793 104.71 41.0726 104.85C41.266 104.983 41.496 105.133 41.7626 105.3C42.0293 105.467 42.3393 105.62 42.6926 105.76C43.0526 105.893 43.4826 105.96 43.9826 105.96C44.7493 105.96 45.3426 105.78 45.7626 105.42C46.1826 105.053 46.3926 104.53 46.3926 103.85C46.3926 103.47 46.296 103.16 46.1026 102.92C45.916 102.68 45.666 102.48 45.3526 102.32C45.0393 102.153 44.6826 102.013 44.2826 101.9C43.8826 101.787 43.476 101.663 43.0626 101.53C42.6493 101.397 42.2426 101.237 41.8426 101.05C41.4426 100.863 41.086 100.62 40.7726 100.32C40.4593 100.02 40.206 99.6467 40.0126 99.2C39.826 98.7467 39.7326 98.19 39.7326 97.53C39.7326 97.0033 39.836 96.49 40.0426 95.99C40.256 95.49 40.5626 95.0467 40.9626 94.66C41.3626 94.2733 41.856 93.9633 42.4426 93.73C43.0293 93.4967 43.7026 93.38 44.4626 93.38C45.316 93.38 46.1026 93.5133 46.8226 93.78C47.5426 94.0467 48.156 94.42 48.6626 94.9L47.9926 96.17ZM53.44 108.16C52.5466 108.16 51.86 107.91 51.38 107.41C50.9066 106.903 50.67 106.207 50.67 105.32V99.59H49.62C49.4866 99.59 49.3733 99.5467 49.28 99.46C49.1866 99.3733 49.14 99.2433 49.14 99.07V98.09L50.79 97.82L51.31 95.02C51.3433 94.8867 51.4066 94.7833 51.5 94.71C51.5933 94.6367 51.7133 94.6 51.86 94.6H53.14V97.83H55.88V99.59H53.14V105.15C53.14 105.47 53.2166 105.72 53.37 105.9C53.53 106.08 53.7466 106.17 54.02 106.17C54.1733 106.17 54.3 106.153 54.4 106.12C54.5066 106.08 54.5966 106.04 54.67 106C54.75 105.96 54.82 105.923 54.88 105.89C54.94 105.85 55 105.83 55.06 105.83C55.1333 105.83 55.1933 105.85 55.24 105.89C55.2866 105.923 55.3366 105.977 55.39 106.05L56.13 107.25C55.77 107.55 55.3566 107.777 54.89 107.93C54.4233 108.083 53.94 108.16 53.44 108.16ZM62.4714 103.62C61.758 103.653 61.158 103.717 60.6714 103.81C60.1847 103.897 59.7947 104.01 59.5014 104.15C59.208 104.29 58.998 104.453 58.8714 104.64C58.7447 104.827 58.6814 105.03 58.6814 105.25C58.6814 105.683 58.808 105.993 59.0614 106.18C59.3214 106.367 59.658 106.46 60.0714 106.46C60.578 106.46 61.0147 106.37 61.3814 106.19C61.7547 106.003 62.118 105.723 62.4714 105.35V103.62ZM56.8114 99.17C57.9914 98.09 59.4114 97.55 61.0714 97.55C61.6714 97.55 62.208 97.65 62.6814 97.85C63.1547 98.0433 63.5547 98.3167 63.8814 98.67C64.208 99.0167 64.4547 99.4333 64.6214 99.92C64.7947 100.407 64.8814 100.94 64.8814 101.52V108H63.7614C63.528 108 63.348 107.967 63.2214 107.9C63.0947 107.827 62.9947 107.683 62.9214 107.47L62.7014 106.73C62.4414 106.963 62.188 107.17 61.9414 107.35C61.6947 107.523 61.438 107.67 61.1714 107.79C60.9047 107.91 60.618 108 60.3114 108.06C60.0114 108.127 59.678 108.16 59.3114 108.16C58.878 108.16 58.478 108.103 58.1114 107.99C57.7447 107.87 57.428 107.693 57.1614 107.46C56.8947 107.227 56.688 106.937 56.5414 106.59C56.3947 106.243 56.3214 105.84 56.3214 105.38C56.3214 105.12 56.3647 104.863 56.4514 104.61C56.538 104.35 56.678 104.103 56.8714 103.87C57.0714 103.637 57.328 103.417 57.6414 103.21C57.9547 103.003 58.338 102.823 58.7914 102.67C59.2514 102.517 59.7847 102.393 60.3914 102.3C60.998 102.2 61.6914 102.14 62.4714 102.12V101.52C62.4714 100.833 62.3247 100.327 62.0314 100C61.738 99.6667 61.3147 99.5 60.7614 99.5C60.3614 99.5 60.028 99.5467 59.7614 99.64C59.5014 99.7333 59.2714 99.84 59.0714 99.96C58.8714 100.073 58.688 100.177 58.5214 100.27C58.3614 100.363 58.1814 100.41 57.9814 100.41C57.808 100.41 57.6614 100.367 57.5414 100.28C57.4214 100.187 57.3247 100.08 57.2514 99.96L56.8114 99.17ZM69.1276 99.52C69.4476 98.9067 69.8276 98.4267 70.2676 98.08C70.7076 97.7267 71.2276 97.55 71.8276 97.55C72.301 97.55 72.681 97.6533 72.9676 97.86L72.8076 99.71C72.7743 99.83 72.7243 99.9167 72.6576 99.97C72.5976 100.017 72.5143 100.04 72.4076 100.04C72.3076 100.04 72.1576 100.023 71.9576 99.99C71.7643 99.9567 71.5743 99.94 71.3876 99.94C71.1143 99.94 70.871 99.98 70.6576 100.06C70.4443 100.14 70.251 100.257 70.0776 100.41C69.911 100.557 69.761 100.737 69.6276 100.95C69.501 101.163 69.381 101.407 69.2676 101.68V108H66.7976V97.74H68.2476C68.501 97.74 68.6776 97.7867 68.7776 97.88C68.8776 97.9667 68.9443 98.1267 68.9776 98.36L69.1276 99.52ZM77.2686 108.16C76.3752 108.16 75.6886 107.91 75.2086 107.41C74.7352 106.903 74.4986 106.207 74.4986 105.32V99.59H73.4486C73.3152 99.59 73.2019 99.5467 73.1086 99.46C73.0152 99.3733 72.9686 99.2433 72.9686 99.07V98.09L74.6186 97.82L75.1386 95.02C75.1719 94.8867 75.2352 94.7833 75.3286 94.71C75.4219 94.6367 75.5419 94.6 75.6886 94.6H76.9686V97.83H79.7086V99.59H76.9686V105.15C76.9686 105.47 77.0452 105.72 77.1986 105.9C77.3586 106.08 77.5752 106.17 77.8486 106.17C78.0019 106.17 78.1286 106.153 78.2286 106.12C78.3352 106.08 78.4252 106.04 78.4986 106C78.5786 105.96 78.6486 105.923 78.7086 105.89C78.7686 105.85 78.8286 105.83 78.8886 105.83C78.9619 105.83 79.0219 105.85 79.0686 105.89C79.1152 105.923 79.1652 105.977 79.2186 106.05L79.9586 107.25C79.5986 107.55 79.1852 107.777 78.7186 107.93C78.2519 108.083 77.7686 108.16 77.2686 108.16Z" fill="#FAFAFA"/>
</g>
<defs>
<filter id="filter0_d_514_125365" x="0.786133" y="0" width="117.793" height="174" filterUnits="userSpaceOnUse" color-interpolation-filters="sRGB">
<feFlood flood-opacity="0" result="BackgroundImageFix"/>
<feColorMatrix in="SourceAlpha" type="matrix" values="0 0 0 0 0 0 0 0 0 0 0 0 0 0 0 0 0 0 127 0" result="hardAlpha"/>
<feOffset dy="2"/>
<feGaussianBlur stdDeviation="2"/>
<feComposite in2="hardAlpha" operator="out"/>
<feColorMatrix type="matrix" values="0 0 0 0 0.22 0 0 0 0 0.22 0 0 0 0 0.22 0 0 0 0.44 0"/>
<feBlend mode="normal" in2="BackgroundImageFix" result="effect1_dropShadow_514_125365"/>
<feBlend mode="normal" in="SourceGraphic" in2="effect1_dropShadow_514_125365" result="shape"/>
</filter>
<filter id="filter1_i_514_125365" x="31.1826" y="35.3049" width="58" height="42" filterUnits="userSpaceOnUse" color-interpolation-filters="sRGB">
<feFlood flood-opacity="0" result="BackgroundImageFix"/>
<feBlend mode="normal" in="SourceGraphic" in2="BackgroundImageFix" result="shape"/>
<feColorMatrix in="SourceAlpha" type="matrix" values="0 0 0 0 0 0 0 0 0 0 0 0 0 0 0 0 0 0 127 0" result="hardAlpha"/>
<feOffset dx="2" dy="2"/>
<feGaussianBlur stdDeviation="0.5"/>
<feComposite in2="hardAlpha" operator="arithmetic" k2="-1" k3="1"/>
<feColorMatrix type="matrix" values="0 0 0 0 0 0 0 0 0 0 0 0 0 0 0 0 0 0 0.22 0"/>
<feBlend mode="normal" in2="shape" result="effect1_innerShadow_514_125365"/>
</filter>
</defs>
</svg>
