<svg width="119" height="175" viewBox="0 0 119 175" fill="none" xmlns="http://www.w3.org/2000/svg">
<g filter="url(#filter0_d_514_125355)">
<path d="M114.415 57.2165C114.415 87.2655 59.5184 168.827 59.5184 168.827C59.5184 168.827 4.62207 87.2655 4.62207 57.2165C4.62207 27.1675 29.1893 2.82715 59.4957 2.82715C89.8021 2.82715 114.392 27.19 114.392 57.2165H114.415Z" fill="#BF2028"/>
<path d="M108.404 56.6322C108.404 83.31 86.5813 104.953 59.6322 104.953C32.683 104.953 10.8833 83.31 10.8833 56.6322C10.8833 29.9544 32.7057 8.31104 59.6322 8.31104C86.5586 8.31104 108.404 29.9319 108.404 56.6322Z" fill="#BF2028"/>
<g filter="url(#filter1_i_514_125355)">
<g filter="url(#filter2_i_514_125355)">
<path d="M39.8296 58.6501V79.2611C39.8504 80.0449 40.403 80.5348 40.8618 80.7753C41.3413 81.0247 41.8731 81.1316 42.4256 81.1316H52.841C53.2059 81.1316 53.55 80.998 53.8106 80.7753C54.0608 80.5437 54.2068 80.232 54.2068 79.9113V69.9977H64.5805V79.9113C64.5805 80.232 64.7264 80.5437 64.9871 80.7753C65.2373 80.998 65.5918 81.1316 65.9462 81.1316H76.3616C76.9142 81.1316 77.4459 81.0247 77.9255 80.7753C78.3842 80.5348 78.9472 80.0449 78.9577 79.2611V58.6501L59.3988 42.5996L39.84 58.6501H39.8296Z" fill="white"/>
</g>
<path d="M86.829 52.3531L77.4353 45.0137V34.0491C77.4353 33.3811 76.7993 32.8288 76.007 32.8288H72.5665C71.7741 32.8288 71.1381 33.3721 71.1381 34.0491V40.0881L62.1406 33.0515L62.0989 33.1495L61.8487 32.9535C60.4412 31.8579 58.3039 31.8579 56.8965 32.9535L32.2081 52.2551C30.7173 53.422 30.613 55.3993 31.9788 56.6819C32.6982 57.3589 33.6886 57.7063 34.6895 57.7063C35.5757 57.7063 36.4619 57.4301 37.1604 56.8868L59.3778 39.5269L81.4805 56.673L81.8767 56.9848C82.5752 57.537 83.4614 57.8042 84.3476 57.8042C85.3381 57.8042 86.3285 57.4569 87.0583 56.7888C88.4241 55.5151 88.3199 53.5288 86.829 52.362V52.3531Z" fill="white"/>
</g>
</g>
<defs>
<filter id="filter0_d_514_125355" x="0.62207" y="0.827148" width="117.792" height="174" filterUnits="userSpaceOnUse" color-interpolation-filters="sRGB">
<feFlood flood-opacity="0" result="BackgroundImageFix"/>
<feColorMatrix in="SourceAlpha" type="matrix" values="0 0 0 0 0 0 0 0 0 0 0 0 0 0 0 0 0 0 127 0" result="hardAlpha"/>
<feOffset dy="2"/>
<feGaussianBlur stdDeviation="2"/>
<feComposite in2="hardAlpha" operator="out"/>
<feColorMatrix type="matrix" values="0 0 0 0 0.22 0 0 0 0 0.22 0 0 0 0 0.22 0 0 0 0.44 0"/>
<feBlend mode="normal" in2="BackgroundImageFix" result="effect1_dropShadow_514_125355"/>
<feBlend mode="normal" in="SourceGraphic" in2="effect1_dropShadow_514_125355" result="shape"/>
</filter>
<filter id="filter1_i_514_125355" x="31.0186" y="32.1318" width="58" height="49.9995" filterUnits="userSpaceOnUse" color-interpolation-filters="sRGB">
<feFlood flood-opacity="0" result="BackgroundImageFix"/>
<feBlend mode="normal" in="SourceGraphic" in2="BackgroundImageFix" result="shape"/>
<feColorMatrix in="SourceAlpha" type="matrix" values="0 0 0 0 0 0 0 0 0 0 0 0 0 0 0 0 0 0 127 0" result="hardAlpha"/>
<feOffset dx="2" dy="2"/>
<feGaussianBlur stdDeviation="0.5"/>
<feComposite in2="hardAlpha" operator="arithmetic" k2="-1" k3="1"/>
<feColorMatrix type="matrix" values="0 0 0 0 0 0 0 0 0 0 0 0 0 0 0 0 0 0 0.22 0"/>
<feBlend mode="normal" in2="shape" result="effect1_innerShadow_514_125355"/>
</filter>
<filter id="filter2_i_514_125355" x="39.8296" y="42.5996" width="40.1279" height="39.5317" filterUnits="userSpaceOnUse" color-interpolation-filters="sRGB">
<feFlood flood-opacity="0" result="BackgroundImageFix"/>
<feBlend mode="normal" in="SourceGraphic" in2="BackgroundImageFix" result="shape"/>
<feColorMatrix in="SourceAlpha" type="matrix" values="0 0 0 0 0 0 0 0 0 0 0 0 0 0 0 0 0 0 127 0" result="hardAlpha"/>
<feOffset dx="2" dy="2"/>
<feGaussianBlur stdDeviation="0.5"/>
<feComposite in2="hardAlpha" operator="arithmetic" k2="-1" k3="1"/>
<feColorMatrix type="matrix" values="0 0 0 0 0 0 0 0 0 0 0 0 0 0 0 0 0 0 0.22 0"/>
<feBlend mode="normal" in2="shape" result="effect1_innerShadow_514_125355"/>
</filter>
</defs>
</svg>
