<svg width="119" height="174" viewBox="0 0 119 174" fill="none" xmlns="http://www.w3.org/2000/svg">
<g filter="url(#filter0_d_514_125376)">
<path d="M114.371 56.3894C114.371 86.4384 59.4745 168 59.4745 168C59.4745 168 4.57812 86.4384 4.57812 56.3894C4.57812 26.3404 29.1454 2 59.4518 2C89.7582 2 114.348 26.3629 114.348 56.3894H114.371Z" fill="#66B2E4"/>
<path d="M108.359 55.805C108.359 82.4828 86.5368 104.126 59.5877 104.126C32.6386 104.126 10.8389 82.4828 10.8389 55.805C10.8389 29.1272 32.6613 7.48386 59.5877 7.48386C86.5142 7.48386 108.359 29.1048 108.359 55.805Z" fill="#66B2E4"/>
<g filter="url(#filter1_i_514_125376)">
<g filter="url(#filter2_i_514_125376)">
<path d="M41.7647 51.7657C41.8924 51.205 42.4307 50.3018 42.5767 52.0771C42.7227 53.8836 42.4581 55.2852 42.0019 54.6311C41.5457 53.9771 41.573 52.6066 41.7647 51.7657Z" fill="white"/>
</g>
<path d="M27.1564 59.506C27.4922 60.3399 28.0931 60.8165 28.6586 61.2401C29.3302 61.796 33.2008 64.2449 39.5456 66.5085C42.2232 67.2365 43.6724 67.5278 44.4236 67.7396C48.0997 68.2426 46.8714 68.097 49.1159 70.7709C50.2912 71.7902 51.5991 72.5579 52.7921 72.227C54.3297 72.227 55.8673 71.3401 55.717 70.4267C55.611 69.328 54.2855 68.7324 53.3576 67.6204C53.9055 67.4483 62.2475 66.6144 66.1445 65.6481C67.0017 65.1583 69.4141 67.2233 70.4569 66.6012C71.1903 66.1643 72.4187 64.9465 71.6587 64.5097C70.6071 63.9007 70.0416 63.2256 71.2699 62.8418C72.1359 62.4579 73.974 61.4519 74.7163 61.1606C75.4585 60.8694 76.8636 60.5385 77.9771 60.2605C79.3026 59.9296 80.4249 60.1149 80.8755 60.0884C82.9787 60.2605 83.8094 61.1606 84.3042 62.1137C84.7107 62.9212 86.0186 64.8009 87.0525 65.4098C88.7757 66.4158 91.2412 66.3496 91.7007 66.3099C91.63 65.6481 91.2942 63.9405 90.4193 62.2064C89.5445 60.4723 89.0938 59.6384 88.2985 57.8381C87.0967 56.1834 88.5636 54.3037 88.8994 53.7875C90.6491 50.7959 90.9495 50.1208 91.9746 46.4276C87.132 46.3217 84.0568 50.2531 82.3336 52.5564C81.0169 54.3037 78.3835 53.1786 76.7311 52.8741C75.0786 52.5696 74.08 51.7754 71.2787 50.6635C67.6998 49.353 66.1268 48.9029 63.7232 48.1219C61.3196 47.6454 59.5699 46.9968 57.6435 46.5996C58.5448 43.8992 59.1722 43.4227 59.0662 42.3902C59.0662 42.3902 56.0352 42.1122 54.1971 41.4901C52.359 40.8679 51.2721 38.9617 50.4414 39.3588C49.2661 39.8751 49.3987 40.2855 46.73 45.5142C44.1231 46.176 41.8697 46.8379 39.5633 47.513C34.8444 49.0353 31.5836 51.2724 30.7618 51.7886C30.0195 52.3711 29.233 52.8476 28.5349 53.5889C27.9517 54.1846 27.2801 54.8729 27.1122 55.9849C26.9619 56.5276 27.2801 56.9115 27.5098 57.2424C27.934 57.6925 28.4377 57.891 28.8972 58.1955C28.8972 58.2484 28.8795 58.3543 28.8707 58.4073C28.3405 58.5264 27.828 58.222 27.2889 58.1955C26.9531 58.394 26.8647 59.1353 27.1299 59.506H27.1564ZM32.6175 55.5216C32.6175 54.595 33.1212 53.8404 33.7398 53.8404C34.3584 53.8404 34.8621 54.595 34.8621 55.5216C34.8621 56.4482 34.3584 57.2027 33.7398 57.2027C33.1212 57.2027 32.6175 56.4482 32.6175 55.5216Z" fill="white"/>
</g>
</g>
<defs>
<filter id="filter0_d_514_125376" x="0.578125" y="0" width="117.793" height="174" filterUnits="userSpaceOnUse" color-interpolation-filters="sRGB">
<feFlood flood-opacity="0" result="BackgroundImageFix"/>
<feColorMatrix in="SourceAlpha" type="matrix" values="0 0 0 0 0 0 0 0 0 0 0 0 0 0 0 0 0 0 127 0" result="hardAlpha"/>
<feOffset dy="2"/>
<feGaussianBlur stdDeviation="2"/>
<feComposite in2="hardAlpha" operator="out"/>
<feColorMatrix type="matrix" values="0 0 0 0 0.22 0 0 0 0 0.22 0 0 0 0 0.22 0 0 0 0.44 0"/>
<feBlend mode="normal" in2="BackgroundImageFix" result="effect1_dropShadow_514_125376"/>
<feBlend mode="normal" in="SourceGraphic" in2="effect1_dropShadow_514_125376" result="shape"/>
</filter>
<filter id="filter1_i_514_125376" x="26.9746" y="23.3049" width="66" height="66" filterUnits="userSpaceOnUse" color-interpolation-filters="sRGB">
<feFlood flood-opacity="0" result="BackgroundImageFix"/>
<feBlend mode="normal" in="SourceGraphic" in2="BackgroundImageFix" result="shape"/>
<feColorMatrix in="SourceAlpha" type="matrix" values="0 0 0 0 0 0 0 0 0 0 0 0 0 0 0 0 0 0 127 0" result="hardAlpha"/>
<feOffset dx="2" dy="2"/>
<feGaussianBlur stdDeviation="0.5"/>
<feComposite in2="hardAlpha" operator="arithmetic" k2="-1" k3="1"/>
<feColorMatrix type="matrix" values="0 0 0 0 0 0 0 0 0 0 0 0 0 0 0 0 0 0 0.22 0"/>
<feBlend mode="normal" in2="shape" result="effect1_innerShadow_514_125376"/>
</filter>
<filter id="filter2_i_514_125376" x="41.6338" y="51.032" width="0.983398" height="3.76258" filterUnits="userSpaceOnUse" color-interpolation-filters="sRGB">
<feFlood flood-opacity="0" result="BackgroundImageFix"/>
<feBlend mode="normal" in="SourceGraphic" in2="BackgroundImageFix" result="shape"/>
<feColorMatrix in="SourceAlpha" type="matrix" values="0 0 0 0 0 0 0 0 0 0 0 0 0 0 0 0 0 0 127 0" result="hardAlpha"/>
<feOffset dx="2" dy="2"/>
<feGaussianBlur stdDeviation="0.5"/>
<feComposite in2="hardAlpha" operator="arithmetic" k2="-1" k3="1"/>
<feColorMatrix type="matrix" values="0 0 0 0 0 0 0 0 0 0 0 0 0 0 0 0 0 0 0.22 0"/>
<feBlend mode="normal" in2="shape" result="effect1_innerShadow_514_125376"/>
</filter>
</defs>
</svg>
