<svg width="118" height="175" viewBox="0 0 118 175" fill="none" xmlns="http://www.w3.org/2000/svg">
<g filter="url(#filter0_d_514_125695)">
<path d="M113.521 57.1878C113.521 87.2028 59.1096 168.827 59.1096 168.827C59.1096 168.827 4.61523 87.2862 4.61523 57.1878C4.61523 27.0893 28.9833 2.82715 59.1096 2.82715C89.236 2.82715 113.521 27.1727 113.521 57.1878Z" fill="#079247"/>
<path d="M107.595 56.6042C107.595 83.2843 85.9812 104.878 59.2765 104.878C32.5717 104.878 10.9575 83.2843 10.9575 56.6042C10.9575 29.9241 32.5717 8.24658 59.2765 8.24658C85.9812 8.24658 107.595 29.8408 107.595 56.6042Z" fill="#079247"/>
</g>
<g filter="url(#filter1_i_514_125695)">
<path d="M35.7021 55.3886L49.7939 68.4555C51.328 69.8781 53.6992 69.8781 55.2334 68.4555L83.3346 42.3979" stroke="#F2F2F2" stroke-width="8" stroke-linecap="round" stroke-linejoin="round"/>
</g>
<defs>
<filter id="filter0_d_514_125695" x="0.615234" y="0.827148" width="116.905" height="174" filterUnits="userSpaceOnUse" color-interpolation-filters="sRGB">
<feFlood flood-opacity="0" result="BackgroundImageFix"/>
<feColorMatrix in="SourceAlpha" result="hardAlpha" type="saturate" values="1"/>
<feOffset dy="2"/>
<feGaussianBlur stdDeviation="2"/>
<feComposite in2="hardAlpha" operator="over"/>
<feColorMatrix type="matrix" values="0 0 0 0 0.22 0 0 0 0 0.22 0 0 0 0 0.22 0 0 0 0.44 0"/>
<feBlend mode="normal" in2="BackgroundImageFix" result="effect1_dropShadow_514_125695"/>
<feBlend mode="normal" in="SourceGraphic" in2="effect1_dropShadow_514_125695" result="shape"/>
</filter>
<filter id="filter1_i_514_125695" x="31.7021" y="38.3979" width="56.6323" height="36.1245" filterUnits="userSpaceOnUse" color-interpolation-filters="sRGB">
<feFlood flood-opacity="0" result="BackgroundImageFix"/>
<feBlend mode="normal" in="SourceGraphic" in2="BackgroundImageFix" result="shape"/>
<feColorMatrix in="SourceAlpha" result="hardAlpha" type="saturate" values="1"/>
<feOffset dx="2" dy="2"/>
<feGaussianBlur stdDeviation="0.5"/>
<feComposite in2="hardAlpha" operator="arithmetic" k2="-1" k3="1"/>
<feColorMatrix type="matrix" values="0 0 0 0 0 0 0 0 0 0 0 0 0 0 0 0 0 0 0.22 0"/>
<feBlend mode="normal" in2="shape" result="effect1_innerShadow_514_125695"/>
</filter>
</defs>
</svg>
