<?xml version="1.0" encoding="UTF-8"?>
<svg id="Layer_2" data-name="Layer 2" xmlns="http://www.w3.org/2000/svg" viewBox="0 0 178.33 48.94">
  <defs>
    <style>
      .cls-1 {
        fill: #d24141;
      }
    </style>
  </defs>
  <g id="layer-t1">
    <g>
      <path class="cls-1" d="m157.24,26.06s-5.6,13.68-5.71,14.09c-.17.63-.04.92.43,1.47.1.12.38.42.25.69-.16.34-.55.21-1.01.02s-6.67-2.52-7.01-2.69c-.15-.07-.39-.22-.31-.52s.53-.3.82-.35c.96-.18,1.24-.83,1.57-1.66,2.87-7.07,5.76-14.13,8.68-21.18.37-.9.64-1.65.11-2.32-.35-.44-.58-.59-.42-.98.16-.41.8-.02,1.33.19s3.42,1.39,3.84,1.56q1.51.62,1.81,2.17c1.1,5.72,3.6,18,3.6,18,0,0,4.88-11.65,5.29-12.64s.38-1.58-.12-2.09c-.26-.28-.38-.58-.26-.83.16-.33.55-.11.83,0,.55.22,6.58,2.78,6.89,2.89s.54.23.48.55-.43.36-.88.39c-.92.05-1.29.83-1.63,1.68-2.41,5.95-7.96,19.3-8.52,20.97s-.4,2.12,0,2.52c.38.38.38.59.22.83s-.48.1-.61.05c-.97-.38-4.14-1.73-4.78-1.94-.63-.21-.95-.59-1.06-1.25-.21-1.28-3.82-19.6-3.82-19.6Z"/>
      <path class="cls-1" d="m133.51,23.83l-1.8,6.12s5.92,1.85,8.37,2.56c.36.1,1.53.42,1.9.43.79.03.92.21,1.52-.51.2-.24.32-.51.71-.38.37.12.24.49.05,1.16s-1.59,5.16-1.67,5.45-.35.21-.91.03c-7.65-2.57-18.03-5.34-18.26-5.42s-.54-.21-.49-.47c.08-.42.48-.38.93-.49.54-.14,1.02-.58,1.27-1.43,2.2-7.52,4.42-15.04,6.66-22.55.24-.82.38-1.37-.2-1.99-.21-.2-.68-.61-.5-.93s.46-.17,1.13.02c4.66,1.37,16.08,4.73,17.13,5.04.39.12,1.3.34,1.19.71s-1.58,5.11-1.75,5.63c-.08.23-.11.61-.42.62s-.44-.19-.49-.39c-.21-1.5-1.53-1.72-2.71-2.06-2.3-.66-7.76-2.27-8.18-2.38l-1.83,5.84c.23.11,3.67,1.19,5.95,1.89.87.27,1.64.42,2.14-.04.29-.26.47-.81.97-.63.32.11.2.56.09.97s-1.77,5.92-1.9,6.32-.22.96-.68.87c-.41-.08-.4-.69-.43-.91-.13-.75-.65-1-1.29-1.19-1.85-.53-6.5-1.9-6.5-1.9Z"/>
      <path class="cls-1" d="m24.39,39.25c-.55,1.83-1.65,3.31-3.16,4.44-3.95,2.94-8.36,3.72-13.12,2.58-.83-.19-.92-.29-.82-1.11.23-1.92.79-5.9.81-5.98.06-.29.11-.63.47-.65.3-.01.48.17.48.62,0,.74.31,1.45,1.69,1.73,2.43.5,4.84.13,6.92-1.41.27-.2.5-.46.69-.73,1.15-1.63.38-3.71-1.58-4.1-.81-.16-1.67-.15-2.51-.12-1.76.06-3.52.25-5.28.25-1.12,0-2.26-.18-3.36-.41-1.54-.32-2.77-1.2-3.69-2.46-1.8-2.49-2.51-5.19-1.45-8.19.65-1.85,1.86-3.29,3.46-4.37,3.52-2.39,7.37-3.12,11.51-2.06.36.12-.53,5.09-.69,6.42-.02.13-.06.78-.33.86-.74.22-.66-.53-.68-.73-.08-.67-.66-1.19-1.45-1.35-1.79-.38-4.66.54-5.84,1.95-1.2,1.41-.65,3.38,1.11,3.94.43.14.91.22,1.36.22,1.8-.03,3.6-.08,5.41-.15,1.6-.07,3.18,0,4.74.41,1.79.46,3.17,1.5,4.14,3.07,1.42,2.28,1.95,4.72,1.16,7.34Z"/>
      <path class="cls-1" d="m120.84,30.12c-1.53,1.16-3.3,1.71-5.2,1.74-4.96.05-9.01-1.92-12.21-5.67-.56-.65-.57-.78,0-1.39,1.32-1.42,4.14-4.34,4.21-4.39.22-.2.46-.45.77-.25.25.16.29.43.02.79-.44.61-.61,1.36.35,2.42,1.68,1.85,3.86,2.98,6.47,2.95.34,0,.68-.07.99-.18,1.91-.65,2.51-2.8,1.14-4.27-.57-.61-1.27-1.11-1.97-1.59-1.47-.99-3.01-1.88-4.44-2.92-.91-.66-1.73-1.49-2.49-2.32-1.06-1.17-1.54-2.61-1.55-4.19,0-3.09,1.03-5.71,3.67-7.52,1.62-1.12,3.46-1.58,5.4-1.51,4.28.14,7.84,1.83,10.59,5.14.22.31-3.45,3.83-4.36,4.82-.09.09-.51.6-.78.5-.73-.26-.22-.82-.12-1,.34-.59.17-1.36-.38-1.96-1.23-1.37-4.11-2.32-5.91-1.88-1.81.44-2.53,2.36-1.44,3.86.27.37.61.72.98.98,1.48,1.05,2.98,2.07,4.5,3.08,1.34.89,2.59,1.89,3.61,3.14,1.19,1.43,1.69,3.1,1.55,4.95-.2,2.7-1.2,5-3.4,6.67Z"/>
      <path class="cls-1" d="m100.91.02c-1.88.04-3.77,0-5.65,0-.38,0-1.36-.12-1.41.3-.04.36.16.49.69.71.93.39.8,1.04.79,1.9s-.13,13.45-.19,13.84c-.28-.36-7.8-12.08-10.23-15.96-.32-.51-.67-.78-1.29-.79-1.42-.02-4.47.04-5.32.03-.36,0-.82-.04-.86.33-.05.4.34.51.6.65.77.39.86.67.82,1.5-.06,1.3-.48,22.35-.57,23.64-.05.64-.23,2-1.12,2.12-1.07.15-1.85-1.57-2.36-2.53-2.2-4.05-10.06-18.83-11.74-22.02-.81-1.53.53-1.42.37-2.06-.11-.43-.5-.46-2.1-.23-2.07.29-3.56.46-6.17.92-.69.12-.83.68-.3.94.69.34.96,1.41.81,2.2-.96,4.98-2.78,15.02-2.78,15.02-2.04.39-4.65-.4-6.15-1.73-.04,2.41,2.06,5.59,4.61,6.18,3.11.72,6.6-.91,11.73.13,2.12.43,4.04,1.03,5.77,2.32,1.2.89,1.08,1.42.42,1.9-.31.22-.42.46-.36.69.09.31.45.24.72.21,1.74-.25,5.77-.62,7.63-.74s4.82-.34,7.21-.29c1.04.02,1.56-.02,1.61-.41.05-.43-.54-.56-.68-.62-1.15-.53-1.07-1.62-1.04-2.88.09-4.19.32-13.57.32-13.57.93,1.47,8.05,12.73,10.52,16.73.4.65.62,1.07,1.52,1.14,1.46.11,4.12.36,4.32.38.61.07.94.09.99-.29.04-.29-.14-.48-.51-.73-.45-.29-.55-.35-.56-1.38s.3-23.39.3-23.87c0-.92-.05-2.01.5-2.42s1.05-.49,1.05-.9-.28-.4-1.9-.37Zm-42.02,19.74c.51-2.98.89-5.87,1.52-8.85.22.2,3.8,6.73,5.34,10.04-2.19-.93-4.46-1.13-6.86-1.19Z"/>
      <path class="cls-1" d="m57.14,30.32c.06-.58.41-2.81.72-4.49-2.02.16-3.98.74-6.06.34-.32,1.83-1.03,5.58-1.11,5.86-.06.2-.14.53-.33.58s-.6-.25-.94-.54c-.1-.07-13.29-11.58-13.29-11.58,0,0,2.86-7.88,4.12-11.39.35-.97.58-1.45,1.32-2.16.29-.28.89-.55.68-1.01-.18-.4-.67-.24-.98-.15-2.75.89-5.1,1.61-7.84,2.53-.46.15-.56.31-.54.48.01.14.08.29.35.41.6.28.62.85.5,1.42-.28,1.29-4,11.64-4.18,11.92-.12-.35-1.99-6.03-2.79-8.49-.21-.65-.79-1.89.06-2.73.24-.24.49-.47.38-.72-.1-.24-.43-.23-.61-.16-.29.1-6.74,2.43-7.82,2.86h0s-.04.04-.06.07c-.07.09-.09.2-.05.34.09.25.32.32.66.34,1.3.1,1.45.98,1.78,2.07.67,2.16,5.33,16.51,6.97,21.54.53,1.73.37,1.96-.19,2.56-.24.27-.44.46-.29.76.16.32.57.15.88.03,1.84-.69,7.18-2.63,7.37-2.7s.34-.23.26-.49c-.07-.24-.31-.31-.65-.34-.64-.05-1-.29-1.24-.64-.41-.72-2.05-6.48-2.05-6.48,0,0,.93-2.54,1.41-3.81.36.27,5.71,4.81,8.13,6.89.5.43,1.05.97,1.03,1.35-.02.34-.75.5-.53,1.06.16.4.76.07,1.11-.04,5.43-1.83,10.36-2.86,13.44-3.49.41-.08,1.56-.17,1.55-.64-.01-.79-1.29-.33-1.18-1.36Z"/>
    </g>
  </g>
</svg>