<svg width="390" height="263" viewBox="0 0 390 263" fill="none" xmlns="http://www.w3.org/2000/svg">
<g clip-path="url(#clip0_536_122608)">
<path d="M384.398 186.116C382.824 184.409 376.919 180.831 376.495 179.2C375.974 177.189 378.97 174.721 379.491 172.742C380.382 169.415 379.491 164.337 377.885 161.325C376.137 158.03 373.021 154.04 369.07 152.768C364.836 151.398 361.08 153.594 356.976 153.181C356.455 144.711 357.476 137.002 350.767 130.075C344.535 123.649 335.275 121.67 326.438 122.714C329.63 117.365 323.019 108.721 318.372 108.22C320.533 104.806 321 99.1739 321.097 94.6724C321.217 89.2902 318.655 82.875 316.136 78.08C310.372 67.1307 296.704 61.5854 284.773 66.7719C282.559 63.3033 280.659 60.3458 276.479 58.5191C273.147 57.0621 269.314 57.9429 266.221 56.2793C266.047 54.4417 266.405 52.6585 266.633 48.1679C264.494 27.4328 227.552 17.4947 209.476 27.6829C203.658 30.9666 199.055 37.0338 197.372 43.0901C181.924 38.7191 170.438 50.3099 171.372 64.9234C159.007 64.8799 155.316 66.7175 147.402 75.0463C145.34 73.6872 144.764 71.2625 142.984 69.5445C140.834 67.4678 137.491 66.0869 134.636 65.0865C127.395 62.5422 120.403 60.8351 112.631 62.2051C103.826 63.76 97.3888 69.4467 92.9378 76.3729C88.2372 83.7014 89.4096 91.3452 88.9428 99.4892C82.0819 98.0213 75.6986 102.023 72.8218 107.742C69.5107 114.342 72.876 119.398 73.7337 125.781C62.6063 121.225 47.9291 121.507 39.2009 130.51C32.4919 137.437 33.5124 145.146 32.9913 153.616C28.8986 154.018 25.1316 151.833 20.8977 153.203C16.9462 154.486 13.8305 158.465 12.0827 161.76C10.4869 164.772 9.58585 169.849 10.476 173.177C11.008 175.156 13.9934 177.624 13.4723 179.635C13.0489 181.266 7.14326 184.844 5.56915 186.551C-6.20956 199.272 3.51737 212.113 8.19629 216.071C20.8652 226.77 90.213 240.721 190.935 240.721C245.106 240.721 322.986 232 322.986 232C354.718 227.162 375.366 220.975 381.728 215.604C386.407 211.646 396.144 198.805 384.355 186.083L384.398 186.116Z" fill="url(#paint0_linear_536_122608)"/>
<path d="M374.519 196.554C372.337 195.293 370.199 193.477 367.897 192.509C366.128 191.759 364.271 191.976 362.589 191.585C354.827 189.736 350.148 180.146 341.984 179.483C336.903 179.07 331.345 178.407 326.243 179.744C318.969 181.658 311.479 183.321 304.216 185.518C305.834 184.735 307.375 183.691 308.765 182.723C313.574 179.342 317.504 174.46 322.107 170.784C327.47 166.5 328.088 158.302 330.857 152.115C331.703 150.223 332.322 149.734 331.638 147.94C331.052 146.374 329.391 144.493 328.642 143.112C331.095 144.015 333.885 146.233 335.796 143.047C334.374 140.155 331.714 138.132 330.194 135.197C332.366 136.077 335.351 138.219 337.631 138.219C337.414 136.121 338.553 134.49 338.868 132.478C339.151 130.673 338.553 128.771 338.651 127.02C338.836 123.475 339.574 119.311 342.093 116.658C339.281 118.452 334.7 119.039 331.443 119.931C328.316 120.779 326.742 122.692 324.213 124.671C322.346 126.128 321.629 127.607 320.153 129.249C319.045 130.489 317.276 131.282 315.865 132.174C309.937 135.882 304.574 139.948 301.806 146.744C300.438 150.104 301.361 152.909 300.742 156.258C300.351 158.378 299.537 160.411 298.462 162.282C296.66 165.391 295.444 168.588 293.697 171.72C292.459 173.949 291.33 176.156 290.386 178.537C289.105 181.799 289.311 184.92 287.455 188.008C287.531 184.659 288.974 181.625 289.181 178.298C289.419 174.405 288.41 170.73 288.67 166.816C288.963 162.445 287.65 158.628 287.248 154.355C286.879 150.452 288.117 146.581 287.921 142.666C287.737 138.817 286.217 134.609 284.035 131.413C281.809 128.173 279.486 125.878 278.466 121.964C277.771 119.322 277.434 116.832 275.35 114.962C273.374 113.2 271.181 111.547 269.227 109.71C265.927 106.611 264.386 102.523 261.346 99.3369C259.924 102.001 259.761 105.078 259.131 108.003C258.295 111.841 256.135 114.179 254.995 117.723C254.181 120.257 254.029 123.203 254.528 125.846C255.169 129.271 254.268 131.913 254.474 135.294C254.854 141.612 255.657 149.103 260.477 153.779C262.66 155.888 264.972 157.226 266.828 159.629C268.652 161.977 268.999 164.609 269.01 167.588C269.01 170.469 268.413 171.502 269.303 174.307C270.563 178.298 270.791 182.016 274.427 184.756C272.148 184.669 270.715 181.647 268.913 180.472C267.186 179.342 265.015 178.885 262.974 178.841C260.13 178.787 255.82 180.385 253.508 182.114C251.152 181.832 249.719 180.124 247.635 179.494C245.8 178.939 242.131 179.244 240.383 179.603C237.007 180.298 233.175 183.321 230.721 185.735C228.908 187.529 227.247 188.964 225.044 190.226C223.122 191.324 221.798 193.042 220.039 194.107C224.295 193.259 228.984 195.499 233.229 196.173C234.651 196.402 236.019 195.945 237.333 196.075C239.406 196.282 241.404 197.282 243.531 197.478C248.004 197.88 252.563 197.511 257.004 197.174C258.469 197.065 260.043 196.826 261.487 197.217C263.126 197.652 264.093 198.739 265.971 198.728C267.653 198.718 269.824 197.63 271.475 197.098C274.427 196.141 277.348 195.999 280.463 195.727L286.705 195.477C288.171 195.999 290.179 194.064 292.057 194.249C294.077 194.444 296.943 195.771 298.951 196.478C304.086 198.283 309.644 200.164 315.148 200.12C318.861 200.098 321.727 198.913 325.494 199.74C330.357 200.805 335.622 202.904 340.605 201.74C342.624 201.262 344.416 200.381 346.467 200.283C347.412 200.24 348.291 200.566 349.268 200.436C352.145 200.044 354.675 197.837 357.584 197.728C361.362 197.576 364.836 199.859 368.592 199.838C371.045 199.838 376.495 199.098 379.024 200.479C377.635 198.924 376.766 197.837 374.53 196.532L374.519 196.554ZM296.378 188.138C297.529 187.42 298.701 187.138 299.895 186.877C298.712 187.279 297.54 187.692 296.378 188.138Z" fill="#CDE0F4"/>
<path d="M379.709 201.001C379.513 200.805 379.274 200.653 379.003 200.501C379.22 200.751 379.448 201.001 379.709 201.273C379.687 201.219 379.502 201.034 379.709 201.001Z" fill="#CDE0F4"/>
<path d="M152.776 136.763C151.202 131.63 149.313 126.281 147.326 121.301C145.557 116.865 141.735 114.32 139.39 110.297C138.229 108.308 138.012 105.818 136.752 103.937C136.329 106.057 135.265 107.394 134.256 109.221C132.714 112.015 132.953 114.288 132.812 117.202C132.671 120.138 131.357 122.519 131.791 125.672C132.247 128.956 132.008 131.283 131.813 134.588C131.552 138.97 131.379 143.45 131.292 147.831C131.216 151.887 130.608 155.182 131.292 159.324C132.03 163.826 134.212 168.175 134.603 172.655C134.896 176.004 134.516 179.081 135.591 182.365C136.09 183.898 136.633 185.518 137.219 187.007C134.581 183.985 131.303 181.201 129.457 177.504C127.688 173.938 128.317 170.078 127.232 166.425C126.808 165.011 126.124 163.728 125.679 162.282C125.028 160.194 124.485 159.955 122.564 158.879C121.207 158.117 120.11 156.171 119.046 155.899C117.711 155.562 114.15 157.291 112.88 157.889C112.913 157.857 112.88 157.867 112.848 157.889C114.65 156.095 116.669 154.866 118.84 153.475C118.058 151.507 117.939 149.832 116.43 148.179C114.726 146.309 113.597 144.406 112.142 142.395C111.643 141.71 109.949 138.915 109.309 138.589C107.897 137.85 104.955 141.014 103.501 141.688C104.326 140.112 105.791 137.567 107.257 136.545C105.281 133.403 101.894 131.565 99.0605 129.401C97.4213 128.14 95.9014 128.673 94.0451 127.792C92.4818 127.053 91.1248 125.813 89.9415 124.585C90.5386 126.825 89.8655 128.89 90.0609 131.065C90.2563 133.229 90.3215 136.001 90.2889 138.459C91.8847 138.491 93.2634 139.394 94.8593 139.079C93.4697 139.655 91.8196 140.536 90.4409 141.34C90.9185 143.515 92.1778 145.157 92.7098 147.288C92.916 148.125 92.4167 149.843 93.7628 150.311C94.881 150.702 98.8108 148.81 99.8313 148.625C98.0943 149.832 96.4659 150.996 94.8375 152.366C95.9014 154.508 97.2476 157.161 98.9954 158.846C102.828 162.543 107.539 166.109 111.979 169.165C112.489 169.513 112.696 169.339 113.217 169.817C113.977 170.502 114.769 171.752 115.464 172.568C116.929 174.297 117.972 176.232 119.101 178.157C119.633 179.07 120.067 180.114 120.599 181.136C121.348 182.593 123.139 183.963 123.269 185.627C120.686 183.8 118.666 181.571 116.387 179.483C115.095 178.298 114.888 176.808 113.879 175.471C112.837 174.079 110.448 172.59 109.081 171.502C107.615 170.339 105.943 169.339 104.098 169.002C101.959 168.621 99.5599 168.088 97.4104 167.882C94.6747 167.61 92.091 168.871 89.2359 168.719C87.0321 168.599 83.8079 168.915 82.1035 167.284C83.1674 168.828 83.8296 170.176 85.2843 171.307C87.0213 172.644 88.6931 173.873 90.0609 175.471C91.3528 176.982 92.1561 178.722 93.2417 180.364C94.425 182.158 96.1945 182.343 98.116 183.169C101.036 184.42 103.772 185.116 106.866 185.746C109.634 186.312 112.793 186.083 115.442 186.866C117.266 187.41 118.525 188.736 120.338 189.356C123.573 190.454 127.308 191.302 130.326 192.89C125.81 192.64 121.663 191.313 117.266 190.628C116.061 190.443 114.661 190.639 113.521 190.291C112.598 190.008 112.229 189.432 111.469 189.084C109.45 188.138 107.213 188.062 105.086 188.291C105.075 188.291 105.042 188.182 105.02 188.182C101.297 188.867 98.572 190.541 95.033 192.14C92.0693 193.488 88.1937 195.456 86.4893 198.479C88.2914 197.598 90.354 197.87 92.3298 197.761C94.4359 197.652 96.4225 198.718 98.4526 198.49C101.72 198.131 104.868 196.239 108.104 197.239C111.784 198.37 114.769 198.142 118.395 197.565C121.999 196.989 125.734 196.293 129.359 195.673C131.01 195.391 132.323 195.76 133.93 195.663C134.581 195.619 135.254 195.282 135.916 195.162C137.892 194.825 138.978 195.26 141.051 195.88C143.483 194.39 144.807 192.063 146.295 188.965C148.26 184.865 149.638 181.386 150.626 176.863C152.005 170.556 152.797 164.043 153.655 157.65C154.654 150.256 155.066 143.982 152.852 136.773L152.776 136.763Z" fill="#CDE0F4"/>
<path d="M61.4668 154.083C61.5645 153.833 61.6514 153.583 61.6948 153.322C61.5754 153.572 61.5102 153.833 61.4668 154.083Z" fill="#CDE0F4"/>
<path d="M91.5484 184.952C88.7042 182.941 86.229 183.017 82.8962 182.56C79.3463 182.06 76.0135 183.615 72.6916 184.854C70.6616 185.616 69.7822 186.986 68.3492 188.453C66.2215 190.661 63.9309 191.791 62.943 194.912C61.9659 192.868 63.5835 190.117 64.072 188.008C64.8862 184.463 64.6799 181.016 65.5484 177.559C63.6269 177.559 63.5618 176.689 61.9985 175.982C63.2795 176.178 64.1371 175.221 65.5918 175.547C65.5376 173.775 66.2432 170.176 65.4833 168.643C64.3217 169.371 63.4424 168.045 62.411 167.566C63.3989 166.881 64.2674 167.914 65.3096 167.153C65.049 165.859 65.1685 164.435 64.5822 163.152C64.0503 161.956 63.5943 161.368 63.2578 160.151C62.7259 158.226 61.1192 156.095 61.4557 154.094C60.9129 155.464 59.7513 156.736 59.2845 158.183C58.8286 159.607 58.2858 160.716 57.6019 161.966C56.2557 164.413 56.5597 166.848 56.158 169.425C55.7346 172.089 54.0845 174.264 54.0954 177.091C54.0954 179.918 54.6599 182.354 55.8649 184.92C56.6465 186.605 56.2883 187.16 55.9626 188.986C55.6804 190.585 56.1037 192.205 55.9843 193.76C54.7142 191.52 54.5839 188.562 53.4549 186.214C52.7927 184.854 51.4465 184.376 50.6432 183.191C49.8181 181.973 49.8724 180.418 49.8073 178.994C49.6879 176.634 49.6662 175.177 48.3092 173.372C47.6361 172.481 47.2344 171.546 46.2574 171.024C44.9113 170.306 43.728 170.067 42.4035 169.143C40.2975 167.664 39.7113 167.251 39.1033 164.663C37.6812 165.924 38.4737 171.317 38.3868 173.264C38.3217 174.688 38.4411 176.232 38.6691 177.591C38.8102 178.428 39.3747 179.092 39.4833 179.733C39.5918 180.331 39.2444 180.984 39.4073 181.527C40.0152 183.56 43.3697 185.757 45.2261 186.681C45.7689 186.953 46.6048 187.018 47.0499 187.41C47.5818 187.866 47.5275 188.617 47.9726 189.073C48.7108 189.823 49.9701 190.117 50.7952 190.802C51.3054 191.226 52.4996 192.237 52.7601 192.846C53.2595 194.02 52.619 195.162 53.4766 196.391C52.3367 196.782 51.4357 195.923 50.5563 195.304C50.209 195.053 49.6227 194.26 49.1559 194.173C48.4177 194.031 47.6687 194.836 46.9847 194.749C45.9534 194.608 45.4975 193.847 44.4119 193.596C43.4674 193.368 42.143 193.172 41.1117 192.944C38.3217 192.313 36.411 193.183 33.6102 194.086C31.6236 194.727 29.8649 195.293 27.8566 196.054C26.8578 196.434 25.5985 196.489 24.6323 197C23.8833 197.402 23.2536 198.457 22.5806 198.326C23.9918 199.142 26.9989 199.066 28.5948 199.098C30.5271 199.131 31.7756 198.739 33.6862 199.055C35.8574 199.414 38.0829 198.979 40.2649 199.229C45.6712 199.859 50.2741 198.87 55.7889 198.478C56.6248 199.327 60.5438 198.131 62.5196 198.326C65.8632 198.663 68.892 197.565 72.1705 197.543C73.5493 197.543 74.9605 197.348 76.3718 197.348C78.2607 197.348 78.8904 196.848 80.8119 196.369C82.0929 196.054 83.5041 196.162 84.6223 195.63C85.5234 195.195 86.6849 193.847 87.4774 193.705C88.6933 192.313 86.9563 189.443 86.7067 187.834C87.6077 188.29 88.3459 189.932 89.1492 190.226C89.9309 190.508 90.9188 189.921 91.7221 189.421C94.143 187.932 95.6845 187.845 98.6265 187.964C96.2273 187.388 93.5785 186.344 91.5484 184.92V184.952Z" fill="#CDE0F4"/>
<path d="M150.909 17.8753C157.162 18.2015 168.582 19.1584 173.402 16.2335C177.104 13.9827 173.272 7.46972 167.562 8.4483C167.942 7.17614 168.126 5.19723 166.65 2.72902C162.047 -2.71843 154.003 0.597881 153.102 7.10003C150.246 6.73034 146.968 6.5455 146.892 10.4707C144.362 9.87268 139.423 11.645 140.845 15.3636C141.909 18.1363 148.336 17.7449 150.909 17.8753Z" fill="#F2F5FB"/>
<path d="M73.5056 181.919C71.2693 181.995 69.7712 182.375 67.7737 183.604C67.8062 184.496 68.7941 185.3 68.5879 186.105C67.9148 185.735 67.2309 184.202 66.6664 184.072C66.3515 183.995 65.8847 184.507 65.6676 184.659C64.8969 185.224 64.0392 185.626 63.5833 186.496C63.1599 187.312 62.8234 187.682 62.1611 188.367C61.0864 189.465 60.663 190.726 59.7946 191.944C59.2626 192.683 58.4484 193.14 57.9165 193.879C57.2977 194.738 57.0263 197 55.8321 197.152C56.1578 195.434 55.9407 194.075 56.9177 192.466C57.9273 190.802 57.8405 189.693 58.1336 187.964C58.3181 186.888 58.9912 186.105 59.306 185.061C59.686 183.822 59.3169 183.615 58.8718 182.452C58.6764 181.94 58.8718 180.56 58.405 180.266C57.8513 179.918 56.3315 180.668 55.6476 180.527C56.2881 179.592 58.0142 179.701 58.1662 178.7C58.2964 177.83 57.3628 176.015 57.1131 175.166C56.8634 174.318 56.6355 174.275 56.0927 173.677C55.5173 173.046 55.5716 172.296 55.1265 171.676C54.3991 170.643 53.3678 171.361 52.3582 171.252C52.825 170.513 53.9215 170.371 54.6054 169.926C53.9866 168.969 53.7912 167.794 53.129 166.827C52.5862 166.044 51.9457 165.305 51.3161 164.576C50.2739 163.369 49.1557 162.63 48.2872 161.249C47.8964 160.64 47.4948 160.194 46.8977 159.781C46.6697 159.618 45.7144 158.802 45.4756 158.77C44.7048 158.672 44.8568 159.879 44.7482 160.499C44.6179 161.303 44.1946 162.097 44.2597 162.934C44.2923 163.423 44.5745 163.88 44.5745 164.391C44.5637 165.098 43.9666 166.566 44.314 167.251C44.9653 168.523 47.4296 167.088 48.309 167.805C47.4405 168.066 44.8025 167.881 44.1511 168.534C43.8037 168.882 43.858 169.817 43.8797 170.317C43.9666 171.959 43.4998 173.601 44.0643 175.232C44.162 175.525 44.3791 175.754 44.4551 176.069C44.5311 176.373 44.3248 176.776 44.4768 177.069C44.7699 177.635 44.7699 177.374 45.1716 177.395C46.4743 177.461 47.929 176.276 49.1883 176.874C48.2438 177.113 46.572 177.776 45.8664 178.461C45.1173 179.19 45.6492 179.885 45.8012 180.897C46.0075 182.245 46.5829 182.528 47.2559 183.604C47.8422 184.539 48.0701 185.398 48.9169 186.214C49.6117 186.888 50.4802 187.399 51.1098 188.116C51.7394 188.823 52.1737 189.737 52.6622 190.53C52.8359 190.813 53.0313 190.813 53.1399 191.117C53.3244 191.661 53.0964 192.335 53.1181 192.89C53.1724 194.586 54.3666 195.847 54.4317 197.587C54.0843 197.369 53.9758 196.837 53.7152 196.456C53.3678 195.934 52.8142 195.619 52.4559 195.119C51.924 194.39 52.0434 193.368 51.5766 192.651C51.1098 191.933 50.4476 192.129 49.7637 191.781C49.1449 191.465 48.0701 190.324 47.4622 190.704C46.7674 191.139 46.496 193.553 46.2138 194.281C45.8772 192.977 46.952 191.454 46.2138 190.248C45.6927 189.399 44.4008 189.334 43.4781 189.378C42.653 189.421 40.547 188.736 40.091 189.454C39.5482 190.313 40.6555 191.672 40.091 192.542C39.8196 191.966 39.9499 191.324 39.7545 190.748C39.5699 190.193 39.1031 189.737 38.886 189.171C37.453 189.519 36.0417 189.867 34.5979 190.171C33.4255 190.422 32.2856 191.009 31.0806 191.107C31.2 192.02 31.9273 192.042 32.4701 192.542C32.8175 192.857 33.2518 193.368 33.5883 193.727C34.1202 194.292 34.0442 194.684 34.7933 194.586C35.5098 194.488 36.2697 193.988 37.0405 193.847C36.5194 194.466 35.2927 195.401 35.6184 195.999C35.9115 196.543 36.7799 196.75 37.2142 197.228C37.8655 197.946 37.909 198.207 38.9403 198.435C40.5252 198.783 41.0029 197.304 41.9799 196.13C41.8822 197.13 40.4275 198.696 41.448 199.294C42.1862 199.729 43.5106 199.62 44.3682 199.696C45.5733 199.805 46.4526 199.957 47.6467 199.74C48.7975 199.533 49.8939 199.392 51.0338 199.207C52.0977 199.022 52.9987 198.533 54.0083 198.359C54.9854 198.228 56.0818 197.75 56.9937 197.598C58.0467 197.424 58.9369 197.924 60.0442 197.62C60.815 197.413 61.4447 197.076 62.2697 197.119C62.9753 197.152 63.7678 197.5 64.4735 197.152C65.4614 196.674 65.0163 195.945 64.9186 194.858C65.2442 195.38 65.6133 195.967 66.015 196.424C66.9052 195.956 67.8822 195.945 68.7616 195.358C69.2935 194.999 69.6952 194.488 70.2054 194.118C70.6939 193.781 71.6167 193.814 71.9966 193.423C73.1148 192.259 70.7916 190.585 70.8242 189.302C71.7144 189.53 72.5829 191.085 73.1582 191.824C74.233 191.335 74.7758 190.258 75.4597 189.345C76.0893 188.508 76.8058 187.736 77.2183 186.746C77.6417 185.703 77.9674 184.887 78.5536 183.909C79.0747 183.039 80.1495 181.94 80.2797 180.918C78 180.984 75.7419 181.81 73.5273 181.886L73.5056 181.919Z" fill="url(#paint1_linear_536_122608)"/>
<path d="M359.386 164.304C358.898 162.76 356.433 161.053 356.531 159.618C356.629 158.117 358.192 158.411 357.649 156.758C357.313 155.747 356.325 155.486 355.738 155.008C354.881 154.323 353.361 152.344 352.471 152.452C350.799 152.648 350.332 156.084 349.333 157.269C348.747 154.888 350.441 152.55 348.801 150.419C347.596 148.843 345.024 148.592 343.265 148.331C341.756 148.114 337.935 147.81 336.534 148.386C333.809 149.517 336.447 152.039 335.633 154.442C333.853 153.192 333.527 150.876 332.648 148.995C331.095 148.777 329.109 149.103 327.589 149.615C325.852 150.202 324.43 151.289 322.617 151.735C321.52 152.007 320.305 151.909 319.219 152.224C314.095 153.692 309.275 158.433 306.876 163.369C304.053 169.175 302.837 175.884 298.473 180.842C296.259 183.354 292.665 184.648 290.114 186.79C288.66 188.019 285.804 192.998 283.666 192.237C283.763 188.019 288.399 186.964 290.928 184.506C292.796 182.691 295.249 181.614 296.986 179.57C298.571 177.711 299.418 175.058 300.047 172.644C301.035 168.806 301.48 164.761 303.076 161.162C303.738 159.661 305.356 157.606 304.835 155.758C303.988 152.746 298.506 151.68 298.202 149.408C300.981 148.897 303.76 152.583 306.496 150.724C308.027 149.68 309.025 146.505 309.698 144.809C312.174 138.6 316.103 134.175 315.311 126.683C314.931 123.106 314.301 119.507 315.029 115.973C315.365 114.331 316.57 111.526 315.257 109.927C313.976 108.373 310.697 109.058 309.123 108.797C308.027 108.612 303.445 107.438 303.293 106.905C305.921 106.35 313.281 107.514 314.768 105.045C315.419 103.969 314.551 101.512 314.518 100.305C314.475 98.4889 314.736 96.6731 314.508 94.8355C313.986 90.7907 311.989 86.8438 310.936 82.9186C310.067 79.6784 311.055 76.4381 310.013 73.2632C307.256 73.2632 304.846 77.0036 303.207 78.939C301.708 80.6896 299.743 81.3202 298.376 83.2447C297.377 84.6474 296.856 86.3219 295.672 87.6158C295.162 88.1812 294.174 88.0398 294.131 88.9423C294.044 90.9864 298.984 92.6283 299.331 94.8138C298.462 94.6289 297.996 93.8787 297.236 93.509C296.498 93.1502 293.751 91.3996 293.186 91.3561C291.308 91.2148 290.787 94.1288 289.984 95.5532C288.312 98.4998 288.041 101.697 286.488 104.578C284.958 107.427 282.385 109.754 281.006 112.841C279.182 116.93 279.41 121.029 278.933 125.433C278.455 129.912 276.034 133.653 276.132 138.35C276.24 143.221 276.327 147.94 276.305 152.779C276.295 157.324 274.319 161.107 274.84 165.739C275.263 169.491 275.839 173.372 276.783 177.037C277.489 179.788 280.832 187.703 278.683 189.976C275.611 187.758 273.906 181.592 273.244 177.896C272.452 173.372 272.072 167.947 269.336 164.228C267.154 161.26 265.211 157.943 264.038 154.464C262.616 150.234 258.404 148.669 255.06 146.048C253.942 145.178 252.227 141.982 251.087 142.166C249.6 142.406 249.47 145.929 248.199 146.798C248.199 144.83 248.265 139.959 247.212 138.448C245.92 136.61 242.88 136.349 241.1 135.795C239.156 135.186 237.593 133.609 235.574 133.131C233.121 132.555 230.895 133.25 228.518 131.88C227.063 131.043 224.892 127.629 223.47 127.912C222.959 130.858 224.718 132.033 225.728 134.479C226.781 137.023 226.216 139.263 226.357 141.764C226.488 144.113 227.66 146.113 228.376 148.255C229.18 150.647 229.614 152.876 232.469 152.072C234.358 151.539 237.821 148.908 239.678 150.963C237.854 153.083 234.575 152.257 232.654 154.388C230.732 156.519 233.587 158.433 234.402 161.151C235.379 164.413 235.954 165.761 238.7 167.512C240.817 168.86 243.108 170.437 244.726 172.481C245.692 173.709 245.822 175.069 247.559 174.525C249.046 174.057 249.459 171.633 251.174 171.47C251.391 173.372 249.187 174.34 249.176 176.102C249.176 177.548 250.295 178.124 251.185 179.135C252.737 180.897 253.551 183.724 256.081 183.571C257.427 183.495 258.361 182.267 259.728 182.299C260.771 182.321 261.552 183.093 262.486 183.517C264.744 184.561 267.186 184.463 269.347 185.681C272.853 187.671 274.547 191.911 277.619 194.281C275.502 192.824 273.396 192.172 271.399 190.432C269.77 189.008 268.022 187.431 265.971 186.779C261.834 185.452 256.005 188.095 252.379 184.963C250.609 183.43 249.86 180.744 248.113 179.179C246.267 177.526 243.683 177.439 241.393 177.102C236.442 176.395 232.784 174.231 227.671 175.536C224.761 176.276 218.465 178.244 216.728 180.973C218.356 182.386 220.777 181.614 222.71 182.277C225.434 183.202 226.965 185.463 228.539 187.877C229.875 189.91 231.275 193.303 233.555 194.412C235.205 195.206 238.147 194.945 239.981 195.206C246.126 196.097 249.567 201.719 256.298 200.414C261.672 199.37 264.874 195.369 270.66 196.076C272.875 196.347 275.111 197.098 277.315 197.185C278.922 197.25 280.528 196.652 282.092 196.837C282.092 196.858 282.092 196.891 282.092 196.913C283.373 196.152 284.621 196.293 285.946 196.543C287.4 196.815 288.421 197.609 290.017 197.63C291.547 197.652 293.034 197.239 294.554 197.108C297.844 196.815 301.6 197.185 304.878 197.902C306.908 198.348 308.884 199.294 310.936 199.609C312.119 199.794 313.422 199.544 314.562 199.838C315.897 200.175 316.472 201.121 317.526 201.74C318.948 202.578 319.99 202.752 321.716 202.85C325.429 203.067 328.544 202.85 331.866 201.219C335.579 199.392 338.64 197.652 342.983 198.033C345.751 198.272 347.64 200.523 350.354 200.642C350.083 196.782 346.012 191.302 342.7 189.66C340.963 188.801 338.944 188.682 337.121 187.942C334.439 186.866 331.736 185.539 328.913 184.757C325.353 183.778 322.389 183.593 319.371 185.605C315.571 188.138 313.433 191.041 308.667 190.911C304.965 190.802 301.535 191.139 297.887 191.433C296.476 191.541 295.108 191.357 293.718 191.618C292.068 191.933 290.679 192.868 288.92 192.727C291.395 190.465 295.238 189.78 298.397 188.997C301.687 188.182 305.204 189.454 308.45 188.475C310.817 187.768 312.597 185.974 314.844 185.061C315.854 184.648 320.044 184.256 320.467 183.202C321.314 181.092 317.547 178.635 316.755 177.189C319.241 176.743 320.934 180.125 323.551 179.82C326.286 179.516 328.783 176.917 330.835 175.264C333.299 173.275 333.299 173.786 332.116 171.165C331.215 169.186 329.793 166.229 329.695 164.174C331.226 164.5 332.539 167.773 333.364 169.132C334.982 171.796 334.884 171.187 337.24 170.534C339.661 169.86 339.357 170.654 339.867 168.295C340.334 166.109 340.584 163.804 340.855 161.564C341.289 164.489 341.941 167.479 341.506 170.361C344.112 170.067 345.892 171.274 348.498 171.361C350.973 171.448 353.198 169.839 355.521 170.078C357.389 170.263 359.126 172.655 360.786 172.492C360.461 169.86 360.179 166.838 359.375 164.293L359.386 164.304ZM282.113 196.804C281.961 196.347 281.788 195.902 281.603 195.467C281.929 195.825 282.179 196.239 282.113 196.804Z" fill="url(#paint2_linear_536_122608)"/>
<path d="M80.7899 177.972C81.9949 178.113 83.2433 176.504 84.5895 176.406C86.283 176.286 87.9114 177.428 89.7135 177.406C91.6133 177.395 92.8834 176.591 94.7832 176.841C94.4358 174.851 94.8701 172.807 95.1523 170.795C95.3803 172.339 95.5757 173.938 95.9448 175.449C96.3465 177.091 96.1076 176.526 97.8772 177.037C99.5924 177.526 99.5381 177.95 100.678 176.145C101.264 175.221 102.176 172.992 103.283 172.796C103.229 174.21 102.23 176.221 101.601 177.569C100.776 179.353 100.765 179.005 102.578 180.418C104.087 181.592 105.932 183.419 107.919 183.68C109.83 183.93 111.013 181.636 112.826 181.984C112.272 182.962 109.558 184.593 110.199 186.061C110.513 186.79 113.564 187.138 114.302 187.442C115.952 188.116 117.266 189.378 118.992 189.91C121.369 190.639 123.91 189.823 126.298 190.443C128.599 191.041 131.4 191.574 133.224 193.183C131.954 193.248 130.923 192.574 129.718 192.335C128.697 192.129 127.709 192.237 126.689 192.129C124.029 191.868 121.532 191.574 118.84 191.585C115.377 191.596 113.792 189.562 111.002 187.747C108.787 186.311 106.638 186.387 104.054 186.996C102.013 187.486 100.059 188.345 98.1268 189.051C96.8133 189.53 95.3369 189.573 94.0884 190.139C91.711 191.215 88.8124 194.912 88.6605 197.565C90.6362 197.532 91.9824 196.021 93.9907 195.902C97.139 195.717 99.3861 196.967 102.111 198.294C104.543 199.479 106.812 199.674 109.515 199.598C110.774 199.555 111.523 199.468 112.554 198.913C113.303 198.5 113.716 197.87 114.682 197.663C115.507 197.489 116.463 197.674 117.32 197.576C118.807 197.391 120.23 196.771 121.706 196.5C124.083 196.065 126.808 195.869 129.207 196.13C130.304 196.249 131.4 196.554 132.508 196.565C133.658 196.576 134.397 196.054 135.45 195.891C136.405 195.738 137.317 195.673 138.25 196.217C138.25 196.195 138.25 196.184 138.25 196.162C139.39 196.065 140.563 196.5 141.724 196.489C143.32 196.467 144.938 195.988 146.555 195.836C150.756 195.456 153.123 198.272 157.042 199.076C161.949 200.088 164.381 196.282 168.843 195.771C170.178 195.619 172.316 195.847 173.511 195.336C175.161 194.618 176.138 192.302 177.082 190.922C178.2 189.291 179.286 187.758 181.251 187.17C182.651 186.746 184.421 187.323 185.582 186.377C184.291 184.474 179.688 183.006 177.571 182.441C173.836 181.451 171.198 182.875 167.616 183.278C165.955 183.463 164.077 183.484 162.752 184.583C161.504 185.626 160.994 187.464 159.724 188.486C157.129 190.585 152.863 188.66 149.866 189.497C148.379 189.91 147.141 190.965 145.969 191.922C144.536 193.085 143.016 193.499 141.496 194.466C143.7 192.89 144.883 189.997 147.402 188.693C148.954 187.888 150.735 187.997 152.363 187.323C153.036 187.04 153.601 186.529 154.35 186.529C155.349 186.529 156.032 187.388 157.02 187.475C158.866 187.627 159.42 185.692 160.527 184.506C161.167 183.832 161.971 183.452 161.949 182.451C161.916 181.234 160.31 180.527 160.44 179.222C161.688 179.374 162.014 181.049 163.1 181.397C164.37 181.799 164.446 180.864 165.13 180.038C166.281 178.657 167.931 177.613 169.45 176.721C171.426 175.569 171.839 174.644 172.501 172.415C173.055 170.556 175.117 169.295 173.684 167.784C172.262 166.283 169.885 166.794 168.539 165.304C169.863 163.924 172.414 165.794 173.793 166.196C175.877 166.805 176.17 165.272 176.724 163.641C177.223 162.173 178.048 160.825 178.113 159.205C178.179 157.487 177.744 155.932 178.483 154.192C179.188 152.528 180.448 151.746 180.046 149.712C179.015 149.484 177.473 151.811 176.431 152.354C174.716 153.246 173.098 152.735 171.318 153.094C169.852 153.387 168.734 154.442 167.334 154.834C166.042 155.192 163.838 155.312 162.926 156.552C162.177 157.574 162.286 160.933 162.307 162.282C161.374 161.651 161.243 159.226 160.158 159.041C159.322 158.9 158.117 161.064 157.313 161.651C154.914 163.391 151.875 164.402 150.887 167.283C150.073 169.665 148.705 171.915 147.152 173.916C145.209 176.428 145.003 180.157 144.471 183.256C144.037 185.789 142.875 190.008 140.66 191.476C139.075 189.878 141.41 184.485 141.887 182.604C142.528 180.103 142.897 177.439 143.168 174.862C143.494 171.687 142.017 169.045 141.952 165.913C141.887 162.586 141.887 159.335 141.909 155.986C141.931 152.757 140.129 150.136 139.727 147.048C139.325 144.004 139.455 141.188 138.077 138.339C137.035 136.186 135.146 134.544 133.995 132.554C132.833 130.543 132.594 128.336 131.346 126.281C130.749 125.291 130.336 123.269 128.969 123.334C128.567 123.356 126.58 124.508 126.048 124.748C125.506 124.987 125.169 125.498 124.539 125.617C124.756 124.117 128.339 123.073 128.241 121.67C128.198 121.04 127.481 121.127 127.112 120.724C126.244 119.811 125.842 118.648 125.093 117.669C124.073 116.321 122.629 115.853 121.532 114.625C120.316 113.265 118.525 110.645 116.517 110.602C115.789 112.765 116.56 115.016 115.963 117.234C115.236 119.92 113.835 122.606 113.51 125.378C113.358 126.639 113.575 127.89 113.564 129.151C113.564 129.978 112.956 131.663 113.434 132.413C114.541 134.131 119.882 133.457 121.793 133.892C121.695 134.262 118.373 134.99 117.581 135.099C116.441 135.251 114.053 134.718 113.141 135.773C112.207 136.849 113.119 138.796 113.379 139.937C113.944 142.384 113.531 144.841 113.293 147.309C112.815 152.452 115.713 155.562 117.592 159.89C118.102 161.075 118.862 163.271 119.991 164.021C121.999 165.348 123.975 162.858 126.005 163.26C125.81 164.815 121.836 165.457 121.261 167.512C120.903 168.784 122.108 170.219 122.607 171.263C123.812 173.775 124.181 176.569 124.941 179.222C125.419 180.897 126.07 182.734 127.243 184.05C128.534 185.485 130.326 186.268 131.704 187.551C133.561 189.28 136.948 190.095 137.067 192.998C135.515 193.477 133.387 190.008 132.312 189.128C130.434 187.605 127.807 186.648 126.168 184.887C122.944 181.397 121.977 176.765 119.86 172.709C118.058 169.273 114.498 165.913 110.752 164.815C109.96 164.587 109.08 164.619 108.277 164.424C106.953 164.087 105.911 163.315 104.64 162.88C103.522 162.499 102.078 162.238 100.949 162.358C100.331 163.641 100.124 165.228 98.8433 166.055C98.2246 164.38 100.113 162.695 98.116 161.869C97.0955 161.444 94.3164 161.586 93.22 161.705C91.939 161.847 90.0717 161.977 89.2141 163.043C88.0525 164.489 89.3118 166.12 88.9101 167.751C88.1719 166.914 87.792 164.543 86.5761 164.38C85.9248 164.293 84.8392 165.62 84.2312 166.087C83.8078 166.403 83.0914 166.566 82.8634 167.262C82.4834 168.392 83.6233 168.218 83.7101 169.251C83.797 170.241 82.0275 171.372 81.6909 172.426C81.1373 174.166 80.9636 176.243 80.7573 178.048L80.7899 177.972ZM138.62 195.162C138.489 195.467 138.37 195.771 138.261 196.075C138.207 195.684 138.392 195.401 138.62 195.162Z" fill="url(#paint3_linear_536_122608)"/>
<path d="M256.754 108.547C256.71 108.112 256.797 107.698 256.754 107.274C256.678 106.502 256.548 105.698 256.374 104.937C256.255 104.415 256.048 103.871 255.809 103.404C255.603 103.012 255.321 102.675 255.093 102.294C254.811 101.805 254.648 101.555 254.214 101.207C253.953 101.001 253.779 100.696 253.41 100.772C253.15 100.816 252.943 101.022 252.791 101.229C252.563 101.533 251.456 100.631 251.369 100.968C251.207 101.555 251.445 104.85 251.576 105.448C251.728 106.1 252.281 106.785 252.672 107.35C252.954 107.764 253.28 108.144 253.606 108.547C253.964 108.992 254.192 109.514 254.496 109.993C254.398 110.395 254.496 110.504 254.659 110.558C254.984 110.667 255.657 110.417 255.961 110.33C256.331 110.221 257.014 110.014 257.025 109.569C257.025 109.242 256.797 108.905 256.765 108.579L256.754 108.547Z" fill="#EFA382"/>
<path d="M255.286 94.9188L250.772 95.8741C250.519 95.9274 250.358 96.1755 250.411 96.4282L252.332 105.535C252.386 105.787 252.633 105.949 252.886 105.895L257.4 104.94C257.652 104.887 257.813 104.639 257.76 104.386L255.839 95.2796C255.786 95.027 255.538 94.8654 255.286 94.9188Z" fill="#45444A"/>
<path d="M255.56 95.999L257.134 103.512L252.531 104.491L250.957 96.9776L255.56 95.999Z" fill="white"/>
<path d="M256.754 106.948C256.83 106.47 256.939 106.024 256.917 105.502C256.895 105.013 256.797 104.513 256.754 104.023C256.7 103.469 256.678 102.904 256.656 102.349C256.656 102.164 256.678 101.718 256.526 101.62C256.309 101.49 256.135 101.729 256.037 101.892C255.723 102.36 255.831 102.871 255.777 103.404C255.723 103.915 255.364 104.393 255.147 104.861C254.974 105.263 254.767 105.676 254.735 106.122C254.659 106.937 254.941 107.883 255.191 108.645C255.343 109.101 255.603 109.786 256.113 109.971C256.559 110.134 256.7 109.819 257.036 109.71C257.036 108.753 256.624 107.949 256.776 106.948H256.754Z" fill="#EFA382"/>
<path d="M308.352 174.188C304.65 169.958 300.156 169.741 298.994 165.609C298.104 162.445 299.385 150.322 297.16 144.015C294.902 137.633 292.079 136.056 290.657 133.294C290.234 132.468 276.588 132.653 276.414 133.359C276.088 134.632 275.111 138.818 274.775 140.068C273.961 143.047 272.462 145.679 271.333 148.582C269.141 154.236 266.503 159.933 265.851 165.968C265.059 173.296 267.621 199.305 268.511 202.491C268.619 202.871 269.499 203.306 270.78 203.187C272.007 203.067 272.984 203.067 273.244 202.632C273.57 202.078 273.114 198.359 275.176 187.279C276.067 182.528 277.76 177.515 276.588 172.785C274.254 163.348 283.34 151.278 284.621 149.669C285.642 148.386 286.912 157.976 287.183 159.042C288.204 163.054 289.267 169.11 290.928 172.938C293.035 177.787 296.248 176.819 308.656 189.117C310.415 190.857 313.737 193.934 314.768 196.184C314.888 196.435 316.103 196.358 316.918 196.021C318.275 195.467 319.262 194.477 318.959 193.879C314.649 185.3 314.562 181.288 308.352 174.188Z" fill="#202020"/>
<path d="M306.637 134.871C306.637 134.871 306.669 134.828 306.68 134.806L306.528 134.349C306.583 134.523 306.626 134.697 306.637 134.871Z" fill="#EFA382"/>
<path d="M311.501 142.536C311.555 141.699 311.642 140.84 311.653 139.992C311.653 138.241 310.144 136.654 309.416 135.164C309.21 134.729 309.047 134.153 308.613 134.001C307.94 133.773 307.05 134.229 306.691 134.806L306.789 135.088C306.691 135.469 307.028 136.534 307.082 137.056C307.158 137.774 307.082 138.481 307.082 139.198C307.082 139.916 307.191 140.557 307.332 141.242C307.397 141.569 307.408 141.982 307.527 142.275C307.723 142.797 307.853 142.699 308.016 142.275C308.276 141.59 308.092 140.655 308.124 139.916C308.711 139.775 309.514 141.493 309.785 141.906C310.328 142.721 310.296 144.124 311.316 144.591C311.663 144.233 311.479 143.026 311.511 142.515L311.501 142.536Z" fill="#EFA382"/>
<path d="M318.079 195.369C318.079 195.369 317.004 194.064 315.571 191.574C315.202 190.944 314.779 189.998 314.247 188.812C312.673 185.311 310.295 180.016 306.398 176.102C303.717 173.405 301.784 172.22 300.384 171.35C299.016 170.513 298.115 169.948 297.453 168.632C295.835 165.413 295.727 159.379 295.64 154.062C295.586 150.996 295.542 148.103 295.206 146.135C294.305 140.851 288.866 134.121 288.812 134.055L289.115 133.805C289.17 133.87 294.674 140.688 295.586 146.07C295.922 148.071 295.976 150.974 296.031 154.062C296.118 159.335 296.226 165.316 297.8 168.458C298.408 169.676 299.277 170.209 300.579 171.013C302.001 171.894 303.956 173.09 306.67 175.819C310.621 179.788 313.02 185.116 314.605 188.649C315.137 189.835 315.55 190.759 315.908 191.379C317.33 193.836 318.361 195.086 318.383 195.119C318.383 195.119 318.307 195.184 318.242 195.249C318.177 195.293 318.079 195.369 318.079 195.369Z" fill="#E2DEDF"/>
<path d="M309.112 133.511C308.667 130.782 307.354 128.564 306.029 126.118C304.618 123.497 303.174 120.757 301.557 118.278C300.688 116.952 299.82 115.658 299.125 114.223C298.539 113.026 298.028 111.776 297.355 110.645C296.346 108.927 295.401 107.514 293.936 106.144C293.263 105.513 292.351 105.187 291.602 104.676C290.972 104.241 290.353 103.763 289.734 103.338C288.28 102.338 286.51 101.914 284.806 101.74C284.133 101.675 283.362 101.599 282.667 101.675C282.211 101.729 280.322 102.36 280.398 102.664C278.607 103.686 276.447 103.936 274.753 105.165C272.886 106.513 271.594 108.601 269.911 110.178C268.413 111.591 266.763 113.2 264.711 113.711C262.692 114.212 260.695 113.581 259.153 112.331C257.72 111.178 257.177 109.33 257.112 108.96C257.015 108.416 256.656 108.84 255.777 109.101C254.496 109.471 253.91 109.166 254.094 109.732C254.311 110.395 254.507 111.341 254.496 112.124C254.442 115.973 256.895 121.04 259.131 122.453C261.552 123.976 263.8 124.443 266.665 124.03C267.871 123.856 268.793 123.302 269.89 122.812C270.357 122.606 271.344 122.106 271.876 122.203C273.472 122.497 273.385 126.64 273.385 127.803C273.385 129.01 273.385 130.206 273.288 131.402C273.201 132.413 273.255 133.435 274.048 134.131C274.938 134.914 275.437 134.773 276.61 134.827C278.401 134.903 280.138 135.436 281.94 135.425C283.058 135.425 284.133 135.175 285.24 135.11C286.239 135.055 287.238 135.153 288.236 135.164C289.582 135.164 291.309 135.632 292.611 135.251C293.805 134.892 295.173 133.338 295.64 132.218C296.313 130.63 295.89 129.01 295.455 127.401C295.336 126.977 295.217 126.216 295.054 125.628C295.076 125.661 295.097 125.694 295.119 125.715C296.812 127.542 298.875 128.782 300.829 130.369C301.958 131.282 302.946 132.272 304.086 133.164C304.9 133.805 305.562 134.501 306.268 135.229C306.919 135.893 307.473 135.599 308.32 135.284C309.373 134.892 309.275 134.577 309.112 133.544V133.511ZM294.804 124.954C294.804 124.954 294.858 125.041 294.891 125.107C294.869 125.052 294.837 124.998 294.804 124.954Z" fill="#FFD815"/>
<path d="M285.435 101.414C284.871 100.631 284.643 99.718 284.339 98.8155C284.067 98.0217 283.752 97.2498 283.459 96.4669C283.025 95.2708 282.786 93.9987 282.352 92.8026C281.712 91.0521 281.18 89.1275 279.975 87.6596C278.976 86.4527 277.695 85.4306 276.218 84.9087C275.1 84.5173 273.7 85.0718 272.734 85.6372L272.278 85.8982C271.843 85.7025 270.617 86.9529 270.4 87.3334C270.172 87.714 269.944 88.1924 269.857 88.6273C269.759 89.0949 269.792 89.6603 269.889 90.1061C269.976 90.541 270.248 90.9107 270.454 91.313C270.91 92.2264 271.181 93.2919 271.42 94.3031C271.767 95.7601 272.126 97.1954 272.549 98.6198C272.864 99.6745 273.7 100.925 274.883 100.827C275.871 100.751 276.75 99.8702 277.706 99.7723C279.247 99.6092 279.378 102.099 279.302 103.154C279.258 103.687 278.911 104.132 279.562 104.372C280.604 104.752 281.972 104.741 283.003 104.372C283.991 104.013 285.001 103.774 285.707 102.926C285.848 102.752 285.978 102.61 286.021 102.371C286.097 101.914 285.696 101.751 285.446 101.403L285.435 101.414Z" fill="#EFA382"/>
<path d="M299.711 104.458C298.376 104.002 296.867 103.001 296.053 101.805C294.88 100.077 294.337 98.0324 293.393 96.1948C292.655 94.7705 291.797 93.4004 291.026 91.9761C289.941 89.9536 287.118 83.1579 282.233 81.5813C279.584 80.7332 276.175 81.179 273.7 82.9513C273.374 83.1905 272.387 83.6581 272.061 83.8103C270.791 83.8647 269.499 85.8871 269.141 87.2897C268.782 88.6815 268.554 91.5955 270.432 91.9108C271.475 91.8021 270.888 90.5517 270.715 89.4861C270.53 88.3118 271.051 87.4637 271.67 88.6924C272.539 90.4321 272.549 91.5846 274.742 90.9322C275.578 90.6821 276.327 90.2472 277.207 90.2363C278.705 90.2363 279.096 91.5085 279.595 92.7154C280.778 95.6077 282.146 98.7065 284.328 100.979C286.011 102.74 288.377 103.784 290.451 104.98C292.068 105.915 293.892 106.296 295.759 106.405C297.214 106.492 299.44 106.687 300.742 105.861C302.088 105.002 300.623 104.73 299.733 104.426L299.711 104.458Z" fill="#202020"/>
<path d="M283.72 93.8352C283.742 93.683 283.927 93.5742 283.851 93.4003C283.807 93.2915 283.612 93.3024 283.536 93.1828C283.46 93.0523 283.579 92.8566 283.514 92.737C283.416 92.5521 283.167 92.5848 282.982 92.5304C283.004 92.1498 282.939 92.1933 282.591 92.1716C282.591 91.7584 282.548 91.6823 282.103 91.7367C282.179 91.2039 281.419 91.4105 281.104 91.3887C280.876 91.367 280.724 91.1821 280.485 91.1821C280.311 91.1821 279.866 91.4322 279.562 91.3778C279.454 91.367 279.345 91.3778 279.237 91.3778C279.248 91.4322 279.215 91.5083 279.237 91.5627C279.117 91.5627 278.998 91.5627 278.889 91.5627C278.889 91.6171 278.868 91.6932 278.889 91.7475C278.77 91.7475 278.65 91.7475 278.542 91.791C278.564 91.8454 278.542 91.9541 278.564 92.0085C278.347 91.9759 278.195 92.0737 278.238 92.3021C278.032 92.2803 277.912 92.4434 278.01 92.6283C277.771 92.6391 277.597 92.8348 277.825 93.0306C277.749 93.0849 277.511 93.2698 277.5 93.3894C277.478 93.596 277.695 93.596 277.695 93.7808C277.695 93.9765 277.445 94.02 277.435 94.2375C277.435 94.3245 277.576 94.281 277.576 94.3571C277.576 94.4658 277.543 94.4984 277.511 94.6072C277.489 94.705 277.37 94.7811 277.402 94.9116C277.435 95.0312 277.521 94.9769 277.554 95.0638C277.587 95.1508 277.652 95.1182 277.663 95.2487C277.673 95.3574 277.532 95.4444 277.532 95.5423C277.554 95.9011 277.684 95.6075 277.847 95.7923C277.945 95.912 277.891 96.1947 277.901 96.3469C278.01 96.3469 278.129 96.336 278.227 96.2925C278.281 96.4447 278.173 96.7383 278.325 96.847C278.444 96.934 278.553 96.7927 278.683 96.9014C278.802 97.0101 278.748 97.2385 278.944 97.282C279.258 97.3472 279.204 96.9558 279.497 97.2167C279.682 97.3798 279.584 97.5212 279.856 97.4886C279.942 97.4777 279.975 97.2928 280.105 97.3037C280.17 97.3037 280.225 97.4451 280.268 97.4777C280.594 97.6952 280.366 97.6299 280.746 97.5321C280.963 97.4777 281.017 97.4886 281.223 97.5973C281.419 97.1841 281.451 97.3907 281.788 97.3037C282.07 97.2276 281.983 96.9123 282.276 96.8797C282.407 96.8688 282.494 97.0319 282.645 96.9449C282.732 96.9014 282.732 96.7057 282.819 96.6405C282.939 96.5535 283.069 96.6622 283.177 96.5317C283.275 96.423 283.156 96.2599 283.232 96.1512C283.308 96.0424 283.547 96.0751 283.623 95.9554C283.731 95.7815 283.601 95.7923 283.623 95.6401C283.644 95.4227 283.84 95.2161 283.818 94.966C283.818 94.8464 283.677 94.8355 283.677 94.7268C283.677 94.5637 283.872 94.4441 283.872 94.3027C283.872 94.0853 283.731 94.0635 283.764 93.8134L283.72 93.8352Z" fill="#BD226E"/>
<path d="M274.069 210.831C274.069 211.777 273.298 212.549 272.354 212.549C271.409 212.549 270.639 211.777 270.639 210.831C270.639 209.885 271.409 209.113 272.354 209.113C273.298 209.113 274.069 209.885 274.069 210.831Z" fill="#202020"/>
<path d="M265.482 211.027C265.482 211.973 264.711 212.745 263.767 212.745C262.823 212.745 262.052 211.973 262.052 211.027C262.052 210.081 262.823 209.309 263.767 209.309C264.711 209.309 265.482 210.081 265.482 211.027Z" fill="#202020"/>
<path d="M267.49 201.11C267.48 200.697 267.816 200.349 268.239 200.371C268.815 200.393 269.662 200.425 270.639 200.425C272.441 200.425 273.45 200.273 273.45 200.273C273.45 200.273 273.45 203.383 273.689 204.633C273.917 205.883 274.775 209.254 273.754 209.635C272.734 210.015 268.837 210.015 267.23 210.015C265.623 210.015 262.801 210.211 261.737 209.852C260.673 209.493 260.825 207.645 262.822 206.775C264.787 205.927 267.176 205.514 267.447 204.035C267.556 203.459 267.534 202.002 267.501 201.099L267.49 201.11Z" fill="#45444A"/>
<path d="M269.879 207.014C269.836 206.84 269.716 206.699 269.608 206.568C269.466 206.394 269.336 206.199 269.184 206.025C268.674 205.438 268.099 204.785 267.36 204.481C267.046 204.35 266.872 204.405 266.6 204.622C266.492 204.709 266.405 204.807 266.329 204.916C266.297 204.97 266.264 205.024 266.231 205.079C266.21 205.122 266.155 205.296 266.166 205.264C266.101 205.416 266.166 205.438 266.21 205.481C266.492 205.742 266.85 205.949 267.143 206.21C267.415 206.449 267.653 206.742 267.881 207.014C268.261 207.471 268.707 208.178 269.401 207.982C269.803 207.873 269.977 207.406 269.868 207.025L269.879 207.014Z" fill="#202020"/>
<path d="M268.706 202.045C268.489 202.024 268.272 202.002 268.044 202.013C267.892 202.013 267.599 202.013 267.501 202.067C267.349 202.1 267.284 202.284 267.306 202.426C267.338 202.6 267.469 202.632 267.632 202.643C267.968 202.654 268.294 202.567 268.63 202.6C268.869 202.622 269.368 202.687 269.466 202.393C269.596 202.013 268.891 202.078 268.695 202.056L268.706 202.045Z" fill="#202020"/>
<path d="M268.62 203.296C268.24 203.296 267.86 203.22 267.491 203.209C267.317 203.198 267.273 203.394 267.284 203.524C267.295 203.709 267.382 203.72 267.545 203.774C267.914 203.883 268.261 203.796 268.641 203.829C268.902 203.85 269.542 203.894 269.488 203.492C269.445 203.187 268.858 203.296 268.62 203.296Z" fill="#202020"/>
<path d="M324.756 201.904C325.233 202.72 324.962 203.774 324.137 204.253C323.323 204.731 322.27 204.459 321.792 203.633C321.314 202.818 321.586 201.763 322.411 201.284C323.225 200.806 324.278 201.078 324.756 201.904Z" fill="#202020"/>
<path d="M317.439 206.406C317.916 207.221 317.645 208.276 316.82 208.754C316.006 209.233 314.953 208.961 314.475 208.134C313.997 207.319 314.269 206.264 315.094 205.786C315.908 205.307 316.961 205.579 317.439 206.406Z" fill="#202020"/>
<path d="M314.182 196.826C313.965 196.467 314.084 196 314.453 195.815C314.963 195.543 315.713 195.141 316.559 194.652C318.123 193.738 318.915 193.097 318.915 193.097C318.915 193.097 320.489 195.782 321.314 196.739C322.139 197.707 324.571 200.186 323.887 201.034C323.203 201.882 319.838 203.85 318.448 204.666C317.059 205.481 314.725 207.069 313.617 207.297C312.51 207.525 311.718 205.851 313.009 204.1C314.28 202.371 316.136 200.817 315.626 199.403C315.43 198.849 314.67 197.609 314.193 196.837L314.182 196.826Z" fill="#45444A"/>
<path d="M319.219 200.719C319.089 200.588 318.915 200.534 318.763 200.479C318.546 200.403 318.34 200.305 318.123 200.229C317.384 199.979 316.559 199.707 315.767 199.816C315.419 199.86 315.3 200.001 315.181 200.316C315.137 200.447 315.105 200.577 315.094 200.708C315.094 200.773 315.094 200.827 315.094 200.893C315.094 200.947 315.137 201.121 315.126 201.077C315.148 201.241 315.202 201.23 315.278 201.241C315.658 201.328 316.06 201.317 316.44 201.393C316.787 201.458 317.146 201.599 317.482 201.719C318.047 201.926 318.774 202.306 319.273 201.784C319.566 201.48 319.48 201.001 319.197 200.719H319.219Z" fill="#202020"/>
<path d="M315.702 197.022C315.506 197.109 315.3 197.207 315.115 197.326C314.985 197.413 314.736 197.566 314.67 197.642C314.551 197.74 314.594 197.946 314.681 198.055C314.801 198.196 314.92 198.153 315.072 198.077C315.376 197.914 315.604 197.674 315.908 197.533C316.125 197.424 316.592 197.24 316.527 196.935C316.451 196.533 315.865 196.957 315.691 197.033L315.702 197.022Z" fill="#202020"/>
<path d="M316.255 198.153C315.919 198.348 315.561 198.468 315.235 198.653C315.083 198.729 315.137 198.925 315.213 199.033C315.322 199.186 315.398 199.153 315.561 199.11C315.93 199.023 316.19 198.773 316.538 198.609C316.776 198.501 317.352 198.218 317.102 197.892C316.918 197.642 316.462 198.033 316.255 198.164V198.153Z" fill="#202020"/>
<path d="M272.05 83.8214C272.05 83.8214 275.48 84.3433 277.206 87.1051C278.932 89.8669 279.269 94.6728 280.724 94.7054C282.32 94.7489 279.649 88.8122 278.357 86.344C277.141 84.0062 274.091 82.8102 273.439 82.7993C272.278 82.7993 272.061 83.8105 272.061 83.8105L272.05 83.8214Z" fill="#BD226E"/>
<path d="M47.7121 205.829C47.7121 205.829 46.1814 205.861 45.6712 206.362C45.161 206.873 57.0591 216.582 57.7647 216.985C58.4704 217.387 59.2846 217.507 59.7514 217.333C60.2073 217.159 60.4353 216.017 60.4353 216.017L47.723 205.818L47.7121 205.829Z" fill="#C1CEEA"/>
<path d="M54.2039 199.239C54.041 199.37 53.8239 199.783 53.6502 200.001C53.4114 200.316 53.1834 200.642 52.9337 200.947C52.1847 201.849 51.1751 202.567 50.2306 203.284C49.8398 203.578 49.4598 203.871 49.1667 204.263C48.8519 204.676 48.9605 205.089 49.1667 205.546C49.8398 207.046 50.9362 208.155 52.2607 209.167C53.6719 210.232 54.877 211.613 56.4511 212.439C56.9396 212.7 57.5909 212.961 58.1446 212.657C58.6005 212.418 58.5028 211.635 58.4594 211.222C58.3617 210.374 57.8298 209.602 57.5801 208.797C57.3195 207.96 57.211 207.307 57.2435 206.437C57.2653 205.926 57.4824 205.524 57.6344 205.046C57.7429 204.687 57.7863 204.306 57.9058 203.948C58.1337 203.219 59.0999 202.11 58.6874 201.371C58.34 200.751 57.2327 200.272 56.6248 199.935C56.2339 199.718 55.8757 199.468 55.5175 199.207C55.3546 199.098 55.2026 198.946 55.0072 198.902C54.7901 198.859 54.6056 198.902 54.4427 199.044C54.5187 199.065 54.5187 199.022 54.2147 199.239H54.2039Z" fill="#EFA382"/>
<path d="M60.4355 216.017C61.1195 214.658 60.2836 213.049 59.7408 211.972C57.8735 208.264 58.7203 206.492 59.0134 205.524C59.1328 205.122 59.4368 204.524 59.1654 204.111C58.9374 203.752 58.3078 203.633 57.9278 203.502C57.613 203.393 56.9182 203.045 56.5817 203.132C56.0714 203.263 56.1149 204.698 55.9412 205.079C55.5829 204.731 52.6193 203.372 52.8798 201.284C53.0535 199.892 52.109 201.371 51.3383 202.078C51.132 202.132 50.8932 202.263 50.6543 202.382C49.5687 202.926 46.4748 205.557 47.061 206.177C49.7858 209.015 54.1282 212.712 57.2547 215.212C58.0038 215.81 59.719 217.398 60.4138 216.017H60.4355Z" fill="#C1CEEA"/>
<path d="M59.6103 209.514C59.6103 209.145 59.5234 208.764 59.4474 208.405C59.3823 208.079 59.1869 207.797 59.1109 207.47C59.1109 207.449 59.1001 207.416 59.0892 207.383C59.556 207.449 60.0011 207.601 60.4679 207.568C61.1627 207.525 62.3786 207.046 62.3026 206.198C62.2157 205.296 61.1084 205.143 60.4136 205.372C59.6863 205.611 59.1652 206.035 58.6332 206.557C58.5464 206.644 58.427 206.731 58.4161 206.829C58.3944 206.851 58.3836 206.872 58.3618 206.894C58.1882 206.753 58.1339 206.568 57.971 206.427C57.7756 206.263 57.5042 206.253 57.2545 206.253C56.5923 206.253 55.7781 206.47 55.2679 206.894C54.7902 207.285 54.7142 207.851 55.2028 208.286C55.6804 208.71 56.2667 208.786 56.842 208.427C57.0808 208.275 57.2763 208.025 57.5042 207.862C57.6562 207.753 57.8516 207.666 57.9819 207.536C58.0362 207.884 58.0145 208.134 57.8516 208.471C57.5694 209.058 57.2871 209.678 56.8963 210.2C56.7443 210.406 56.4295 210.634 56.4295 210.906C56.4295 211.298 56.7769 211.352 57.0483 211.124C57.298 210.917 57.4065 210.624 57.5368 210.352C57.6779 210.058 57.8516 209.797 57.9819 209.493C58.123 209.156 58.2099 208.797 58.2967 208.449C58.3619 208.188 58.3836 207.786 58.5355 207.579C58.731 207.677 58.6658 208.134 58.6984 208.318C58.7527 208.688 58.7961 209.047 58.8829 209.417C58.9915 209.917 58.9155 210.319 58.8504 210.808C58.8178 211.037 58.7092 211.526 59.1109 211.363C59.5886 211.178 59.5886 209.895 59.5994 209.493L59.6103 209.514ZM60.5656 205.937C60.7936 205.883 61.3147 205.937 61.4667 206.133C61.9009 206.687 60.4136 206.981 60.0879 206.97C59.7406 206.959 59.3389 207.003 58.9481 207.003C58.9481 206.992 58.9264 206.97 58.9155 206.959C59.5451 206.753 59.8925 206.1 60.5548 205.937H60.5656ZM56.0495 207.971C55.5502 207.992 55.5827 207.568 55.9084 207.329C56.2341 207.101 56.8529 206.905 57.2545 206.872C57.6345 206.84 57.7973 207.068 57.9927 207.296C57.5911 207.025 56.4403 207.949 56.0604 207.971H56.0495Z" fill="#202020"/>
<path d="M50.6323 203.73C50.4369 203.382 50.2198 203.1 49.9918 202.817C48.6565 203.752 46.583 205.666 47.0824 206.177C48.3091 207.46 49.8724 208.906 51.4899 210.352C51.5008 210.222 51.5116 210.091 51.5225 209.971C51.555 209.352 52.0653 206.329 50.6323 203.73Z" fill="#202020"/>
<path d="M60.4352 216.017C61.0214 214.843 60.4895 213.494 59.9792 212.45C59.697 212.407 59.4147 212.385 59.1759 212.353C57.9492 212.2 56.7333 212.048 55.5066 212.255C55.0181 212.342 54.5187 212.407 54.041 212.548C55.1809 213.505 56.2882 214.418 57.2761 215.212C58.0251 215.81 59.7404 217.398 60.4352 216.017Z" fill="#202020"/>
<path d="M111.979 89.1923C111.99 89.6599 112.761 89.8882 113.163 89.9969C113.499 90.0948 114.27 90.3666 114.628 90.247C114.802 90.1926 114.921 90.073 114.791 89.6381C115.16 89.1271 115.41 88.5725 115.811 88.0941C116.17 87.6701 116.539 87.2678 116.864 86.822C117.299 86.2239 117.918 85.4954 118.091 84.7887C118.243 84.158 118.504 80.6351 118.33 80.0045C118.232 79.6348 116.995 80.6025 116.734 80.2872C116.561 80.0697 116.322 79.8523 116.039 79.7979C115.627 79.7218 115.432 80.048 115.138 80.2654C114.65 80.6351 114.465 80.907 114.151 81.4289C113.901 81.8421 113.575 82.2009 113.347 82.6141C113.076 83.1251 112.848 83.7014 112.707 84.2559C112.5 85.0714 112.37 85.9304 112.272 86.7567C112.218 87.2134 112.316 87.6592 112.272 88.1267C112.24 88.4856 111.968 88.8335 111.979 89.1923Z" fill="#EFA382"/>
<path d="M111.936 84.3647L116.235 85.2346C116.724 85.3324 117.212 85.028 117.31 84.5604L119.307 75.5466C119.416 75.0791 119.101 74.6115 118.602 74.5136L114.303 73.6438C113.814 73.5459 113.326 73.8504 113.228 74.3179L111.23 83.3318C111.122 83.7993 111.437 84.2669 111.936 84.3647Z" fill="#45444A"/>
<path d="M113.608 74.709L111.838 82.7442L117.006 83.7881L118.775 75.7528L113.608 74.709Z" fill="white"/>
<path d="M112.273 86.4197C112.197 85.9087 112.055 85.4303 112.088 84.8757C112.11 84.3538 112.218 83.821 112.273 83.2882C112.338 82.7011 112.349 82.0922 112.381 81.4942C112.381 81.2985 112.359 80.82 112.533 80.7222C112.772 80.5808 112.967 80.8418 113.087 81.0049C113.445 81.5159 113.315 82.0487 113.38 82.625C113.445 83.1686 113.847 83.6797 114.086 84.1907C114.281 84.6256 114.509 85.0606 114.552 85.539C114.639 86.4088 114.324 87.42 114.042 88.2464C113.879 88.7357 113.575 89.4751 113.011 89.6599C112.511 89.8339 112.349 89.4968 111.979 89.3772C111.979 88.3551 112.446 87.4853 112.273 86.4197Z" fill="#EFA382"/>
<path d="M79.9326 220.431C79.9326 220.431 78.8036 221.421 78.771 222.117C78.7385 222.823 94.3819 222.649 95.1961 222.508C96.0103 222.367 96.7051 221.943 96.9222 221.519C97.1393 221.095 96.5314 220.094 96.5314 220.094L79.9326 220.42V220.431Z" fill="#C1CEEA"/>
<path d="M80.269 211.385C80.2364 211.581 80.3558 212.037 80.3775 212.309C80.421 212.701 80.4644 213.081 80.4861 213.473C80.5404 214.625 80.2798 215.799 80.0627 216.93C79.9759 217.398 79.889 217.854 79.9324 218.333C79.9759 218.833 80.345 219.083 80.8118 219.301C82.3533 220.007 83.9383 220.149 85.6318 220.073C87.4339 219.986 89.2794 220.268 91.0489 219.899C91.5917 219.79 92.2648 219.572 92.4711 218.996C92.6448 218.529 92.0368 218.007 91.722 217.724C91.0598 217.148 90.137 216.898 89.388 216.452C88.6172 215.995 88.0853 215.56 87.5099 214.886C87.1734 214.495 87.054 214.049 86.8368 213.592C86.674 213.255 86.446 212.94 86.2832 212.592C85.9575 211.907 85.9141 210.461 85.0999 210.167C84.416 209.917 83.2435 210.254 82.5596 210.385C82.1145 210.472 81.6694 210.493 81.2243 210.537C81.0289 210.548 80.8009 210.537 80.6272 210.635C80.4318 210.743 80.3233 210.885 80.3016 211.091C80.3775 211.059 80.345 211.026 80.2581 211.385H80.269Z" fill="#EFA382"/>
<path d="M72.4309 166.576C70.1512 167.283 64.4084 177.406 59.6969 184.735C54.9854 192.052 53.8021 198.098 53.6284 199.642C53.4439 201.186 57.048 203.023 58.2313 202.74C59.4146 202.458 59.8489 201.751 66.1888 194.575C72.5178 187.398 81.3545 175.579 81.3545 175.579C81.3545 175.579 74.7324 165.87 72.4418 166.576H72.4309Z" fill="#45444A"/>
<path d="M66.3194 137.458C65.7115 138.448 63.8117 143.123 63.9637 150.702C64.1157 158.28 68.2301 171.643 69.1203 176.71C69.9996 181.777 69.1203 183.691 71.628 191.389C74.1357 199.076 78.9883 211.037 80.3128 211.885C81.6372 212.733 85.4693 212.592 86.0556 211.885C86.6418 211.178 83.4176 182.06 82.7445 176.993C82.0714 171.926 84.286 173.34 86.1207 169.393C87.9662 165.457 83.9929 136.556 83.9929 136.556L66.3194 137.447V137.458Z" fill="#45444A"/>
<path d="M66.5037 94.3353C64.8753 94.6942 63.2795 95.3683 61.7379 96.0207C59.8164 96.8253 57.9275 97.532 56.7008 99.2609C50.4043 108.133 51.0122 115.929 51.5659 117.104C51.8699 117.745 53.6177 117.278 54.0845 116.756C55.2135 115.484 55.7129 113.624 56.4619 112.146C57.0373 110.982 57.5258 109.721 58.2857 108.655C59.2302 107.34 60.2072 106.002 61.2711 104.774C62.1613 103.741 62.7692 102.501 63.6594 101.446C64.6582 100.239 65.9392 99.1195 67.155 98.1083C68.0561 97.3472 71.6494 96.5317 71.8448 95.2704C71.8774 95.0421 68.8051 93.846 66.5145 94.3462L66.5037 94.3353Z" fill="#202020"/>
<path d="M72.2792 96.3901C72.1598 95.966 72.0512 95.3137 71.541 95.3137C71.5302 95.3572 71.5193 95.3789 71.5084 95.4006C71.4433 95.3354 71.3239 95.2375 71.1068 95.0962C66.9924 95.8682 62.4437 98.4343 59.7515 101.457C52.2391 109.873 53.4441 126.193 54.0521 129.521C54.3452 131.141 54.6926 133.011 55.3765 134.511C55.8216 135.501 56.2667 136.817 57.2112 137.447C58.2533 138.143 60.2942 138.187 61.5427 138.306C62.9105 138.437 64.3435 138.426 65.7222 138.426C66.1673 138.426 67.0358 138.578 67.4375 138.426C68.2408 138.121 68.4905 136.556 68.6859 135.827C69.7932 131.543 70.0863 127.096 70.3034 122.703C70.6074 116.658 70.7811 110.59 71.8558 104.61C72.1924 102.762 72.3009 100.881 72.3769 99.0105C72.4203 98.1189 72.518 97.2273 72.2901 96.3901H72.2792Z" fill="#202020"/>
<path d="M70.0106 137.599C68.0239 137.567 67.9154 138.513 67.4703 140.133C67.0686 141.601 66.4498 143.188 66.3195 144.7C66.2001 146.178 66.5258 147.646 66.7321 149.027C66.9275 150.365 66.5909 152.061 67.1663 153.311C67.8068 152.18 67.0578 150.332 67.6765 149.136C68.2845 147.972 69.7935 147.853 70.7705 147.07C73.0937 145.189 74.5918 141.927 74.277 139.013C74.3747 137.86 71.0419 137.621 70.0106 137.61V137.599Z" fill="#202020"/>
<path d="M83.2548 168.262C82.8857 164.847 82.9834 161.346 82.8097 157.845C82.7662 156.953 82.5817 153.257 82.2234 152.506C82.4188 154.203 81.8001 156.192 81.7132 157.921C81.6264 159.661 81.4961 161.335 81.4961 163.129C81.4961 166.739 81.6698 170.056 82.3429 173.361C82.4514 173.905 82.5274 174.535 82.636 175.177C82.6794 173.535 83.2656 172.97 84.0581 172.219C83.765 170.969 83.4284 169.697 83.2656 168.272L83.2548 168.262Z" fill="#202020"/>
<path d="M67.9803 171.654C67.8501 171.839 67.7307 172.024 67.6004 172.22C67.6112 172.622 67.633 173.024 67.6438 173.47C67.7198 175.71 67.3507 177.754 67.0467 179.94C66.6993 182.473 65.3641 184.669 65.0058 187.181C64.7018 189.323 64.311 191.465 63.3014 193.444C62.5198 194.988 61.673 195.945 61.1737 197.609C60.7503 199.022 59.9578 200.207 59.8384 201.664C60.848 200.664 62.5415 198.685 66.1674 194.564C67.6547 192.879 69.2722 190.943 70.8897 188.964C69.2939 183.212 69.9018 181.19 69.1094 176.699C68.8922 175.449 68.4797 173.698 67.9695 171.654H67.9803Z" fill="#202020"/>
<path d="M84.9156 136.578C84.8613 136.078 84.8721 135.566 84.8287 135.066C84.807 134.816 84.8179 134.055 84.6333 133.881C84.4053 133.653 83.6237 133.751 83.3089 133.762C82.2016 133.816 81.1051 133.957 80.0087 134.077C77.6095 134.338 75.1669 134.251 72.7569 134.251C71.1068 134.251 69.4676 134.088 67.8175 134.044C66.9598 134.022 66.1891 134.262 65.3532 134.327C65.3314 134.349 65.3423 134.37 65.364 134.392C65.4183 134.37 65.44 134.316 65.2012 134.566C65.2446 135.219 65.1686 135.893 65.2337 136.534C65.288 137.078 65.2989 137.861 65.744 138.252C66.569 138.981 68.2517 139.013 69.283 139.155C69.9561 139.252 70.6834 139.198 71.3782 139.198C72.073 139.198 72.7352 139.274 73.4191 139.307C74.0596 139.339 74.711 139.307 75.3515 139.339C75.764 139.361 76.1657 139.405 76.5782 139.339C77.0233 139.263 77.4467 139.144 77.8918 139.111C80.2149 138.915 82.6033 138.872 84.807 138.143C84.9481 137.643 84.9373 137.089 84.8939 136.578H84.9156Z" fill="#202020"/>
<path d="M85.621 118.604C85.5016 116.691 85.4256 114.701 85.5341 112.765C85.6101 111.243 85.4473 109.503 85.7512 108.003C85.6753 108.297 85.6318 108.601 85.5341 108.895L85.9032 107.068C85.697 106.144 84.9588 105.752 84.1337 105.23C81.322 103.425 77.403 103.132 74.1245 103.121C71.53 103.121 68.0778 102.806 65.798 104.306C63.8222 105.611 63.4531 108.199 63.1166 110.275C62.7366 112.668 62.6715 115.081 62.3567 117.484C61.8464 121.333 62.107 125.509 62.9646 129.293C63.3554 131.021 63.3663 133.838 65.0707 134.903C66.6773 135.893 69.0114 135.838 70.8677 135.838C73.2452 135.838 75.6552 136.012 78.0544 135.903C79.3897 135.838 80.7358 135.61 82.0711 135.479C83.1024 135.382 84.3183 135.469 85.1433 134.849C86.6523 133.718 86.4786 132.207 86.6306 130.597C87.0214 126.64 85.8707 122.562 85.621 118.604Z" fill="#45444A"/>
<path d="M82.8857 80.0151V80.1347C82.8857 80.1347 82.9075 80.0695 82.8857 80.0151Z" fill="#EFA382"/>
<path d="M83.157 87.4524C83.157 86.3216 83.1028 85.2125 83.1028 84.0708C83.1028 83.0596 82.6034 79.2432 82.6034 79.2432C82.5925 79.2649 81.8109 79.6563 81.1378 79.4824C78.8798 78.8844 76.1007 79.4389 74.2769 80.9068C72.236 82.5486 71.7149 85.5605 71.6172 87.9634C71.5412 89.7793 71.4 91.2036 71.0092 93.0412C70.1733 96.9555 66.8623 97.3905 67.557 98.4778C68.241 99.5651 72.8222 101.098 74.0815 101.272C75.7641 101.511 78.1416 101.609 79.7157 100.946C80.2476 100.729 80.9207 100.315 80.7904 99.6847C80.6819 99.1737 80.1174 98.9127 79.77 98.5648C78.489 97.2709 78.6301 95.6616 78.8147 94.0089C78.8689 93.4761 78.8906 92.8781 79.0861 92.3997C79.3249 91.8017 79.6289 91.7473 80.2476 91.7147C81.3224 91.6712 82.2777 91.5733 82.8531 90.6165C83.4393 89.6488 83.1679 88.518 83.1679 87.4415L83.157 87.4524Z" fill="#EFA382"/>
<path d="M74.3854 75.5248C66.9165 77.1231 67.861 83.3861 67.861 83.3861C67.861 85.3758 67.0902 87.4526 67.9804 89.4424C68.3604 90.2796 69.6957 90.9864 70.5641 91.1386C71.4326 91.2908 73.2239 91.7149 73.8752 91.0408C74.6134 90.2796 74.3637 89.2684 73.7775 88.5508C73.2781 87.931 72.4857 86.4414 73.7775 86.0391C74.1792 85.9086 74.7328 86.387 74.9717 85.7999C75.1345 85.3976 74.646 84.8104 74.7763 84.2885C74.9391 83.6144 75.0694 81.4289 75.6447 81.0809C76.3721 80.646 81.7892 80.0154 82.6468 79.9936C84.3838 79.9501 79.846 74.3396 74.3854 75.503V75.5248Z" fill="#BD226E"/>
<path d="M86.5547 77.0578C85.4582 77.1448 82.4945 77.645 82.4945 77.645C82.4945 77.645 81.6152 76.4598 81.2027 76.0357C80.1388 74.9484 78.8361 74.0351 77.338 73.7198C73.7229 72.9478 70.2707 74.2525 68.2298 76.5577C66.5146 78.504 65.9609 81.8094 67.6545 84.7669C72.9956 84.2341 78.2499 81.842 78.2499 81.842C80.1171 81.6789 85.7948 80.9287 88.9647 78.8193C91.8849 76.873 88.335 76.9056 86.5655 77.0578H86.5547Z" fill="#202020"/>
<path d="M96.5206 220.105C96.0972 218.648 94.3603 217.963 93.2204 217.495C89.258 215.886 88.6826 214.016 88.2267 213.103C88.0421 212.722 87.8467 212.081 87.3691 211.95C86.9565 211.83 86.392 212.135 86.0121 212.276C85.6972 212.396 84.9373 212.57 84.7419 212.842C84.4488 213.255 85.4801 214.31 85.5995 214.712C85.0893 214.668 81.9302 215.517 80.6818 213.777C79.8567 212.624 80.1607 214.331 80.063 215.343C79.9436 215.517 79.8567 215.767 79.759 215.995C79.3248 217.082 78.7928 221.018 79.6722 221.105C83.678 221.529 89.486 221.573 93.5786 221.497C94.5448 221.475 96.944 221.595 96.5098 220.116L96.5206 220.105Z" fill="#C1CEEA"/>
<path d="M91.4184 215.723C91.1687 215.441 90.843 215.212 90.5282 214.995C90.2459 214.788 89.9203 214.701 89.6272 214.506C89.6054 214.495 89.5837 214.473 89.5512 214.451C89.9528 214.212 90.3871 214.038 90.7236 213.723C91.223 213.255 91.7983 212.124 91.1578 211.537C90.4739 210.907 89.5295 211.494 89.1603 212.103C88.7804 212.744 88.6827 213.386 88.6393 214.114C88.6393 214.234 88.6067 214.375 88.661 214.462C88.661 214.484 88.661 214.516 88.661 214.538C88.4439 214.538 88.2702 214.429 88.0422 214.429C87.7816 214.429 87.5645 214.593 87.38 214.745C86.8806 215.169 86.4246 215.843 86.3269 216.474C86.2401 217.072 86.5766 217.539 87.2388 217.561C87.8902 217.583 88.3787 217.267 88.5633 216.637C88.6393 216.365 88.6176 216.06 88.6718 215.789C88.7044 215.615 88.8021 215.43 88.813 215.245C89.0952 215.473 89.2472 215.68 89.3666 216.028C89.562 216.637 89.7683 217.289 89.8334 217.931C89.8551 218.181 89.79 218.55 89.9637 218.757C90.2351 219.051 90.5282 218.877 90.5716 218.529C90.615 218.213 90.4956 217.931 90.4088 217.648C90.3111 217.343 90.2677 217.028 90.1482 216.724C90.018 216.376 89.8443 216.06 89.6597 215.734C89.5294 215.495 89.2689 215.191 89.2472 214.93C89.4643 214.886 89.7249 215.267 89.8768 215.386C90.17 215.636 90.4522 215.865 90.767 216.093C91.1904 216.408 91.4075 216.756 91.7006 217.159C91.8309 217.343 92.0915 217.778 92.2869 217.409C92.5257 216.963 91.6247 216.006 91.3641 215.702L91.4184 215.723ZM89.6814 212.429C89.8117 212.244 90.2351 211.95 90.4956 212.005C91.2013 212.146 90.2894 213.31 90.0397 213.505C89.7683 213.712 89.4969 214.005 89.2038 214.245C89.1821 214.245 89.1712 214.245 89.1495 214.234C89.4752 213.679 89.3015 212.972 89.6814 212.44V212.429ZM87.6839 216.8C87.3257 217.137 87.0543 216.8 87.1411 216.408C87.228 216.039 87.5645 215.495 87.8359 215.223C88.0965 214.962 88.3787 215.028 88.6827 215.082C88.1942 215.136 87.9553 216.55 87.6839 216.8Z" fill="#202020"/>
<path d="M80.6706 217.017C80.2906 216.876 79.9215 216.8 79.5524 216.734C79.1942 218.278 78.9554 221.018 79.6827 221.095C81.4957 221.29 83.6668 221.399 85.8815 221.464C85.8055 221.355 85.7186 221.258 85.6426 221.16C85.241 220.67 83.5474 218.072 80.6706 217.017Z" fill="#202020"/>
<path d="M96.5206 220.105C96.1515 218.855 94.8271 218.17 93.7306 217.713C93.4918 217.865 93.2638 218.017 93.0576 218.148C92.0263 218.811 91.0167 219.453 90.235 220.388C89.9311 220.757 89.5945 221.127 89.334 221.529C90.8538 221.529 92.3085 221.529 93.6004 221.497C94.5666 221.475 96.9657 221.595 96.5315 220.116L96.5206 220.105Z" fill="#202020"/>
<path d="M115.171 89.3444C112.902 88.7247 112.273 87.4525 112.153 87.8004C110.46 89.6271 109.07 91.7148 106.856 93.1283C102.003 96.2163 95.5654 98.8476 89.6706 98.8911C87.1846 98.9128 85.1111 99.0868 82.8314 98.293C80.1608 97.358 80.1391 96.7708 80.0088 94.1286C77.1537 93.9873 74.5157 93.7698 71.9646 92.813C70.347 92.2041 70.5207 92.0084 70.0105 93.6285C69.1529 96.6186 63.7575 101.827 63.0301 103.403C61.8251 106.002 60.0773 111.83 73.8318 110.504C76.8497 110.46 85.5996 111.221 85.1871 111.83C86.1641 111.189 87.684 111.297 88.8673 111.069C91.0493 110.634 93.3508 109.982 95.3591 109.09C102.144 106.067 108.571 102.316 112.142 95.9336C113.033 94.3352 115.877 89.5293 115.182 89.3444H115.171Z" fill="#45444A"/>
<path d="M64.6802 97.4123C65.7983 96.7381 66.2325 96.6294 66.2325 96.6294C66.2325 96.6294 73.2889 98.5757 75.8401 102.827C88.7044 124.302 67.4593 134.577 62.0964 134.153C60.0338 133.99 60.8046 130.76 60.8046 130.76C60.8046 130.76 64.8538 130.989 70.3035 126.846C75.7532 122.692 80.2693 113.265 71.172 101.87C68.3929 98.3908 62.9975 98.6409 62.9975 98.6409C62.9975 98.6409 63.9202 97.8907 64.6802 97.4231V97.4123Z" fill="#202020"/>
<path d="M82.4401 116.071C82.2121 115.538 81.8539 114.951 81.4848 114.505C81.2242 114.201 80.6489 113.276 80.2689 113.255C79.6067 113.222 79.9107 114.451 79.7478 114.907C79.5741 115.407 79.2159 115.853 78.9771 116.321C78.6514 116.951 78.684 117.397 78.76 118.104C78.8142 118.626 79.0856 119.583 78.4668 119.865C76.2414 120.094 75.9265 122.268 76.3391 123.791C78.4234 123.802 80.6055 122.323 81.7019 120.703C82.6138 119.354 83.0806 117.582 82.4401 116.06V116.071Z" fill="#EFA382"/>
<path d="M62.487 104.469C61.13 107.807 60.3483 111.613 59.7295 115.255C59.2302 118.169 58.112 121.975 60.9128 124.052C63.5291 125.998 73.9074 127.89 80.4644 122.486C80.8769 122.138 79.0857 119.268 78.5103 119.724C75.5575 120.572 72.1922 119.931 71.7688 116.354C71.53 114.353 72.3333 112.537 72.811 110.645C72.8327 110.558 65.8414 96.2274 62.4978 104.458L62.487 104.469Z" fill="#45444A"/>
<path d="M121.087 29.39C120.772 29.3683 120.447 29.3574 120.121 29.3574C119.795 29.3574 119.47 29.3683 119.155 29.39C109.884 30.0207 104.38 40.1436 108.353 48.5594L120.121 67.3265L131.889 48.5594C135.862 40.1545 130.358 30.0207 121.087 29.39ZM120.121 48.3746C116.756 48.3746 114.031 45.6454 114.031 42.2747C114.031 38.9041 116.756 36.1749 120.121 36.1749C123.486 36.1749 126.211 38.9041 126.211 42.2747C126.211 45.6454 123.486 48.3746 120.121 48.3746Z" fill="#9E1F63"/>
<path d="M75.9373 47.8417C76.8601 41.2852 67.5565 40.6763 66.0692 46.7435C64.278 45.1017 61.6943 46.276 61.6074 48.6681C59.8271 48.7659 58.3615 48.418 58.6221 50.7992C56.5486 49.5488 53.4112 52.5498 55.0396 54.2025C57.5148 56.7033 75.5356 55.6921 78.2713 54.3547C79.498 53.7567 80.7899 52.5498 80.2145 50.9406C79.6283 49.2987 78.1193 47.7874 75.9482 47.8417H75.9373Z" fill="#F2F5FB"/>
<path d="M318.123 36.5012C320.023 25.6716 304.618 24.1602 301.817 34.1309C298.94 31.3039 294.587 33.1088 294.316 37.0775C291.352 37.1428 288.953 36.4795 289.246 40.4591C285.87 38.2627 280.496 43.0686 283.112 45.8957C287.075 50.1905 317.037 49.5055 321.64 47.4396C323.714 46.5046 325.917 44.5909 325.049 41.8835C324.159 39.1217 321.749 36.5339 318.134 36.5121L318.123 36.5012Z" fill="#F2F5FB"/>
<path d="M105.172 263H158.67C162.883 251.822 167.344 241.134 170.156 237.567C175.074 231.326 182.163 227.249 187.428 221.269C192.791 215.18 196.938 207.09 199.478 199.392C202.138 191.313 205.612 183.571 208.597 175.58C210.193 171.306 211.517 166.674 213.417 162.564C214.6 160.009 217.911 153.17 217.738 150.169C217.358 143.895 212.559 145.961 210.193 150.702C208.63 153.811 203.907 160.683 201.964 163.586C199.999 166.533 197.687 169.36 195.537 172.263C199.869 165.587 204.092 158.737 207.87 151.8C210.128 147.657 215.349 138.72 213.211 133.827C211.246 129.336 206.665 133.218 204.765 135.762C201.508 140.144 197.665 148.125 194.582 152.637C190.63 158.422 184.703 164.021 182 170.611C184.334 165.315 197.35 134.892 199.847 128.151C202.105 122.029 194.756 118.18 191.358 122.703C187.243 128.183 183.433 139.698 180.545 145.602C177.093 152.659 172.251 159.585 169.288 166.761C166.856 165.337 173.141 153.061 174.108 150.517C176.29 144.798 180.751 138.546 181.425 132.609C181.718 130.043 181.805 127.542 179.308 127.466C177.191 127.401 174.737 129.814 173.348 131.174C169.049 135.338 167.562 139.318 165.206 144.406C160.038 155.529 154.491 166.294 150.322 177.972C149.334 180.744 147.641 183.963 146.989 186.768C146.49 188.899 147.011 191.802 147.011 194.01C147.011 200.251 147.293 205.72 146.164 211.874C143.906 224.204 116.951 248.549 105.172 262.989V263Z" fill="#EFA382"/>
<path d="M150.529 181.821C150.529 184.626 145.459 184.474 146.99 186.779C148.553 189.149 148.336 195.804 149.302 198.5C151.202 203.795 158.074 203.371 159.127 209.341C160.473 216.919 165.586 217.093 169.277 216.909C173.923 216.68 177.679 212.244 181.49 209.71C183.14 208.612 184.486 207.634 186.408 207.253C187.841 206.97 189.458 207.231 190.956 207.003C194.984 206.405 199.348 203.121 198.078 198.642C196.96 194.716 191.966 195.641 188.633 196.326C185.463 196.989 182.337 197.511 179.08 197.402C174.683 197.261 172.87 195.521 169.765 192.683C168.973 191.965 150.572 173.003 150.529 181.799V181.821Z" fill="#E58864"/>
<path d="M186.198 76.9654L133.198 90.8325C130.297 91.5914 128.56 94.5616 129.318 97.4666L157.941 207.213C158.699 210.118 161.664 211.858 164.565 211.099L217.565 197.232C220.466 196.473 222.203 193.503 221.445 190.597L192.822 80.8514C192.064 77.9463 189.099 76.2065 186.198 76.9654Z" fill="#202020"/>
<path d="M191.021 88.6538L134.546 103.44L158.532 195.34L215.007 180.554L191.021 88.6538Z" fill="#D6E491"/>
<mask id="mask0_536_122608" style="mask-type:luminance" maskUnits="userSpaceOnUse" x="134" y="88" width="82" height="108">
<path d="M191.021 88.6538L134.546 103.44L158.532 195.34L215.007 180.554L191.021 88.6538Z" fill="white"/>
</mask>
<g mask="url(#mask0_536_122608)">
<path d="M139.553 128.586C139.303 128.521 139.054 128.673 138.989 128.923L138.533 130.717C138.468 130.967 138.62 131.217 138.869 131.282C138.913 131.282 138.945 131.293 138.989 131.293C139.195 131.293 139.379 131.152 139.434 130.945L139.89 129.151C139.955 128.901 139.803 128.651 139.553 128.586Z" fill="#6D6E71"/>
<path d="M138.402 133.055C138.153 132.989 137.903 133.142 137.838 133.392L137.382 135.186C137.317 135.436 137.469 135.686 137.718 135.751C137.762 135.751 137.794 135.762 137.838 135.762C138.044 135.762 138.229 135.621 138.283 135.414L138.739 133.62C138.804 133.37 138.652 133.12 138.402 133.055Z" fill="#6D6E71"/>
<path d="M137.263 137.535C137.013 137.469 136.763 137.622 136.698 137.872L136.242 139.666C136.177 139.916 136.329 140.166 136.579 140.231C136.622 140.231 136.655 140.242 136.698 140.242C136.904 140.242 137.089 140.101 137.143 139.894L137.599 138.1C137.664 137.85 137.512 137.6 137.263 137.535Z" fill="#6D6E71"/>
<path d="M140.769 124.128C140.53 124.041 140.27 124.171 140.183 124.41C139.966 125.041 139.792 125.661 139.662 126.248C139.608 126.498 139.77 126.748 140.02 126.792C140.053 126.792 140.085 126.792 140.118 126.792C140.335 126.792 140.519 126.639 140.563 126.422C140.682 125.878 140.845 125.291 141.051 124.693C141.138 124.454 141.008 124.193 140.769 124.106V124.128Z" fill="#6D6E71"/>
<path d="M154.144 113.353C153.492 113.353 152.863 113.418 152.244 113.505C151.994 113.537 151.82 113.777 151.853 114.027C151.886 114.255 152.081 114.418 152.309 114.418C152.331 114.418 152.352 114.418 152.374 114.418C152.949 114.331 153.547 114.288 154.155 114.277C154.404 114.277 154.61 114.059 154.61 113.809C154.61 113.559 154.404 113.353 154.155 113.353H154.144Z" fill="#6D6E71"/>
<path d="M145.383 116.614C144.905 117.017 144.449 117.462 144.015 117.93C143.841 118.115 143.852 118.408 144.037 118.582C144.123 118.669 144.232 118.702 144.351 118.702C144.471 118.702 144.601 118.648 144.688 118.55C145.1 118.104 145.535 117.691 145.98 117.31C146.175 117.147 146.197 116.854 146.034 116.658C145.871 116.462 145.578 116.44 145.383 116.604V116.614Z" fill="#6D6E71"/>
<path d="M142.908 120.04C142.691 119.898 142.408 119.964 142.267 120.17C141.931 120.692 141.605 121.236 141.312 121.801C141.192 122.03 141.279 122.301 141.507 122.421C141.572 122.454 141.648 122.475 141.724 122.475C141.887 122.475 142.05 122.388 142.137 122.225C142.419 121.692 142.723 121.171 143.049 120.67C143.19 120.453 143.125 120.17 142.919 120.029L142.908 120.04Z" fill="#6D6E71"/>
<path d="M149.476 114.201C148.879 114.418 148.303 114.69 147.739 114.994C147.511 115.114 147.435 115.397 147.554 115.625C147.641 115.777 147.793 115.864 147.956 115.864C148.032 115.864 148.108 115.843 148.173 115.81C148.694 115.527 149.237 115.277 149.79 115.071C150.029 114.984 150.149 114.712 150.062 114.473C149.975 114.233 149.714 114.114 149.465 114.201H149.476Z" fill="#6D6E71"/>
<path d="M176.442 162.739C176.648 162.739 176.843 162.597 176.887 162.38L177.31 160.575C177.364 160.325 177.212 160.075 176.963 160.02C176.713 159.966 176.463 160.118 176.409 160.368L175.986 162.173C175.931 162.423 176.083 162.673 176.333 162.728C176.366 162.728 176.409 162.739 176.442 162.739Z" fill="#6D6E71"/>
<path d="M175.91 164.522C175.66 164.467 175.411 164.62 175.356 164.87L174.933 166.675C174.879 166.925 175.031 167.175 175.28 167.229C175.313 167.229 175.356 167.24 175.389 167.24C175.595 167.24 175.79 167.099 175.834 166.881L176.257 165.076C176.312 164.826 176.16 164.576 175.91 164.522Z" fill="#6D6E71"/>
<path d="M174.933 150.528L176.724 150.941C176.724 150.941 176.789 150.952 176.832 150.952C177.039 150.952 177.234 150.81 177.277 150.593C177.332 150.343 177.18 150.093 176.93 150.038L175.139 149.625C174.889 149.571 174.639 149.723 174.585 149.973C174.531 150.223 174.683 150.473 174.933 150.528Z" fill="#6D6E71"/>
<path d="M169.559 125.335C169.689 125.911 169.787 126.509 169.852 127.107C169.874 127.346 170.08 127.52 170.308 127.52C170.33 127.52 170.341 127.52 170.362 127.52C170.612 127.488 170.797 127.259 170.764 127.009C170.688 126.379 170.59 125.748 170.449 125.139C170.395 124.889 170.145 124.737 169.895 124.791C169.646 124.846 169.494 125.096 169.548 125.346L169.559 125.335Z" fill="#6D6E71"/>
<path d="M166.878 143.232L166.454 145.037C166.4 145.287 166.552 145.537 166.802 145.591C166.834 145.591 166.878 145.602 166.91 145.602C167.117 145.602 167.312 145.461 167.355 145.244L167.779 143.439C167.833 143.188 167.681 142.938 167.431 142.884C167.182 142.83 166.932 142.982 166.878 143.232Z" fill="#6D6E71"/>
<path d="M168.734 122.78C168.81 122.954 168.984 123.062 169.157 123.062C169.223 123.062 169.277 123.052 169.342 123.03C169.581 122.932 169.689 122.66 169.581 122.421C169.331 121.834 169.038 121.257 168.712 120.725C168.582 120.507 168.3 120.431 168.083 120.562C167.866 120.692 167.79 120.975 167.92 121.192C168.224 121.692 168.495 122.225 168.734 122.78Z" fill="#6D6E71"/>
<path d="M170.417 129.369C170.167 129.369 169.95 129.553 169.939 129.804C169.907 130.423 169.842 131.043 169.744 131.587C169.7 131.837 169.863 132.076 170.113 132.12C170.135 132.12 170.167 132.12 170.189 132.12C170.406 132.12 170.601 131.967 170.645 131.739C170.743 131.163 170.819 130.51 170.851 129.847C170.862 129.597 170.667 129.38 170.417 129.369Z" fill="#6D6E71"/>
<path d="M178.016 155.519C177.766 155.464 177.516 155.617 177.462 155.867L177.039 157.672C176.985 157.922 177.137 158.172 177.386 158.226C177.419 158.226 177.462 158.237 177.495 158.237C177.701 158.237 177.896 158.096 177.94 157.878L178.363 156.073C178.418 155.823 178.266 155.573 178.016 155.519Z" fill="#6D6E71"/>
<path d="M179.058 151.028C178.808 150.974 178.558 151.126 178.504 151.376L178.081 153.181C178.027 153.431 178.179 153.681 178.428 153.736C178.461 153.736 178.493 153.746 178.537 153.746C178.743 153.746 178.938 153.605 178.982 153.388L179.405 151.583C179.46 151.333 179.308 151.082 179.058 151.028Z" fill="#6D6E71"/>
<path d="M179.416 168.675L177.625 168.262C177.375 168.208 177.126 168.36 177.072 168.61C177.017 168.86 177.169 169.11 177.419 169.164L179.21 169.578C179.21 169.578 179.275 169.588 179.319 169.588C179.525 169.588 179.72 169.447 179.764 169.23C179.818 168.98 179.666 168.73 179.416 168.675Z" fill="#6D6E71"/>
<path d="M188.405 170.763L186.614 170.35C186.364 170.295 186.115 170.448 186.06 170.698C186.006 170.948 186.158 171.198 186.408 171.252L188.199 171.666C188.199 171.666 188.264 171.676 188.307 171.676C188.514 171.676 188.709 171.535 188.753 171.318C188.807 171.067 188.655 170.817 188.405 170.763Z" fill="#6D6E71"/>
<path d="M183.911 169.719L182.119 169.306C181.87 169.252 181.62 169.404 181.566 169.654C181.511 169.904 181.663 170.154 181.913 170.208L183.704 170.622C183.704 170.622 183.769 170.632 183.813 170.632C184.019 170.632 184.215 170.491 184.258 170.274C184.312 170.024 184.16 169.773 183.911 169.719Z" fill="#6D6E71"/>
<path d="M169.635 133.903C169.385 133.838 169.136 133.99 169.071 134.229C168.93 134.784 168.778 135.392 168.615 136.023C168.55 136.273 168.702 136.523 168.951 136.589C168.984 136.589 169.027 136.599 169.06 136.599C169.266 136.599 169.451 136.458 169.505 136.251C169.668 135.621 169.82 135.012 169.961 134.457C170.026 134.207 169.874 133.957 169.635 133.892V133.903Z" fill="#6D6E71"/>
<path d="M167.952 147.962L166.682 147.668C166.628 147.538 166.508 147.44 166.367 147.407C166.118 147.353 165.868 147.505 165.814 147.755L165.781 147.918C165.781 147.918 165.759 148.027 165.77 148.082C165.792 148.277 165.933 148.44 166.128 148.484L167.757 148.864C167.757 148.864 167.822 148.875 167.865 148.875C168.072 148.875 168.267 148.734 168.31 148.517C168.365 148.266 168.213 148.016 167.963 147.962H167.952Z" fill="#6D6E71"/>
<path d="M166.66 119.213C166.769 119.213 166.888 119.169 166.975 119.093C167.16 118.919 167.171 118.626 166.997 118.441C166.563 117.984 166.096 117.538 165.596 117.136C165.401 116.973 165.108 117.006 164.945 117.201C164.782 117.397 164.815 117.691 165.01 117.854C165.477 118.234 165.911 118.637 166.313 119.061C166.4 119.159 166.53 119.202 166.649 119.202L166.66 119.213Z" fill="#6D6E71"/>
<path d="M163.219 115.56C162.676 115.266 162.101 115.005 161.504 114.766C161.265 114.668 160.994 114.788 160.907 115.027C160.809 115.266 160.928 115.538 161.167 115.625C161.732 115.853 162.275 116.104 162.796 116.375C162.861 116.408 162.937 116.43 163.013 116.43C163.176 116.43 163.338 116.343 163.425 116.18C163.545 115.951 163.458 115.68 163.23 115.56H163.219Z" fill="#6D6E71"/>
<path d="M168.506 138.394C168.257 138.328 168.007 138.481 167.953 138.731C167.811 139.329 167.659 139.938 167.518 140.536C167.464 140.786 167.616 141.036 167.855 141.09C167.887 141.09 167.931 141.101 167.963 141.101C168.17 141.101 168.365 140.96 168.409 140.742C168.55 140.144 168.691 139.546 168.843 138.948C168.908 138.698 168.756 138.448 168.506 138.394Z" fill="#6D6E71"/>
<path d="M158.811 113.907C158.182 113.755 157.563 113.635 156.966 113.538C156.716 113.494 156.477 113.679 156.445 113.929C156.412 114.179 156.586 114.418 156.836 114.451C157.411 114.538 158.008 114.658 158.605 114.799C158.638 114.799 158.681 114.81 158.714 114.81C158.92 114.81 159.105 114.668 159.159 114.462C159.224 114.212 159.072 113.962 158.822 113.907H158.811Z" fill="#6D6E71"/>
<path d="M172.338 149.908C172.545 149.908 172.74 149.767 172.783 149.55C172.838 149.299 172.686 149.049 172.436 148.995L170.645 148.582C170.395 148.527 170.145 148.68 170.091 148.93C170.037 149.18 170.189 149.43 170.438 149.484L172.23 149.897C172.23 149.897 172.295 149.908 172.338 149.908Z" fill="#6D6E71"/>
</g>
<path d="M167.062 87.5611L158.584 89.7793C158.052 89.9206 157.737 90.4643 157.867 90.9971C158.008 91.5298 158.551 91.8452 159.083 91.7147L167.562 89.4966C168.094 89.3552 168.408 88.8116 168.278 88.2788C168.137 87.746 167.594 87.4307 167.062 87.5611Z" fill="#45444A"/>
<path d="M154.784 90.6817C154.231 90.823 153.905 91.4211 154.057 91.9973C154.209 92.5736 154.784 92.9324 155.338 92.7911C155.892 92.6497 156.217 92.0517 156.065 91.4754C155.913 90.8991 155.338 90.5403 154.784 90.6817Z" fill="#45444A"/>
<path d="M172.034 87.2894C171.882 86.7131 171.307 86.3543 170.753 86.4957C170.2 86.637 169.874 87.235 170.026 87.8113C170.178 88.3876 170.753 88.7464 171.307 88.605C171.861 88.4637 172.186 87.8657 172.034 87.2894Z" fill="#45444A"/>
<path d="M193.703 176.46C190.978 178.135 187.406 177.276 185.734 174.536C184.062 171.796 184.92 168.229 187.656 166.555C190.381 164.88 193.952 165.739 195.624 168.479C197.296 171.22 196.438 174.786 193.703 176.46Z" fill="#FFD815"/>
<path d="M133.387 263C144.156 251.213 156.413 237.241 158.562 230.522C161.439 221.53 159.431 207.09 156.586 198.359C154.556 192.107 153.091 191.367 150.93 185.257C148.347 177.928 152.494 169.567 149.801 161.966C147.869 156.508 139.065 153.485 139.521 158.269C140.107 164.532 140.454 172.285 139.521 178.602C138.555 185.094 137.871 191.694 138.544 198.565C139.163 204.97 141.051 210.776 138.848 217.289C136.514 224.226 131.77 228.347 127.438 233.947C124.377 237.915 108.505 252.812 99.2344 262.989H133.376L133.387 263Z" fill="#EFA382"/>
<path d="M200.26 187.16C198.349 187.029 196.189 187.91 196.862 190.008C197.361 191.552 198.501 192.857 199.022 194.39C200.108 197.641 201.009 201.599 201.204 205.057C201.422 209.167 201.476 213.375 201.877 217.398C202.084 219.42 201.856 221.367 202.724 223.193C203.506 224.846 204.353 226.629 205.254 228.217C207.24 231.707 231.438 247.854 234.836 254.671C236.117 257.237 237.224 260.151 238.191 262.989H279.356C273.831 255.595 268.446 248.31 267.48 246.288C266.264 243.733 263.898 234.534 260.532 206.144C260.044 202.056 257.547 198.261 255.56 194.695C253.606 191.204 247.538 178.32 241.632 182.941C239.938 181.408 238.386 179.505 235.933 179.309C234.044 179.157 230.646 179.657 230.591 182.125C228.822 180.299 226.966 178.733 224.219 178.95C222.363 179.103 219.605 180.483 219.974 182.973C217.923 179.146 211.17 178.755 210.193 182.636C207.468 180.103 205.59 176.613 202.67 174.351C201.335 173.318 200.054 172.274 198.805 171.122C197.872 170.252 196.482 168.077 195.451 167.544C194.246 166.925 192.606 167.947 191.803 168.871C188.742 172.394 192.693 178.374 194.55 180.592C195.44 181.647 199.934 186.072 200.26 187.17V187.16Z" fill="#EFA382"/>
<path d="M211.648 206.34C210.91 202.23 209.487 199.511 207.088 196.021C205.84 194.205 202.985 189.965 200.249 187.17C198.849 187.507 202.138 191.4 203.245 193.009C205.644 196.489 207.425 199.685 208.337 203.806C208.76 205.72 209.455 215.767 212.592 213.125C212.733 210.58 212.071 208.645 211.648 206.34Z" fill="#E58864"/>
<path d="M139.488 157.052C138.945 157.748 139.759 161.999 139.977 164.685C141.182 164.478 142.245 164.043 143.602 164.065C143.722 162.26 143.483 160.368 142.919 158.759C142.615 157.9 140.845 155.41 139.488 157.052Z" fill="#E58864"/>
<path d="M198.045 170.1C196.243 167.686 195.559 167.61 195.559 167.61C193.084 166.859 192.476 169.762 193.344 171.198C193.67 171.731 194.886 173.622 195.483 173.981C196.21 174.405 196.243 173.546 197.209 172.872C199.076 171.567 199.304 171.807 198.045 170.11V170.1Z" fill="#E58864"/>
<path d="M200.987 192.368C198.816 187.366 196.602 189.062 196.602 189.062C196.83 190.639 198.74 194.847 199.544 195.999C201.194 195.032 201.802 194.26 200.977 192.368H200.987Z" fill="#E58864"/>
<path d="M249.752 59.7259C249.752 59.7259 252.553 62.1941 254.757 65.2494C255.484 66.2607 256.58 68.5766 256.58 68.5766C256.58 68.5766 257.959 63.9447 260.619 59.7368C262.486 56.7793 265.482 54.5938 265.482 54.5938C265.482 54.5938 261.552 55.942 258.99 59.1605C257.308 61.2699 256.352 63.5532 256.352 63.5532C252.607 60.226 249.752 59.7259 249.752 59.7259Z" fill="#CDE0F4"/>
<path d="M259.62 40.089C259.62 40.089 261.889 42.0787 263.669 44.5578C264.256 45.3733 265.146 47.2435 265.146 47.2435C265.146 47.2435 266.264 43.5031 268.403 40.0998C269.912 37.7077 272.332 35.9463 272.332 35.9463C272.332 35.9463 269.152 37.0336 267.089 39.6323C265.732 41.3394 264.961 43.1769 264.961 43.1769C261.932 40.4913 259.631 40.089 259.631 40.089H259.62Z" fill="#CDE0F4"/>
<path d="M275.339 52.4629C275.339 52.4629 277.109 54.0177 278.509 55.9531C278.965 56.5947 279.66 58.0625 279.66 58.0625C279.66 58.0625 280.528 55.1377 282.211 52.4737C283.394 50.6035 285.283 49.2227 285.283 49.2227C285.283 49.2227 282.797 50.0708 281.18 52.1149C280.116 53.4523 279.508 54.8876 279.508 54.8876C277.141 52.7891 275.339 52.4629 275.339 52.4629Z" fill="#CDE0F4"/>
<path d="M179.927 132.294C177.625 132.294 175.747 134.164 175.747 136.469C175.747 139.612 179.927 144.254 179.927 144.254C179.927 144.254 184.106 139.622 184.106 136.48C184.106 134.175 182.239 132.294 179.937 132.294H179.927ZM179.927 137.981C179.102 137.981 178.439 137.306 178.439 136.48C178.439 135.654 179.112 134.99 179.927 134.99C180.741 134.99 181.425 135.665 181.425 136.48C181.425 137.306 180.752 137.97 179.927 137.981Z" fill="#9E1F63"/>
</g>
<defs>
<linearGradient id="paint0_linear_536_122608" x1="195.005" y1="257.107" x2="195.005" y2="-172.96" gradientUnits="userSpaceOnUse">
<stop stop-color="#F8F2F2"/>
<stop offset="0.4" stop-color="#F0F0F6"/>
<stop offset="1" stop-color="#EDF0F9"/>
</linearGradient>
<linearGradient id="paint1_linear_536_122608" x1="28.0083" y1="157.541" x2="62.2389" y2="192.923" gradientUnits="userSpaceOnUse">
<stop stop-color="#EDF0F9"/>
<stop offset="0.14" stop-color="#E8EBF6"/>
<stop offset="0.3" stop-color="#D9DEEF"/>
<stop offset="0.47" stop-color="#C1C9E4"/>
<stop offset="0.65" stop-color="#A0ABD4"/>
<stop offset="0.84" stop-color="#7585BF"/>
<stop offset="1" stop-color="#4C60AC"/>
</linearGradient>
<linearGradient id="paint2_linear_536_122608" x1="228.947" y1="73.8466" x2="290.714" y2="187.182" gradientUnits="userSpaceOnUse">
<stop stop-color="#EDF0F9"/>
<stop offset="0.12" stop-color="#E8EBF6"/>
<stop offset="0.25" stop-color="#D9DEEF"/>
<stop offset="0.4" stop-color="#C1C9E4"/>
<stop offset="0.56" stop-color="#A0ABD4"/>
<stop offset="0.72" stop-color="#7585BF"/>
<stop offset="0.85" stop-color="#4C60AC"/>
</linearGradient>
<linearGradient id="paint3_linear_536_122608" x1="90.3431" y1="97.2058" x2="141.357" y2="185.426" gradientUnits="userSpaceOnUse">
<stop stop-color="#EDF0F9"/>
<stop offset="0.14" stop-color="#E8EBF6"/>
<stop offset="0.3" stop-color="#D9DEEF"/>
<stop offset="0.47" stop-color="#C1C9E4"/>
<stop offset="0.65" stop-color="#A0ABD4"/>
<stop offset="0.84" stop-color="#7585BF"/>
<stop offset="1" stop-color="#4C60AC"/>
</linearGradient>
<clipPath id="clip0_536_122608">
<rect width="390" height="263" fill="white"/>
</clipPath>
</defs>
</svg>
