<svg width="390" height="789" viewBox="0 0 390 789" fill="none" xmlns="http://www.w3.org/2000/svg">
<g clip-path="url(#clip0_536_122433)">
<path fill-rule="evenodd" clip-rule="evenodd" d="M-1.23294e-05 107.156V0H390V20.0754C378.663 67.6774 360.937 133.375 347.611 158.773C330.195 191.949 325.217 204.592 325.217 310.44C325.217 416.289 316.729 374.215 304.902 404.234C293.085 434.254 303.032 481.651 293.085 525.097C283.127 568.544 256.384 587.901 246.737 610.021C237.099 632.141 235.23 670.845 235.23 670.845L221.543 670.051C221.543 670.051 214.705 623.047 206.617 593.027C198.529 563.007 184.843 529.038 183.603 492.706C182.363 456.365 169.916 427.933 146.282 383.692C122.649 339.451 82.0789 282.559 82.0789 254.117C82.0789 225.675 69.6421 194.078 37.2904 165.645C24.6337 154.515 11.4071 131.302 -0.0100098 107.156H-1.23294e-05Z" fill="#E6E6E6"/>
<path d="M299.483 748.401L233.81 749.363C219.424 749.578 205.327 745.619 193.45 738.037L178.024 728.195C170.246 723.237 160.159 722.724 151.851 726.869L97.235 754.153C88.3773 758.579 78.0499 759.69 68.3524 757.263L45.1684 751.473C37.5003 749.559 29.4624 753.061 26.1232 759.793L21.5644 768.962C16.9156 778.3 24.2137 788.982 35.2409 788.982H321.558C329.935 788.982 335.174 780.513 330.995 773.734L323.087 760.904C318.238 753.042 309.201 748.243 299.493 748.392L299.483 748.401Z" fill="#E7EDF8"/>
<path d="M96.0152 748.298C84.4682 750.969 66.0029 756.282 54.5958 749.456C50.6768 747.112 51.7266 741.594 56.2754 740.707C68.7122 738.27 89.2969 743.303 96.0152 748.298Z" fill="#E7EDF8"/>
<path d="M97.095 742.229C83.9084 742.668 47.4977 717.037 60.2844 709.716C70.3218 703.965 82.3088 724.077 97.095 742.229Z" fill="#E7EDF8"/>
<path d="M103.833 737.15C113.461 728.727 120.519 680.117 105.103 689.837C96.7551 695.103 100.484 705.953 103.833 737.15Z" fill="#E7EDF8"/>
<path d="M100.184 737.916C91.3165 733.546 68.4624 700.594 75.6406 696.794C84.2384 692.237 98.4047 720.324 100.184 737.916Z" fill="#E7EDF8"/>
<path d="M108.762 740.212C110.212 734.04 116.76 711.117 125.128 710.622C139.914 709.754 122.908 740.446 108.762 740.212Z" fill="#E7EDF8"/>
<path d="M105.653 750.334C105.653 750.334 105.583 750.334 105.543 750.334L86.6175 747.514C86.2476 747.458 85.9877 747.131 86.0477 746.777C86.1077 746.431 86.4576 746.188 86.8375 746.244L105.763 749.064C106.133 749.12 106.392 749.447 106.332 749.802C106.282 750.119 105.983 750.344 105.653 750.344V750.334Z" fill="#E7EDF8"/>
<path d="M105.443 750.24C105.363 750.24 105.283 750.231 105.203 750.203C104.843 750.082 104.663 749.708 104.803 749.381L109.002 738.868C109.132 738.531 109.532 738.363 109.882 738.494C110.241 738.615 110.421 738.989 110.281 739.316L106.083 749.83C105.983 750.091 105.723 750.25 105.443 750.25V750.24Z" fill="#E7EDF8"/>
<path d="M105.593 750.194C105.243 750.194 104.943 749.942 104.913 749.606L103.303 732.434C103.273 732.079 103.553 731.771 103.923 731.743C104.293 731.715 104.633 731.977 104.663 732.322L106.272 749.494C106.302 749.848 106.023 750.157 105.653 750.185C105.633 750.185 105.613 750.185 105.593 750.185V750.194Z" fill="#E7EDF8"/>
<path d="M105.683 749.998C105.433 749.998 105.183 749.867 105.063 749.634L95.0855 730.586C94.9156 730.268 95.0555 729.885 95.4055 729.727C95.7454 729.568 96.1553 729.699 96.3252 730.025L106.303 749.074C106.473 749.391 106.333 749.774 105.983 749.933C105.883 749.979 105.783 749.998 105.683 749.998Z" fill="#E7EDF8"/>
<path d="M105.423 749.764C105.263 749.764 105.113 749.717 104.983 749.615L86.0477 734.862C85.7578 734.638 85.7178 734.227 85.9577 733.956C86.1977 733.685 86.6375 733.648 86.9275 733.872L105.863 748.625C106.153 748.849 106.193 749.26 105.953 749.531C105.813 749.68 105.623 749.764 105.423 749.764Z" fill="#E7EDF8"/>
<path d="M115.31 767.552C115.06 767.552 114.82 767.422 114.7 767.207L104.803 749.419C104.633 749.102 104.763 748.719 105.093 748.551C105.433 748.392 105.843 748.513 106.023 748.822L115.92 766.609C116.09 766.927 115.96 767.31 115.63 767.478C115.53 767.524 115.42 767.552 115.31 767.552Z" fill="#E7EDF8"/>
<path d="M247.426 744.218C239.428 738.084 225.852 728.821 225.022 717.831C224.732 714.059 229.401 711.874 232.44 714.376C240.728 721.211 247.676 737.243 247.426 744.218Z" fill="#E7EDF8"/>
<path d="M252.515 741.762C245.337 733.396 245.547 696.345 257.664 700.865C267.181 704.413 258.384 722.686 252.515 741.762Z" fill="#E7EDF8"/>
<path d="M259.263 744.059C270.671 745.236 309.071 722.088 293.475 718.083C285.017 715.907 279.458 724.348 259.263 744.059Z" fill="#E7EDF8"/>
<path d="M257.274 741.622C255.944 731.641 272.96 692.582 280.958 696.149C290.535 700.426 272.77 729.334 257.274 741.622Z" fill="#E7EDF8"/>
<path d="M260.093 748.317C265.462 746.058 285.987 738.401 290.705 743.602C299.043 752.781 267.271 757.664 260.093 748.317Z" fill="#E7EDF8"/>
<path d="M251.395 751.856C251.145 751.856 250.906 751.735 250.786 751.511L243.048 737.71C242.868 737.393 242.998 737.01 243.337 736.842C243.677 736.674 244.087 736.795 244.267 737.113L252.005 750.913C252.185 751.231 252.055 751.614 251.715 751.782C251.615 751.828 251.505 751.856 251.395 751.856Z" fill="#E7EDF8"/>
<path d="M251.345 751.679C251.045 751.679 250.775 751.502 250.685 751.221C250.575 750.885 250.785 750.521 251.155 750.428L261.193 747.692C261.563 747.589 261.943 747.785 262.043 748.131C262.153 748.467 261.943 748.831 261.573 748.924L251.535 751.66C251.475 751.679 251.405 751.688 251.345 751.688V751.679Z" fill="#E7EDF8"/>
<path d="M251.465 751.744C251.275 751.744 251.086 751.67 250.956 751.529C250.706 751.268 250.726 750.857 251.016 750.624L263.002 740.642C263.282 740.409 263.722 740.427 263.972 740.698C264.222 740.96 264.202 741.37 263.912 741.604L251.925 751.585C251.795 751.698 251.635 751.744 251.465 751.744Z" fill="#E7EDF8"/>
<path d="M251.665 751.707C251.555 751.707 251.455 751.688 251.355 751.632C251.015 751.473 250.885 751.081 251.055 750.773L260.103 734.367C260.273 734.05 260.693 733.928 261.033 734.087C261.373 734.246 261.503 734.638 261.333 734.946L252.285 751.352C252.165 751.576 251.925 751.697 251.675 751.697L251.665 751.707Z" fill="#E7EDF8"/>
<path d="M251.695 751.417C251.695 751.417 251.665 751.417 251.655 751.417C251.276 751.398 250.986 751.1 251.006 750.745L252.175 730.735C252.195 730.38 252.525 730.109 252.895 730.128C253.275 730.147 253.565 730.445 253.545 730.8L252.375 750.81C252.355 751.156 252.055 751.417 251.685 751.417H251.695Z" fill="#E7EDF8"/>
<path d="M243.547 767.113C243.447 767.113 243.347 767.095 243.248 767.048C242.908 766.889 242.768 766.506 242.928 766.189L251.075 750.493C251.245 750.175 251.655 750.045 251.995 750.194C252.335 750.353 252.475 750.736 252.315 751.053L244.167 766.749C244.047 766.973 243.807 767.113 243.547 767.113Z" fill="#E7EDF8"/>
<path d="M218.834 648.715H285.987C293.055 648.715 295.904 640.097 290.006 636.455C285.507 633.682 280.128 633.364 275.279 634.933L271.31 636.212C270.151 636.586 268.841 636.502 267.801 635.876C263.892 633.505 258.804 633.71 255.125 636.38L251.805 638.789C250.336 639.854 248.256 639.77 246.887 638.593C243.378 635.559 238.329 634.616 233.84 636.166L228.871 637.874C224.482 639.387 220.483 641.749 217.104 644.868C215.575 646.278 216.684 648.724 218.834 648.724V648.715Z" fill="#E7EDF8"/>
<path d="M44.9985 666.213L45.4783 664.673C46.5781 661.171 43.7688 657.66 39.8598 657.66C36.6306 657.66 34.0013 660.107 34.0013 663.132V664.71C34.0013 666.829 31.8718 668.398 29.6624 667.894L27.7329 667.455C26.0133 667.063 24.3538 668.277 24.3538 669.939C24.3538 671.349 25.5734 672.488 27.0931 672.488H56.4655C57.8052 672.488 59.0549 671.844 59.7747 670.779C61.5042 668.211 59.3248 664.906 56.0856 665.205L44.9985 666.223V666.213Z" fill="#E7EDF8"/>
<path d="M329.506 708.801C326.456 709.081 323.427 707.783 321.847 705.337C321.148 704.263 319.898 703.74 318.628 703.74C316.459 703.74 314.699 705.384 314.699 707.41V708.465C314.699 709.894 313.27 710.939 311.79 710.603L310.5 710.304C309.341 710.043 308.231 710.855 308.231 711.966C308.231 712.91 309.051 713.685 310.07 713.685H329.775C330.675 713.685 331.515 713.255 331.995 712.536C333.155 710.809 331.695 708.596 329.516 708.792L329.506 708.801Z" fill="#E7EDF8"/>
<path d="M235.76 666.792C235.92 666.437 236.299 666.222 236.709 666.25L244.457 666.811C245.337 666.867 246.187 667.081 246.967 667.436C248.086 667.941 248.996 668.781 249.686 669.743L254.475 676.447L248.346 678.735L245.217 670.574L241.168 669.967C240.348 669.845 239.749 669.192 239.749 668.417L236.509 668.025C235.89 667.95 235.51 667.343 235.76 666.801V666.792Z" fill="#F69386"/>
<path d="M229.841 678.846L227.782 675.233C227.702 673.711 226.872 672.805 226.102 671.498C222.573 665.569 226.912 659.994 234.82 663.925C238.499 665.755 238.069 671.012 237.449 675.756C237.359 676.447 236.839 677.016 236.13 677.203L229.851 678.856L229.841 678.846Z" fill="#F69386"/>
<path d="M234.86 682.554C234.35 683.058 227.622 682.46 226.962 681.349C227.352 679.472 227.612 677.689 227.722 675.793C229.551 675.028 234.05 673.039 235.5 674.916L234.86 682.554Z" fill="#F69386"/>
<path d="M235.45 671.227C236.02 671.115 236.509 670.471 236.379 669.155C236.239 667.735 238.379 667.707 238.969 666.549C239.709 665.102 238.929 663.879 237.699 663.291C237.259 663.076 236.979 662.646 236.969 662.179C236.919 660.508 235.03 658.585 231.321 660.396C230.161 660.966 229.091 661.899 227.952 662.525C225.932 663.636 222.153 664.066 222.443 668.323C222.543 669.705 223.813 671.013 227.402 675.42C229.081 678.697 231.931 676.382 232.85 674.262L233.04 673.851C233.3 673.263 233.44 672.628 233.52 671.993C233.74 670.07 235.02 670.098 235.45 671.218V671.227Z" fill="#3D2E80"/>
<path d="M222.883 769.989L223.393 772.286C223.563 773.052 223.973 773.742 224.563 774.284C225.132 774.807 225.542 775.479 225.722 776.208L225.912 776.983H217.024C216.834 774.284 217.104 772.024 217.804 770.166L222.873 769.979L222.883 769.989Z" fill="#5E4596"/>
<path d="M236.01 770.876C236.04 772.893 235.4 775.05 235.73 777.001H251.086C250.506 773.939 247.657 774.63 245.767 773.967C243.618 773.21 242.938 771.716 241.108 769.681L236.01 770.876Z" fill="#BF83B0"/>
<path d="M219.904 710.939L217.354 705.131L211.646 706.597L217.134 714.329L217.264 715.01C217.444 715.953 217.944 716.822 218.694 717.485L220.723 719.296L223.123 714.721L219.904 710.949V710.939Z" fill="#F69386"/>
<path d="M222.363 713.927H232.711L225.772 771.025H217.514L219.274 746.16L220.344 730.996C220.444 729.605 220.344 728.204 220.074 726.831C219.754 725.244 219.804 723.61 220.214 722.051L222.373 713.937L222.363 713.927Z" fill="#3D2E80"/>
<path d="M241.748 771.399L235.54 772.445L232.74 738.662C232.56 736.43 232.031 734.236 231.171 732.154C229.121 727.158 228.981 721.649 230.781 716.56L231.711 713.927H242.948L243.908 768.943C243.928 770.148 243.018 771.184 241.748 771.399Z" fill="#3D2E80"/>
<path d="M217.354 705.132L215.785 701.565L224.812 688.661L219.994 684.431L208.417 697.475C206.767 699.333 206.717 702.013 208.287 703.918L211.306 707.597C211.766 708.157 212.496 708.474 213.255 708.437C215.285 708.344 216.914 707.121 217.354 705.132Z" fill="#6C84B7"/>
<path d="M225.312 682.367C227.702 676.578 239.109 678.65 236.159 683.571C234.94 685.597 232.051 686.139 229.921 684.944L225.312 682.367Z" fill="#6C84B7"/>
<path d="M248.356 678.735L249.066 680.593H236.35C232.191 680.593 228.062 681.246 224.133 682.535L222.463 683.076C219.154 684.16 217.194 687.325 217.824 690.537L219.754 699.893C220.374 702.89 220.704 705.925 220.754 708.969V709.791C220.793 711.313 221.393 712.769 222.453 713.918H242.938C243.978 713.022 244.507 711.714 244.357 710.398L243.848 705.86C243.618 703.796 243.548 701.723 243.648 699.65L243.928 694.104C244.058 691.564 245.927 689.389 248.556 688.716C252.025 687.839 254.915 686.774 256.874 685.037C258.194 683.861 258.414 681.965 257.394 680.546L254.465 676.438C251.866 674.953 248.386 676.335 248.336 678.725L248.356 678.735Z" fill="#7997C7"/>
<path d="M200.309 754.47L178.394 749.652C169.476 747.691 160.109 750.166 153.621 756.198L142.853 766.198H104.993C99.9243 766.198 95.1055 768.262 91.7964 771.838L75.9504 788.991H209.586L200.319 754.47H200.309Z" fill="#D7BAD9"/>
<path d="M299.363 777.767L294.465 780.391C284.387 785.788 272.13 786.246 261.623 781.624L251.086 776.992H225.962C216.984 776.992 208.557 772.903 203.398 766.04L162.798 775.89C160.899 776.348 160.369 778.636 161.888 779.784L163.768 781.213C170.406 786.246 178.694 789 187.252 789H314.919L311.16 781.325C309.111 777.123 303.632 775.489 299.343 777.777L299.363 777.767Z" fill="#7997C7"/>
<path d="M65.3132 697.662L81.0992 699.922V697.139C81.0992 694.263 78.5998 691.919 75.5106 691.919H63.6736C62.5939 691.919 61.7241 692.741 61.7241 693.74C61.7241 695.692 63.2537 697.354 65.3132 697.653V697.662Z" fill="#F69386"/>
<path d="M72.0815 698.624C70.7518 695.309 71.2617 692.022 75.2607 691.807C78.7098 691.621 83.3486 694.188 84.2983 697.083C85.4281 700.538 81.9989 707.037 78.02 704.805L72.0715 698.614L72.0815 698.624Z" fill="#3D2E80"/>
<path d="M64.0735 695.85C66.183 696.355 68.1425 695.916 69.2222 694.879C68.1525 690.715 68.5324 686.765 68.5224 681.91L67.2027 681.517C65.7231 681.079 64.1035 681.779 63.6936 683.049C62.5639 686.522 61.8641 689.865 61.7241 693.04C61.6641 694.31 62.6139 695.495 64.0735 695.85Z" fill="#F69386"/>
<path d="M70.562 681.825C69.1124 681.732 65.2834 681.284 63.6838 681.247C63.4239 684.291 65.0635 685.915 66.713 685.99C69.9622 686.298 70.642 684.384 70.552 681.825H70.562Z" fill="#F69386"/>
<path d="M99.7944 782.866C99.7644 784.882 100.404 787.039 100.074 788.991H84.7183C85.2981 785.928 88.1474 786.619 90.0369 785.956C92.1863 785.2 92.8662 783.706 94.6957 781.67L99.7944 782.866Z" fill="#3D2E80"/>
<path d="M54.2161 770.456L64.4135 773.977C71.6117 776.46 78.13 780.401 83.4986 785.518L87.1577 788.991H42.3792L48.6275 781.297L47.7078 775.368C47.1779 771.96 50.757 769.261 54.2161 770.456Z" fill="#7997C7"/>
<path d="M48.6176 781.297L52.9564 777.515C54.516 776.152 57.0054 776.385 58.2451 778.02L63.6737 785.153L75.9405 789H60.2946L57.4653 786.33C56.2156 785.144 54.1861 785.107 52.8765 786.227L49.6573 788.991H42.3792L48.6275 781.297H48.6176Z" fill="#6C84B7"/>
<path d="M69.762 768.28C69.882 770.297 69.892 774.555 68.7923 776.245L54.5759 770.811C56.3655 768.178 58.8248 769.476 60.8343 769.532C63.1237 769.588 63.7736 768.486 64.5734 767.421L69.752 768.28H69.762Z" fill="#3D2E80"/>
<path d="M96.1755 725.926H83.8486L92.7763 783.024H101.034L99.2747 758.159L98.205 742.995C98.105 741.604 98.2049 740.203 98.4749 738.831C98.7948 737.243 98.7448 735.609 98.3349 734.05L96.1755 725.936V725.926Z" fill="#B83D7F"/>
<path d="M63.1939 768.822L69.8821 769.98L72.6114 747.757L88.7173 741.921C92.9062 740.399 95.3856 736.347 94.6558 732.201C93.746 727.056 88.2274 723.816 82.8688 725.272L79.2897 726.253L79.4897 727.551C79.7596 729.362 78.9198 731.155 77.3102 732.201L64.3336 740.604C63.0139 741.454 62.2541 742.883 62.3041 744.377L63.2039 768.822H63.1939Z" fill="#D46A6B"/>
<path d="M79.6196 728.447C79.0598 727.42 78.8998 726.449 79.1697 725.16C79.1997 725.02 79.2297 724.871 79.2797 724.74C79.5396 723.853 79.5896 722.919 79.3497 722.032C77.3902 714.777 76.3404 705.393 77.7501 697.456L78.21 694.842C81.0492 691.649 82.5888 691.275 86.1579 694.216C86.1979 694.254 86.2479 694.291 86.3079 694.338C89.4771 696.812 91.8565 700.304 92.9562 704.217C95.0457 711.677 94.6957 721.687 99.3246 727.915C99.0546 728.316 98.1649 729.045 97.1251 729.81C92.1564 728.531 86.4379 727.784 79.6096 728.438L79.6196 728.447Z" fill="#3D2E80"/>
<path d="M85.4481 693.656C84.2983 692.667 83.5985 691.126 83.1786 689.716C82.9687 689.034 83.2486 688.726 82.6288 688.334C81.829 687.839 79.5896 688.474 78.7798 688.773C76.2104 689.707 76.5803 693.806 78.0499 695.767C80.0494 695.599 84.2983 694.74 85.4581 693.656H85.4481Z" fill="#F9B2A1"/>
<path d="M83.6787 691.406C83.1588 689.576 83.1688 687.634 83.7187 685.766C84.9683 681.527 82.8889 679.258 79.8597 677.96C76.4705 676.503 72.5215 678.212 71.6418 681.592C71.4518 682.321 71.3418 683.124 71.3718 684.02C71.3818 684.534 71.2419 685.047 70.9519 685.486L69.6823 687.41C69.4023 687.83 69.5823 688.39 70.0622 688.595L70.552 688.81C70.812 688.922 71.0119 689.137 71.0919 689.389L71.7617 691.49C72.1716 692.797 73.6113 693.544 75.0609 693.217L77.6402 692.629L83.6887 691.406H83.6787Z" fill="#F9B2A1"/>
<path d="M70.5819 676.139C71.6517 675.924 72.6514 676.662 73.7111 676.261C74.341 676.018 75.2008 674.823 75.8906 674.785C79.0798 674.599 79.8796 676.961 84.2484 679.314C86.6178 680.593 86.118 683.945 84.5883 686.018C83.5486 687.428 83.3587 689.557 83.3587 689.557L82.7688 689.436C81.6091 689.193 80.7293 688.343 80.5294 687.26C80.3994 686.56 79.9795 685.934 79.3597 685.523L79.3097 685.486C78.6199 685.028 77.6501 685.178 77.1103 685.822L76.5304 686.522C76.2405 686.877 75.6706 686.896 75.3507 686.55L75.0408 686.224L75.3307 685.579C75.9806 684.562 75.8906 683.656 74.9808 682.881C74.5509 682.722 74.121 682.545 73.7011 682.367C72.1215 681.686 69.8321 680.444 69.1223 678.884C68.5625 677.652 69.1423 676.438 70.5919 676.149L70.5819 676.139Z" fill="#D46A6B"/>
<path d="M94.6758 732.826H88.8673C88.3674 732.826 87.9575 732.443 87.9575 731.977C87.9575 731.51 88.3674 731.127 88.8673 731.127H94.6758C95.1757 731.127 95.5856 731.51 95.5856 731.977C95.5856 732.443 95.1757 732.826 94.6758 732.826Z" fill="#B83D7F"/>
<path d="M63.3138 681.013C62.9639 683.469 64.8034 683.646 66.8529 683.786C69.0323 683.945 69.6321 683.702 70.5619 681.816C69.4522 680.789 64.7234 679.874 63.3138 681.004V681.013Z" fill="#F9B2A1"/>
<path d="M84.2786 712.462C85.5682 708.951 86.428 705.44 87.0678 701.883C86.8079 696.999 80.1396 697.587 77.5303 703.703L76.3506 711.229C76.7405 714.217 82.2891 716.309 84.2786 712.471V712.462Z" fill="#5E4596"/>
<path d="M72.9714 735.067C72.8014 734.647 72.5515 734.264 72.2416 733.919C75.6207 730.399 78.56 726.57 80.7194 722.285L84.2685 712.462L76.3405 711.22L75.1708 720.548C73.2813 722.91 71.6017 727.149 66.723 737.028C66.4931 737.448 66.553 737.934 66.763 738.42C66.833 738.569 66.9129 738.709 67.0229 738.84L72.9714 735.067Z" fill="#F9B2A1"/>
<path d="M194.07 654.84L189.291 647.436L188.762 646.278C188.242 645.139 189.431 643.701 190.741 644.009C190.741 644.009 190.761 644.009 190.771 644.009C192.011 644.327 193.07 645.008 193.91 645.858L198.639 651.488C199.089 653.328 196.21 655.615 194.07 654.831V654.84Z" fill="#F69386"/>
<path d="M204.548 693.32L202.788 687.96L185.902 788.991H188.562L204.548 693.32Z" fill="#D2DAEF"/>
<path d="M205.327 688.315C205.217 687.643 204.548 687.185 203.828 687.288C203.108 687.391 202.618 688.016 202.728 688.688L219.494 788.991H222.153L205.327 688.306V688.315Z" fill="#D2DAEF"/>
<path d="M173.286 747.038C173.536 746.179 174.215 744.451 174.355 742.556L174.545 740.072L179.394 740.222C179.214 741.566 178.604 744.479 180.894 746.506C178.474 748.588 176.005 749.876 173.276 747.047L173.286 747.038Z" fill="#F9B2A1"/>
<path d="M173.285 747.038C174.555 747.645 176.195 748.065 177.664 747.878C179.104 747.691 179.354 746.767 180.904 746.496C180.974 746.561 181.034 746.627 181.113 746.692C182.063 747.477 183.233 748.018 184.473 748.392C186.872 749.101 187.192 749.914 187.102 750.847H173.006C172.606 750.493 172.846 748.746 173.245 747.187C173.255 747.15 173.275 747.094 173.285 747.056V747.038Z" fill="#3D2E80"/>
<path d="M176.905 685.607C180.024 686.27 183.133 684.888 184.453 682.255L185.912 679.165L186.212 684.141L186.542 691.565C186.622 692.704 186.602 693.712 186.532 694.394L179.404 740.212L174.555 740.063L175.145 708.166C175.195 706.663 174.845 705.253 174.165 704.011C167.737 701.434 166.057 695.944 167.037 688.642L176.905 685.607Z" fill="#B83D7F"/>
<path d="M168.177 663.45C170.026 663.515 171.986 663.291 174.045 662.759L182.383 650.508C190.241 638.117 177.544 634.625 173.296 639.359C171.026 641.89 171.316 642.347 167.757 642.991C164.138 643.645 164.368 645.793 161.768 647.193C160.419 647.921 158.649 648.556 157.34 649.602C155.19 651.348 155.03 654.14 156.17 656.633C156.51 657.371 157.61 657.418 158.029 656.717L158.579 655.802C158.939 655.195 159.909 655.345 160.059 656.017L160.279 657.007C161.059 660.564 164.288 663.291 168.177 663.44V663.45Z" fill="#3D2E80"/>
<path d="M173.026 692.956C171.396 692.956 169.886 692.526 168.527 691.583C167.277 690.705 166.777 689.174 167.137 687.699L167.257 687.195C168.487 682.171 168.977 677.811 167.957 673.02C167.677 671.723 167.177 670.481 166.517 669.332L165.108 666.867C163.668 664.346 164.748 661.255 167.517 659.948L175.125 656.334L184.633 657.969C186.332 658.258 187.462 659.696 187.242 661.311C186.932 663.59 188.002 665.532 188.282 668.277C188.482 670.21 187.372 671.779 186.902 673.711C185.762 678.371 186.432 683.926 187.432 688.978C187.802 690.892 186.152 692.741 184.033 692.769L173.016 692.946L173.026 692.956Z" fill="#F5BA58"/>
<path d="M198.639 651.498L203.328 657.081C203.938 657.81 203.988 658.865 203.418 659.715C201.378 662.749 196.31 664.477 185.142 665.578L180.844 657.315L195.89 657.66L194.07 654.84L198.639 651.498Z" fill="#F5BA58"/>
<path d="M175.885 647.66H176.195C178.144 647.754 179.744 649.266 179.784 651.068L180.254 657.175L180.844 657.315C181.763 657.539 182.223 658.342 181.783 659.173L181.673 659.388C179.044 660.536 176.005 660.77 173.115 660.06L172.936 659.892C172.236 659.238 172.326 658.174 173.086 657.483C173.555 657.054 173.915 656.437 173.915 655.522C173.915 654.645 173.675 652.011 173.165 650.732L175.895 647.679L175.885 647.66Z" fill="#F69386"/>
<path d="M181.683 659.378L179.874 662.815C179.264 663.972 177.574 664.178 176.545 663.225L173.115 660.051C176.015 660.76 179.054 660.527 181.673 659.369L181.683 659.378Z" fill="white"/>
<path d="M184.683 645.821L184.713 647.212C184.713 647.595 184.822 648.22 184.892 648.603C185.142 649.994 184.952 651.423 184.333 652.712L183.863 653.701C183.303 654.859 182.063 655.606 180.684 655.587C178.014 655.559 175.595 654.065 174.525 651.787L173.695 650.013L173.515 647.371C174.195 647.044 174.605 646.371 174.575 645.652C174.605 645.027 174.935 644.457 175.485 644.102L179.014 641.824C179.014 641.824 179.034 641.815 179.044 641.805C180.384 640.956 182.243 641.329 183.233 642.543L183.623 643.019C184.293 643.832 184.663 644.812 184.683 645.811V645.821Z" fill="#F69386"/>
<path d="M174.575 649.836C172.286 652.861 169.227 647.221 171.386 646.493C172.016 646.287 172.286 646.726 172.746 647.212C172.926 647.399 173.215 647.473 173.465 647.399L174.185 647.165L174.575 649.836Z" fill="#F69386"/>
<path d="M185.612 724.143C186.502 723.181 187.022 721.388 187.552 718.914L192.291 719.791C191.201 722.34 191.411 725.039 192.521 727.635C191.521 727.887 190.331 727.719 189.091 726.738C188.022 725.889 186.952 724.703 185.622 724.143H185.612Z" fill="#F9B2A1"/>
<path d="M194.29 699.043C197.359 699.688 199.249 702.582 198.469 705.43L192.291 719.782L187.552 718.904C187.882 713.451 188.492 709.044 190.421 705.001L194.28 699.043H194.29Z" fill="#E6558A"/>
<path d="M180.594 695.318L194.28 699.044L192.7 707.681L176.105 704.851C173.495 704.403 171.346 702.751 170.246 700.715C169.027 698.455 170.446 695.719 173.075 695.141C175.555 694.59 178.144 694.655 180.594 695.318Z" fill="#E6558A"/>
<path d="M171.876 753.294H193.39C194.12 753.294 194.7 752.743 194.7 752.071C194.7 751.399 194.11 750.848 193.39 750.848H171.876C171.146 750.848 170.566 751.399 170.566 752.071C170.566 752.743 171.156 753.294 171.876 753.294Z" fill="#D2DAEF"/>
<path d="M175.355 734.162H196.61C197.339 734.162 197.919 733.611 197.919 732.939C197.919 732.266 197.329 731.715 196.61 731.715H175.355C174.625 731.715 174.045 732.266 174.045 732.939C174.045 733.611 174.635 734.162 175.355 734.162Z" fill="#D2DAEF"/>
<path d="M168.677 772.426H190.191C190.921 772.426 191.501 771.875 191.501 771.203C191.501 770.531 190.911 769.98 190.191 769.98H168.677C167.947 769.98 167.367 770.531 167.367 771.203C167.367 771.875 167.957 772.426 168.677 772.426Z" fill="#D2DAEF"/>
<path d="M196.29 772.426H217.804C218.534 772.426 219.114 771.875 219.114 771.203C219.114 770.531 218.524 769.98 217.804 769.98H196.29C195.56 769.98 194.98 770.531 194.98 771.203C194.98 771.875 195.57 772.426 196.29 772.426Z" fill="#D2DAEF"/>
<path d="M178.824 715.039H199.339C200.069 715.039 200.648 714.488 200.648 713.815C200.648 713.143 200.059 712.592 199.339 712.592H178.824C178.094 712.592 177.514 713.143 177.514 713.815C177.514 714.488 178.104 715.039 178.824 715.039Z" fill="#D2DAEF"/>
<path d="M184.453 682.843C184.563 682.171 184.073 681.545 183.353 681.442C182.633 681.33 181.963 681.797 181.853 682.47L164.048 789H166.707L184.453 682.843Z" fill="#D2DAEF"/>
<path d="M202.668 688.679L203.368 684.496C203.638 682.862 203.138 681.219 201.978 679.968C200.818 678.716 199.139 678.025 197.379 678.035L190.311 678.109C187.372 678.137 184.903 680.126 184.453 682.843C184.343 683.516 183.673 683.964 182.953 683.871C182.233 683.768 181.743 683.142 181.853 682.47C182.503 678.567 186.052 675.7 190.281 675.663L197.349 675.588C197.349 675.588 197.409 675.588 197.439 675.588C199.949 675.588 202.318 676.597 203.958 678.371C205.617 680.164 206.347 682.535 205.957 684.879L204.548 693.32L202.668 688.679Z" fill="#D2DAEF"/>
<path d="M184.053 726.3C184.493 725.515 185.012 724.787 185.612 724.143C186.942 724.693 188.012 725.889 189.081 726.738C190.331 727.719 191.511 727.896 192.511 727.635C193.14 729.119 194.11 730.408 195.95 731.584C197.809 732.77 197.719 733.48 196.589 733.909C195.08 734.479 191.761 734.311 189.051 731.519C188.242 730.679 187.282 730.034 186.262 729.624L185.132 729.175C183.963 728.709 183.463 727.345 184.053 726.3Z" fill="#3D2E80"/>
<path d="M183.473 688.315C183.363 687.643 182.693 687.185 181.973 687.288C181.253 687.391 180.764 688.016 180.874 688.688L197.639 788.991H200.299L183.473 688.306V688.315Z" fill="#D2DAEF"/>
<path d="M187.432 715.039H208.257C208.986 715.039 209.566 714.488 209.566 713.815C209.566 713.143 208.976 712.592 208.257 712.592H187.432C186.702 712.592 186.122 713.143 186.122 713.815C186.122 714.488 186.712 715.039 187.432 715.039Z" fill="#D2DAEF"/>
<path d="M193.39 645.979C192.541 644.541 190.881 643.691 189.041 643.738L184.473 643.878C182.413 643.981 182.293 646.119 183.753 646.726C184.723 647.128 186.352 646.988 187.162 647.585C188.382 648.5 189.821 650.013 192.591 648.314L193.4 645.97L193.39 645.979Z" fill="#F69386"/>
<path d="M162.398 682.274L170.766 683.179C169.187 680.77 169.916 679.108 172.816 678.147L165.458 675.775C162.228 675.28 160.329 675.859 159.449 677.26C158.139 679.342 159.839 681.994 162.408 682.274H162.398Z" fill="#FAD891"/>
<path d="M175.865 679.211C175.865 679.211 177.814 680.024 180.424 679.062C180.784 678.95 181.153 678.894 181.543 678.894L186.582 678.912C188.032 678.912 189.081 680.21 188.682 681.508C188.642 681.658 188.582 681.807 188.532 681.956C187.832 683.805 185.982 684.944 184.083 684.711C179.674 684.123 170.756 683.18 170.756 683.18C168.057 681.994 169.546 677.745 172.806 678.147C173.805 678.474 175.855 679.211 175.855 679.211H175.865Z" fill="#F69386"/>
<path d="M168.467 676.746L170.566 669.556C172.196 664.467 166.897 659.621 164.788 662.833L159.209 677.717L168.467 676.746Z" fill="#FAD891"/>
<path d="M103.963 666.783L99.0147 667.652C98.045 667.82 97.0552 667.605 96.2754 667.045L88.9573 661.844L89.3772 657.128C89.4372 656.465 89.0872 655.831 88.4774 655.504C86.7179 654.542 84.6184 654.262 82.6489 654.729L81.2393 655.055C80.2495 655.289 79.9696 656.465 80.7594 657.063L82.5289 659.425C82.9388 660.714 83.4987 661.89 84.4784 662.75L94.2559 673.758C95.9955 675.71 98.6948 676.681 101.384 676.298L104.713 675.831L103.963 666.774V666.783Z" fill="#D46A6B"/>
<path d="M104.483 676.895L115.73 675.308L113.511 665.074L103.653 666.811L104.483 676.895Z" fill="#D2DAEF"/>
<path d="M127.877 763.602C128.167 763.229 128.407 762.687 128.587 761.922C128.587 761.884 128.607 761.847 128.617 761.81C128.987 760.045 128.907 758.056 128.797 756.553C128.717 755.488 129.677 754.732 130.826 754.947C132.406 755.246 133.656 756.553 133.756 758.028C133.866 759.662 134.066 760.876 134.225 761.735C134.265 761.95 134.305 762.155 134.335 762.323C134.625 763.985 134.895 765.834 134.825 766.208H127.427C127.297 765.227 127.287 764.368 127.877 763.602Z" fill="#5E4596"/>
<path d="M110.172 763.603C111.481 763.21 112.721 762.641 113.741 761.8C113.821 761.735 113.891 761.66 113.961 761.595C117.07 758.831 115.37 756.021 115.57 754.938L120.719 754.779L120.919 757.412C121.069 759.419 121.789 761.259 122.039 762.165C122.049 762.211 122.069 762.267 122.079 762.305C122.509 763.967 122.748 765.816 122.329 766.189H107.382C107.292 765.209 107.632 764.35 110.182 763.584L110.172 763.603Z" fill="#5E4596"/>
<path d="M131.416 701.873L131.676 704.74C132.006 708.344 130.626 710.697 126.637 712.378C123.038 713.89 120.749 717.149 120.869 720.949L122.109 760.101L112.581 759.905L108.812 706.346C108.702 705.337 108.712 703.675 108.952 701.882H131.406L131.416 701.873Z" fill="#3D2E80"/>
<path d="M131.536 699.688L135.565 760.092H127.157L120.169 704.739L131.536 699.688Z" fill="#3D2E80"/>
<path d="M135.735 674.72L136.295 672.862C136.715 671.452 136.715 670.024 136.285 668.754C135.555 666.625 133.706 665.121 131.276 664.711L123.548 663.338L115.76 664.804C113.541 665.224 112.101 667.25 111.121 669.192L111.331 677.139C111.361 681.49 110.332 692.284 109.442 696.71L108.432 705.422H112.181C115.4 705.422 118.729 704.721 121.869 703.293C123.948 702.35 126.188 701.808 128.417 701.808H131.726L135.735 674.72Z" fill="#BF83B0"/>
<path d="M112.601 681.994C112.711 681.06 112.861 680.117 113.061 679.192L117.09 664.551L115.74 664.803C113.521 665.224 111.621 666.624 110.632 668.566L110.692 677.11C110.722 681.461 109.972 688.576 109.082 693.002C108.212 697.325 107.932 700.79 109.312 701.826H110.362L112.581 682.003L112.601 681.994Z" fill="#D2DAEF"/>
<path d="M136.995 668.837C136.265 666.708 134.416 665.205 131.986 664.794L128.217 664.141L124.718 676.289C124.018 679.445 123.498 682.619 123.158 685.794L122.099 695.869C121.759 699.146 124.338 701.808 127.867 701.808H131.786C132.706 700.444 133.396 698.866 133.516 697.27L134.406 685.906C134.665 682.171 135.355 678.436 136.455 674.785L137.015 672.927C137.435 671.517 137.435 670.089 137.005 668.819L136.995 668.837Z" fill="#D2DAEF"/>
<path d="M127.207 663.973C127.307 666.027 126.188 667.418 124.578 668.548C123.848 669.052 122.888 669.174 122.049 668.847L116.38 666.634C116.07 666.625 115.77 666.765 115.58 666.989C114.801 667.932 113.191 667.633 112.851 666.485L112.001 663.562L111.051 662.992C110.532 662.675 110.322 662.068 110.552 661.526L111.391 659.538C111.661 658.884 111.561 658.156 111.111 657.595C110.692 657.073 110.462 656.438 110.482 655.784C110.492 655.28 110.542 654.794 110.632 654.346C111.271 650.863 114.96 648.613 118.63 649.463C122.968 650.462 126.717 652.768 125.878 658.109C125.648 659.575 125.718 661.05 126.038 662.469L127.207 663.991V663.973Z" fill="#D46A6B"/>
<path d="M115.69 649.528C114.721 649.817 114.751 651.106 115.73 651.348C117.24 651.722 118.979 652.086 117.72 654.206C117.34 654.841 117.38 655.634 117.85 656.213C118.28 656.736 118.36 657.278 118.3 657.838L117.53 662.74C117.41 663.524 116.5 663.926 115.75 663.562C114.85 663.123 113.791 663.039 112.821 663.319L111.991 663.562L112.231 666.494C112.331 667.745 113.571 668.632 114.89 668.417L117.12 668.053C118.3 667.857 119.199 666.951 119.309 665.831L119.969 659.155C120.049 658.333 120.979 657.791 121.769 658.155C121.819 658.174 121.859 658.202 121.909 658.23L121.959 658.258C122.648 658.669 123.158 659.369 123.378 660.2C123.668 661.33 123.918 662.227 125.168 662.339L126.018 662.413C126.018 662.413 125.918 659.986 126.887 658.267C129.917 652.87 124.418 646.96 115.69 649.528Z" fill="#3D2E80"/>
<path d="M108.782 656.942L72.8213 655.606V661.05L108.782 659.715C109.582 659.687 110.212 659.071 110.212 658.333C110.212 657.586 109.582 656.979 108.782 656.951V656.942Z" fill="#F5BA58"/>
<path d="M74.9707 658.324C74.9707 656.82 74.001 655.597 72.8113 655.597C71.6216 655.597 70.6519 656.82 70.6519 658.324C70.6519 659.827 71.6216 661.05 72.8113 661.05C74.001 661.05 74.9707 659.827 74.9707 658.324Z" fill="#D2DAEF"/>
<path d="M124.948 668.352L119.759 670.443L106.053 661.461L106.433 658.295C106.503 657.595 106.123 656.913 105.473 656.559C103.593 655.532 101.354 655.233 99.2445 655.728L97.7449 656.082C96.6951 656.325 96.3952 657.586 97.225 658.23L99.1645 659.715C99.6044 661.097 100.204 662.348 101.244 663.263L116.35 677.773C116.79 678.193 117.35 678.473 117.96 678.595C120.909 679.155 123.978 678.604 127.107 677.596L124.948 668.352Z" fill="#D46A6B"/>
<path d="M88.8972 661.751C89.3871 660.966 89.1372 659.229 88.3874 658.651L86.5378 657.222C85.1782 655.961 83.5886 656.792 85.5581 659.015C85.818 659.304 86.078 659.622 86.3579 659.93L86.9077 662.479L88.8872 661.76L88.8972 661.751Z" fill="#D46A6B"/>
<path d="M126.328 678.903C128.517 678.193 130.737 677.278 132.956 676.335C134.755 675.57 136.005 673.954 136.115 672.115C136.225 670.257 135.665 668.641 134.236 667.343C132.956 666.176 131.016 665.896 129.377 666.559L123.958 668.744C126.218 671.956 127.117 675.336 126.328 678.903Z" fill="#E7EDF8"/>
<path d="M146.243 685.243C148.312 682.815 150.751 680.005 150.492 676.755C150.332 674.776 148.572 672.46 146.383 672.74C145.543 672.852 144.663 672.759 143.983 672.273L137.175 673.917C135.855 675.57 135.635 677.773 136.505 679.669L137.585 682.012L146.233 685.243H146.243Z" fill="#3D2E80"/>
<path d="M135.915 778.897C135.725 781.045 135.275 784.612 133.716 786.274C132.976 787.067 132.836 787.964 132.806 788.991H141.014C141.094 784.21 140.634 782.716 140.854 780.438L135.915 778.888V778.897Z" fill="#3D2E80"/>
<path d="M152.181 778.897C152.271 781.045 152.541 784.612 154.011 786.274C154.71 787.067 154.8 787.964 154.78 788.991H146.573C146.732 784.21 147.262 782.716 147.152 780.438L152.171 778.888L152.181 778.897Z" fill="#3D2E80"/>
<path d="M154.201 760.175C153.721 756.375 153.011 752.435 153.181 748.597L153.961 729.68C154.091 726.533 151.511 723.862 148.152 723.648L142.894 723.321L130.387 722.415L130.147 725.87C130.007 727.896 130.027 729.922 130.207 731.949L132.056 752.752C132.376 755.292 132.596 757.841 132.686 760.409C132.926 767.291 132.756 773.911 133.286 780.55C133.366 781.549 134.356 782.296 135.395 782.081C137.055 781.735 138.875 781.988 140.854 782.8C141.984 774.312 143.233 766.319 142.454 760.185C141.974 756.384 141.264 752.444 141.434 748.606L142.134 739.437L143.873 753.378C144.153 755.6 144.333 757.832 144.413 760.073C144.643 766.198 145.013 777.45 145.153 781.978C145.183 783.024 146.203 783.799 147.302 783.622L152.591 782.791C153.721 774.303 154.97 766.31 154.191 760.175H154.201Z" fill="#596EA7"/>
<path d="M153.781 720.912C154.26 709.828 154.23 712.919 155.3 705.86L157.22 698.492C157.78 696.326 156.67 694.095 154.53 693.096L143.473 687.969L131.736 692.19C129.537 692.983 128.157 695.038 128.357 697.232C129.517 710.23 129.327 701.378 129.217 723.984C129.217 724.927 129.587 725.786 130.207 726.449C132.896 727.177 136.665 727.401 141.054 727.018L142.114 731.64C146.232 731.743 149.932 730.809 152.541 729.745C153.701 729.269 154.37 728.129 154.21 726.962L154.01 725.412C153.811 723.909 153.741 722.396 153.811 720.893L153.781 720.912Z" fill="#3DB2A0"/>
<path d="M147.282 703.852L156.97 702.097C159.429 701.649 160.889 700.472 161.769 699.1C163.378 696.625 162.278 693.385 159.509 692.087L157.72 691.247L156.82 692.339L145.113 689.585L147.272 703.852H147.282Z" fill="#3DB2A0"/>
<path d="M143.473 687.979L137.325 690.191C136.605 693.534 138.175 695.476 139.924 697.643C140.474 698.324 141.494 698.558 142.294 698.128C145.223 696.578 147.962 693.497 148.962 690.518L143.473 687.979Z" fill="#E7EDF8"/>
<path d="M145.143 692.414C146.243 691.76 146.942 690.649 147.102 689.435C147.312 687.867 147.522 686.139 147.682 685.168C148.082 682.684 146.323 682.18 143.533 682.414C142.174 682.526 140.304 683.441 139.564 684.645L138.925 690.733C138.745 692.386 140.374 693.46 142.204 693.712C143.273 693.357 144.263 692.937 145.143 692.414Z" fill="#EF897B"/>
<path d="M148.622 678.119C148.972 674.253 137.935 673.87 137.495 676.923C137.005 679.314 135.785 684.832 137.215 687.129C137.965 688.334 139.254 688.894 140.654 689.09C142.644 689.361 147.452 689.174 147.532 685.7C150.611 684.459 149.502 680.761 148.292 681.2L148.622 678.119Z" fill="#EF897B"/>
<path d="M141.624 681.947C142.164 681.947 142.664 682.189 143.033 682.553C143.383 682.899 143.873 683.114 144.423 683.114C145.623 683.114 146.563 682.087 146.303 680.929C146.153 680.247 145.553 679.696 144.823 679.556C144.113 679.425 143.453 679.659 143.013 680.098C142.654 680.462 142.154 680.695 141.624 680.695V681.956V681.947Z" fill="#3D2E80"/>
<path d="M147.532 674.374L146.492 678.006C146.962 678.753 147.162 679.622 147.052 680.481L146.922 681.508C146.872 681.872 147.152 682.199 147.552 682.246C147.942 682.292 148.292 682.031 148.342 681.657L148.582 679.743C148.742 679.687 148.912 679.603 149.082 679.472C150.531 678.38 149.382 674.608 147.532 674.365V674.374Z" fill="#3D2E80"/>
<path d="M148.072 676.036C147.342 675.943 146.842 675.728 146.083 675.803C145.263 675.878 144.423 675.98 143.613 676.13C142.154 676.4 140.704 676.802 139.194 676.811C137.915 676.811 135.585 676.419 135.335 674.981C135.155 673.982 135.935 673.254 136.795 672.759C138.685 671.676 140.754 671.508 142.913 671.9C145.293 672.329 147.502 673.59 148.062 676.046L148.072 676.036Z" fill="#3D2E80"/>
<path d="M135.156 704.459L123.698 702.62C120.459 702.097 117.96 699.688 117.51 696.653C117.33 695.421 118.18 694.254 119.49 693.983L137.325 690.192L135.166 704.459H135.156Z" fill="#3DB2A0"/>
<path d="M137.015 683.32C136.575 682.713 131.696 685.243 132.146 682.134C132.486 679.781 136.935 683.151 137.095 681.219L135.025 679.529C134.426 679.043 133.626 678.828 132.836 678.959L131.036 679.258C130.167 679.407 129.427 679.93 129.047 680.677L128.427 681.891C127.737 683.245 126.838 684.496 125.758 685.607L118.84 692.75C117.62 694.011 117.17 695.785 117.71 697.41C117.71 697.419 117.71 697.438 117.72 697.447C118.35 699.286 120.119 700.183 121.869 700.118C123.438 700.061 124.988 699.23 125.678 697.624L130.037 687.493L136.525 684.72C137.075 684.291 137.375 683.805 137.015 683.301V683.32Z" fill="#F69386"/>
<path d="M141.264 680.686C140.724 680.686 140.234 680.462 139.874 680.088C139.524 679.734 139.014 679.509 138.455 679.519H133.056V683.114H138.475C139.024 683.114 139.514 682.899 139.864 682.553C140.234 682.189 140.734 681.947 141.274 681.947H141.634V680.686H141.274H141.264Z" fill="#3D2E80"/>
<path d="M159.199 692.769L150.652 683.945L148.982 680.686C148.602 679.939 147.862 679.416 146.992 679.267L145.193 678.968C144.413 678.837 143.603 679.043 143.003 679.538L140.934 681.228C141.094 683.161 145.543 679.79 145.883 682.143C146.333 685.252 141.454 682.722 141.014 683.329C140.654 683.833 140.954 684.318 141.504 684.748L145.563 686.485C147.122 687.148 148.342 688.352 148.982 689.837L152.351 697.652C153.821 701.051 159.109 700.976 160.309 697.475C160.319 697.437 160.329 697.4 160.349 697.363C160.869 695.757 160.399 694.02 159.199 692.778V692.769Z" fill="#F69386"/>
<path d="M143.843 679.584C142.614 679.351 141.484 679.762 140.744 680.509C140.124 681.134 139.274 681.527 138.355 681.527H137.735C136.815 681.527 135.965 681.134 135.345 680.509C134.606 679.762 133.476 679.36 132.246 679.584C130.987 679.818 129.967 680.761 129.707 681.937C129.257 683.936 130.877 685.691 132.936 685.691C133.886 685.691 134.726 685.318 135.325 684.72C135.965 684.085 136.815 683.684 137.735 683.684H138.355C139.284 683.684 140.134 684.094 140.764 684.72C141.364 685.318 142.214 685.691 143.153 685.691C145.213 685.691 146.833 683.936 146.383 681.937C146.123 680.761 145.093 679.818 143.843 679.584Z" fill="#5E4596"/>
<path d="M136.235 682.6C136.235 684.309 134.756 685.691 132.926 685.691C131.097 685.691 129.617 684.309 129.617 682.6C129.617 680.892 131.097 679.51 132.926 679.51C134.756 679.51 136.235 680.892 136.235 682.6Z" fill="#6C84B7"/>
<path d="M146.463 682.6C146.463 684.309 144.983 685.691 143.153 685.691C141.324 685.691 139.844 684.309 139.844 682.6C139.844 680.892 141.324 679.51 143.153 679.51C144.983 679.51 146.463 680.892 146.463 682.6Z" fill="#6C84B7"/>
<path d="M182.353 645.886H179.044C178.144 645.886 177.415 646.568 177.415 647.408C177.415 648.249 178.144 648.93 179.044 648.93H182.353C183.253 648.93 183.983 648.249 183.983 647.408C183.983 646.568 183.253 645.886 182.353 645.886Z" fill="#5E4596"/>
<path d="M180.824 649.537L189.162 650.508V644.336L180.824 645.307C179.674 645.438 178.814 646.353 178.814 647.427C178.814 648.5 179.674 649.415 180.824 649.546V649.537Z" fill="#3D2E80"/>
<path d="M185.643 649.537L193.98 650.508V644.336L185.643 645.307C184.493 645.438 183.633 646.353 183.633 647.427C183.633 648.5 184.493 649.415 185.643 649.546V649.537Z" fill="#3D2E80"/>
<path d="M194.23 644.392C193.66 644.159 193.141 644.569 192.791 645.316C192.501 645.942 192.111 646.334 191.681 646.334H191.391C190.961 646.334 190.571 645.942 190.281 645.316C189.941 644.569 189.412 644.168 188.842 644.392C188.262 644.625 187.782 645.569 187.662 646.745C187.452 648.743 188.202 650.499 189.162 650.499C189.601 650.499 189.991 650.125 190.271 649.528C190.571 648.893 190.961 648.491 191.391 648.491H191.681C192.111 648.491 192.511 648.902 192.801 649.528C193.081 650.125 193.47 650.499 193.91 650.499C194.87 650.499 195.62 648.743 195.41 646.745C195.29 645.569 194.81 644.625 194.23 644.392Z" fill="#5E4596"/>
<path d="M190.691 647.417C190.691 649.126 190.001 650.508 189.161 650.508C188.322 650.508 187.632 649.126 187.632 647.417C187.632 645.709 188.322 644.327 189.161 644.327C190.001 644.327 190.691 645.709 190.691 647.417Z" fill="#6C84B7"/>
<path d="M195.44 647.417C195.44 649.126 194.75 650.508 193.91 650.508C193.071 650.508 192.381 649.126 192.381 647.417C192.381 645.709 193.071 644.327 193.91 644.327C194.75 644.327 195.44 645.709 195.44 647.417Z" fill="#6C84B7"/>
<path d="M288.996 689.015C288.576 688.511 288.126 688.016 287.626 687.521C286.717 686.634 286.197 685.411 285.817 684.067L284.957 682.377C284.517 681.499 285.087 680.444 286.027 680.388L288.956 680.22C290.586 680.117 292.045 681.293 292.375 682.965L293.105 686.644C297.344 690.883 299.303 693.75 300.903 696.822C301.403 697.774 301.363 698.978 300.763 699.856C297.684 704.385 289.676 703.404 281.618 702.359V694.618L293.835 696.644L288.986 688.997L288.996 689.015Z" fill="#F69386"/>
<path d="M281.748 679.482C283.417 679.23 284.127 677.353 283.007 676.158C279.198 672.115 267.381 673.796 267.381 680.715C267.381 683.366 266.092 686.177 264.122 688.231C263.472 688.903 263.083 689.66 262.853 690.369C262.423 691.686 263.522 693.003 265.002 692.891L266.552 692.778L269.771 689.66L269.621 691.191C269.551 691.91 270.191 692.508 270.961 692.452L281.298 691.677L279.778 679.706L281.768 679.482H281.748Z" fill="#3D2E80"/>
<path d="M287.996 759.728C288.516 762.912 289.616 765.358 290.895 769.084C293.045 769.168 295.774 768.085 298.264 768.075L297.394 757.459C296.814 750.652 291.995 739.372 288.246 731.183C287.826 729.101 287.116 727.177 286.317 725.693L273.2 722.453C270.071 721.678 267.431 723.779 267.741 726.823L268.241 731.855L269.361 732.911C273.83 733.919 277.749 736.683 279.838 740.306L285.397 750.549C287.546 754.247 287.346 755.769 287.996 759.737V759.728Z" fill="#3D2E80"/>
<path d="M299.713 785.312L298.274 768.075C295.784 768.085 292.665 768.477 290.906 769.093C292.285 772.903 293.865 778.029 295.074 782.567C295.324 783.491 295.404 784.406 295.344 785.275V785.331L297.634 786.526C298.684 786.797 299.723 786.432 299.713 785.321V785.312Z" fill="#F9B2A1"/>
<path d="M295.344 785.172C296.584 786.246 298.454 786.124 299.373 785.181C299.713 784.827 300.313 784.78 300.783 785.088C302.023 785.891 303.152 786.479 304.942 786.769C305.692 786.89 306.421 787.236 307.031 787.749C307.591 788.216 307.341 789 306.651 789H295.044C294.285 787.32 294.305 786.535 295.344 785.172Z" fill="#FAD891"/>
<path d="M264.272 784.079C265.052 786.059 267.622 785.442 269.391 784.621L269.211 784.033C268.851 782.884 268.741 781.708 268.911 780.568L270.551 769.214C270.121 769.149 269.711 769.102 269.341 769.037C267.522 768.719 265.722 768.374 263.912 768.01C263.433 767.916 262.933 767.86 262.423 767.813C262.793 772.856 263.972 778.206 264.272 784.089V784.079Z" fill="#F9B2A1"/>
<path d="M263.672 756.394C262.413 760.092 262.223 763.855 262.433 767.776C262.403 769.009 268.691 771.698 270.561 769.149L271.94 759.783C272.22 758.056 273.36 755.451 273.89 753.817C275.05 750.222 279.628 733.592 279.918 730.417L271.69 717.522L268.611 721.762C261.773 731.164 265.022 739.801 265.102 748.541C265.002 751.258 264.522 753.901 263.672 756.394Z" fill="#3D2E80"/>
<path d="M263.373 699.978C262.893 697.475 264.672 695.085 267.352 694.637L272.32 693.815C275.729 692.788 279.588 693.227 282.788 695.02L283.837 695.608C285.177 696.252 286.257 697.121 286.467 698.615C286.577 699.418 286.687 700.221 286.937 700.996L287.906 703.965C288.906 707.018 288.436 710.221 286.617 712.807C285.547 714.311 285.447 714.488 285.737 716.3C287.106 723.237 287.816 725.45 289.636 730.997L293.475 743.219C291.455 742.472 289.596 742.939 287.806 743.77C286.887 744.2 279.308 749.335 270.671 748.037C267.611 747.58 265.162 745.367 264.412 742.566C262.893 736.954 263.563 732.547 264.822 728.541C265.792 725.469 267.132 722.649 267.102 719.334L263.363 699.978H263.373Z" fill="#E6558A"/>
<path d="M279.548 687.017L279.248 690.537C279.109 692.143 280.028 693.675 281.558 694.412C281.848 694.552 282.128 694.693 282.408 694.842L283.177 696.448C283.677 697.494 282.868 698.67 281.648 698.68L277.149 698.717C274.58 698.53 272.15 696.812 271.86 693.992C272.05 693.945 272.23 693.871 272.41 693.805C272.41 693.805 272.6 692.106 272.78 690.537C272.93 689.193 272.15 686.018 272.15 686.018L279.538 687.027L279.548 687.017Z" fill="#F69386"/>
<path d="M274.55 788.991C274.6 787.6 273.51 787.31 272.86 787.077C272.06 786.797 271.31 786.694 270.651 786.087C270.051 785.536 269.481 784.668 269.211 783.837C268.191 783.136 267.481 784.35 266.482 784.248C265.192 784.126 264.272 783.566 264.162 782.212C263.492 783.734 261.973 785.713 264.112 786.703C266.302 787.712 267.062 788.991 269.391 788.982H274.55V788.991Z" fill="#FAD891"/>
<path d="M267.851 681.788C260.773 681.34 266.502 672.236 269.841 677.867C271.61 680.845 268.921 681.863 267.851 681.788Z" fill="#3D2E80"/>
<path d="M274.34 687.054C271.21 690.855 268.351 683.488 270.95 683.058C271.84 682.909 272 683.74 272.67 684.515L274.33 687.054H274.34Z" fill="#F9B2A1"/>
<path d="M283.427 679.323C283.247 677.82 281.788 676.737 280.178 676.914L279.748 676.961C278.339 677.11 277.199 678.035 276.729 679.286C276.559 679.734 276.359 680.173 276.129 680.593C275.459 681.826 274.03 684.085 272.49 684.72L272.82 687.12L273.85 688.875C275.2 691.163 277.879 692.479 280.668 692.199C282.048 692.059 283.217 691.163 283.657 689.93L283.967 689.062C284.507 687.549 284.627 685.915 284.157 684.393C283.977 683.805 283.887 683.198 283.807 682.591L283.407 679.332L283.427 679.323Z" fill="#F9B2A1"/>
<path d="M283.028 682.003L316.099 680.294L316.179 685.299L283.068 684.552C282.338 684.534 281.748 683.983 281.738 683.301C281.728 682.619 282.298 682.05 283.028 682.012V682.003Z" fill="#DA7459"/>
<path d="M314.15 682.825C314.13 681.443 314.999 680.304 316.089 680.294C317.189 680.276 318.088 681.387 318.118 682.769C318.138 684.15 317.269 685.29 316.179 685.299C315.079 685.318 314.18 684.207 314.15 682.825Z" fill="#D2DAEF"/>
<path d="M269.451 703.563C267.831 703.535 266.212 701.92 265.822 699.688C265.822 699.66 265.822 699.641 265.812 699.613C265.482 697.587 266.602 695.897 268.071 696.009L275.629 696.569L279.069 697.018L295.794 686.354L295.414 682.47C295.344 681.788 295.714 681.125 296.344 680.78C298.174 679.781 300.353 679.491 302.403 679.977L303.862 680.322C304.882 680.565 305.182 681.788 304.362 682.414L302.473 683.861C302.043 685.206 301.463 686.429 300.453 687.316L284.917 701.705C283.357 703.152 281.228 703.927 279.039 703.862L269.461 703.582L269.451 703.563Z" fill="#F9B2A1"/>
<path d="M121.769 781.39L106.213 788.991H130.067L129.437 785.022C128.897 781.67 124.988 779.812 121.779 781.39H121.769Z" fill="#7997C7"/>
<path d="M219.364 599.629C219.364 599.629 219.214 597.901 218.994 594.783" stroke="#B3B3B3" stroke-width="1.89" stroke-linecap="round" stroke-linejoin="round" stroke-dasharray="3.78 3.78"/>
<path d="M218.354 585.118C215.435 535.985 210.526 380.816 267.931 415.514C313.899 443.293 228.181 491.184 227.142 389.033C226.582 333.999 282.927 306.845 284.927 246.507C288.136 149.464 119.969 82.1692 103.973 193.284C84.3483 329.61 340.413 342.673 329.106 64.9604" stroke="#B3B3B3" stroke-width="1.89" stroke-linecap="round" stroke-linejoin="round" stroke-dasharray="3.78 3.78"/>
<path d="M328.886 60.105C328.806 58.4989 328.716 56.8742 328.616 55.2495" stroke="#B3B3B3" stroke-width="1.89" stroke-linecap="round" stroke-linejoin="round" stroke-dasharray="3.78 3.78"/>
<path d="M327.486 31.7471H327.466C321.098 31.7471 315.919 36.5652 315.919 42.5131V42.5318C315.919 50.6179 327.466 62.5605 327.466 62.5605C327.466 62.5605 339.013 50.6179 339.013 42.5318C339.013 36.5838 333.854 31.7471 327.486 31.7471ZM327.466 46.3881C325.187 46.3881 323.347 44.6607 323.347 42.5318C323.347 40.4028 325.197 38.6848 327.466 38.6848C329.735 38.6848 331.595 40.4122 331.595 42.5318C331.595 44.6607 329.745 46.3788 327.466 46.3881Z" fill="#6E293C"/>
<path d="M205.567 65H205.547C199.179 65 194 69.8181 194 75.766V75.7847C194 83.8709 205.547 95.8134 205.547 95.8134C205.547 95.8134 217.094 83.8709 217.094 75.7847C217.094 69.8368 211.935 65 205.567 65ZM205.547 79.641C203.268 79.641 201.428 77.9136 201.428 75.7847C201.428 73.6558 203.278 71.9377 205.547 71.9377C207.816 71.9377 209.676 73.6651 209.676 75.7847C209.676 77.9136 207.826 79.6317 205.547 79.641Z" fill="#6E293C"/>
<path d="M43.567 110H43.547C37.1787 110 32 114.818 32 120.766V120.785C32 128.871 43.547 140.813 43.547 140.813C43.547 140.813 55.0941 128.871 55.0941 120.785C55.0941 114.837 49.9354 110 43.567 110ZM43.547 124.641C41.2676 124.641 39.4281 122.914 39.4281 120.785C39.4281 118.656 41.2776 116.938 43.547 116.938C45.8165 116.938 47.676 118.665 47.676 120.785C47.676 122.914 45.8265 124.632 43.547 124.641Z" fill="#6E293C"/>
<path d="M193.917 437H193.897C187.329 437 182 441.967 182 448.093V448.111C182 456.44 193.897 468.747 193.897 468.747C193.897 468.747 205.794 456.44 205.794 448.111C205.794 441.977 200.475 437 193.917 437ZM193.897 452.08C191.548 452.08 189.648 450.306 189.648 448.111C189.648 445.917 191.548 444.143 193.897 444.143C196.246 444.143 198.146 445.917 198.146 448.111C198.146 450.306 196.246 452.08 193.897 452.08Z" fill="#6E293C"/>
<path d="M289.917 187H289.897C283.329 187 278 191.967 278 198.093V198.111C278 206.44 289.897 218.747 289.897 218.747C289.897 218.747 301.794 206.44 301.794 198.111C301.794 191.977 296.475 187 289.917 187ZM289.897 202.08C287.548 202.08 285.648 200.306 285.648 198.111C285.648 195.917 287.548 194.143 289.897 194.143C292.246 194.143 294.146 195.917 294.146 198.111C294.146 200.306 292.246 202.08 289.897 202.08Z" fill="#6E293C"/>
<path d="M232.467 599H232.447C226.679 599 222 603.361 222 608.748V608.767C222 616.087 232.447 626.9 232.447 626.9C232.447 626.9 242.895 616.097 242.895 608.767C242.895 603.379 238.226 599.009 232.457 599.009L232.467 599ZM232.447 612.25C230.388 612.25 228.718 610.69 228.718 608.767C228.718 606.843 230.388 605.284 232.447 605.284C234.507 605.284 236.176 606.843 236.176 608.767C236.176 610.69 234.507 612.25 232.447 612.25Z" fill="#6E293C"/>
</g>
<defs>
<clipPath id="clip0_536_122433">
<rect width="390" height="789" fill="white"/>
</clipPath>
</defs>
</svg>
