<svg width="251" height="246" viewBox="0 0 251 246" fill="none" xmlns="http://www.w3.org/2000/svg">
<g clip-path="url(#clip0_536_122744)">
<g opacity="0.88">
<path d="M18.3929 213.449C18.3929 213.449 80.0571 195.03 95.2095 199.365C110.355 203.701 149.304 213.449 149.304 213.449C149.304 213.449 186.089 203.701 195.823 206.946C205.557 210.197 251 228.616 251 228.616C251 228.616 188.254 247.035 170.944 245.952C153.634 244.868 108.197 236.204 108.197 236.204C108.197 236.204 49.773 241.623 42.2037 239.455C34.6275 237.287 0.00732422 221.036 0.00732422 221.036L18.3997 213.449H18.3929Z" fill="#AB552E"/>
<path d="M43.6304 187.015L79.3605 187.387C79.3605 187.387 77.6785 216.238 74.4936 219.234C71.3156 222.23 63.4567 224.295 60.2787 223.542C57.1007 222.79 49.9864 221.478 47.3668 218.861C44.7472 216.245 43.6235 187.015 43.6235 187.015H43.6304Z" fill="#382125"/>
<path d="M58.5967 176.521C58.5967 176.521 58.9689 206.124 59.3481 207.056C59.7204 207.995 61.7816 209.493 61.7816 209.493C61.7816 209.493 63.8428 207.429 64.0289 206.311C64.2151 205.185 65.1526 177.08 65.1526 177.08L58.6036 176.521H58.5967Z" fill="#27171B"/>
<path d="M63.4912 176.942L65.1526 47.249C65.1526 47.249 64.5942 46.1237 63.6566 45.5645C62.7191 45.0053 61.4093 46.5034 61.4093 46.5034L59.9409 176.638L63.4912 176.942Z" fill="#985634"/>
<path d="M61.2165 60.0484C61.2165 60.0484 57.225 59.1094 57.0389 59.862C56.8528 60.6145 57.7903 63.0446 57.7903 63.0446C57.7903 63.0446 55.543 64.1699 55.6671 64.6669C55.7912 65.164 57.9765 67.2903 57.9765 67.2903C57.9765 67.2903 56.5426 68.1671 56.9148 68.6642C57.2871 69.1613 58.5349 69.9138 58.5349 69.9138C58.5349 69.9138 57.7214 70.9148 58.2867 71.4119C58.8451 71.9089 61.7818 72.0332 61.7818 72.0332L61.3475 70.3487C61.3475 70.3487 62.6573 70.6594 62.285 69.5962C61.9128 68.533 61.4716 68.036 61.4716 68.036C61.4716 68.036 62.03 67.5389 62.092 66.9106C62.154 66.2893 61.4095 64.5979 61.4095 64.5979C61.4095 64.5979 62.285 64.7843 62.285 64.2251C62.285 63.6659 61.4095 62.6027 61.3475 62.4163C61.2854 62.2299 61.2234 60.0415 61.2234 60.0415L61.2165 60.0484Z" fill="#EDB786"/>
<path d="M116.828 36.2579C116.828 36.2579 110.072 34.8771 107.921 33.9727C105.77 33.0684 95.8915 29.4991 94.2163 29.0642C92.5411 28.6362 88.3291 27.856 88.6738 26.5651C89.0185 25.2741 102.123 15.0773 104.612 13.8277C107.101 12.5781 112.519 11.4597 113.939 10.4725C115.359 9.48527 125.41 4.40413 127.003 4.23154C128.595 4.05895 139.253 11.3286 140.921 12.0189C142.596 12.7093 152.951 25.4881 154.412 26.3027C155.874 27.1243 159.438 28.9675 158.755 30.4795C158.066 31.9845 146.595 35.9886 143.589 36.6307C140.583 37.2727 134.565 37.1899 134.565 37.1899C134.565 37.1899 135.124 28.9192 134.117 26.496C133.118 24.0728 126.493 21.7325 124.645 22.2571C122.798 22.7818 118.82 24.777 118.227 25.4881C117.634 26.2061 116.848 27.6904 116.683 28.4498C116.517 29.2023 116.835 36.251 116.835 36.251L116.828 36.2579Z" fill="#382125"/>
<path d="M134.117 26.5032C133.117 24.08 126.493 21.7396 124.645 22.2643C122.798 22.789 118.82 24.7842 118.227 25.4952C117.634 26.2132 116.848 27.6975 116.683 28.4569C116.607 28.8159 116.635 30.6385 116.683 32.4266C116.883 36.983 117.289 43.2102 117.593 43.9972C118.048 45.1708 122.349 48.1739 123.825 48.4777C125.3 48.7815 126.865 48.8919 127.775 48.4777C128.685 48.0566 132.207 45.516 133.042 44.1905C133.476 43.5001 134.172 40.2278 134.6 36.4307C134.71 34.3182 134.924 28.4776 134.11 26.5101L134.117 26.5032Z" fill="#EDB786"/>
<path d="M127.003 4.23861C127.354 4.19719 128.161 4.53547 129.202 5.07396C127.74 3.00975 126.293 1.04909 125.982 0.848887C125.334 0.434664 121.736 3.12711 120.178 4.79781C119.558 5.46747 118.93 6.75156 118.399 8.05636C121.812 6.32353 126.024 4.34907 127.01 4.23861H127.003Z" fill="#27171B"/>
<path d="M129.767 52.7854L129.753 47.1934C128.905 47.8147 128.14 48.3187 127.782 48.4775C126.872 48.8917 125.307 48.7812 123.832 48.4775C123.342 48.3739 122.543 47.9735 121.674 47.4488C121.543 48.9538 121.136 53.5034 120.916 53.6552C120.647 53.8347 118.868 54.1454 118.868 54.1454L118.572 62.1744L120.991 61.6014C120.991 61.6014 120.943 68.2842 121.178 69.1334C121.405 69.9894 122.674 74.7323 122.674 74.7323C122.674 74.7323 126.196 62.0571 126.265 61.4633C126.334 60.8627 126.196 59.8755 126.196 59.8755L130.732 52.9372L129.788 52.7854H129.767Z" fill="#EDB786"/>
<path d="M127.782 48.4775C126.872 48.8917 125.307 48.7812 123.832 48.4775C123.342 48.3739 122.543 47.9735 121.674 47.4488C121.64 47.8561 121.585 48.4982 121.516 49.2092C123.156 50.6245 125.369 51.9983 127.051 50.9904C128.292 50.2517 129.154 49.3266 129.76 48.4844V47.1934C128.913 47.8147 128.14 48.3187 127.782 48.4775Z" fill="#EA9A6C"/>
<path d="M146.174 60.6142L152.896 58.5154C152.896 58.5154 151.703 54.7667 150.986 53.0477C150.269 51.3287 148.18 46.9448 148.18 46.9448L141.576 50.2103C141.576 50.2103 131.828 51.8396 130.911 52.2469C130.677 52.3504 130.298 52.5506 129.871 52.7992L130.712 52.9303L126.175 59.8686C126.175 59.8686 126.313 60.8627 126.244 61.4564C126.175 62.057 122.653 74.7254 122.653 74.7254C122.653 74.7254 121.391 69.9756 121.157 69.1265C120.929 68.2704 120.971 61.5945 120.971 61.5945L118.551 62.1675L118.847 54.1385C118.847 54.1385 120.633 53.8278 120.895 53.6483C120.916 53.6345 120.943 53.5655 120.964 53.4826C118.813 53.7243 110.754 54.6563 109.92 55.3259C108.955 56.0922 98.711 70.2518 98.2766 70.9836C97.8423 71.7153 95.9121 73.9176 95.9121 73.9176L101.034 79.0126L102.33 75.3122L102.13 80.3105L107.197 84.4734L107.949 80.6626C117.331 79.7375 132.821 82.3678 132.821 82.3678L132.807 82.5266L132.869 82.4299C132.869 82.4299 134.441 81.9052 134.965 80.9387C135.489 79.9722 137.543 66.8275 137.543 66.8275L153.564 62.2296L153.606 60.2138L146.16 60.6142H146.174Z" fill="#B03C2C"/>
<path d="M106.894 78.0671C106.736 77.287 108.955 67.0074 108.955 67.0074L107.632 69.617L106.115 60.1865C102.813 64.6187 98.5666 70.5145 98.2908 70.977C97.8565 71.7088 95.9263 73.9111 95.9263 73.9111L101.048 79.006L102.344 75.3057L102.144 80.3039L107.177 84.4324L107.521 82.8928L107.963 80.6491C107.963 80.6491 108.004 80.6491 108.025 80.6491L108.052 80.518C108.052 80.518 107.039 78.8473 106.887 78.0671H106.894Z" fill="#9C2827"/>
<path d="M137.854 66.6204C137.502 65.7505 134.931 59.3369 134.345 58.0805C133.869 57.0794 132.153 53.7518 131.312 52.1226C131.139 52.1709 130.994 52.2123 130.919 52.2399C130.836 52.2744 130.719 52.3366 130.608 52.3918C131.436 53.9866 133.2 57.4039 133.669 58.3911C134.276 59.689 137.171 66.9034 137.199 66.9793C137.219 67.0346 137.261 67.0898 137.309 67.1243L137.495 67.2831C137.543 66.9932 137.571 66.8137 137.571 66.8137L137.964 66.7032L137.861 66.6135L137.854 66.6204Z" fill="#9C2827"/>
<path d="M137.695 24.6183C137.695 24.6183 136.613 20.0687 136.227 18.8537C135.841 17.6386 132.725 17.2037 132.725 17.2037C132.725 17.2037 134.414 15.2568 135.275 14.173C136.137 13.0891 134.379 13.0891 133.711 13.2617C133.042 13.4343 130.471 16.3821 130.085 17.1208C129.692 17.8595 133.504 24.0591 133.807 25.357C134.11 26.6549 141.08 32.5092 145.189 37.1485C149.297 41.7878 151.248 44.0798 151.248 44.0798L148.291 47.1658C148.718 48.0633 150.373 51.5566 150.993 53.0478C151.041 53.172 151.097 53.3032 151.152 53.4413C153.923 50.9836 158.425 46.7378 158.783 44.7633C159.3 41.9052 137.709 24.6114 137.709 24.6114L137.695 24.6183Z" fill="#EDB786"/>
<path d="M132.718 17.2037C132.718 17.2037 133.959 17.3763 134.972 17.8112C134.642 17.0725 134.262 16.3269 133.959 15.7539C133.304 16.5271 132.718 17.2037 132.718 17.2037Z" fill="#EDB786"/>
<path d="M130.078 17.1141C130.464 16.3754 133.042 13.4275 133.704 13.2549C133.807 13.2273 133.945 13.2066 134.097 13.1928C134.442 12.3367 134.786 11.3564 134.779 10.8455C134.772 9.83069 132.325 12.5024 132.325 12.5024C132.325 12.5024 132.697 8.32568 132.484 7.78029C132.27 7.2418 130.402 9.09199 130.402 9.09199C130.402 9.09199 130.312 7.90455 130.05 7.46272C129.788 7.02088 128.21 10.2104 127.906 10.9008C127.603 11.598 128.092 12.8545 128.334 13.3654C128.575 13.8763 130.395 20.3243 130.574 20.9871C130.726 21.567 133.09 24.3492 133.704 25.0741C133.056 23.3413 129.706 17.8183 130.071 17.121L130.078 17.1141Z" fill="#EDB786"/>
<path d="M63.691 152.165L64.0357 163.176L62.8638 165.578C62.8638 165.578 71.4258 168.43 71.5498 167.063C71.6739 165.703 72.1841 161.208 72.1841 161.208L73.7007 166.683C73.7007 166.683 78.7882 166.718 78.7882 165.924C78.7882 165.13 78.1264 152.669 77.7128 152.448C77.2992 152.227 63.6841 152.165 63.6841 152.165H63.691Z" fill="#604B4A"/>
<path d="M75.2243 166.656C74.3763 166.69 73.7076 166.683 73.7076 166.683L72.191 161.208C72.191 161.208 71.6878 165.703 71.5568 167.063C71.5086 167.608 70.0816 167.47 68.4133 167.118L67.8342 178.157L56.2528 184.336C56.2528 184.336 48.3802 184.025 48.2905 184.647C48.2009 185.275 47.6632 185.813 48.2905 186.034C48.9179 186.255 60.3683 186.973 66.0418 187.021C71.7223 187.07 76.6444 187.16 76.5548 186.483C76.4651 185.813 74.6314 178.689 74.6314 178.689L75.2243 166.656Z" fill="#4C3A3A"/>
<path d="M124.99 179.696L125.328 192.385L124.935 195.665C124.935 195.665 128.065 196.155 130.119 196.155C132.173 196.155 136.772 196.742 137.75 196.251C138.729 195.761 140.149 194.387 140.149 194.387L138.24 178.951L124.983 179.682L124.99 179.696Z" fill="#604B4A"/>
<path d="M137.337 179.013C137.702 177.743 138.178 175.927 138.019 175.547C137.764 174.947 136.571 173.2 136.571 173.2L136.744 171.626L134.745 168.257C134.745 168.257 130.691 114.187 130.822 112.924C130.953 111.66 131.684 110.135 131.415 109.071C131.153 108.008 130.822 106.552 130.822 106.552L132.849 82.3541C132.849 82.3541 117.366 79.7237 107.976 80.6488L102.82 106.772L102.51 108.809C102.51 108.809 94.8921 112.572 90.1079 114.871C85.3236 117.169 64.1186 126.987 63.8911 127.863C63.6636 128.747 62.664 130.811 62.9742 131.736C63.2775 132.655 64.2771 135.837 64.2771 135.837C64.2771 135.837 62.9328 137.598 63.05 138.868C63.1397 139.876 64.6425 148.616 65.256 152.171C68.0204 152.192 73.756 152.24 76.3825 152.344C76.5548 148.788 77.0029 138.82 76.7823 138.108C76.5135 137.239 76.0447 135.278 76.0447 135.278C76.0447 135.278 78.4437 134.719 78.1748 133.849C77.906 132.986 77.8095 131.205 77.8095 131.205C77.8095 131.205 110.175 119.068 110.899 119.406C111.623 119.745 114.622 121.926 114.622 121.926L123.039 169.41C123.039 169.41 121.123 172.261 121.674 173.034C122.226 173.801 125.038 176.058 125.038 176.058C125.038 176.058 123.467 177.377 124.101 178.143C124.356 178.447 125.176 179.041 126.059 179.634L137.33 179.013H137.337Z" fill="#B7A249"/>
<path d="M137.44 209.804L137.468 196.335C136.117 196.659 132.042 196.162 130.126 196.162C129.788 196.162 129.423 196.148 129.044 196.121L129.926 210.08L126.686 220.104C126.686 220.104 124.363 221.858 124.383 222.472C124.404 223.087 124.473 224.143 124.473 224.143C124.473 224.143 129.967 224.743 133.207 224.571C136.454 224.398 140.584 223.024 140.584 223.024L137.44 209.797V209.804Z" fill="#4C3A3A"/>
<path d="M76.9959 130.121C76.9959 130.121 76.4995 132.247 76.1204 132.993C75.7412 133.739 73.5008 133.746 73.5008 133.746C73.5008 133.746 73.3767 135.119 73.5008 136.245C73.6248 137.37 71.0052 145.737 70.0056 146.359C69.0061 146.98 65.8901 139.117 65.8901 139.117L65.766 135.244L63.1602 132.372C63.5669 133.642 64.2563 135.844 64.2563 135.844C64.2563 135.844 62.912 137.605 63.0292 138.875C63.1188 139.883 64.6217 148.623 65.2352 152.178C67.9996 152.199 73.7351 152.248 76.3616 152.351C76.534 148.796 76.9821 138.827 76.7615 138.116C76.4926 137.246 76.0239 135.285 76.0239 135.285C76.0239 135.285 78.4229 134.726 78.154 133.856C77.8852 132.993 77.7886 131.212 77.7886 131.212C77.7886 131.212 79.5879 130.535 82.3316 129.521L76.989 130.128L76.9959 130.121Z" fill="#968D37"/>
<path d="M136.571 173.2L136.744 171.626L135.71 169.886C135.53 170.487 135.427 171.019 135.496 171.343C135.744 172.468 136.247 174.464 136.116 174.843C135.992 175.216 132.497 178.841 130.132 177.84C127.761 176.839 125.893 174.719 125.769 173.842C125.645 172.966 125.017 170.846 125.017 170.846L122.942 168.865L123.039 169.417C123.039 169.417 121.122 172.268 121.674 173.041C122.225 173.808 125.038 176.065 125.038 176.065C125.038 176.065 123.466 177.384 124.101 178.15C124.356 178.454 125.176 179.048 126.058 179.641L137.33 179.02C137.695 177.75 138.171 175.934 138.012 175.554C137.757 174.954 136.564 173.207 136.564 173.207L136.571 173.2Z" fill="#968D37"/>
<path d="M118.351 94.0491C117.889 94.6705 116.828 95.354 116.166 95.7475C116.717 90.0726 117.338 83.88 117.662 80.6283C117.414 80.6145 117.166 80.6007 116.91 80.5869C116.366 86.0132 115.015 99.4617 114.525 105.24C114.505 105.447 114.663 105.627 114.863 105.647C114.877 105.647 114.884 105.647 114.898 105.647C115.091 105.647 115.256 105.502 115.27 105.302C115.449 103.197 115.739 100.055 116.069 96.6657C116.545 96.4033 118.248 95.423 118.937 94.5048C119.647 93.5521 121.488 84.8465 122.267 81.0011C122.026 80.9804 121.784 80.9528 121.543 80.9321C120.764 84.7568 118.861 93.3588 118.331 94.0561L118.351 94.0491Z" fill="#968D37"/>
<path d="M131.753 95.3399L131.843 94.3113C130.981 93.3309 130.043 92.178 129.451 91.2115C128.547 89.7341 127.913 84.722 127.596 81.6015C127.348 81.567 127.1 81.5394 126.845 81.5049C127.155 84.6668 127.803 89.955 128.809 91.605C129.554 92.8201 130.76 94.2491 131.753 95.3468V95.3399Z" fill="#968D37"/>
<path d="M111.279 80.4694C110.831 83.217 109.865 88.4501 108.728 90.1967C108.087 91.1908 106.798 92.2126 105.509 93.0756L105.302 94.1111C106.832 93.1377 108.528 91.8674 109.348 90.604C110.589 88.6986 111.589 83.2171 112.03 80.4556C111.775 80.4556 111.52 80.4556 111.265 80.4694H111.279Z" fill="#968D37"/>
<path d="M118.469 25.1431C118.469 25.1431 117.531 26.0682 116.787 27.2073C116.194 28.1048 115.752 29.2508 115.725 29.3336C115.663 29.52 115.601 33.3309 115.849 33.9522C116.097 34.5735 117.035 37.3903 117.035 37.3903C117.035 37.3903 116.849 30.8939 117.159 30.1483C117.469 29.3958 118.655 26.0267 118.469 25.15V25.1431Z" fill="#985634"/>
<path d="M122.522 23.0166C122.522 23.0166 124.328 26.6411 125.018 27.0139C125.7 27.3867 128.009 27.5731 128.009 27.5731C128.009 27.5731 126.824 25.0118 126.7 24.639C126.575 24.2662 130.505 28.7605 131.374 29.3818C132.242 30.0032 133.931 30.7557 133.931 30.7557L134.62 34.9393L134.572 37.1899C134.572 37.1899 135.31 34.5596 135.434 33.6897C135.558 32.8199 135.062 26.572 135.062 26.572C135.062 26.572 132.07 24.135 128.389 22.6369C124.707 21.1388 122.529 23.0097 122.529 23.0097L122.522 23.0166Z" fill="#985634"/>
<path d="M124.328 40.0687C124.246 40.0687 124.163 40.0411 124.094 39.9859C123.536 39.5509 122.233 38.474 122.095 37.9079C122.047 37.7353 121.916 37.2037 124.108 35.3604L123.274 30.8315C123.239 30.6313 123.37 30.4311 123.577 30.3966C123.77 30.3621 123.977 30.4933 124.011 30.7004L124.887 35.4432C124.914 35.5744 124.859 35.7125 124.756 35.8022C123.763 36.6238 122.881 37.5351 122.826 37.7974C122.901 37.9769 123.784 38.7915 124.563 39.3991C124.728 39.5302 124.756 39.765 124.625 39.9237C124.549 40.0204 124.439 40.0687 124.328 40.0687Z" fill="#D47157"/>
<path d="M133.773 41.7326C131.622 40.8835 128.237 39.5718 127.817 39.5718C127.196 39.5718 125.259 40.5728 125.259 40.5728C125.259 40.5728 123.949 40.2 123.577 40.0757C123.287 39.9791 119.172 40.9801 117.255 41.4565C117.373 42.7682 117.497 43.7278 117.6 44.004C118.055 45.1776 122.357 48.1807 123.832 48.4845C125.307 48.7882 126.872 48.8987 127.782 48.4845C128.692 48.0633 132.215 45.5228 133.049 44.1973C133.249 43.8728 133.511 42.9753 133.773 41.7464V41.7326Z" fill="#985634"/>
<path d="M121.336 42.6304L129.505 42.1333C129.505 42.1333 128.823 45.0674 125.266 45.378C121.709 45.6887 121.336 42.6304 121.336 42.6304Z" fill="white"/>
<path d="M121.895 35.1327C121.895 35.9267 121.419 36.5687 120.833 36.5687C120.247 36.5687 119.771 35.9267 119.771 35.1327C119.771 34.3388 120.247 33.6968 120.833 33.6968C121.419 33.6968 121.895 34.3388 121.895 35.1327Z" fill="#382125"/>
<path d="M130.25 36.5067C130.836 36.5067 131.312 35.8638 131.312 35.0707C131.312 34.2777 130.836 33.6348 130.25 33.6348C129.664 33.6348 129.188 34.2777 129.188 35.0707C129.188 35.8638 129.664 36.5067 130.25 36.5067Z" fill="#382125"/>
<path d="M122.77 29.2644C122.77 29.2644 121.709 28.3255 120.647 28.7052C119.585 29.0849 117.841 30.5139 117.841 30.5139L122.77 29.2644Z" fill="#382125"/>
<path d="M127.382 29.2644C127.382 29.2644 128.444 28.3255 129.506 28.7052C130.567 29.0849 132.311 30.5139 132.311 30.5139L127.382 29.2644Z" fill="#382125"/>
<path d="M116.848 35.6366C116.325 35.0084 115.663 34.394 115.346 34.8841C114.787 35.7609 115.097 39.627 115.78 40.3795C116.145 40.7799 116.745 41.0215 117.228 41.1527C117.09 39.5994 116.959 37.6111 116.848 35.6297V35.6366Z" fill="#EDB786"/>
<path d="M136.392 35.0222C136.103 34.4492 135.255 35.1603 134.641 35.7816C134.628 36.0163 134.621 36.2442 134.614 36.4237C134.421 38.1427 134.173 39.7443 133.917 41.0561C134.4 40.9663 135 40.7937 135.393 40.4416C136.151 39.7651 136.861 35.9473 136.392 35.0222Z" fill="#EDB786"/>
<path d="M127.382 81.5326C127.382 81.5326 128.134 78.6606 128.258 77.0382C128.382 75.4159 130.064 52.5577 130.064 52.5577C130.064 52.5577 130.815 51.8742 131.126 51.743C131.436 51.6188 132.559 51.5566 132.559 51.5566C132.559 51.5566 131.312 79.0956 130.939 80.3451C130.767 80.9112 130.381 82.0296 130.381 82.0296L127.389 81.5326H127.382Z" fill="#B7A249"/>
<path d="M109.734 79.3511L109.796 77.2247C109.796 77.2247 112.292 54.4287 112.416 54.2423C112.54 54.0559 115.594 53.8074 115.656 53.9938C115.718 54.1802 112.726 78.5365 112.726 78.9093V80.5938H109.858L109.734 79.3442V79.3511Z" fill="#B7A249"/>
<path d="M102.268 77.4113L102.351 75.3057L101.262 78.4054C101.627 78.0395 101.965 77.7082 102.261 77.4113H102.268Z" fill="#EDB786"/>
<path d="M96.2502 74.2217L87.8881 81.4913L69.1648 69.2165C69.1648 69.2165 67.4965 61.1461 67.1243 60.6076C66.752 60.0691 64.2772 57.6597 63.2983 58.9438C62.3194 60.2348 60.3202 63.3553 61.2646 63.3553C62.2091 63.3553 64.7873 62.4716 64.7873 62.4716C64.7873 62.4716 62.9881 64.9155 63.2638 65.5575C63.5327 66.1996 64.5805 68.2707 64.5805 68.2707C64.5805 68.2707 63.7326 70.5765 63.9394 71.1495C64.1462 71.7295 64.5185 72.6062 64.5185 72.6062C64.5185 72.6062 85.5719 89.7412 87.9226 89.686C89.584 89.6446 96.7672 82.8168 100.855 78.7989L96.2502 74.2148V74.2217Z" fill="#EDB786"/>
<path d="M113.54 79.0335C113.167 78.9092 109.3 78.5985 109.114 79.2199C109.114 79.2199 109.114 83.3414 109.424 83.5278C109.734 83.7142 113.477 83.5899 113.664 83.155C113.85 82.7201 113.912 79.1578 113.54 79.0335ZM112.499 82.1332C112.409 82.3404 110.651 82.3956 110.506 82.3058C110.362 82.2161 110.362 80.2831 110.362 80.2831C110.451 79.9931 112.264 80.1381 112.437 80.1933C112.609 80.2485 112.581 81.9261 112.492 82.1263L112.499 82.1332Z" fill="#FBD55A"/>
<path d="M126.376 84.0178C126.527 84.4665 130.243 84.9222 130.567 84.7634C130.891 84.6046 131.25 80.4969 131.25 80.4969C131.119 79.8617 127.237 79.8341 126.858 79.9239C126.472 80.0136 126.224 83.569 126.376 84.0178ZM127.858 81.1804C128.037 81.1389 129.857 81.1527 129.919 81.4496C129.919 81.4496 129.754 83.3757 129.595 83.4517C129.443 83.5276 127.699 83.3136 127.63 83.0996C127.561 82.8856 127.679 81.2218 127.858 81.1804Z" fill="#FBD55A"/>
<path d="M170.261 42.8649C170.261 42.8649 171.274 44.6322 170.385 46.7862C169.503 48.9332 168.999 49.6926 168.999 49.6926L166.345 49.3129C166.345 49.3129 166.221 53.4828 166.469 58.5432C166.725 63.6036 167.352 67.5249 167.352 67.5249C167.352 67.5249 163.188 62.0848 161.796 50.5763C160.41 39.0678 162.175 24.7771 164.829 20.2276C167.483 15.678 169.572 14.3042 169.572 14.3042C169.572 14.3042 166.6 40.3381 166.725 40.9663C166.849 41.5946 170.261 42.8649 170.261 42.8649Z" fill="#ABABAB"/>
<path d="M159.231 66.0682C159.61 65.5642 166.449 63.8728 169.227 63.2031C169.634 64.142 170.688 66.5031 171.474 67.9046C172.474 69.6788 174.542 72.8959 174.542 72.8959C174.542 72.8959 178.637 68.1186 178.975 68.0633C179.312 68.015 185.151 75.3675 185.151 75.3675C185.151 75.3675 185.331 67.3592 185.579 66.5376C185.827 65.7161 192.073 72.82 192.073 72.82L189.322 63.9832C191.79 64.3353 195.306 64.936 195.809 65.5366C196.602 66.4755 199.628 70.9836 199.628 70.9836L216.628 84.5839C216.628 84.5839 222.467 84.508 223.294 85.3019C224.122 86.0958 227.327 92.7303 227.003 93.6692C226.679 94.6081 220.95 100.09 219.799 99.6547C218.648 99.2198 213.064 95.0016 212.988 94.4217C212.919 93.8418 212.23 92.1849 212.23 92.1849L199.049 81.9398L201.152 99.8204C201.152 99.8204 205.853 104.294 205.488 105.295C205.122 106.296 201.124 109.237 201.124 109.237C201.124 109.237 194.148 111.916 183.78 111.322C173.405 110.728 169.082 108.574 169.075 107.546C169.075 106.517 169.944 104.529 169.944 104.529L165.284 81.277C165.284 81.277 158.748 66.6964 159.231 66.0682Z" fill="#4B4B9F"/>
<path d="M171.44 61.5327L172.488 59.3442C173.157 60.29 173.825 61.222 174.129 61.5396C174.811 62.2783 177.3 63.8247 177.3 63.8247L180.347 63.0101L182.684 59.9311L182.098 61.6846L184.766 59.8482L186.351 61.7674L189.088 63.2241L192.073 72.8203C192.073 72.8203 185.834 65.7164 185.579 66.5379C185.331 67.3594 185.152 75.3678 185.152 75.3678C185.152 75.3678 179.313 68.0153 178.975 68.0636C178.637 68.112 174.542 72.8962 174.542 72.8962C174.542 72.8962 172.474 69.6791 171.474 67.9048C170.475 66.1306 169.041 62.7823 169.041 62.7823L171.44 61.5327Z" fill="#34308C"/>
<path d="M168.496 47.67C168.496 47.67 236.689 78.0187 237.192 77.7701C237.695 77.5147 238.453 75.8716 237.695 75.2434C236.937 74.6082 168.751 44.1353 168.751 44.1353C168.751 44.1353 167.614 46.0338 168.496 47.6769V47.67Z" fill="#BE6B37"/>
<path d="M159.796 184.281C160.251 183.314 160.879 182.286 160.879 182.286C160.879 182.286 159.914 180.746 160.424 179.717C160.934 178.689 162.871 175.782 162.871 175.782L171.936 124.999L172.088 109.445C174.439 110.245 178.237 111.005 183.78 111.322C192.5 111.819 198.794 110.011 200.586 109.424C200.504 113.269 200.256 121.926 199.594 130.832C198.711 142.796 194.044 172.386 193.955 173.332C193.858 174.277 195.588 176.445 195.251 177.046C194.92 177.646 193.038 179.635 193.038 179.635C193.038 179.635 194.43 181.547 194.017 182.5C193.72 183.183 192.459 189.638 191.762 193.304C188.805 193.207 184.965 193.131 182.683 193.09L182.787 183.542L182.587 179.048L183.959 177.039C183.959 177.039 182.394 176.977 183.069 175.575C183.745 174.174 185.737 170.632 185.737 170.632C185.737 170.632 190.956 125.71 189.825 125.295C188.695 124.881 182.808 125.468 182.339 126.593C181.87 127.719 174.556 162.645 173.873 166.131C173.191 169.61 171.309 175.831 171.309 175.831C171.309 175.831 172.619 177.37 172.164 178.344C171.709 179.317 169.882 181.768 169.882 181.768C169.882 181.768 170.454 183.307 169.937 184.108C169.572 184.674 168.234 189.804 167.49 192.738L158.231 191.682C158.68 189.21 159.472 184.957 159.796 184.274V184.281Z" fill="#88442B"/>
<path d="M217.118 84.5772C218.531 84.5772 222.605 84.6463 223.288 85.3021C224.115 86.096 227.32 92.7305 226.996 93.6694C226.672 94.6083 220.944 100.09 219.792 99.6549C218.641 99.22 213.057 95.0018 212.981 94.4219C212.913 93.842 212.223 92.1851 212.223 92.1851C212.223 92.1851 213.402 88.8368 216.049 85.6128C216.366 85.2331 216.725 84.8879 217.104 84.5703L217.118 84.5772Z" fill="#34308C"/>
<path d="M185.717 28.1327C189.405 30.9494 189.55 35.1745 189.453 37.6943C189.35 40.2142 187.475 51.5155 186.909 52.703C186.344 53.8835 182.67 57.8462 181.484 58.2605C180.305 58.6747 177.541 58.6195 176.417 57.9498C175.287 57.2801 172.364 54.1459 171.798 52.2473C171.233 50.3488 170.551 36.1203 171.936 31.55C173.322 26.9728 181.787 25.1365 185.717 28.1396V28.1327Z" fill="#CB936D"/>
<path d="M189.501 37.7976C189.501 37.7976 188.75 34.3389 187.999 33.4621C187.247 32.5853 181.877 30.3209 179.871 30.4452C177.865 30.5694 171.495 34.7531 171.398 35.3468C171.302 35.9405 171.15 45.371 171.15 45.371C171.15 45.371 162.085 38.3983 161.582 34.4631C161.079 30.5349 171.068 21.498 173.542 16.6447C176.017 11.7913 186.054 -0.393709 189.115 0.00670666C192.183 0.400218 205.288 14.9118 206.474 18.3292C207.659 21.7465 210.727 34.7669 207.315 38.8332C203.902 42.8926 188.054 47.4145 188.054 47.4145C188.054 47.4145 189.288 41.6982 189.508 37.7976H189.501Z" fill="#4C3A3A"/>
<path d="M173.529 16.6515C172.639 18.3912 170.778 20.6763 168.786 23.0719C168.992 20.2069 169.289 16.2511 169.399 14.9808C169.585 12.9097 171.329 12.8613 172.598 12.6749C173.115 12.599 174.101 13.2549 175.093 14.0557C174.438 15.036 173.887 15.9335 173.522 16.6515H173.529Z" fill="#382125"/>
<path d="M179.581 49.0575C179.581 49.0575 177.527 47.4834 176.996 47.5801C176.465 47.6837 172.605 49.4648 172.426 49.1334C172.246 48.8021 171.591 46.6412 171.46 46.082C171.336 45.5228 171.13 40.3657 171.13 40.3657C171.13 40.3657 170.799 48.45 170.695 48.9332C170.592 49.4165 169.227 54.4769 169.275 55.2363C169.323 56.0026 170.289 57.984 170.289 57.984L170.771 56.8656C170.771 56.8656 173.432 60.8076 174.121 61.5463C174.804 62.285 177.293 63.8314 177.293 63.8314L180.34 63.0168L182.677 59.9377L182.091 61.6913L185.517 59.3302L186.909 56.7137L186.758 58.1842C186.758 58.1842 188.812 56.1752 188.764 55.188C188.715 54.1939 188.157 51.3979 188.026 50.6108C187.902 49.8238 189.095 43.6933 189.115 43.286C189.143 42.8787 189.115 41.9881 189.115 41.9881C189.115 41.9881 187.544 51.0389 186.882 51.0596C186.22 51.0872 182.29 48.0841 181.705 48.3395C181.119 48.5949 179.574 49.0506 179.574 49.0506L179.581 49.0575Z" fill="#88442B"/>
<path d="M180.347 63.0102L182.684 59.9312L182.098 61.6847L183.318 60.8424C183.642 63.5487 184.159 68.0154 184.193 68.616C184.235 69.4859 185.062 75.3471 185.062 75.3471C185.062 75.3471 181.243 69.0302 180.622 68.4089C180.181 67.9671 178.534 65.5232 177.444 63.7765L180.347 63.0033V63.0102Z" fill="#CB936D"/>
<path d="M163.54 71.0459C165.146 73.1032 167.2 76.562 167.2 76.562L151.869 98.0946C151.869 98.0946 153.992 100.815 153.192 101.622C152.393 102.423 150.331 103.963 150.331 103.963C150.331 103.963 151.552 106.683 150.752 107.069C149.952 107.456 138.695 107.939 138.067 107.104C137.44 106.269 135.765 103.093 135.91 102.603C136.048 102.113 137.93 99.8137 137.93 99.8137C137.93 99.8137 138.522 93.9869 139.322 93.7384C140.122 93.4968 143.362 93.0756 143.362 93.0756L158.183 68.1877C158.183 68.1877 158.818 66.6689 159.266 66.1028C159.417 65.9164 161.933 68.9886 163.54 71.0459Z" fill="#4B4B9F"/>
<path d="M194.024 193.4C194.024 193.4 192.652 199.455 190.818 206.552C188.978 213.649 188.543 216.189 188.543 216.189L202.345 221.809C202.345 221.809 209.659 222.347 209.362 223.079C209.059 223.818 206.688 224.584 206.688 224.584C206.688 224.584 190.646 224.75 189.612 224.053C188.578 223.349 187.137 221.878 186.234 222.182C185.331 222.486 184.262 223.756 184.262 223.756L178.878 223.355C178.878 223.355 180.347 215.458 180.312 214.988C180.278 214.519 180.712 193.069 180.712 193.069C180.712 193.069 189.97 193.207 194.01 193.407L194.024 193.4Z" fill="#382125"/>
<path d="M169.689 192.993C169.689 192.993 164.96 214.609 164.87 215.513C164.781 216.418 164.526 223.439 164.526 223.439C164.526 223.439 147.712 224.039 147.884 223.397C148.056 222.755 156.398 216.763 156.398 216.763C156.398 216.763 156.012 204.143 156.143 198.806C156.274 193.463 156.446 191.488 156.446 191.488L169.689 192.993Z" fill="#382125"/>
<path d="M185.151 75.3607C185.151 75.3607 185.158 74.9741 185.179 74.3804L185.475 75.271L188.419 79.3372C188.453 79.3925 188.481 79.4477 188.488 79.5167C188.502 79.6203 189.708 89.7688 190.018 94.27C190.294 98.2534 190.632 102.064 190.708 102.907C191.576 103.542 193.713 105.226 193.451 106.303C193.314 106.89 191.893 109.244 190.632 111.274C190.329 111.295 190.018 111.315 189.701 111.336C191.149 109.016 192.603 106.607 192.714 106.131C192.803 105.744 191.597 104.481 190.122 103.431C190.032 103.369 189.977 103.266 189.963 103.155C189.963 103.114 189.57 98.8264 189.26 94.3321C188.97 90.0863 187.874 80.7663 187.75 79.71L184.834 75.6714C184.834 75.6714 184.793 75.6023 184.779 75.5678L184.393 74.408C184.855 74.9879 185.158 75.3676 185.158 75.3676L185.151 75.3607Z" fill="#34308C"/>
<path d="M221.24 97.2249C221.24 97.2249 217.924 94.063 217.435 91.9988C216.945 89.9346 215.146 73.0274 214.787 72.6063C214.422 72.1782 210.286 73.0343 209.652 71.6536C209.017 70.2728 206.536 64.6256 206.536 64.6256C206.536 64.6256 209.231 61.443 209.658 62.6718C210.086 63.9007 209.383 66.1099 209.383 66.1099C209.383 66.1099 212.781 66.6691 213.16 66.9729C213.54 67.2697 214.781 68.3122 214.781 68.3122L217.703 69.3477C217.703 69.3477 227.251 91.5708 226.81 92.6063C226.369 93.635 223.432 98.1017 221.24 97.2387V97.2249Z" fill="#CB936D"/>
<path d="M153.178 91.4048C153.178 91.4048 160.375 86.2822 164.353 87.6077C168.331 88.9333 178.182 95.9543 178.94 98.0393C179.698 100.124 181.401 117.956 179.698 120.801C178.327 123.086 169.737 128.07 166.414 129.941C165.566 130.418 164.615 130.666 163.643 130.666H158.349C157.032 130.666 155.763 130.211 154.75 129.375C152.027 127.145 146.822 122.354 145.988 117.763C144.851 111.501 147.312 96.3271 153.185 91.3979L153.178 91.4048Z" fill="#4C3A3A"/>
<path d="M157.928 98.5157C157.928 98.5157 161.672 95.4643 163.74 96.2513C165.808 97.0452 170.93 101.229 171.323 102.472C171.716 103.714 172.605 114.346 171.716 116.044C171.006 117.411 166.532 120.38 164.808 121.491C164.367 121.774 163.871 121.926 163.367 121.926H160.617C159.934 121.926 159.273 121.657 158.742 121.16C157.328 119.827 154.619 116.969 154.185 114.235C153.592 110.501 154.874 101.457 157.928 98.5157Z" fill="#382125"/>
<path d="M139.322 93.7316C139.956 93.5383 142.107 93.2346 142.976 93.1172C145.644 93.8973 151.869 98.0948 151.869 98.0948C151.869 98.0948 153.992 100.815 153.192 101.623C152.393 102.423 150.331 103.963 150.331 103.963C150.331 103.963 151.552 106.683 150.752 107.07C149.952 107.456 138.695 107.939 138.067 107.104C137.44 106.269 135.765 103.093 135.91 102.603C136.048 102.113 137.93 99.8138 137.93 99.8138C137.93 99.8138 138.522 93.9871 139.322 93.7385V93.7316Z" fill="#34308C"/>
<path d="M149.987 106.752C149.987 106.752 154.757 114.173 157.329 117.611C159.9 121.049 162.513 124.28 162.513 124.28C162.513 124.28 169.103 122.699 170.061 123.555C171.02 124.411 175.176 129.12 174.901 129.534C174.625 129.948 171.847 131.288 171.847 131.288C171.847 131.288 169.786 135.133 168.207 135.202C166.628 135.271 156.715 127.194 156.715 127.194C156.715 127.194 139.15 108.001 138.233 106.117C137.316 104.232 145.506 104.121 149.994 106.752H149.987Z" fill="#CB936D"/>
<path d="M183.483 84.7634C183.483 85.3226 183.938 85.7782 184.497 85.7782C185.055 85.7782 185.51 85.3226 185.51 84.7634C185.51 84.2042 185.055 83.7485 184.497 83.7485C183.938 83.7485 183.483 84.2042 183.483 84.7634Z" fill="#34308C"/>
<path d="M184.49 96.0163C184.49 96.5755 184.945 97.0312 185.503 97.0312C186.062 97.0312 186.516 96.5755 186.516 96.0163C186.516 95.4571 186.062 95.0015 185.503 95.0015C184.945 95.0015 184.49 95.4571 184.49 96.0163Z" fill="#34308C"/>
<path d="M186.679 108.259C187.231 108.169 187.607 107.648 187.517 107.094C187.427 106.541 186.907 106.166 186.354 106.255C185.802 106.345 185.427 106.866 185.516 107.42C185.606 107.973 186.127 108.349 186.679 108.259Z" fill="#34308C"/>
<path d="M198.711 82.1126C198.684 82.0504 198.67 81.9814 198.67 81.9193C198.67 81.8986 198.822 79.4684 198.635 73.7729C198.587 72.2334 198.422 70.5488 198.215 68.9058C198.566 69.4166 198.884 69.893 199.132 70.2589C199.256 71.4532 199.352 72.6407 199.387 73.7522C199.552 78.8954 199.456 81.3463 199.428 81.864L199.745 82.4854L199.049 81.94L199.18 83.0377L198.711 82.1126Z" fill="#34308C"/>
<path d="M217.069 65.792C217.069 65.792 215.87 61.3322 215.015 61.1458L214.16 60.9595C214.16 60.9595 213.498 58.8745 213.023 58.9643C212.547 59.0609 212.078 59.2473 212.078 59.2473C212.078 59.2473 210.941 57.5421 210.562 57.8252C210.182 58.1082 209.617 58.5846 209.617 58.5846C209.617 58.5846 209.238 57.4455 208.576 58.1082C207.914 58.771 206.584 62.0917 207.342 62.4714C208.1 62.8511 209.238 62.4714 209.238 62.4714C209.238 62.4714 208.955 63.1341 209.617 63.5138C209.927 63.6864 211.32 63.7002 211.32 63.7002C211.32 63.7002 211.575 65.0741 211.982 65.1224C212.74 65.219 213.974 64.646 213.974 64.646L217.069 65.7851V65.792Z" fill="#CB936D"/>
<path d="M173.26 51.7845C173.604 51.964 173.956 52.1297 174.321 52.254C174.659 52.3713 175.073 52.5094 175.411 52.5439C176.107 52.6337 176.831 52.4127 177.472 52.0399C178.12 51.6879 178.727 51.177 179.223 50.6454C179.264 50.604 179.319 50.5626 179.375 50.5418C179.574 50.4659 179.788 50.5695 179.864 50.7697C180.112 51.4531 180.464 52.1435 180.905 52.6958C181.022 52.8408 181.126 52.9512 181.25 53.0548C181.436 53.1929 181.47 53.2136 181.656 53.2757C181.973 53.3724 182.36 53.4207 182.732 53.4621C184.248 53.5864 185.813 53.545 187.371 53.545C185.841 53.8487 184.29 54.042 182.704 54.0351C182.304 54.0213 181.905 54.0213 181.477 53.9039C181.284 53.8694 180.974 53.7037 180.85 53.6071C180.671 53.469 180.498 53.3033 180.36 53.1514C179.933 52.6475 179.636 52.0883 179.381 51.5153C178.906 51.9571 178.403 52.3575 177.817 52.6682C177.079 53.041 176.19 53.324 175.314 53.11C174.873 53.0134 174.535 52.8615 174.142 52.6889C173.77 52.5163 173.418 52.3161 173.081 52.0952C172.419 51.6326 171.791 51.1149 171.274 50.5073C171.909 50.9906 172.564 51.4324 173.267 51.7707L173.26 51.7845Z" fill="#382125"/>
<path d="M179.981 47.0139C180.023 47.0139 180.071 47.007 180.112 46.9932C180.161 46.9725 181.271 46.5652 181.808 45.8127C182.001 45.5365 182.001 45.2949 181.967 45.1361C181.87 44.6804 181.395 44.4043 181.022 44.1834C180.947 44.142 180.85 44.0867 180.788 44.0384C180.767 43.5689 181.167 41.7257 181.581 40.1861C181.636 39.9859 181.512 39.7788 181.312 39.7236C181.105 39.6683 180.905 39.7857 180.85 39.9928C179.754 44.0936 180.037 44.3767 180.188 44.5355C180.299 44.6459 180.457 44.7357 180.636 44.8461C180.816 44.9497 181.195 45.1706 181.222 45.3018C180.788 45.9369 179.857 46.2821 179.85 46.289C179.657 46.358 179.554 46.579 179.623 46.7723C179.678 46.9241 179.823 47.0208 179.981 47.0208V47.0139Z" fill="#B84E3E"/>
<path d="M184.152 43.5275C184.069 44.2593 184.4 44.8876 184.883 44.9428C185.365 44.998 185.827 44.4457 185.903 43.7208C185.986 42.989 185.655 42.3608 185.172 42.3056C184.69 42.2503 184.228 42.8026 184.152 43.5275Z" fill="#27171B"/>
<path d="M174.487 42.4645C174.404 43.1963 174.735 43.8246 175.218 43.8798C175.7 43.935 176.162 43.3827 176.238 42.6578C176.321 41.926 175.99 41.2978 175.507 41.2426C175.025 41.1873 174.563 41.7396 174.487 42.4645Z" fill="#27171B"/>
<path d="M179.444 39.0471C179.444 39.0471 178.051 37.2107 176.603 37.1486C175.149 37.0865 173.005 38.1634 173.005 38.1634C173.005 38.1634 177.865 39.5511 178.306 39.6201C178.747 39.6822 179.947 39.2404 179.506 39.3025C179.064 39.3647 178.747 39.3647 178.747 39.3647L179.444 39.0471Z" fill="#88442B"/>
<path d="M182.125 39.4613C182.125 39.4613 183.945 38.0598 185.365 38.3774C186.785 38.7019 188.571 40.3035 188.571 40.3035C188.571 40.3035 183.518 40.3657 183.07 40.3104C182.629 40.2552 181.588 39.5096 181.994 39.6891C182.401 39.8686 182.711 39.9514 182.711 39.9514L182.125 39.4613Z" fill="#88442B"/>
<path d="M169.91 40.9457C170.11 40.6626 170.592 41.2218 171.068 41.926C170.964 44.3009 170.771 48.5812 170.702 48.9264C170.696 48.9678 170.675 49.0437 170.654 49.1335C169.979 48.7261 169.303 48.2291 168.965 47.7044C168.145 46.441 169.469 41.5739 169.91 40.9388V40.9457Z" fill="#CB936D"/>
<path d="M188.033 50.6042C187.916 49.8586 188.964 44.384 189.108 43.4106C189.584 43.0792 190.122 42.8928 190.425 43.4106C191.059 44.4875 190.487 48.975 189.605 49.8586C189.253 50.2107 188.647 50.48 188.047 50.6802C188.047 50.6595 188.04 50.6249 188.033 50.6042Z" fill="#CB936D"/>
<path d="M160.038 40.3311L161.334 40.8764C161.313 42.271 161.334 43.6656 161.389 45.0532L159.913 44.6321C159.913 44.6321 159.279 44.5078 159.155 43.1133C159.031 41.7187 160.038 40.3311 160.038 40.3311Z" fill="#BE6B37"/>
<path d="M240.446 224.357C237.33 226.29 234.711 227.933 233.69 228.617C230.443 230.784 210.969 230.784 210.969 230.784C210.969 230.784 192.576 238.371 177.431 238.371C162.285 238.371 113.602 227.54 113.602 227.54C113.602 227.54 106.026 229.707 102.786 230.791C99.5387 231.875 75.7416 229.707 75.7416 229.707C75.7416 229.707 54.1022 235.127 45.4506 234.043C39.5496 233.304 18.0688 224.509 4.99142 218.986L0.0141602 221.036C0.0141602 221.036 34.6344 237.288 42.2106 239.455C49.7867 241.623 108.204 236.204 108.204 236.204C108.204 236.204 153.64 244.868 170.951 245.952C188.261 247.036 251.007 228.617 251.007 228.617C251.007 228.617 246.699 226.87 240.453 224.357H240.446Z" fill="#88442B"/>
</g>
</g>
<defs>
<clipPath id="clip0_536_122744">
<rect width="251" height="246" fill="white"/>
</clipPath>
</defs>
</svg>
