<svg width="119" height="174" viewBox="0 0 119 174" fill="none" xmlns="http://www.w3.org/2000/svg">
<g filter="url(#filter0_d_514_125365)">
<path d="M112.579 54.3894C112.579 84.4384 57.6825 166 57.6825 166C57.6825 166 2.78613 84.4384 2.78613 54.3894C2.78613 24.3404 27.3534 0 57.6598 0C87.9662 0 112.556 24.3629 112.556 54.3894H112.579Z" fill="#8C272A"/>
<g filter="url(#filter1_i_514_125365)">
<path d="M86.0997 35.3323C86.0789 35.2283 86.0582 35.1244 86.0271 35.0308C86.0271 35.0308 86.0271 35.0308 86.0271 35.0204C85.913 34.6149 85.6538 34.2822 85.239 34.0223C85.1457 33.9599 85.042 33.9079 84.9279 33.856C84.9176 33.856 84.8968 33.8456 84.8865 33.8352C84.7828 33.7936 84.6687 33.752 84.5443 33.7104C84.5235 33.7104 84.5028 33.7 84.4821 33.6896C84.3369 33.648 84.1917 33.6064 84.0258 33.5752C83.6525 33.5025 83.2792 33.4505 82.9163 33.4089C82.8644 33.4089 82.823 33.3985 82.7711 33.3881C82.4186 33.3569 82.0556 33.3361 81.7031 33.3257C81.6512 33.3257 81.589 33.3257 81.5372 33.3257C81.1742 33.3257 80.8113 33.3361 80.4484 33.3673C80.4277 33.3673 80.4069 33.3673 80.3862 33.3673C80.0233 33.3985 79.6707 33.4401 79.3078 33.5025C79.2767 33.5025 79.2456 33.5025 79.2145 33.5129C78.8619 33.5752 78.5093 33.648 78.1464 33.7312C78.0946 33.7416 78.0427 33.7624 77.9805 33.7728C77.628 33.8664 77.2858 33.9599 76.9332 34.0743C76.8917 34.0847 76.8503 34.1055 76.8191 34.1159C76.4666 34.2302 76.114 34.3654 75.7615 34.5006C75.7615 34.5006 75.7511 34.5006 75.7407 34.5006C75.3882 34.6461 75.046 34.7917 74.7038 34.958C74.652 34.9788 74.6001 35.01 74.5483 35.0308C74.2165 35.1867 73.8846 35.3635 73.5632 35.5402C73.5113 35.5714 73.4595 35.5922 73.4077 35.6234C73.0758 35.8105 72.744 35.9977 72.4122 36.2056C72.4122 36.2056 72.3915 36.216 72.3811 36.2264C72.0596 36.424 71.7382 36.6423 71.4271 36.8502C71.3856 36.8814 71.3338 36.9126 71.2819 36.9438C70.9812 37.1517 70.6702 37.3805 70.3798 37.5988C70.3176 37.6404 70.2554 37.6924 70.1932 37.7339C69.8925 37.9627 69.6021 38.1914 69.3118 38.4305C69.2703 38.4721 69.2185 38.5033 69.177 38.5449C68.9074 38.7736 68.6378 39.0023 68.3785 39.2311C68.3371 39.2727 68.2956 39.3038 68.2541 39.3454C67.9845 39.595 67.7149 39.8445 67.4453 40.094C67.3831 40.1564 67.3105 40.2188 67.2483 40.2915C66.9891 40.5411 66.7402 40.7906 66.5017 41.0401C66.4395 41.1025 66.3773 41.1753 66.3047 41.2376C66.0766 41.4768 65.8484 41.7159 65.6307 41.955C65.5788 42.0174 65.527 42.0694 65.4751 42.1318C65.2574 42.3709 65.05 42.6204 64.8322 42.8595C64.7597 42.9427 64.6974 43.0155 64.6249 43.0987C64.4486 43.317 64.2619 43.5353 64.0857 43.7536C62.0325 46.3112 60.4357 48.9416 59.4713 51.1769C59.3573 50.6779 59.2017 50.2308 59.0047 49.8565C59.4402 49.7214 59.7513 49.3159 59.7513 48.8377C59.7513 48.4738 59.575 48.1515 59.295 47.9539C59.2432 47.6004 59.0877 47.2885 58.8595 47.0494C58.8595 47.0494 58.4448 46.3736 57.636 46.3944C56.8271 46.4152 56.5161 46.9454 56.5161 46.9454C56.2257 47.2054 56.0287 47.5589 55.9769 47.9539C55.7073 48.1515 55.5206 48.4738 55.5206 48.8377C55.5206 49.3159 55.8213 49.711 56.2465 49.8461C56.0598 50.21 55.8939 50.6363 55.7902 51.1249C54.8259 48.9 53.2394 46.2801 51.1966 43.7433C51.0203 43.5249 50.8544 43.317 50.6678 43.1091C50.5952 43.0155 50.5123 42.9219 50.4397 42.8387C50.253 42.61 50.056 42.3917 49.859 42.1733C49.7864 42.0902 49.7034 42.007 49.6309 41.9134C49.4338 41.6951 49.2265 41.4768 49.0191 41.2584C48.9465 41.1753 48.8635 41.1025 48.7909 41.0193C48.5525 40.7802 48.314 40.5307 48.0651 40.3019C47.9821 40.2292 47.9096 40.146 47.8266 40.0732C47.5777 39.8341 47.3185 39.595 47.0593 39.3558C46.9971 39.3038 46.9452 39.2519 46.883 39.1999C46.6445 38.9919 46.406 38.784 46.1571 38.5761C46.0949 38.5241 46.0327 38.4721 45.9705 38.4201C45.6905 38.1914 45.4209 37.9731 45.1306 37.7547C45.058 37.6924 44.975 37.6404 44.9025 37.578C44.6225 37.3597 44.3322 37.1517 44.0418 36.9542C43.9796 36.9126 43.9174 36.871 43.8448 36.819C43.5545 36.6215 43.2745 36.4343 42.9841 36.2472C42.953 36.2264 42.9116 36.2056 42.8805 36.1848C42.5694 35.9873 42.2479 35.8105 41.9368 35.6338C41.8643 35.5922 41.802 35.561 41.7295 35.5194C41.4184 35.3531 41.1073 35.1867 40.7859 35.0308C40.7133 34.9996 40.6511 34.9684 40.5785 34.9372C40.2467 34.7813 39.9148 34.6357 39.583 34.5006C39.5519 34.4902 39.5312 34.4798 39.5001 34.4694C39.1786 34.3446 38.8468 34.2198 38.5253 34.1159C38.4735 34.0951 38.4113 34.0743 38.3594 34.0535C38.0276 33.9495 37.6854 33.8456 37.3536 33.7624C37.281 33.7416 37.2188 33.7312 37.1462 33.7104C36.804 33.6272 36.4619 33.5545 36.1197 33.5025C36.0782 33.5025 36.0264 33.4921 35.9849 33.4817C35.6427 33.4297 35.3109 33.3881 34.9687 33.3569C34.9376 33.3569 34.8961 33.3569 34.865 33.3465C34.5124 33.3153 34.1599 33.3049 33.8073 33.3049C33.7451 33.3049 33.6725 33.3049 33.6103 33.3049C33.2577 33.3049 32.9156 33.3257 32.563 33.3673C32.5112 33.3673 32.4489 33.3777 32.3867 33.3881C32.0238 33.4297 31.6505 33.4817 31.2876 33.5545C31.1217 33.5856 30.9765 33.6272 30.8313 33.6688C30.8106 33.6688 30.7899 33.6896 30.7587 33.6896C30.6447 33.7312 30.5306 33.7728 30.4269 33.8144C30.4062 33.8144 30.3958 33.8248 30.3855 33.8352C30.2714 33.8871 30.1677 33.9391 30.0744 34.0015C29.6596 34.2614 29.4004 34.5941 29.2863 34.9996C29.2863 34.9996 29.2863 35.01 29.2863 35.0204C29.2552 35.114 29.2345 35.2179 29.2137 35.3219C29.1722 35.613 29.1722 36.0289 29.2137 36.5279C29.2137 36.5799 29.2137 36.6319 29.2241 36.6839C29.2241 36.7047 29.2241 36.7359 29.2241 36.7566C29.3174 37.8795 29.5559 39.2935 29.867 40.7594C30.2921 42.7971 30.8521 45.0844 31.4328 47.1326C32.1379 49.607 32.8533 51.7279 33.3511 52.6325C34.4398 54.5974 36.3893 55.4396 39.4793 55.1277C40.4022 55.0341 41.3562 54.9509 42.3412 54.8782C42.1235 54.9301 41.9161 54.9925 41.7191 55.0549C41.6258 55.0861 41.5428 55.1173 41.4599 55.1381C41.2317 55.2108 41.0036 55.3044 40.7859 55.3876C40.7133 55.4188 40.6407 55.45 40.5681 55.4812C40.2985 55.5955 40.0393 55.7203 39.8008 55.8554C39.7386 55.8866 39.6867 55.9282 39.6245 55.9594C39.4275 56.0738 39.2408 56.1881 39.0646 56.3129C39.0023 56.3545 38.9401 56.3961 38.8779 56.4481C38.6602 56.604 38.4528 56.7704 38.2557 56.9367C38.2246 56.9679 38.2039 56.9887 38.1728 57.0199C38.0069 57.1758 37.841 57.3318 37.6958 57.4981C37.644 57.5501 37.6025 57.6021 37.5506 57.6541C37.3847 57.8412 37.2396 58.0284 37.0944 58.2155C37.0944 58.2259 37.0736 58.2363 37.0736 58.2467C36.9285 58.4546 36.7937 58.6626 36.6589 58.8809C36.6278 58.9329 36.5967 58.9953 36.5656 59.0472C36.4619 59.2344 36.3582 59.4319 36.2752 59.6295C36.2545 59.6607 36.2441 59.7022 36.2234 59.7334C36.1197 59.9622 36.0367 60.2013 35.9538 60.4404C35.933 60.4924 35.9227 60.5444 35.9123 60.586C35.8501 60.7939 35.7879 61.0018 35.7464 61.2098C35.736 61.2617 35.7256 61.3033 35.7153 61.3553C35.6634 61.6048 35.6116 61.8648 35.5805 62.1247C35.5805 62.1559 35.5805 62.1975 35.5701 62.2286C35.539 62.4574 35.5183 62.6965 35.5079 62.9252C35.5079 62.9772 35.5079 63.0292 35.5079 63.0812C35.4249 65.1605 35.9434 67.3646 36.9596 69.392C38.2454 71.9808 40.0185 73.8834 43.1189 74.2265C49.0917 74.8815 51.9121 71.3778 54.2556 65.8675C54.8259 64.5263 55.448 62.7693 55.9458 60.9498C55.9458 60.9498 55.9665 60.8771 55.9769 60.8459C56.008 60.7211 56.0391 60.6068 56.0702 60.482C56.0495 60.9291 56.0391 61.3865 56.0391 61.8544C56.0391 66.1794 56.7649 69.6935 57.6567 69.6935C58.5485 69.6935 59.2743 66.1794 59.2743 61.8544C59.2743 61.3345 59.2639 60.8251 59.2432 60.3364C59.2847 60.5028 59.3261 60.6691 59.378 60.8459C59.378 60.8771 59.3987 60.9187 59.4091 60.9498C59.9068 62.7693 60.529 64.5263 61.0993 65.8675C63.4428 71.3778 66.2632 74.8711 72.2359 74.2265C75.3363 73.8834 77.1095 71.9808 78.3953 69.392C79.4011 67.3646 79.9196 65.1605 79.847 63.0708C79.847 63.0292 79.847 62.9772 79.847 62.9356C79.8366 62.6861 79.8159 62.447 79.7848 62.1975C79.7848 62.1767 79.7848 62.1455 79.7848 62.1247C79.7537 61.8648 79.7018 61.5944 79.65 61.3449C79.65 61.3033 79.6292 61.2617 79.6189 61.2306C79.567 61.0122 79.5048 60.7939 79.4426 60.5756C79.4322 60.534 79.4218 60.4924 79.4011 60.4508C79.3181 60.2013 79.2248 59.9622 79.1315 59.723C79.1211 59.6918 79.1004 59.671 79.09 59.6399C78.9967 59.4319 78.893 59.2344 78.7893 59.0368C78.7582 58.9849 78.7375 58.9329 78.7064 58.8809C78.5819 58.6626 78.4368 58.4442 78.2916 58.2363C78.2916 58.2363 78.2916 58.2363 78.2916 58.2259C78.1464 58.0284 77.9805 57.8308 77.8146 57.6437C77.7731 57.5917 77.7316 57.5501 77.6798 57.4981C77.5243 57.3318 77.3584 57.1654 77.1821 56.9991C77.1613 56.9783 77.1406 56.9575 77.1199 56.9367C76.9228 56.76 76.7051 56.5936 76.4873 56.4377C76.4355 56.3961 76.3733 56.3545 76.3111 56.3129C76.1244 56.1881 75.9274 56.0634 75.7304 55.949C75.6785 55.9178 75.6267 55.8866 75.5748 55.8554C75.326 55.7203 75.0667 55.5851 74.7868 55.4708C74.7245 55.4396 74.6623 55.4188 74.5897 55.3876C74.3616 55.294 74.1231 55.2004 73.8846 55.1277C73.8121 55.1069 73.7291 55.0757 73.6565 55.0549C73.4491 54.9925 73.2417 54.9301 73.024 54.8782C74.0091 54.9509 74.963 55.0341 75.8859 55.1277C78.976 55.4396 80.9254 54.587 82.0142 52.6325C82.5119 51.7279 83.2274 49.607 83.9325 47.1326C83.9325 47.1326 83.9325 47.1014 83.9429 47.091C84.5132 45.0532 85.0731 42.7868 85.4982 40.7594C85.8093 39.3038 86.0582 37.8899 86.1411 36.7774C86.1411 36.7359 86.1411 36.6943 86.1515 36.6527C86.1515 36.6111 86.1515 36.5591 86.1515 36.5175C86.193 36.0081 86.193 35.5922 86.1515 35.3011L86.0997 35.3323Z" fill="white"/>
</g>
<path d="M45.9926 94.17C45.9126 94.31 45.826 94.4133 45.7326 94.48C45.646 94.54 45.536 94.57 45.4026 94.57C45.2626 94.57 45.1093 94.52 44.9426 94.42C44.7826 94.3133 44.5893 94.1967 44.3626 94.07C44.136 93.9433 43.8693 93.83 43.5626 93.73C43.2626 93.6233 42.906 93.57 42.4926 93.57C42.1193 93.57 41.7926 93.6167 41.5126 93.71C41.2326 93.7967 40.996 93.92 40.8026 94.08C40.616 94.24 40.476 94.4333 40.3826 94.66C40.2893 94.88 40.2426 95.1233 40.2426 95.39C40.2426 95.73 40.336 96.0133 40.5226 96.24C40.716 96.4667 40.9693 96.66 41.2826 96.82C41.596 96.98 41.9526 97.1233 42.3526 97.25C42.7526 97.3767 43.1626 97.5133 43.5826 97.66C44.0026 97.8 44.4126 97.9667 44.8126 98.16C45.2126 98.3467 45.5693 98.5867 45.8826 98.88C46.196 99.1667 46.446 99.52 46.6326 99.94C46.826 100.36 46.9226 100.87 46.9226 101.47C46.9226 102.123 46.8093 102.737 46.5826 103.31C46.3626 103.877 46.036 104.373 45.6026 104.8C45.176 105.22 44.6526 105.553 44.0326 105.8C43.4126 106.04 42.7026 106.16 41.9026 106.16C41.4426 106.16 40.9893 106.113 40.5426 106.02C40.096 105.933 39.666 105.807 39.2526 105.64C38.846 105.473 38.4626 105.273 38.1026 105.04C37.7426 104.807 37.4226 104.547 37.1426 104.26L37.9326 102.97C37.9993 102.877 38.086 102.8 38.1926 102.74C38.2993 102.673 38.4126 102.64 38.5326 102.64C38.6993 102.64 38.8793 102.71 39.0726 102.85C39.266 102.983 39.496 103.133 39.7626 103.3C40.0293 103.467 40.3393 103.62 40.6926 103.76C41.0526 103.893 41.4826 103.96 41.9826 103.96C42.7493 103.96 43.3426 103.78 43.7626 103.42C44.1826 103.053 44.3926 102.53 44.3926 101.85C44.3926 101.47 44.296 101.16 44.1026 100.92C43.916 100.68 43.666 100.48 43.3526 100.32C43.0393 100.153 42.6826 100.013 42.2826 99.9C41.8826 99.7867 41.476 99.6633 41.0626 99.53C40.6493 99.3967 40.2426 99.2367 39.8426 99.05C39.4426 98.8633 39.086 98.62 38.7726 98.32C38.4593 98.02 38.206 97.6467 38.0126 97.2C37.826 96.7467 37.7326 96.19 37.7326 95.53C37.7326 95.0033 37.836 94.49 38.0426 93.99C38.256 93.49 38.5626 93.0467 38.9626 92.66C39.3626 92.2733 39.856 91.9633 40.4426 91.73C41.0293 91.4967 41.7026 91.38 42.4626 91.38C43.316 91.38 44.1026 91.5133 44.8226 91.78C45.5426 92.0467 46.156 92.42 46.6626 92.9L45.9926 94.17ZM51.44 106.16C50.5466 106.16 49.86 105.91 49.38 105.41C48.9066 104.903 48.67 104.207 48.67 103.32V97.59H47.62C47.4866 97.59 47.3733 97.5467 47.28 97.46C47.1866 97.3733 47.14 97.2433 47.14 97.07V96.09L48.79 95.82L49.31 93.02C49.3433 92.8867 49.4066 92.7833 49.5 92.71C49.5933 92.6367 49.7133 92.6 49.86 92.6H51.14V95.83H53.88V97.59H51.14V103.15C51.14 103.47 51.2166 103.72 51.37 103.9C51.53 104.08 51.7466 104.17 52.02 104.17C52.1733 104.17 52.3 104.153 52.4 104.12C52.5066 104.08 52.5966 104.04 52.67 104C52.75 103.96 52.82 103.923 52.88 103.89C52.94 103.85 53 103.83 53.06 103.83C53.1333 103.83 53.1933 103.85 53.24 103.89C53.2866 103.923 53.3366 103.977 53.39 104.05L54.13 105.25C53.77 105.55 53.3566 105.777 52.89 105.93C52.4233 106.083 51.94 106.16 51.44 106.16ZM60.4714 101.62C59.758 101.653 59.158 101.717 58.6714 101.81C58.1847 101.897 57.7947 102.01 57.5014 102.15C57.208 102.29 56.998 102.453 56.8714 102.64C56.7447 102.827 56.6814 103.03 56.6814 103.25C56.6814 103.683 56.808 103.993 57.0614 104.18C57.3214 104.367 57.658 104.46 58.0714 104.46C58.578 104.46 59.0147 104.37 59.3814 104.19C59.7547 104.003 60.118 103.723 60.4714 103.35V101.62ZM54.8114 97.17C55.9914 96.09 57.4114 95.55 59.0714 95.55C59.6714 95.55 60.208 95.65 60.6814 95.85C61.1547 96.0433 61.5547 96.3167 61.8814 96.67C62.208 97.0167 62.4547 97.4333 62.6214 97.92C62.7947 98.4067 62.8814 98.94 62.8814 99.52V106H61.7614C61.528 106 61.348 105.967 61.2214 105.9C61.0947 105.827 60.9947 105.683 60.9214 105.47L60.7014 104.73C60.4414 104.963 60.188 105.17 59.9414 105.35C59.6947 105.523 59.438 105.67 59.1714 105.79C58.9047 105.91 58.618 106 58.3114 106.06C58.0114 106.127 57.678 106.16 57.3114 106.16C56.878 106.16 56.478 106.103 56.1114 105.99C55.7447 105.87 55.428 105.693 55.1614 105.46C54.8947 105.227 54.688 104.937 54.5414 104.59C54.3947 104.243 54.3214 103.84 54.3214 103.38C54.3214 103.12 54.3647 102.863 54.4514 102.61C54.538 102.35 54.678 102.103 54.8714 101.87C55.0714 101.637 55.328 101.417 55.6414 101.21C55.9547 101.003 56.338 100.823 56.7914 100.67C57.2514 100.517 57.7847 100.393 58.3914 100.3C58.998 100.2 59.6914 100.14 60.4714 100.12V99.52C60.4714 98.8333 60.3247 98.3267 60.0314 98C59.738 97.6667 59.3147 97.5 58.7614 97.5C58.3614 97.5 58.028 97.5467 57.7614 97.64C57.5014 97.7333 57.2714 97.84 57.0714 97.96C56.8714 98.0733 56.688 98.1767 56.5214 98.27C56.3614 98.3633 56.1814 98.41 55.9814 98.41C55.808 98.41 55.6614 98.3667 55.5414 98.28C55.4214 98.1867 55.3247 98.08 55.2514 97.96L54.8114 97.17ZM67.1276 97.52C67.4476 96.9067 67.8276 96.4267 68.2676 96.08C68.7076 95.7267 69.2276 95.55 69.8276 95.55C70.301 95.55 70.681 95.6533 70.9676 95.86L70.8076 97.71C70.7743 97.83 70.7243 97.9167 70.6576 97.97C70.5976 98.0167 70.5143 98.04 70.4076 98.04C70.3076 98.04 70.1576 98.0233 69.9576 97.99C69.7643 97.9567 69.5743 97.94 69.3876 97.94C69.1143 97.94 68.871 97.98 68.6576 98.06C68.4443 98.14 68.251 98.2567 68.0776 98.41C67.911 98.5567 67.761 98.7367 67.6276 98.95C67.501 99.1633 67.381 99.4067 67.2676 99.68V106H64.7976V95.74H66.2476C66.501 95.74 66.6776 95.7867 66.7776 95.88C66.8776 95.9667 66.9443 96.1267 66.9776 96.36L67.1276 97.52ZM75.2686 106.16C74.3752 106.16 73.6886 105.91 73.2086 105.41C72.7352 104.903 72.4986 104.207 72.4986 103.32V97.59H71.4486C71.3152 97.59 71.2019 97.5467 71.1086 97.46C71.0152 97.3733 70.9686 97.2433 70.9686 97.07V96.09L72.6186 95.82L73.1386 93.02C73.1719 92.8867 73.2352 92.7833 73.3286 92.71C73.4219 92.6367 73.5419 92.6 73.6886 92.6H74.9686V95.83H77.7086V97.59H74.9686V103.15C74.9686 103.47 75.0452 103.72 75.1986 103.9C75.3586 104.08 75.5752 104.17 75.8486 104.17C76.0019 104.17 76.1286 104.153 76.2286 104.12C76.3352 104.08 76.4252 104.04 76.4986 104C76.5786 103.96 76.6486 103.923 76.7086 103.89C76.7686 103.85 76.8286 103.83 76.8886 103.83C76.9619 103.83 77.0219 103.85 77.0686 103.89C77.1152 103.923 77.1652 103.977 77.2186 104.05L77.9586 105.25C77.5986 105.55 77.1852 105.777 76.7186 105.93C76.2519 106.083 75.7686 106.16 75.2686 106.16Z" fill="#FAFAFA"/>
</g>
<defs>
<filter id="filter0_d_514_125365" x="0.786133" y="0" width="117.793" height="174" filterUnits="userSpaceOnUse" color-interpolation-filters="sRGB">
<feFlood flood-opacity="0" result="BackgroundImageFix"/>
<feColorMatrix in="SourceAlpha" result="hardAlpha" type="saturate" values="1"/>
<feOffset dx="2" dy="4"/>
<feGaussianBlur stdDeviation="2"/>
<feComposite in2="hardAlpha" operator="over"/>
<feColorMatrix type="matrix" values="0 0 0 0 0.11 0 0 0 0 0.11 0 0 0 0 0.11 0 0 0 0.66 0"/>
<feBlend mode="normal" in2="BackgroundImageFix" result="effect1_dropShadow_514_125365"/>
<feBlend mode="normal" in="SourceGraphic" in2="effect1_dropShadow_514_125365" result="shape"/>
</filter>
<filter id="filter1_i_514_125365" x="29.1826" y="33.3049" width="58" height="42" filterUnits="userSpaceOnUse" color-interpolation-filters="sRGB">
<feFlood flood-opacity="0" result="BackgroundImageFix"/>
<feBlend mode="normal" in="SourceGraphic" in2="BackgroundImageFix" result="shape"/>
<feColorMatrix in="SourceAlpha" result="hardAlpha" type="saturate" values="1"/>
<feOffset dx="2" dy="2"/>
<feGaussianBlur stdDeviation="0.5"/>
<feComposite in2="hardAlpha" operator="arithmetic" k2="-1" k3="1"/>
<feColorMatrix type="matrix" values="0 0 0 0 0 0 0 0 0 0 0 0 0 0 0 0 0 0 0.22 0"/>
<feBlend mode="normal" in2="shape" result="effect1_innerShadow_514_125365"/>
</filter>
</defs>
</svg>
