<svg width="60" height="56" viewBox="0 0 60 56" fill="none" xmlns="http://www.w3.org/2000/svg">
<path d="M7.234 0.862198C-3.39169 5.3051 -1.07184 19.7316 7.12009 25.8005C6.63334 26.8982 6.2812 28.2446 5.92908 30.0052C5.15235 33.9199 4.23061 35.6805 1.83828 38.9635C-0.150155 41.6769 -0.388361 42.4432 0.471223 45.6434L3.1121 55.4923H9.62633C9.21208 53.9078 7.95892 52.6754 6.36403 52.2922L5.41126 48.916C4.68631 46.358 5.79446 45.4673 8.08323 43.6757C15.747 37.6586 18.4397 39.8127 28.7857 41.0969C28.0401 45.8609 27.4601 50.5834 26.8697 55.4923H33.4668C33.1147 54.146 32.1515 53.0586 30.8984 52.5201C32.8143 47.6318 33.7465 45.343 37.1434 41.7701C42.6323 41.2419 45.3974 37.5861 47.6551 33.371C49.2707 30.3573 50.9485 24.6095 55.3396 25.148C57.1002 25.3655 57.9908 25.6555 58.8608 23.9156C59.3164 23.0042 59.5546 22.3725 59.9068 21.254C60.0932 20.6533 60.0103 20.6326 59.565 20.2287C58.3119 19.0688 58.084 18.9031 57.183 17.4532C56.0956 15.7133 54.2832 14.6673 52.3362 14.3152C52.1395 13.1138 51.6734 10.3694 51.456 10.3073C51.1763 10.2244 50.8656 10.7837 50.8656 10.7837C46.0499 16.8629 40.4781 24.2159 32.4208 22.1032C25.4613 20.2909 22.4683 20.0527 15.5088 19.8869C4.04421 19.6177 -0.0362394 7.6353 8.17641 2.33281C9.91629 1.20396 9.19132 0.0543967 7.25467 0.862198H7.234ZM51.6216 55.5027H45.3456C42.6737 51.2773 40.1157 47.1658 37.6508 42.8575C41.1306 42.4122 43.8026 40.7448 45.9567 38.0625C45.2214 44.411 45.8738 46.7205 47.6344 52.1887C49.5607 52.3336 51.1452 53.6903 51.6113 55.5027H51.6216ZM24.7053 55.5027H18.0565L12.8058 49.3821C10.6723 46.8862 10.5377 46.0887 11.1383 42.8575C14.3902 40.7966 16.7515 40.4962 20.4695 40.9933C19.0299 43.9139 16.2234 47.4143 18.6778 50.2002L20.4177 52.1783C22.4786 52.1886 24.1978 53.5971 24.6949 55.5027H24.7053ZM56.8309 18.841C56.7481 19.2034 56.3856 19.4313 56.0127 19.3484C55.6503 19.2656 55.4224 18.9031 55.5053 18.5303C55.5881 18.1678 55.9506 17.9399 56.3234 18.0228C56.6859 18.1056 56.9138 18.4681 56.8309 18.841Z" fill="#272727"/>
</svg>
