<svg width="63" height="51" viewBox="0 0 63 51" fill="none" xmlns="http://www.w3.org/2000/svg">
<path d="M62.5645 38.2174C62.3545 37.3274 61.7145 36.7474 61.0245 36.7674C60.3145 36.7874 59.7845 37.1874 59.3545 37.5274C59.1445 37.7074 58.9745 37.8674 58.8545 37.9974L56.3445 37.6574L57.8145 35.4474C58.0145 35.3874 58.3345 35.2874 58.6645 35.1174C59.1845 34.8574 59.8945 34.4374 59.9345 33.5374C59.9345 33.0474 59.6645 32.5774 59.2145 32.1474C58.8145 31.7574 58.3945 31.5274 57.9245 31.5274C57.4445 31.5274 57.0745 31.7974 56.8345 32.0874C56.3145 32.7374 56.1145 33.6374 56.0345 34.0574L53.8945 35.6074L53.7045 34.5574C53.7945 34.2974 53.9545 33.7474 53.9645 33.1674C53.9645 32.8474 53.9145 32.4974 53.6945 32.1674C53.4745 31.8274 53.0345 31.6174 52.5845 31.6374C52.5245 31.6374 52.4645 31.6374 52.3945 31.6374C51.9645 31.6674 51.5645 31.8674 51.3345 32.1774C51.1045 32.4874 51.0445 32.8374 51.0445 33.1574C51.0545 33.9174 51.3745 34.6474 51.5045 34.9274C51.5045 35.3774 51.4245 37.0374 51.0845 37.8374C50.9245 38.2374 50.3545 39.0574 49.7145 39.6874C49.2345 40.2074 48.6445 40.6074 48.3245 40.7274C48.4245 40.1074 48.9545 38.6774 49.5045 37.2774C50.1245 35.6374 50.7645 34.0174 50.7745 32.9074C50.7745 32.5374 50.7045 32.0974 50.2745 31.8174C50.0545 31.6874 49.8345 31.6574 49.6145 31.6574C48.2845 31.6874 45.9845 32.8074 43.8045 33.8974C43.3445 34.1374 42.8845 34.3774 42.4645 34.5974C43.1645 33.5174 43.7645 32.1174 43.7845 30.5474C43.7845 30.4074 43.7845 30.2674 43.7645 30.1274C43.6245 28.3274 43.0345 26.8874 42.4545 25.8574C42.6445 25.9374 42.8545 26.0274 43.0645 26.1174C44.4245 26.6674 45.8445 27.2374 46.7345 27.2574C46.7845 27.2574 46.8145 27.2574 46.8245 27.2574C47.4845 27.1874 47.8245 26.7374 48.1445 26.2574C49.0745 24.7774 49.9445 21.8874 51.4545 19.5374C52.4445 17.9874 53.9245 16.4274 55.1545 15.2874C56.1145 14.3974 56.9045 13.7474 57.2145 13.4974C57.4745 13.4874 57.9745 13.4474 58.4945 13.3174C58.8745 13.2174 59.2745 13.0774 59.6145 12.8174C59.9545 12.5674 60.2645 12.1274 60.2545 11.5974C60.2545 11.2874 60.1645 10.9774 60.0045 10.6574C59.7145 10.0674 59.1845 9.67738 58.6245 9.69738C57.7745 9.72738 57.1945 10.3174 56.7145 10.8074C56.4445 11.1074 56.2145 11.4074 56.0845 11.5974L54.4245 11.7874L55.1345 9.21738C55.4545 8.87738 56.3745 7.83738 56.4245 6.64738C56.4545 5.93738 55.9045 5.19738 54.9745 4.95738C54.7146 4.87738 54.4745 4.83739 54.2445 4.83739C53.5945 4.81739 53.0645 5.21739 52.8445 5.68739C52.6045 6.15739 52.5645 6.65738 52.5545 7.12738C52.5545 7.82738 52.6945 8.46738 52.7345 8.67738C52.7345 8.96738 52.6545 10.2074 52.2245 11.0474C51.9845 11.5274 51.6745 11.8074 51.4145 11.9874C51.3845 12.0074 51.3445 12.0274 51.3045 12.0474L50.4345 11.0974C50.4545 10.9174 50.4745 10.6474 50.4745 10.3574C50.4745 9.92738 50.4345 9.43738 50.2745 8.98738C50.1345 8.54738 49.6845 8.02738 49.0345 8.03738C48.7645 8.03738 48.4945 8.10738 48.2145 8.24738C47.5245 8.54738 47.1345 9.16739 47.1545 9.75739C47.2045 10.8574 48.0445 11.7174 48.3845 12.0574L48.8145 14.5274C48.4845 14.3274 47.8045 13.9574 47.0645 13.9374C46.7645 13.9374 46.3945 14.0174 46.1145 14.2774C45.8345 14.5474 45.6845 14.9174 45.6445 15.3574C45.6345 15.4474 45.6345 15.5374 45.6345 15.6174C45.6245 16.1474 45.8445 16.6374 46.2145 16.8874C46.5745 17.1474 46.9745 17.1974 47.3145 17.1974C47.7945 17.1974 48.2245 17.0874 48.4245 17.0274C48.4445 17.0274 48.4645 17.0274 48.4845 17.0274C48.6345 17.0574 48.8545 17.1274 49.0045 17.2274C49.1445 17.3374 49.2045 17.4074 49.2145 17.6574C49.2145 17.7374 49.1945 17.8374 49.1645 17.9774C48.9545 18.7374 48.5545 20.0174 48.0645 21.0674C47.5845 22.1474 46.8945 22.8374 46.6745 22.7574H46.6545C46.4645 22.7474 45.7745 22.5074 45.0145 22.0974C43.7645 21.4474 42.1445 20.3874 40.8045 19.2574C39.4645 18.1474 38.4345 16.8974 38.3145 16.1574C38.2745 15.9674 38.2545 15.7774 38.2545 15.5774C38.2145 13.6674 40.0045 11.3474 40.0545 9.00739C40.0545 8.62739 40.0045 8.24739 39.8745 7.86739C38.9645 5.14739 36.9145 4.93738 36.0045 4.27738C35.0945 3.73738 33.7645 0.837383 30.6445 0.817383C30.5845 0.817383 30.5245 0.817383 30.4545 0.817383H29.6345L29.6445 1.38738L29.6245 0.837387C26.3745 0.987387 25.2345 4.08738 24.3545 4.69738C23.4945 5.42738 21.4745 5.77738 20.7645 8.55738C20.6845 8.84738 20.6545 9.13738 20.6545 9.41738C20.6545 10.7174 21.2945 11.9174 21.8645 13.0874C22.4445 14.2474 22.9645 15.3774 22.9645 16.3674C22.9645 16.4774 22.9545 16.5974 22.9445 16.7074C22.8645 17.7274 21.2145 19.6774 19.3745 21.1874C18.4645 21.9474 17.5145 22.6374 16.7145 23.1274C15.9345 23.6274 15.2245 23.9174 15.1045 23.9074H15.0845C14.8545 23.9774 14.1145 23.3074 13.5645 22.2874C13.0045 21.2874 12.5245 20.0674 12.2645 19.3274C12.2045 19.1674 12.1845 19.0474 12.1845 18.9574C12.1845 18.7074 12.3045 18.5974 12.5445 18.4674C12.6545 18.4074 12.7845 18.3574 12.8745 18.3374C12.8945 18.3374 12.9145 18.3274 12.9245 18.3274C13.1045 18.3674 13.4345 18.4174 13.8145 18.4274C14.1645 18.4274 14.5645 18.3874 14.9445 18.1574C15.3445 17.9374 15.6245 17.4374 15.6145 16.8874C15.6145 16.7474 15.5945 16.6174 15.5745 16.4674C15.4845 15.6474 14.7945 15.0974 14.1845 15.1474C13.3745 15.1774 12.6745 15.6474 12.3445 15.8774L12.5945 13.3774C12.8945 13.0374 13.6145 12.1574 13.6645 11.1174C13.6945 10.4974 13.2545 9.82739 12.4845 9.54739C12.2345 9.45739 12.0045 9.39738 11.7645 9.39738C11.2045 9.37738 10.7445 9.76738 10.5945 10.1674C10.4145 10.5674 10.3745 10.9874 10.3745 11.3774C10.3745 11.8474 10.4345 12.2874 10.4845 12.5474L9.68455 13.5674C9.40455 13.4274 9.00455 13.1574 8.69455 12.6274C8.41455 12.1674 8.23455 11.5574 8.13455 11.0674C8.05455 10.6974 8.02455 10.4074 8.01455 10.2874C8.03455 10.1174 8.09455 9.69739 8.09455 9.18739C8.09455 8.67739 8.05455 8.12738 7.83455 7.60738C7.63455 7.08738 7.10455 6.55738 6.37455 6.57738C6.09455 6.57738 5.81455 6.63739 5.50455 6.75739C4.65455 7.05739 4.15455 7.73738 4.18455 8.41738C4.20455 9.18738 4.63455 9.81738 5.00455 10.3074C5.26455 10.6374 5.52455 10.8974 5.66455 11.0274L6.55455 13.5274L4.87455 13.4674C4.73455 13.2874 4.50455 13.0274 4.21455 12.7574C3.72455 12.3074 3.12455 11.7874 2.30455 11.7574C1.72455 11.7374 1.15455 12.1674 0.904547 12.8374C0.784547 13.1174 0.714547 13.3974 0.714547 13.6674C0.714547 14.5674 1.45455 15.0574 2.04455 15.2274C2.66455 15.4274 3.31455 15.4574 3.72455 15.4574C3.79455 15.4574 3.84455 15.4574 3.89455 15.4574C4.21455 15.6874 5.06455 16.2674 6.08455 17.0874C7.39455 18.1374 8.99455 19.5774 10.0945 21.0474C11.2045 22.5274 12.0745 24.2874 12.8245 25.6974C13.1945 26.3974 13.5445 27.0174 13.8945 27.4974C14.2545 27.9574 14.6245 28.3774 15.2645 28.3974C16.1645 28.3674 17.5245 27.6874 18.8745 27.0274C19.1045 26.9174 19.3245 26.7974 19.5345 26.6874C19.0345 27.7574 18.5545 29.2374 18.5445 31.0374C18.5645 32.7874 19.3345 34.2774 20.1745 35.3974C19.7745 35.2174 19.3545 35.0374 18.9245 34.8474C16.7345 33.9274 14.3545 32.9974 13.0045 32.9774C12.7245 32.9774 12.4645 33.0074 12.1845 33.1974C11.8345 33.4474 11.7545 33.8474 11.7645 34.1574C11.7945 35.2874 12.5845 36.9074 13.3545 38.5674C13.7345 39.3874 14.1245 40.1774 14.4045 40.8374C14.6045 41.2874 14.7445 41.6974 14.8045 41.9374C14.4645 41.8374 13.8445 41.4674 13.3045 40.9774C12.6345 40.3874 12.0245 39.6474 11.8445 39.2574C11.6145 38.8174 11.4345 38.0474 11.3345 37.4074C11.2645 36.9574 11.2245 36.5674 11.2145 36.3874C11.3145 36.1174 11.5345 35.4574 11.5445 34.7674C11.5445 34.4274 11.4845 34.0574 11.2445 33.7174C11.0045 33.3674 10.5545 33.1574 10.0745 33.1574C10.0845 33.1574 10.0745 33.1574 10.0445 33.1574C9.59455 33.1574 9.17455 33.3174 8.92455 33.6274C8.67455 33.9374 8.61455 34.2974 8.61455 34.6074C8.61455 35.2674 8.86455 35.8974 8.98455 36.1774L8.87455 37.2374L6.63455 35.8474C6.56455 35.6174 6.45455 35.2574 6.28455 34.8874C6.00455 34.3074 5.60455 33.5274 4.64455 33.4674C4.15455 33.4674 3.71455 33.7474 3.31455 34.1874C2.92455 34.6174 2.69455 35.0674 2.69455 35.5274C2.69455 35.9774 2.92455 36.3474 3.18455 36.5874C3.77455 37.1074 4.56455 37.2974 4.95455 37.3774L6.58455 39.4774L4.10455 39.9974C3.98455 39.8874 3.81455 39.7374 3.60455 39.5974C3.17455 39.2974 2.63455 38.9374 1.96455 38.9274C1.24455 38.8974 0.574547 39.5374 0.424547 40.4874C0.384547 40.6874 0.364547 40.8774 0.364547 41.0574C0.354547 41.6074 0.604547 42.1174 0.994547 42.3774C1.38455 42.6374 1.81455 42.6974 2.21455 42.6974C3.00455 42.6974 3.77455 42.4474 4.03455 42.3574C4.44455 42.3374 6.43455 42.2474 8.76455 42.2474C9.14455 42.2274 10.1045 42.6774 11.1345 43.4374C12.7245 44.5774 14.6245 46.3174 16.2445 47.7774C17.0445 48.5074 17.7845 49.1674 18.3845 49.6574C18.6845 49.8974 18.9445 50.1074 19.1845 50.2574C19.4245 50.3974 19.5945 50.5174 19.8945 50.5474H19.9445H19.9945C20.4145 50.5274 20.6545 50.1674 20.7045 49.9574C20.7845 49.7274 20.7945 49.4974 20.7945 49.2274C20.7845 47.5174 19.8745 43.8474 19.3445 41.8374C19.7745 42.1074 20.2745 42.4174 20.7845 42.7174C22.2445 43.5574 23.6745 43.6574 24.9745 44.3774C26.2745 45.0574 27.1445 46.2574 28.5845 47.1074C29.3445 47.5374 30.3845 47.6974 31.4545 47.7074C32.7445 47.7074 34.0445 47.4774 34.9145 46.8974C36.2845 45.9274 37.0645 44.6774 38.3145 43.8974C39.5545 43.0874 40.9745 42.8774 42.3645 41.9274C42.8545 41.5974 43.3345 41.2474 43.7445 40.9474C43.3945 42.8274 42.8345 46.1174 42.8345 47.9574C42.8345 48.3374 42.8545 48.6574 42.9345 48.9474C42.9745 49.0874 43.0245 49.2274 43.1345 49.3774C43.2345 49.5274 43.4745 49.6774 43.7145 49.6774H43.7545C44.2145 49.6274 44.4045 49.4174 44.7445 49.1574C45.8545 48.2274 47.7345 46.1074 49.6545 44.1774C50.6045 43.2174 51.5645 42.3074 52.4145 41.6374C53.2445 40.9674 54.0045 40.5774 54.3345 40.5674C56.6645 40.3874 58.6445 40.3274 59.0545 40.3274C59.2845 40.3874 59.9245 40.5474 60.6145 40.5474C61.0345 40.5474 61.4845 40.4974 61.9045 40.2574C62.3245 40.0274 62.6545 39.5074 62.6345 38.9274C62.6345 38.6974 62.5945 38.4574 62.5245 38.2074L62.5645 38.2174Z" fill="#272727"/>
</svg>
