<svg width="77" height="41" viewBox="0 0 77 41" fill="none" xmlns="http://www.w3.org/2000/svg">
<path d="M75.7783 23.9388C75.4683 23.6588 75.0583 23.8588 74.8183 24.1188C73.4183 23.3488 72.4283 22.4988 71.4583 21.1188C70.5683 18.2488 70.7183 15.2688 69.0683 12.2088C70.3483 10.8688 70.7383 8.65882 72.3183 6.78882C70.1183 7.09882 68.8783 8.11882 67.7483 8.63882C68.2383 7.46882 68.6183 6.33882 68.8583 5.50882C68.0383 6.39882 66.7783 7.44882 65.4583 8.13882C63.8683 6.96882 62.0683 6.02882 60.1383 5.25882C53.5183 2.39882 45.8083 1.20882 38.6283 0.628818C34.6083 0.308818 30.3083 0.128821 26.2583 0.248821C24.7683 0.288821 23.4183 0.358822 22.1383 0.468822C18.9983 0.758822 16.4183 1.31882 14.2583 2.18882C10.8683 3.44882 7.4483 6.12882 5.7483 9.20882C5.7183 9.26882 5.6883 9.31882 5.6583 9.37882C5.5883 9.22882 5.50828 9.03882 5.44828 8.95882C5.44828 8.95882 5.44828 8.95882 5.44828 8.94882C5.55828 8.60882 5.59829 8.23882 5.57829 7.88882C5.55829 7.49882 5.4583 7.11882 5.3083 6.77882C5.0383 6.16882 4.56831 5.67882 3.97831 5.48882C3.30831 5.29882 3.6183 5.62882 3.8683 5.84882C4.4583 6.31882 4.99831 7.36882 4.84831 8.00882C4.42831 7.48882 3.8283 7.05882 3.1583 6.94882C3.0283 6.92882 2.89829 6.91882 2.76829 6.91882C1.29829 6.94882 0.3783 8.57882 1.2483 9.97882C1.6583 10.6488 2.40828 10.9488 3.16828 10.8888C3.80828 10.8388 4.43829 10.5388 4.85829 9.97882C4.92829 10.1188 5.0483 10.4188 5.1183 10.5988C4.1683 12.9788 3.98829 15.4788 4.42829 18.0388C4.71829 19.6388 5.27831 20.9588 5.72831 22.0188C6.08831 22.8688 6.4883 23.8588 6.6183 24.7688C6.6583 24.9488 6.66829 25.1088 6.67829 25.2488C6.59829 25.4288 6.4883 25.6188 6.3683 25.8088C5.7483 26.7688 5.1783 27.4988 4.8683 28.6488C4.5483 29.8388 4.66829 30.9788 5.07829 32.2488C5.24829 32.7788 5.41831 33.2688 5.47831 33.7688C5.60831 34.6888 5.36828 35.7288 5.41828 36.6688C5.42828 37.0388 5.53829 37.5988 5.76829 38.0388C5.89829 38.2988 6.06831 38.5288 6.28831 38.6588C6.42831 38.7488 6.62829 38.7788 6.76829 38.6788C6.76829 38.6788 6.7683 38.6788 6.7783 38.6788C6.9683 39.2188 7.25831 39.7088 7.72831 40.0388C8.34831 40.4788 9.3083 40.6388 10.1883 40.6088C10.5683 40.5988 10.9283 40.5488 11.2383 40.4788C12.1183 40.2588 12.2283 39.8088 11.8183 39.0588C11.7283 38.8988 11.6383 38.7688 11.5483 38.6488C11.1783 38.1888 10.6783 37.8588 10.1283 37.6288C9.37831 35.3588 9.16831 34.0788 9.37831 31.6788C9.93831 30.7588 10.6483 30.0088 11.5783 29.1988C12.2183 30.4488 12.7083 31.7588 13.0683 33.1088C13.2883 33.9488 13.2983 34.7688 13.4183 35.5588C13.4983 36.0788 13.6983 36.4188 13.9583 36.6588C14.3183 36.9888 14.7383 37.0088 15.0683 37.3788C15.2683 37.5988 15.3883 37.8788 15.4783 38.1988C15.6683 38.9388 16.4683 39.2988 17.5083 39.4388C18.0883 39.5188 19.8883 39.7088 20.0383 38.9988C20.1183 38.5988 19.7983 38.1688 19.5583 37.8788C19.2183 37.4788 18.8283 37.1388 18.3983 36.8588C17.3383 35.2888 16.6583 33.2488 16.3083 31.3688C16.2983 30.0188 16.4783 28.7688 16.8583 27.6088C25.0283 29.9988 34.2283 29.7788 42.3583 27.7388C42.9883 27.8588 43.5783 27.9288 44.1683 27.9488C45.0883 30.6688 45.9383 32.9388 45.5283 35.8088C45.3383 37.1188 45.5283 37.8988 46.1183 38.0988C46.5583 39.2888 47.3983 39.7488 48.4183 39.8788C50.0083 40.0788 50.3983 39.8288 50.1583 39.1188C49.9383 38.4688 49.2683 37.4088 48.8183 36.8488C48.7383 35.3288 48.8183 33.5788 49.0483 32.1888C49.1683 32.4188 49.2883 32.6588 49.4183 32.8888C49.7083 33.3988 49.9083 33.8188 50.0583 34.2088C50.2583 34.7788 50.3883 35.3388 50.4283 35.9488C50.4783 36.5688 50.3983 37.2088 50.4283 37.8388C50.4283 38.1588 50.5083 38.5488 50.7683 38.7488C50.8883 38.8588 51.0883 38.8988 51.2483 38.8288C51.2883 38.9688 51.3383 39.1288 51.4283 39.2788C51.5583 39.5188 51.7283 39.7088 51.9183 39.8588C52.5883 40.3788 54.1783 40.5788 54.9083 40.2288C55.0783 40.1588 55.2983 39.9788 55.3683 39.7288C55.4383 39.4888 55.3983 39.2888 55.3483 39.1288C55.1683 38.5888 54.6083 37.9388 54.1883 37.5888C54.1283 37.5288 54.0583 37.4788 53.9983 37.4288L53.9183 36.9188C53.4483 33.9288 53.4183 30.8188 54.2783 27.8988C58.3183 29.2088 62.5483 29.3288 68.1583 27.9688C68.5383 28.1288 68.9283 28.2888 69.3283 28.3988C69.8583 28.5488 70.4183 28.5888 70.9683 28.5788C71.3483 28.5788 71.7083 28.5288 72.0883 28.4888C72.4283 28.4488 72.7883 28.4088 73.1283 28.3988C73.3183 28.3988 73.5183 28.3988 73.7083 28.3888C74.1183 28.3288 74.4483 28.0988 74.6483 27.9288C75.3283 27.3188 75.7683 26.3188 75.9783 25.4588C76.0883 24.9988 76.2183 24.2988 75.8183 23.9388H75.7783ZM3.31831 9.91882C3.25831 9.92882 3.19829 9.93882 3.14829 9.93882C2.67829 9.96882 2.3083 9.73882 2.0883 9.41882C1.6483 8.77882 1.92829 7.94882 2.76829 7.95882C2.89829 7.95882 3.01829 7.97882 3.14829 8.01882C3.71829 8.18882 4.23828 8.68882 4.41828 9.15882C4.21828 9.43882 3.79831 9.82882 3.31831 9.91882Z" fill="#272727"/>
</svg>
